<svg width="36" height="36" viewBox="0 0 36 36" fill="none" xmlns="http://www.w3.org/2000/svg">
<rect width="36" height="36" rx="6" fill="#337AB7"/>
<path d="M9.96875 10C8.88184 10 8 10.8958 8 12C8 12.6292 8.29121 13.2208 8.7875 13.6L17.7125 20.4C18.1801 20.7542 18.8199 20.7542 19.2875 20.4L28.2125 13.6C28.7088 13.2208 29 12.6292 29 12C29 10.8958 28.1182 10 27.0312 10H9.96875ZM8 14.6667V23.3333C8 24.8042 9.17715 26 10.625 26H26.375C27.8229 26 29 24.8042 29 23.3333V14.6667L20.075 21.4667C19.1398 22.1792 17.8602 22.1792 16.925 21.4667L8 14.6667Z" fill="white"/>
</svg>
