<svg width="36" height="36" viewBox="0 0 36 36" fill="none" xmlns="http://www.w3.org/2000/svg">
<rect width="36" height="36" rx="6" fill="white"/>
<path d="M5.14286 0C2.30625 0 0 2.30625 0 5.14286V30.8571C0 33.6937 2.30625 36 5.14286 36H13.0339V24.2839H8.79107V18H13.0339V15.292C13.0339 8.29286 16.2 5.04643 23.0786 5.04643C24.3804 5.04643 26.6304 5.30357 27.5545 5.56071V11.25C27.0723 11.2018 26.2286 11.1696 25.1759 11.1696C21.8009 11.1696 20.4991 12.4473 20.4991 15.7661V18H27.217L26.0598 24.2839H20.4911V36H30.8571C33.6937 36 36 33.6937 36 30.8571V5.14286C36 2.30625 33.6937 0 30.8571 0H5.14286Z" fill="#337AB7"/>
</svg>
