<svg width="36" height="36" viewBox="0 0 36 36" fill="none" xmlns="http://www.w3.org/2000/svg">
<rect width="36" height="36" rx="8" fill="#337AB7"/>
<g clip-path="url(#clip0_8_45891)">
<path d="M17.9987 7.71875C12.2014 7.71875 7.5 12.4385 7.5 18.2607C7.5 22.9175 10.5082 26.8681 14.682 28.2633C15.207 28.3604 15.3986 28.0349 15.3986 27.7554C15.3986 27.5047 15.3894 26.8419 15.3842 25.9625C12.4639 26.5991 11.847 24.5489 11.847 24.5489C11.3706 23.3309 10.6815 23.0068 10.6815 23.0068C9.72731 22.3531 10.7524 22.3663 10.7524 22.3663C11.8063 22.4411 12.3602 23.453 12.3602 23.453C13.2973 25.0634 14.8185 24.5988 15.417 24.3284C15.5115 23.6472 15.7832 23.1826 16.0837 22.9188C13.7527 22.6524 11.301 21.7481 11.301 17.7095C11.301 16.5584 11.7105 15.6174 12.3825 14.8798C12.2736 14.6133 11.9139 13.541 12.4849 12.0907C12.4849 12.0907 13.3669 11.8072 15.3724 13.1709C16.2098 12.9373 17.1075 12.8204 18.0013 12.8165C18.8925 12.8218 19.7916 12.9373 20.6302 13.1722C22.6344 11.8085 23.5151 12.092 23.5151 12.092C24.0874 13.5436 23.7277 14.6146 23.6201 14.8811C24.2934 15.6187 24.699 16.5598 24.699 17.7108C24.699 21.7599 22.2446 22.6511 19.9057 22.9122C20.2824 23.2377 20.6184 23.8809 20.6184 24.8639C20.6184 26.2736 20.6053 27.4102 20.6053 27.7554C20.6053 28.0376 20.7943 28.3657 21.3272 28.262C25.4944 26.8655 28.5 22.9162 28.5 18.2607C28.5 12.4385 23.7986 7.71875 17.9987 7.71875Z" fill="white"/>
</g>
<defs>
<clipPath id="clip0_8_45891">
<rect width="21" height="21" fill="white" transform="translate(7.5 7.5)"/>
</clipPath>
</defs>
</svg>
