<svg width="36" height="36" viewBox="0 0 36 36" fill="none" xmlns="http://www.w3.org/2000/svg">
<rect width="36" height="36" rx="6" fill="#337AB7"/>
<path d="M11.4 9C12.1956 9 12.9587 9.31278 13.5213 9.86953C14.0839 10.4263 14.4 11.1814 14.4 11.9688C14.4 12.7561 14.0839 13.5112 13.5213 14.068C12.9587 14.6247 12.1956 14.9375 11.4 14.9375C10.6044 14.9375 9.84129 14.6247 9.27868 14.068C8.71607 13.5112 8.4 12.7561 8.4 11.9688C8.4 11.1814 8.71607 10.4263 9.27868 9.86953C9.84129 9.31278 10.6044 9 11.4 9ZM25.2 9C25.9956 9 26.7587 9.31278 27.3213 9.86953C27.8839 10.4263 28.2 11.1814 28.2 11.9688C28.2 12.7561 27.8839 13.5112 27.3213 14.068C26.7587 14.6247 25.9956 14.9375 25.2 14.9375C24.4044 14.9375 23.6413 14.6247 23.0787 14.068C22.5161 13.5112 22.2 12.7561 22.2 11.9688C22.2 11.1814 22.5161 10.4263 23.0787 9.86953C23.6413 9.31278 24.4044 9 25.2 9ZM6 20.0846C6 17.8988 7.7925 16.125 10.0013 16.125H11.6025C12.1988 16.125 12.765 16.2549 13.275 16.485C13.2263 16.7521 13.2038 17.0305 13.2038 17.3125C13.2038 18.7301 13.8338 20.0029 14.8275 20.875C14.82 20.875 14.8125 20.875 14.8013 20.875H6.79875C6.36 20.875 6 20.5188 6 20.0846ZM21.1988 20.875C21.1912 20.875 21.1838 20.875 21.1725 20.875C22.17 20.0029 22.7963 18.7301 22.7963 17.3125C22.7963 17.0305 22.77 16.7559 22.725 16.485C23.235 16.2512 23.8013 16.125 24.3975 16.125H25.9988C28.2075 16.125 30 17.8988 30 20.0846C30 20.5225 29.64 20.875 29.2013 20.875H21.2025H21.1988ZM14.4 17.3125C14.4 16.3677 14.7793 15.4615 15.4544 14.7934C16.1295 14.1253 17.0452 13.75 18 13.75C18.9548 13.75 19.8705 14.1253 20.5456 14.7934C21.2207 15.4615 21.6 16.3677 21.6 17.3125C21.6 18.2573 21.2207 19.1635 20.5456 19.8316C19.8705 20.4997 18.9548 20.875 18 20.875C17.0452 20.875 16.1295 20.4997 15.4544 19.8316C14.7793 19.1635 14.4 18.2573 14.4 17.3125ZM10.8 27.0092C10.8 24.2779 13.0387 22.0625 15.7987 22.0625H20.1975C22.9613 22.0625 25.2 24.2779 25.2 27.0092C25.2 27.5547 24.7537 28 24.1987 28H11.7975C11.2463 28 10.7963 27.5584 10.7963 27.0092H10.8Z" fill="white"/>
</svg>
