<svg width="36" height="36" viewBox="0 0 36 36" fill="none" xmlns="http://www.w3.org/2000/svg">
<rect width="36" height="36" rx="8" fill="#337AB7"/>
<g clip-path="url(#clip0_8_45890)">
<path d="M24.4018 18.6094H23.0098C23.1517 18.9979 23.2292 19.4171 23.2292 19.854V25.1152C23.2292 25.2974 23.1975 25.4722 23.1398 25.6349H25.4411C26.3008 25.6349 27.0002 24.9355 27.0002 24.0758V21.2077C27.0002 19.775 25.8346 18.6094 24.4018 18.6094Z" fill="white"/>
<path d="M12.771 19.854C12.771 19.4171 12.8486 18.9979 12.9905 18.6094H11.5984C10.1656 18.6094 9 19.775 9 21.2078V24.0759C9 24.9355 9.69936 25.6349 10.559 25.6349H12.8604C12.8028 25.4722 12.771 25.2974 12.771 25.1152V19.854Z" fill="white"/>
<path d="M19.5914 17.2549H16.409C14.9762 17.2549 13.8105 18.4205 13.8105 19.8533V25.1144C13.8105 25.4014 14.0432 25.6341 14.3302 25.6341H21.6701C21.9571 25.6341 22.1898 25.4014 22.1898 25.1144V19.8533C22.1898 18.4205 21.0241 17.2549 19.5914 17.2549Z" fill="white"/>
<path d="M17.9999 10.3652C16.2768 10.3652 14.875 11.7671 14.875 13.4902C14.875 14.6589 15.5201 15.6797 16.4727 16.2156C16.9246 16.4698 17.4456 16.6151 17.9999 16.6151C18.5542 16.6151 19.0752 16.4698 19.5271 16.2156C20.4798 15.6797 21.1248 14.6589 21.1248 13.4902C21.1248 11.7671 19.723 10.3652 17.9999 10.3652Z" fill="white"/>
<path d="M12.5128 13.2783C11.2241 13.2783 10.1758 14.3267 10.1758 15.6153C10.1758 16.904 11.2241 17.9524 12.5128 17.9524C12.8397 17.9524 13.151 17.8846 13.4337 17.7629C13.9226 17.5524 14.3257 17.1799 14.5751 16.7132C14.7502 16.3856 14.8498 16.0119 14.8498 15.6153C14.8498 14.3267 13.8015 13.2783 12.5128 13.2783Z" fill="white"/>
<path d="M23.4874 13.2783C22.1988 13.2783 21.1504 14.3267 21.1504 15.6153C21.1504 16.012 21.25 16.3856 21.4251 16.7132C21.6745 17.1799 22.0776 17.5525 22.5665 17.7629C22.8492 17.8846 23.1605 17.9524 23.4874 17.9524C24.7761 17.9524 25.8244 16.904 25.8244 15.6153C25.8244 14.3267 24.7761 13.2783 23.4874 13.2783Z" fill="white"/>
</g>
<defs>
<clipPath id="clip0_8_45890">
<rect width="18" height="18" fill="white" transform="translate(9 9)"/>
</clipPath>
</defs>
</svg>
