<svg width="36" height="36" viewBox="0 0 36 36" fill="none" xmlns="http://www.w3.org/2000/svg">
<rect width="36" height="36" rx="8" fill="#337AB7"/>
<path fill-rule="evenodd" clip-rule="evenodd" d="M10.9687 12.9375C12.056 12.9375 12.9375 12.056 12.9375 10.9687C12.9375 9.88143 12.056 9 10.9687 9C9.88143 9 9 9.88143 9 10.9687C9 12.056 9.88143 12.9375 10.9687 12.9375ZM9 14.6251H13.0252V27H9V14.6251ZM23.9894 14.7702C23.9752 14.7657 23.9611 14.7611 23.9471 14.7565C23.9191 14.7472 23.8912 14.738 23.8612 14.7297C23.8072 14.7173 23.7532 14.7072 23.698 14.6982C23.4843 14.6555 23.2503 14.6251 22.9758 14.6251C20.6291 14.6251 19.1407 16.3317 18.6502 16.991V14.6251H14.625V27H18.6502V20.2501C18.6502 20.2501 21.6922 16.0133 22.9758 19.1251V27H26.9999V18.6492C26.9999 16.7795 25.7185 15.2213 23.9894 14.7702Z" fill="white"/>
</svg>
