<svg width="400px" height="400px" viewBox="0 0 400 400" role="img" xmlns="http://www.w3.org/2000/svg"><title>ResearchGate icon</title><path d="M326.433 0q-20.433 0.017 -34.55 9.417 -14.1 9.417 -20.217 28a50 50 0 0 0 -1.867 7.283 133.333 133.333 0 0 0 -1.3 8.833 150 150 0 0 0 -0.833 12.117q-0.233 7.05 -0.217 16.933a518.683 518.717 0 0 0 0.233 16.95 150 150 0 0 0 0.833 12.117 133.333 133.333 0 0 0 1.283 8.833h-0.083a50 50 0 0 0 1.883 7.3q6.133 18.567 20.233 28 14.117 9.4 34.583 9.4c13.333 0 25.6 -3.55 35.083 -10.05 9.5 -6.5 15.667 -15.267 19.583 -27.5 1.267 -3.917 2.25 -9.3 2.95 -15.5a183.333 183.333 0 0 0 0.717 -20.117v-13.667q0 -2.367 -2.333 -2.367h-51.067q-2.333 0 -2.333 2.35v15.933q0 2.333 2.333 2.333h27.767q1.4 0.017 1.4 1.433c0 6 0 10.333 -0.6 14.417 -0.633 4.067 -1.667 7.45 -2.45 10.1 -1.8 6.417 -5.8 11.067 -10.633 14.6s-12.3 5.833 -20.45 5.833c-9.083 0 -15.017 -2.5 -20.167 -5.883 -5.1 -3.383 -8.617 -7.567 -11.167 -15.25a51.667 51.667 0 0 1 -2.45 -12.7 289.433 289.45 0 0 1 -0.567 -10.933q-0.25 -6.5 -0.233 -15.65a440.017 440.05 0 0 1 0.233 -15.633 266.667 266.667 0 0 1 0.583 -10.933 53.333 53.333 0 0 1 2.467 -12.667 31.667 31.667 0 0 1 12.367 -16.833c5.733 -4.067 9.883 -5.867 18.95 -5.867 8.467 0 13.583 1.6 19.067 5.05 5.5 3.45 8.8 8.2 12.733 15.417q1.15 2.35 3.3 1.167l17.4 -7.167q1.883 -1.2 0.7 -3.317a60 60 0 0 0 -7.767 -12.367 50 50 0 0 0 -11.317 -10.117 55 55 0 0 0 -15.05 -6.833A66.667 66.667 0 0 0 326.433 0M136.95 97.267c-28.167 0 -50.6 1.433 -71.617 1.433 -19.1 0 -38.183 0 -50.117 -0.483v13.85l18.133 3.333c12.4 2.4 19.567 8.133 19.567 37.733v188.133c0 29.617 -7.167 35.333 -19.567 37.717l-18.133 3.333v13.867c12.883 -0.483 35.333 -1.433 57.75 -1.433 21.5 0 49.183 0.95 61.117 1.433v-13.85l-24.833 -3.333c-12.883 -1.917 -19.567 -8.117 -19.567 -37.733v-79.733c11.467 0.95 21.5 0.95 36.767 0.95 29.133 52.05 56.833 91.2 72.583 109.333 14.333 17.2 36.283 28.183 63.983 28.183 8.117 0 16.717 -1.433 21.967 -3.833v-12.4c-17.183 0 -34.383 -11.933 -46.8 -25.3 -21 -22.933 -49.167 -59.7 -72.583 -101.233 38.667 -9.083 67.333 -45.367 67.333 -81.667 0 -53.467 -41.533 -78.3 -95.967 -78.3zm-8.583 21.5c40.1 0 63.983 21 63.983 59.2 0 37.717 -25.783 63.033 -68.283 63.033 -16.233 0 -23.4 -0.5 -34.383 -1.433v-119.833c11 -0.983 25.783 -0.983 38.667 -0.983z"/></svg>