<svg width="36" height="36" viewBox="0 0 36 36" fill="none" xmlns="http://www.w3.org/2000/svg">
<rect width="36" height="36" rx="6" fill="#337AB7"/>
<g clip-path="url(#clip0_9_2363)">
<path d="M26.9844 9.15918H9.01565C8.1786 9.15918 7.5 9.83778 7.5 10.6748V13.4431H28.5V10.6748C28.5 9.83778 27.8214 9.15918 26.9844 9.15918ZM10.1285 11.9545C9.76505 11.9545 9.47039 11.6598 9.47039 11.2964C9.47039 10.9329 9.76501 10.6383 10.1285 10.6383C10.4919 10.6383 10.7866 10.9329 10.7866 11.2964C10.7866 11.6598 10.4919 11.9545 10.1285 11.9545ZM12.8043 11.9545C12.4409 11.9545 12.1462 11.6598 12.1462 11.2964C12.1462 10.9329 12.4409 10.6383 12.8043 10.6383C13.1678 10.6383 13.4624 10.9329 13.4624 11.2964C13.4624 11.6598 13.1678 11.9545 12.8043 11.9545ZM15.6015 11.9545C15.238 11.9545 14.9434 11.6598 14.9434 11.2964C14.9434 10.9329 15.238 10.6383 15.6015 10.6383C15.9649 10.6383 16.2596 10.9329 16.2596 11.2964C16.2596 11.6598 15.965 11.9545 15.6015 11.9545Z" fill="white"/>
<path d="M7.5 14.751V25.323C7.5 26.16 8.1786 26.8386 9.01565 26.8386H26.9844C27.8214 26.8386 28.5 26.16 28.5 25.323V14.751H7.5Z" fill="white"/>
</g>
<defs>
<clipPath id="clip0_9_2363">
<rect width="21" height="21" fill="white" transform="translate(7.5 7.49902)"/>
</clipPath>
</defs>
</svg>
