<svg width="36" height="36" viewBox="0 0 36 36" fill="none" xmlns="http://www.w3.org/2000/svg">
<rect width="36" height="36" rx="6" fill="white"/>
<path d="M5.14286 0C2.30625 0 0 2.30625 0 5.14286V30.8571C0 33.6937 2.30625 36 5.14286 36H30.8571C33.6937 36 36 33.6937 36 30.8571V5.14286C36 2.30625 33.6937 0 30.8571 0H5.14286ZM29.017 6.75L20.6759 16.2804L30.4875 29.25H22.8054L16.7946 21.383L9.90804 29.25H6.09107L15.0107 19.0527L5.60089 6.75H13.4759L18.9161 13.942L25.2 6.75H29.017ZM25.9795 26.9679L12.3268 8.91161H10.0527L23.858 26.9679H25.9714H25.9795Z" fill="#337AB7"/>
</svg>
