<svg width="585" height="377" viewBox="0 0 585 377" fill="none" xmlns="http://www.w3.org/2000/svg">
<path d="M0 323.739H589V323.445H0V323.739Z" fill="#EEEEEE"/>
<path d="M490.965 342.408H529.983V342.702H490.965V342.408Z" fill="#EEEEEE"/>
<path d="M379.938 345.605H390.178V345.899H379.938V345.605Z" fill="#EEEEEE"/>
<path d="M467.18 331.761H489.788V331.466H467.18V331.761Z" fill="#EEEEEE"/>
<path d="M61.7969 333.741H112.679V333.447H61.7969V333.741Z" fill="#EEEEEE"/>
<path d="M123.168 333.741H130.628V333.447H123.168V333.741Z" fill="#EEEEEE"/>
<path d="M154.871 338.716H265.221V338.421H154.871V338.716Z" fill="#EEEEEE"/>
<path d="M344.349 68.6183C359.821 68.6183 372.362 81.1612 372.362 96.6353C372.362 112.107 359.821 124.652 344.349 124.652C328.878 124.652 316.336 112.107 316.336 96.6353C316.336 81.1612 328.878 68.6183 344.349 68.6183ZM279.23 86.2886V106.983L289.885 107.987C291.323 114.924 294.072 121.373 297.831 127.103L290.987 135.37L305.619 150.005L313.886 143.159C319.614 146.921 326.063 149.671 332.999 151.107L334.003 161.764H354.696L355.699 151.107C362.635 149.669 369.085 146.921 374.812 143.159L383.078 150.005L397.711 135.37L390.868 127.102C394.626 121.373 397.376 114.924 398.814 107.987L409.469 106.983V86.2886L398.814 85.2836C397.376 78.3465 394.626 71.896 390.868 66.1677L397.711 57.8993L383.078 43.2651L374.812 50.1091C369.085 46.3508 362.635 43.6009 355.699 42.1624L354.696 31.5058H334.003L332.999 42.1624C326.063 43.6009 319.614 46.3508 313.886 50.1091L305.619 43.2651L290.987 57.8993L297.831 66.1665C294.072 71.896 291.323 78.3465 289.885 85.2836L279.23 86.2886Z" fill="#F4F4F4"/>
<path d="M202.258 145.47C202.258 134.353 211.269 125.341 222.385 125.341C233.5 125.341 242.512 134.353 242.512 145.47C242.512 156.588 233.5 165.6 222.385 165.6C211.269 165.6 202.258 156.588 202.258 145.47ZM244.273 178.897L250.212 183.817L260.725 173.301L255.808 167.36C258.509 163.245 260.484 158.61 261.516 153.626L269.172 152.907V138.036L261.516 137.315C260.484 132.329 258.509 127.696 255.808 123.581L260.725 117.639L250.212 107.124L244.273 112.042C240.157 109.342 235.524 107.367 230.54 106.332L229.819 98.6739L214.951 98.6763L214.23 106.332C209.246 107.365 204.612 109.342 200.497 112.042L194.558 107.124L184.044 117.639L188.962 123.581C186.261 127.695 184.285 132.329 183.251 137.315L175.598 138.036V152.907L183.251 153.626C184.287 158.61 186.261 163.245 188.962 167.36L184.044 173.301L194.558 183.817L200.497 178.897C204.612 181.599 209.246 183.574 214.23 184.609L214.951 192.265H229.819L230.54 184.608C235.524 183.574 240.157 181.599 244.273 178.897Z" fill="#F8F8F9"/>
<path d="M276.679 233.024C276.679 219.788 287.407 209.057 300.64 209.057C313.875 209.057 324.603 219.788 324.603 233.024C324.603 246.261 313.875 256.989 300.64 256.989C287.407 256.989 276.679 246.261 276.679 233.024ZM310.349 279.622C316.283 278.392 321.798 276.038 326.7 272.823L333.77 278.678L346.288 266.16L340.433 259.086C343.648 254.187 346 248.669 347.23 242.734L356.344 241.875V224.172L347.23 223.313C346 217.379 343.648 211.863 340.433 206.963L346.288 199.889L333.77 187.372L326.7 193.225C321.798 190.011 316.283 187.658 310.349 186.427L309.492 177.313H291.789L290.931 186.427C284.998 187.658 279.482 190.011 274.582 193.225L267.51 187.372L254.994 199.889L260.848 206.963C257.633 211.863 255.282 217.379 254.052 223.313L244.938 224.172V241.875L254.052 242.734C255.282 248.669 257.633 254.187 260.848 259.087L254.994 266.16L267.51 278.678L274.582 272.823C279.482 276.038 284.998 278.392 290.931 279.622L291.789 288.736H309.492L310.349 279.622Z" fill="#FCFDFD"/>
<path d="M159.223 119.604L105.031 112.195L112.439 57.9953L166.631 65.4049L159.223 119.604Z" fill="#F8F8F9"/>
<path d="M119.953 76.3658L155.237 81.1904L155.716 77.6877L120.431 72.8631" fill="#E3E3E2"/>
<path d="M118.453 87.358L153.737 92.1826L154.215 88.6799L118.931 83.8565" fill="#E3E3E2"/>
<path d="M116.898 98.7239L137.676 101.564L138.154 98.0629L117.377 95.2211" fill="#E3E3E2"/>
<path d="M470.249 59.8384L415.555 60.0352L415.359 5.33131L470.054 5.13572L470.249 59.8384Z" fill="#F4F4F4"/>
<path d="M425.353 22.4785L460.965 22.3513L460.952 18.8167L425.34 18.944" fill="#E3E3E2"/>
<path d="M425.392 33.5732L461.003 33.446L460.991 29.9115L425.379 30.0387" fill="#E3E3E2"/>
<path d="M425.431 45.0439L446.402 44.9686L446.389 41.434L425.418 41.5094" fill="#E3E3E2"/>
<path d="M509.754 192.847L455.492 199.723L448.617 145.455L502.878 138.578L509.754 192.847Z" fill="#F8F8F9"/>
<path d="M460.628 161.252L495.957 156.775L495.513 153.269L460.184 157.745L460.628 161.252Z" fill="#E3E3E2"/>
<path d="M462.022 172.259L497.352 167.782L496.908 164.274L461.578 168.753L462.022 172.259Z" fill="#E3E3E2"/>
<path d="M463.464 183.64L484.268 181.002L483.824 177.495L463.02 180.132L463.464 183.64Z" fill="#E3E3E2"/>
<path d="M212.164 281.361L157.469 281.556L157.273 226.852L211.968 226.656L212.164 281.361Z" fill="#F4F4F4"/>
<path d="M167.267 243.999L202.879 243.872L202.866 240.337L167.254 240.464L167.267 243.999Z" fill="#E3E3E2"/>
<path d="M167.306 255.094L202.917 254.967L202.905 251.432L167.293 251.559L167.306 255.094Z" fill="#E3E3E2"/>
<path d="M167.349 266.564L188.32 266.49L188.308 262.956L167.336 263.03L167.349 266.564Z" fill="#E3E3E2"/>
<path d="M453.734 308.114L399.039 308.31L398.844 253.606L453.538 253.41L453.734 308.114Z" fill="#F4F4F4"/>
<path d="M408.837 270.753L444.448 270.627L444.436 267.092L408.824 267.218L408.837 270.753Z" fill="#E3E3E2"/>
<path d="M408.876 281.848L444.487 281.721L444.474 278.186L408.863 278.313L408.876 281.848Z" fill="#E3E3E2"/>
<path d="M408.919 293.318L429.89 293.244L429.877 289.71L408.906 289.784L408.919 293.318Z" fill="#E3E3E2"/>
<path d="M234.882 55.0055L181.487 66.8662L169.629 13.4642L223.023 1.60352L234.882 55.0055Z" fill="#F4F4F4"/>
<path d="M183.052 28.084L217.816 20.361L217.049 16.9114L182.285 24.6331" fill="#E3E3E2"/>
<path d="M185.457 38.915L220.222 31.1921L219.455 27.7424L184.691 35.4642" fill="#E3E3E2"/>
<path d="M187.941 50.1133L208.414 45.5655L207.647 42.1147L187.176 46.6624" fill="#E3E3E2"/>
<path d="M116.906 63.8896H115.926L114.578 57.6524H118.253L116.906 63.8896Z" fill="#E3E3E2"/>
<path d="M121.391 58.429C121.391 60.5934 119.164 62.3477 116.415 62.3477C113.666 62.3477 111.438 60.5934 111.438 58.429C111.438 56.2647 113.666 54.5104 116.415 54.5104C119.164 54.5104 121.391 56.2647 121.391 58.429Z" fill="#E9E9E8"/>
<path d="M216.839 9.37891H215.859L214.512 3.14165H218.187L216.839 9.37891Z" fill="#E3E3E2"/>
<path d="M221.325 3.91948C221.325 6.08379 219.096 7.83691 216.348 7.83691C213.6 7.83691 211.371 6.08379 211.371 3.91948C211.371 1.75517 213.6 -0.000311375 216.348 -0.000311375C219.096 -0.000311375 221.325 1.75517 221.325 3.91948Z" fill="#E9E9E8"/>
<path d="M441.91 10.9512H440.93L439.582 4.71274H443.257L441.91 10.9512Z" fill="#E3E3E2"/>
<path d="M446.399 5.49057C446.399 7.65488 444.172 9.40918 441.422 9.40918C438.674 9.40918 436.445 7.65488 436.445 5.49057C436.445 3.32626 438.674 1.57195 441.422 1.57195C444.172 1.57195 446.399 3.32626 446.399 5.49057Z" fill="#E9E9E8"/>
<path d="M497.828 146.43H496.848L495.5 140.192H499.175L497.828 146.43Z" fill="#E3E3E2"/>
<path d="M502.315 140.968C502.315 143.132 500.086 144.887 497.336 144.887C494.588 144.887 492.359 143.132 492.359 140.968C492.359 138.805 494.588 137.05 497.336 137.05C500.086 137.05 502.315 138.805 502.315 140.968Z" fill="#E9E9E8"/>
<path d="M427.125 259.666H426.144L424.797 253.429H428.472L427.125 259.666Z" fill="#E3E3E2"/>
<path d="M431.614 254.205C431.614 256.37 429.385 258.124 426.637 258.124C423.889 258.124 421.66 256.37 421.66 254.205C421.66 252.041 423.889 250.287 426.637 250.287C429.385 250.287 431.614 252.041 431.614 254.205Z" fill="#E9E9E8"/>
<path d="M183.156 231.626H182.176L180.828 225.389H184.503L183.156 231.626Z" fill="#E3E3E2"/>
<path d="M187.647 226.165C187.647 228.329 185.418 230.085 182.668 230.085C179.92 230.085 177.691 228.329 177.691 226.165C177.691 224.002 179.92 222.247 182.668 222.247C185.418 222.247 187.647 224.002 187.647 226.165Z" fill="#E9E9E8"/>
<path d="M522.9 363.314C522.9 370.682 420.642 376.654 294.499 376.654C168.356 376.654 66.0977 370.682 66.0977 363.314C66.0977 355.946 168.356 349.972 294.499 349.972C420.642 349.972 522.9 355.946 522.9 363.314Z" fill="#F8F8F9"/>
<path d="M171.598 166.089C171.598 172.55 175.648 177.807 180.625 177.807C185.602 177.807 189.651 172.55 189.651 166.089C189.651 159.629 185.602 154.372 180.625 154.372C175.648 154.372 171.598 159.629 171.598 166.089ZM169.242 166.089C169.242 158.328 174.349 152.015 180.625 152.015C186.902 152.015 192.007 158.328 192.007 166.089C192.007 173.849 186.902 180.163 180.625 180.163C174.349 180.163 169.242 173.849 169.242 166.089Z" fill="#1D2A30"/>
<path d="M149.2 166.089C149.2 172.55 153.25 177.807 158.227 177.807C163.204 177.807 167.253 172.55 167.253 166.089C167.253 159.629 163.204 154.372 158.227 154.372C153.25 154.372 149.2 159.629 149.2 166.089ZM146.844 166.089C146.844 158.328 151.95 152.015 158.227 152.015C164.503 152.015 169.609 158.328 169.609 166.089C169.609 173.849 164.503 180.163 158.227 180.163C151.95 180.163 146.844 173.849 146.844 166.089Z" fill="#1D2A30"/>
<path d="M126.805 166.089C126.805 172.55 130.854 177.807 135.831 177.807C140.808 177.807 144.857 172.55 144.857 166.089C144.857 159.629 140.808 154.372 135.831 154.372C130.854 154.372 126.805 159.629 126.805 166.089ZM124.449 166.089C124.449 158.328 129.555 152.015 135.831 152.015C142.107 152.015 147.213 158.328 147.213 166.089C147.213 173.849 142.107 180.163 135.831 180.163C129.555 180.163 124.449 173.849 124.449 166.089Z" fill="#1D2A30"/>
<path d="M104.411 166.089C104.411 172.55 108.46 177.807 113.437 177.807C118.414 177.807 122.463 172.55 122.463 166.089C122.463 159.629 118.414 154.372 113.437 154.372C108.46 154.372 104.411 159.629 104.411 166.089ZM102.055 166.089C102.055 158.328 107.161 152.015 113.437 152.015C119.714 152.015 124.819 158.328 124.819 166.089C124.819 173.849 119.714 180.163 113.437 180.163C107.161 180.163 102.055 173.849 102.055 166.089Z" fill="#1D2A30"/>
<path d="M193.993 166.089C193.993 172.55 198.043 177.807 203.02 177.807C207.997 177.807 212.046 172.55 212.046 166.089C212.046 159.629 207.997 154.372 203.02 154.372C198.043 154.372 193.993 159.629 193.993 166.089ZM191.637 166.089C191.637 158.328 196.743 152.015 203.02 152.015C209.295 152.015 214.402 158.328 214.402 166.089C214.402 173.849 209.295 180.163 203.02 180.163C196.743 180.163 191.637 173.849 191.637 166.089Z" fill="#1D2A30"/>
<path d="M87.2305 360.425H227.513V166.358H87.2305V360.425Z" fill="#1D2A30"/>
<path d="M99.8815 360.425H97.3152L96.7262 190.358L96.1372 360.425H91.4423L90.8533 179.06L90.2643 360.425H87.2305V166.358H122.457H99.8815V360.425ZM93.2009 166.505L93.7899 302.853L94.3789 166.505H93.2009Z" fill="#BDC1C2"/>
<path d="M148.945 360.425H99.8828V166.358H122.458C122.424 168.294 122.016 170.175 121.292 171.838C120.929 171.672 120.536 171.581 120.126 171.581C118.301 171.581 116.822 173.374 116.822 175.587C116.822 177.798 118.301 179.591 120.126 179.591C121.95 179.591 123.429 177.798 123.429 175.587C123.429 174.892 123.283 174.239 123.027 173.67C124.144 171.5 124.774 168.964 124.814 166.358H144.855C144.82 168.294 144.413 170.175 143.688 171.838C143.326 171.672 142.932 171.581 142.522 171.581C140.697 171.581 139.219 173.374 139.219 175.587C139.219 177.798 140.697 179.591 142.522 179.591C144.346 179.591 145.825 177.798 145.825 175.587C145.825 174.892 145.679 174.239 145.424 173.67C146.54 171.5 147.171 168.964 147.211 166.358H167.251C167.215 168.294 166.808 170.175 166.085 171.838C165.722 171.672 165.328 171.581 164.918 171.581C163.094 171.581 161.615 173.374 161.615 175.587C161.615 177.798 163.094 179.591 164.918 179.591C166.742 179.591 168.221 177.798 168.221 175.587C168.221 174.892 168.075 174.239 167.819 173.67C168.936 171.5 169.567 168.964 169.607 166.358H189.647C189.613 168.294 189.205 170.175 188.481 171.838C188.118 171.672 187.724 171.581 187.314 171.581C185.49 171.581 184.01 173.374 184.01 175.587C184.01 177.798 185.49 179.591 187.314 179.591C189.138 179.591 190.618 177.798 190.618 175.587C190.618 174.892 190.471 174.239 190.216 173.67C191.333 171.5 191.963 168.964 192.003 166.358H212.043C212.008 168.294 211.6 170.175 210.877 171.838C210.514 171.672 210.121 171.581 209.709 171.581C207.886 171.581 206.406 173.374 206.406 175.587C206.406 177.798 207.886 179.591 209.709 179.591C211.534 179.591 213.014 177.798 213.014 175.587C213.014 174.892 212.868 174.239 212.611 173.67C213.729 171.5 214.359 168.964 214.399 166.358H227.514V192.265V270.604V270.899V271.119H213.876V270.146H200.712V223.482H190.84V270.146H184.719V235.734H174.848V270.146H168.726V247.986H158.854V270.146H152.733V243.392H142.86V270.146H136.741V255.643H126.868V270.146H113.31V274.808H150.945C147.478 277.648 145.23 281.889 145.195 286.678C145.195 286.72 145.194 286.763 145.194 286.806C145.195 287.071 145.201 287.334 145.215 287.596H113.433C112.782 287.596 112.255 288.123 112.255 288.774C112.255 289.425 112.782 289.952 113.433 289.952H145.513C146.139 293.016 147.658 295.751 149.786 297.88C149.869 297.963 149.954 298.045 150.039 298.127H121.554C120.904 298.127 120.376 298.654 120.376 299.306C120.376 299.956 120.904 300.484 121.554 300.484H153.227C154.723 301.32 156.37 301.92 158.115 302.23H154.415C153.896 302.23 153.474 302.652 153.474 303.172V304.03H113.433C112.782 304.03 112.255 304.557 112.255 305.208C112.255 305.86 112.782 306.387 113.433 306.387H157.416V309.935H113.563C112.913 309.935 112.385 310.462 112.385 311.114C112.385 311.765 112.913 312.292 113.563 312.292H157.416V315.839H113.693C113.042 315.839 112.515 316.366 112.515 317.017C112.515 317.668 113.042 318.195 113.693 318.195H157.416V326.422H121.554C120.904 326.422 120.376 326.948 120.376 327.6C120.376 328.251 120.904 328.778 121.554 328.778H157.416V330.689H154.415C153.896 330.689 153.474 331.111 153.474 331.63V332.325H113.433C112.782 332.325 112.255 332.852 112.255 333.503C112.255 334.155 112.782 334.682 113.433 334.682H153.626C151.678 335.525 149.922 336.737 148.462 338.23H113.563C112.913 338.23 112.385 338.757 112.385 339.409C112.385 340.059 112.913 340.587 113.563 340.587H146.559C145.836 341.681 145.248 342.871 144.82 344.133H113.693C113.042 344.133 112.515 344.661 112.515 345.311C112.515 345.963 113.042 346.489 113.693 346.489H144.229C144.098 347.274 144.026 348.079 144.021 348.9C144.021 348.944 144.021 348.986 144.021 349.028C144.024 353.357 145.778 357.269 148.612 360.102C148.722 360.212 148.833 360.319 148.945 360.425ZM113.433 189.746C112.782 189.746 112.255 190.274 112.255 190.924C112.255 191.576 112.782 192.102 113.433 192.102H170.344C170.994 192.102 171.522 191.576 171.522 190.924C171.522 190.274 170.994 189.746 170.344 189.746H113.433Z" fill="#E8E9E9"/>
<path d="M91.4436 360.425H90.2656L90.8546 179.06L91.4436 360.425Z" fill="#93989A"/>
<path d="M97.3186 360.425H96.1406L96.7296 190.358L97.3186 360.425Z" fill="#93989A"/>
<path d="M93.7921 302.854L93.2031 166.505H94.3811L93.7921 302.854Z" fill="#93989A"/>
<path d="M206.406 175.587C206.406 177.799 207.886 179.592 209.709 179.592C211.534 179.592 213.014 177.799 213.014 175.587C213.014 173.375 211.534 171.581 209.709 171.581C207.886 171.581 206.406 173.375 206.406 175.587Z" fill="#1D2A30"/>
<path d="M209.912 176.773C210.243 176.773 210.571 176.634 210.805 176.365C213.09 173.716 214.4 169.971 214.4 166.089C214.4 158.328 209.293 152.015 203.018 152.015C198.393 152.015 194.263 155.423 192.499 160.695C192.292 161.312 192.625 161.98 193.242 162.186C193.859 162.393 194.527 162.059 194.733 161.443C196.17 157.147 199.423 154.372 203.018 154.372C207.995 154.372 212.044 159.629 212.044 166.089C212.044 169.415 210.941 172.599 209.021 174.825C208.596 175.317 208.65 176.062 209.143 176.487C209.366 176.679 209.64 176.773 209.912 176.773Z" fill="#1D2A30"/>
<path d="M209.912 176.773C209.64 176.773 209.367 176.679 209.143 176.487C208.874 176.255 208.735 175.926 208.735 175.596C208.734 175.323 208.828 175.049 209.021 174.825C210.942 172.599 212.044 169.415 212.044 166.089C212.044 160.235 208.719 155.37 204.392 154.507C203.944 154.418 203.485 154.372 203.018 154.372C199.423 154.372 196.171 157.147 194.733 161.443C194.569 161.935 194.109 162.248 193.616 162.248C193.492 162.248 193.366 162.228 193.242 162.186C192.747 162.022 192.436 161.56 192.438 161.066C192.438 160.942 192.458 160.817 192.499 160.695C194.263 155.423 198.393 152.015 203.018 152.015C209.294 152.015 214.4 158.328 214.4 166.089C214.4 169.971 213.09 173.716 210.805 176.365C210.572 176.634 210.243 176.773 209.912 176.773Z" fill="#758288"/>
<path d="M184.012 175.587C184.012 177.799 185.491 179.592 187.316 179.592C189.14 179.592 190.619 177.799 190.619 175.587C190.619 173.375 189.14 171.581 187.316 171.581C185.491 171.581 184.012 173.375 184.012 175.587Z" fill="#1D2A30"/>
<path d="M187.518 176.773C187.848 176.773 188.178 176.634 188.41 176.365C190.696 173.716 192.005 169.971 192.005 166.089C192.005 158.328 186.9 152.015 180.624 152.015C175.999 152.015 171.869 155.423 170.104 160.695C169.898 161.312 170.23 161.98 170.847 162.186C171.465 162.393 172.133 162.059 172.339 161.443C173.777 157.147 177.028 154.372 180.624 154.372C185.601 154.372 189.649 159.629 189.649 166.089C189.649 169.415 188.548 172.599 186.627 174.825C186.201 175.317 186.257 176.062 186.749 176.487C186.972 176.679 187.245 176.773 187.518 176.773Z" fill="#1D2A30"/>
<path d="M187.519 176.773C187.245 176.773 186.972 176.679 186.749 176.487C186.48 176.255 186.342 175.926 186.341 175.596C186.341 175.323 186.434 175.049 186.627 174.825C188.548 172.599 189.65 169.415 189.65 166.089C189.65 159.629 185.601 154.372 180.624 154.372C177.029 154.372 173.777 157.147 172.339 161.443C172.174 161.935 171.715 162.248 171.221 162.248C171.097 162.248 170.971 162.228 170.848 162.186C170.354 162.022 170.042 161.56 170.043 161.066C170.044 160.942 170.063 160.817 170.104 160.695C171.869 155.423 175.999 152.015 180.624 152.015C186.9 152.015 192.006 158.328 192.006 166.089C192.006 169.971 190.696 173.716 188.41 176.365C188.178 176.634 187.848 176.773 187.519 176.773Z" fill="#758288"/>
<path d="M161.617 175.587C161.617 177.799 163.096 179.592 164.92 179.592C166.744 179.592 168.223 177.799 168.223 175.587C168.223 173.375 166.744 171.581 164.92 171.581C163.096 171.581 161.617 173.375 161.617 175.587Z" fill="#1D2A30"/>
<path d="M165.123 176.773C165.454 176.773 165.782 176.634 166.016 176.365C168.301 173.716 169.611 169.971 169.611 166.089C169.611 158.328 164.505 152.015 158.229 152.015C153.604 152.015 149.474 155.423 147.71 160.695C147.503 161.312 147.836 161.98 148.453 162.186C149.07 162.393 149.738 162.059 149.944 161.443C151.381 157.147 154.634 154.372 158.229 154.372C163.206 154.372 167.255 159.629 167.255 166.089C167.255 169.415 166.152 172.599 164.232 174.825C163.807 175.317 163.862 176.062 164.355 176.487C164.576 176.679 164.851 176.773 165.123 176.773Z" fill="#1D2A30"/>
<path d="M165.123 176.773C164.851 176.773 164.576 176.679 164.355 176.487C164.085 176.255 163.947 175.926 163.946 175.596C163.946 175.323 164.039 175.049 164.232 174.825C166.152 172.599 167.255 169.415 167.255 166.089C167.255 159.629 163.206 154.372 158.229 154.372C154.634 154.372 151.382 157.147 149.944 161.443C149.779 161.935 149.32 162.248 148.826 162.248C148.703 162.248 148.577 162.228 148.453 162.186C147.958 162.022 147.647 161.56 147.648 161.066C147.648 160.942 147.668 160.817 147.71 160.695C149.474 155.423 153.604 152.015 158.229 152.015C164.506 152.015 169.611 158.328 169.611 166.089C169.611 169.971 168.301 173.716 166.016 176.365C165.783 176.634 165.454 176.773 165.123 176.773Z" fill="#758288"/>
<path d="M139.219 175.587C139.219 177.799 140.697 179.592 142.522 179.592C144.345 179.592 145.825 177.799 145.825 175.587C145.825 173.375 144.345 171.581 142.522 171.581C140.697 171.581 139.219 173.375 139.219 175.587Z" fill="#1D2A30"/>
<path d="M142.725 176.773C143.055 176.773 143.385 176.634 143.617 176.365C145.903 173.716 147.212 169.971 147.212 166.089C147.212 158.328 142.107 152.015 135.831 152.015C131.206 152.015 127.076 155.423 125.311 160.695C125.105 161.312 125.437 161.98 126.054 162.186C126.672 162.393 127.34 162.059 127.546 161.443C128.984 157.147 132.235 154.372 135.831 154.372C140.808 154.372 144.856 159.629 144.856 166.089C144.856 169.415 143.755 172.599 141.834 174.825C141.408 175.317 141.464 176.062 141.956 176.487C142.179 176.679 142.452 176.773 142.725 176.773Z" fill="#1D2A30"/>
<path d="M142.726 176.773C142.452 176.773 142.179 176.679 141.956 176.487C141.687 176.255 141.549 175.926 141.548 175.596C141.548 175.323 141.642 175.049 141.834 174.825C143.755 172.599 144.857 169.415 144.857 166.089C144.857 159.629 140.808 154.372 135.831 154.372C132.236 154.372 128.984 157.147 127.546 161.443C127.381 161.935 126.922 162.248 126.429 162.248C126.304 162.248 126.178 162.228 126.055 162.186C125.561 162.022 125.249 161.56 125.25 161.066C125.251 160.942 125.27 160.817 125.311 160.695C127.076 155.423 131.206 152.015 135.831 152.015C142.107 152.015 147.213 158.328 147.213 166.089C147.213 169.971 145.903 173.716 143.617 176.365C143.385 176.634 143.055 176.773 142.726 176.773Z" fill="#758288"/>
<path d="M116.824 175.587C116.824 177.799 118.303 179.592 120.128 179.592C121.952 179.592 123.431 177.799 123.431 175.587C123.431 173.375 121.952 171.581 120.128 171.581C118.303 171.581 116.824 173.375 116.824 175.587Z" fill="#1D2A30"/>
<path d="M120.33 176.773C120.661 176.773 120.991 176.634 121.223 176.365C123.508 173.716 124.818 169.971 124.818 166.089C124.818 158.328 119.712 152.015 113.436 152.015C108.811 152.015 104.682 155.423 102.917 160.695C102.71 161.312 103.043 161.98 103.66 162.186C104.277 162.393 104.945 162.059 105.151 161.443C106.589 157.147 109.841 154.372 113.436 154.372C118.413 154.372 122.462 159.629 122.462 166.089C122.462 169.415 121.359 172.599 119.439 174.825C119.014 175.317 119.069 176.062 119.562 176.487C119.784 176.679 120.058 176.773 120.33 176.773Z" fill="#1D2A30"/>
<path d="M120.33 176.773C120.057 176.773 119.784 176.679 119.562 176.487C119.292 176.255 119.154 175.926 119.153 175.596C119.153 175.323 119.246 175.049 119.439 174.825C121.359 172.599 122.462 169.415 122.462 166.089C122.462 159.629 118.413 154.372 113.436 154.372C109.841 154.372 106.589 157.147 105.151 161.443C104.986 161.935 104.527 162.248 104.033 162.248C103.91 162.248 103.784 162.228 103.66 162.186C103.166 162.022 102.854 161.56 102.855 161.066C102.856 160.942 102.876 160.817 102.917 160.695C104.681 155.423 108.811 152.015 113.436 152.015C119.712 152.015 124.818 158.328 124.818 166.089C124.818 169.971 123.508 173.716 121.223 176.365C120.99 176.634 120.661 176.773 120.33 176.773Z" fill="#758288"/>
<path d="M126.867 272.478H136.74V255.642H126.867V272.478Z" fill="#4870C0"/>
<path d="M142.859 272.478H152.732V243.392H142.859V272.478Z" fill="#4870C0"/>
<path d="M158.855 272.478H168.727V247.985H158.855V272.478Z" fill="#4870C0"/>
<path d="M174.848 272.478H184.719V235.734H174.848V272.478Z" fill="#4870C0"/>
<path d="M190.84 272.478H200.712V223.482H190.84V272.478Z" fill="#4870C0"/>
<path d="M126.867 270.146H136.74V255.642H126.867V270.146Z" fill="#A1BCE6"/>
<path d="M142.859 270.146H152.732V243.392H142.859V270.146Z" fill="#A1BCE6"/>
<path d="M158.855 270.146H168.727V247.985H158.855V270.146Z" fill="#A1BCE6"/>
<path d="M174.848 270.146H184.719V235.734H174.848V270.146Z" fill="#A1BCE6"/>
<path d="M190.84 270.146H200.712V223.482H190.84V270.146Z" fill="#A1BCE6"/>
<path d="M113.312 274.808H213.878V270.146H113.312V274.808Z" fill="#1D2A30"/>
<path d="M117.559 259.107L147.953 234.917L163.984 244.222L208.956 205.88L206.689 203.219L163.6 239.957L147.645 230.694L115.383 256.372L117.559 259.107Z" fill="#4870C0"/>
<path d="M210.392 202.383L203.84 203.398L208.456 208.329L210.392 202.383Z" fill="#4870C0"/>
<path d="M145.512 289.952H113.432C112.781 289.952 112.254 289.425 112.254 288.774C112.254 288.122 112.781 287.596 113.432 287.596H145.214C145.254 288.399 145.354 289.185 145.512 289.952Z" fill="#9D9F9E"/>
<path d="M153.226 300.483H121.553C120.903 300.483 120.375 299.956 120.375 299.305C120.375 298.654 120.903 298.127 121.553 298.127H150.038C150.994 299.039 152.063 299.833 153.226 300.483Z" fill="#9D9F9E"/>
<path d="M157.414 306.387H113.432C112.781 306.387 112.254 305.86 112.254 305.209C112.254 304.557 112.781 304.03 113.432 304.03H153.473V304.182C153.473 304.703 153.895 305.125 154.414 305.125H157.414V306.387Z" fill="#9D9F9E"/>
<path d="M157.417 312.292H113.564C112.914 312.292 112.387 311.765 112.387 311.114C112.387 310.462 112.914 309.936 113.564 309.936H157.417V312.292Z" fill="#9D9F9E"/>
<path d="M157.417 318.195H113.694C113.043 318.195 112.516 317.667 112.516 317.017C112.516 316.365 113.043 315.839 113.694 315.839H157.417V318.195Z" fill="#9D9F9E"/>
<path d="M157.415 328.778H121.553C120.903 328.778 120.375 328.251 120.375 327.6C120.375 326.948 120.903 326.422 121.553 326.422H157.415V328.778Z" fill="#9D9F9E"/>
<path d="M153.625 334.682H113.432C112.781 334.682 112.254 334.155 112.254 333.503C112.254 332.852 112.781 332.325 113.432 332.325H153.473V332.641C153.473 333.162 153.895 333.582 154.414 333.582H157.298C156.02 333.805 154.787 334.179 153.625 334.682Z" fill="#9D9F9E"/>
<path d="M146.561 340.587H113.564C112.914 340.587 112.387 340.059 112.387 339.409C112.387 338.757 112.914 338.231 113.564 338.231H148.463C147.756 338.953 147.118 339.741 146.561 340.587Z" fill="#9D9F9E"/>
<path d="M144.23 346.489H113.694C113.043 346.489 112.516 345.963 112.516 345.311C112.516 344.661 113.043 344.133 113.694 344.133H144.821C144.565 344.894 144.366 345.681 144.23 346.489Z" fill="#9D9F9E"/>
<path d="M170.343 192.103H113.432C112.781 192.103 112.254 191.576 112.254 190.924C112.254 190.274 112.781 189.746 113.432 189.746H170.343C170.993 189.746 171.521 190.274 171.521 190.924C171.521 191.576 170.993 192.103 170.343 192.103Z" fill="#9D9F9E"/>
<path d="M483.505 306.313H348.233C345.982 306.313 344.156 304.487 344.156 302.236V78.7372C344.156 76.4857 345.982 74.6595 348.233 74.6595H483.505C485.757 74.6595 487.581 76.4857 487.581 78.7372V302.236C487.581 304.487 485.757 306.313 483.505 306.313Z" fill="#4870C0"/>
<path d="M454.547 81.8994H377.188V74.3108C377.188 73.8914 377.527 73.5509 377.946 73.5509H453.788C454.207 73.5509 454.547 73.8914 454.547 74.3108V81.8994Z" fill="#1D2A30"/>
<path d="M480.226 299.047H477.598C477.386 297.724 477.236 296.21 477.236 294.578C477.237 292.3 477.53 289.789 478.359 287.246C480.029 282.119 481.333 275.091 481.331 269.87C481.331 266.224 480.693 263.458 479.101 262.832C478.953 262.774 478.817 262.746 478.69 262.746C475.454 262.746 478.234 280.775 475 287.078C475 287.078 472.176 279.785 471.711 272.791C471.549 270.337 471.532 267.37 471.447 264.426C471.976 262.399 472.258 260.27 472.258 258.076C472.258 244.261 461.084 233.056 447.283 233.007H447.192C433.349 233.007 422.127 244.23 422.127 258.076C422.127 258.094 422.127 258.11 422.127 258.128C422.127 258.131 422.127 258.135 422.127 258.138C422.161 271.953 433.371 283.146 447.192 283.146C447.209 283.146 447.226 283.146 447.243 283.146C447.248 283.146 447.251 283.146 447.255 283.146C447.271 283.146 447.288 283.146 447.304 283.146L447.305 283.145C450.456 283.132 453.472 282.536 456.247 281.46C456.707 282.667 457.344 283.91 458.152 285.115C460.586 288.744 464.463 294.206 467.263 299.047H465.94C464.023 296.743 461.692 294.777 459.318 294.777C458.44 294.777 457.557 295.046 456.686 295.667C455.36 296.61 454.803 297.74 454.804 298.968C454.804 298.994 454.804 299.021 454.806 299.047H355.954C355.353 296.827 354.745 294.584 354.136 292.346C355.881 288.06 357.678 283.39 359.35 278.6V279.276H366.38V272.245H361.462C361.962 270.656 362.44 269.065 362.89 267.486H366.38V260.455H364.702C365.07 258.839 365.397 257.251 365.673 255.697H366.38V250.878C366.595 248.953 366.71 247.108 366.709 245.373C366.708 243.728 366.603 242.18 366.38 240.749V236.877H365.36C364.528 234.789 363.281 233.133 361.54 232.022C359.481 230.708 356.81 229.658 353.697 228.83L360.971 195.832C361.01 195.653 361.029 195.488 361.029 195.335C361.026 194.372 360.265 193.934 359.144 193.934H349.828V81.8998H386.578V88.4988C386.578 90.3697 388.105 91.8919 389.983 91.8919H413.221L413.485 91.0778C413.824 90.0351 414.784 89.3353 415.875 89.3353C416.966 89.3353 417.926 90.0363 418.265 91.079L418.53 91.8919H441.767C443.638 91.8919 445.16 90.3697 445.16 88.4988V81.8998H481.91V295.518C481.227 296.419 480.667 297.721 480.226 299.047ZM371.493 274.581C370.842 274.581 370.315 275.108 370.315 275.759C370.315 276.411 370.842 276.937 371.493 276.937H406.392C407.044 276.937 407.57 276.411 407.57 275.759C407.57 275.108 407.044 274.581 406.392 274.581H371.493ZM371.493 262.792C370.842 262.792 370.315 263.32 370.315 263.97C370.315 264.622 370.842 265.149 371.493 265.149H406.392C407.044 265.149 407.57 264.622 407.57 263.97C407.57 263.32 407.044 262.792 406.392 262.792H371.493ZM371.493 251.003C370.842 251.003 370.315 251.531 370.315 252.182C370.315 252.833 370.842 253.36 371.493 253.36H406.392C407.044 253.36 407.57 252.833 407.57 252.182C407.57 251.531 407.044 251.003 406.392 251.003H371.493ZM371.493 239.215C370.842 239.215 370.315 239.741 370.315 240.393C370.315 241.043 370.842 241.571 371.493 241.571H406.392C407.044 241.571 407.57 241.043 407.57 240.393C407.57 239.741 407.044 239.215 406.392 239.215H371.493ZM360.787 216.06C360.137 216.06 359.609 216.588 359.609 217.238C359.609 217.89 360.137 218.416 360.787 218.416H454.708C455.358 218.416 455.886 217.89 455.886 217.238C455.886 216.588 455.358 216.06 454.708 216.06H360.787ZM360.657 210.157C360.007 210.157 359.479 210.684 359.479 211.335C359.479 211.986 360.007 212.514 360.657 212.514H471.08C471.731 212.514 472.258 211.986 472.258 211.335C472.258 210.684 471.731 210.157 471.08 210.157H360.657ZM360.528 204.252C359.878 204.252 359.35 204.779 359.35 205.43C359.35 206.082 359.878 206.609 360.528 206.609H470.95C471.6 206.609 472.128 206.082 472.128 205.43C472.128 204.779 471.6 204.252 470.95 204.252H360.528ZM368.649 198.348C367.999 198.348 367.471 198.875 367.471 199.526C367.471 200.178 367.999 200.705 368.649 200.705H470.821C471.471 200.705 471.999 200.178 471.999 199.526C471.999 198.875 471.471 198.348 470.821 198.348H368.649ZM360.528 187.818C359.878 187.818 359.35 188.344 359.35 188.996C359.35 189.646 359.878 190.174 360.528 190.174H417.438C418.09 190.174 418.616 189.646 418.616 188.996C418.616 188.344 418.09 187.818 417.438 187.818H360.528ZM359.35 120.784V179.956H472.388V120.784H359.35ZM360.528 112.638C359.878 112.638 359.35 113.166 359.35 113.817C359.35 114.468 359.878 114.995 360.528 114.995H389.165C389.815 114.995 390.343 114.468 390.343 113.817C390.343 113.166 389.815 112.638 389.165 112.638H360.528ZM360.528 106.023C359.878 106.023 359.35 106.551 359.35 107.201C359.35 107.851 359.878 108.379 360.528 108.379H404.633C405.284 108.379 405.811 107.851 405.811 107.201C405.811 106.551 405.284 106.023 404.633 106.023H360.528ZM469.885 294.3C469.885 294.3 466.43 283.762 462.831 277.669C464.791 276.102 466.511 274.246 467.926 272.168C469.858 284.519 469.885 293.871 469.885 294.285C469.885 294.286 469.885 294.286 469.885 294.287C469.885 294.287 469.885 294.287 469.885 294.288C469.885 294.288 469.885 294.288 469.885 294.29C469.885 294.29 469.885 294.29 469.885 294.29C469.885 294.296 469.885 294.3 469.885 294.3ZM471.505 179.072H451.938V130.908H471.505V179.072ZM456.788 168.892C456.137 168.892 455.61 169.418 455.61 170.07C455.61 170.721 456.137 171.248 456.788 171.248H465.409C466.06 171.248 466.587 170.721 466.587 170.07C466.587 169.418 466.06 168.892 465.409 168.892H456.788ZM456.788 136.82C456.137 136.82 455.61 137.348 455.61 137.999C455.61 138.649 456.137 139.177 456.788 139.177H466.672C467.323 139.177 467.85 138.649 467.85 137.999C467.85 137.348 467.323 136.82 466.672 136.82H456.788ZM451.055 179.072H430.916V130.908H451.055V179.072ZM435.836 158.201C435.186 158.201 434.658 158.727 434.658 159.379C434.658 160.031 435.186 160.557 435.836 160.557H445.603C446.253 160.557 446.781 160.031 446.781 159.379C446.781 158.727 446.253 158.201 445.603 158.201H435.836ZM430.032 179.072H409.893V130.908H430.032V179.072ZM415.869 168.892C415.219 168.892 414.691 169.418 414.691 170.07C414.691 170.721 415.219 171.248 415.869 171.248H425.112C425.762 171.248 426.29 170.721 426.29 170.07C426.29 169.418 425.762 168.892 425.112 168.892H415.869ZM415.869 147.511C415.219 147.511 414.691 148.038 414.691 148.689C414.691 149.34 415.219 149.868 415.869 149.868H424.721C425.371 149.868 425.899 149.34 425.899 148.689C425.899 148.038 425.371 147.511 424.721 147.511H415.869ZM409.01 179.072H388.871V130.908H409.01V179.072ZM395.287 168.892C394.636 168.892 394.109 169.418 394.109 170.07C394.109 170.721 394.636 171.248 395.287 171.248H403.441C404.093 171.248 404.619 170.721 404.619 170.07C404.619 169.418 404.093 168.892 403.441 168.892H395.287ZM395.287 158.201C394.636 158.201 394.109 158.727 394.109 159.379C394.109 160.031 394.636 160.557 395.287 160.557H402.277C402.928 160.557 403.455 160.031 403.455 159.379C403.455 158.727 402.928 158.201 402.277 158.201H395.287ZM395.287 136.82C394.636 136.82 394.109 137.348 394.109 137.999C394.109 138.649 394.636 139.177 395.287 139.177H403.441C404.093 139.177 404.619 138.649 404.619 137.999C404.619 137.348 404.093 136.82 403.441 136.82H395.287ZM387.987 179.072H360.233V130.908H387.987V179.072ZM364.481 168.892C363.831 168.892 363.303 169.418 363.303 170.07C363.303 170.721 363.831 171.248 364.481 171.248H373.802C374.453 171.248 374.98 170.721 374.98 170.07C374.98 169.418 374.453 168.892 373.802 168.892H364.481ZM364.481 158.201C363.831 158.201 363.303 158.727 363.303 159.379C363.303 160.031 363.831 160.557 364.481 160.557H383.122C383.773 160.557 384.3 160.031 384.3 159.379C384.3 158.727 383.773 158.201 383.122 158.201H364.481ZM364.481 147.511C363.831 147.511 363.303 148.038 363.303 148.689C363.303 149.34 363.831 149.868 364.481 149.868H376.893C377.543 149.868 378.071 149.34 378.071 148.689C378.071 148.038 377.543 147.511 376.893 147.511H364.481ZM364.481 136.82C363.831 136.82 363.303 137.348 363.303 137.999C363.303 138.649 363.831 139.177 364.481 139.177H383.122C383.773 139.177 384.3 138.649 384.3 137.999C384.3 137.348 383.773 136.82 383.122 136.82H364.481ZM471.505 130.025H451.938V121.668H471.505V130.025ZM451.055 130.025H430.916V121.668H451.055V130.025ZM430.032 130.025H409.893V121.668H430.032V130.025ZM409.01 130.025H388.871V121.668H409.01V130.025ZM387.987 130.025H360.233V121.668H387.987V130.025ZM441.767 89.5356H420.158C419.318 87.978 417.69 86.9789 415.875 86.9789C414.06 86.9789 412.432 87.978 411.592 89.5356H389.983C389.395 89.5356 388.934 89.0796 388.934 88.4988V81.8998H442.804V88.4988C442.804 89.0714 442.34 89.5356 441.767 89.5356Z" fill="#EFF5FC"/>
<path d="M420.158 89.5353H441.767C442.34 89.5353 442.804 89.071 442.804 88.4985V79.9461C442.804 79.3735 442.34 78.9081 441.767 78.9081H389.983C389.395 78.9081 388.934 79.364 388.934 79.9461V88.4985C388.934 89.0793 389.395 89.5353 389.983 89.5353H411.592C412.432 87.9777 414.06 86.9786 415.875 86.9786C417.69 86.9786 419.318 87.9777 420.158 89.5353ZM441.767 91.8916H418.53L418.265 91.0787C417.926 90.036 416.966 89.335 415.875 89.335C414.784 89.335 413.824 90.0348 413.485 91.0775L413.221 91.8916H389.983C388.105 91.8916 386.578 90.3694 386.578 88.4985V79.9461C386.578 78.0739 388.105 76.5518 389.983 76.5518H441.767C443.638 76.5518 445.16 78.0739 445.16 79.9461V88.4985C445.16 90.3694 443.638 91.8916 441.767 91.8916Z" fill="#1D2A30"/>
<path d="M441.767 91.8916H418.53L418.265 91.0787C417.926 90.036 416.966 89.335 415.875 89.335C414.784 89.335 413.824 90.0348 413.485 91.0775L413.221 91.8916H389.983C388.105 91.8916 386.578 90.3694 386.578 88.4985V79.9461C386.578 78.0739 388.105 76.5518 389.983 76.5518H392.452V78.9081H389.983C389.395 78.9081 388.934 79.364 388.934 79.9461V81.8995V88.4985C388.934 89.0793 389.395 89.5353 389.983 89.5353H411.592C412.432 87.9777 414.06 86.9786 415.875 86.9786C417.69 86.9786 419.318 87.9777 420.158 89.5353H441.767C442.34 89.5353 442.804 89.071 442.804 88.4985V79.9461C442.804 79.3735 442.34 78.9081 441.767 78.9081H439.287V76.5518H441.767C443.638 76.5518 445.16 78.0739 445.16 79.9461V81.8995V88.4985C445.16 90.3694 443.638 91.8916 441.767 91.8916Z" fill="#8E989B"/>
<path d="M438.119 80.3105H393.614C392.971 80.3105 392.449 79.7886 392.449 79.1442V76.3484C392.449 75.7039 392.971 75.1831 393.614 75.1831H438.119C438.762 75.1831 439.284 75.7039 439.284 76.3484V79.1442C439.284 79.7886 438.762 80.3105 438.119 80.3105Z" fill="#1D2A30"/>
<path d="M438.119 80.3105H393.614C392.971 80.3105 392.449 79.7886 392.449 79.1442V76.3484C392.449 75.7039 392.971 75.1831 393.614 75.1831H438.119C438.762 75.1831 439.284 75.7039 439.284 76.3484V76.5522V78.9085V79.1442C439.284 79.7886 438.762 80.3105 438.119 80.3105Z" fill="#45555C"/>
<path d="M472.256 258.075C472.256 271.92 461.034 283.146 447.19 283.146C433.348 283.146 422.125 271.92 422.125 258.075C422.125 244.229 433.348 233.006 447.19 233.006C461.034 233.006 472.256 244.229 472.256 258.075Z" fill="#4870C0"/>
<path d="M447.19 283.146C447.207 283.146 447.225 283.146 447.241 283.146C447.223 283.146 447.207 283.146 447.19 283.146ZM447.366 283.145C447.38 283.145 447.393 283.145 447.407 283.145C447.394 283.145 447.379 283.145 447.366 283.145ZM447.589 283.142C447.604 283.142 447.619 283.142 447.635 283.141C447.618 283.142 447.605 283.142 447.589 283.142ZM447.655 283.141C447.664 283.141 447.673 283.141 447.684 283.141C447.675 283.141 447.663 283.141 447.655 283.141ZM447.706 283.14C447.716 283.14 447.725 283.14 447.735 283.14C447.724 283.14 447.716 283.14 447.706 283.14ZM462.805 277.627C461.423 275.294 460.021 273.623 458.787 273.459C458.598 273.434 458.417 273.422 458.245 273.422C457.836 273.422 457.472 273.49 457.152 273.619L447.19 258.075H465.604C465.828 260.247 466.247 262.964 466.9 266.314C467.286 268.3 467.622 270.235 467.915 272.105C466.494 274.189 464.77 276.052 462.805 277.627ZM471.444 264.378C471.381 262.187 471.278 260.013 471.049 258.075H472.256C472.256 260.249 471.974 262.362 471.444 264.378ZM447.19 258.075L447.278 233.006C447.279 233.006 447.28 233.006 447.281 233.006L447.19 258.075Z" fill="#799BD7"/>
<path d="M447.303 283.146C447.303 283.146 447.303 283.146 447.304 283.145L447.303 283.146Z" fill="#F5F9FD"/>
<path d="M447.242 283.146C447.246 283.146 447.252 283.146 447.256 283.146C447.255 283.146 447.255 283.146 447.254 283.146C447.25 283.146 447.247 283.146 447.242 283.146ZM447.295 283.146C447.3 283.146 447.303 283.145 447.308 283.145C447.307 283.145 447.306 283.145 447.305 283.145C447.303 283.146 447.303 283.146 447.303 283.146C447.3 283.146 447.299 283.146 447.295 283.146ZM447.468 283.143C447.471 283.143 447.472 283.143 447.473 283.143C447.472 283.143 447.47 283.143 447.468 283.143ZM447.573 283.142C447.578 283.142 447.585 283.142 447.59 283.142C447.584 283.142 447.579 283.142 447.573 283.142ZM447.636 283.141C447.643 283.141 447.649 283.141 447.656 283.141C447.649 283.141 447.642 283.141 447.636 283.141ZM447.685 283.141C447.692 283.14 447.699 283.14 447.707 283.14C447.7 283.14 447.692 283.14 447.685 283.141ZM447.736 283.14C447.748 283.139 447.762 283.139 447.775 283.139C447.762 283.139 447.749 283.139 447.736 283.14ZM447.798 283.137C447.808 283.137 447.816 283.137 447.826 283.137C447.817 283.137 447.808 283.137 447.798 283.137ZM447.844 283.136C450.791 283.06 453.619 282.463 456.237 281.437C456.24 281.442 456.242 281.448 456.244 281.453C453.572 282.488 450.73 283.062 447.844 283.136Z" fill="#799BD7"/>
<path d="M447.19 283.146C438.378 283.146 430.564 278.495 426.09 271.536L447.19 258.075L457.151 273.619C455.946 274.102 455.361 275.439 455.362 277.199C455.362 278.449 455.658 279.913 456.236 281.437C453.617 282.463 450.79 283.06 447.843 283.136C447.837 283.137 447.831 283.137 447.825 283.137C447.815 283.137 447.806 283.137 447.797 283.137C447.789 283.139 447.78 283.139 447.773 283.139C447.76 283.139 447.746 283.139 447.734 283.14C447.725 283.14 447.716 283.14 447.706 283.14C447.698 283.14 447.691 283.14 447.684 283.141C447.673 283.141 447.664 283.141 447.654 283.141C447.647 283.141 447.641 283.141 447.634 283.141C447.619 283.142 447.604 283.142 447.588 283.142C447.584 283.142 447.577 283.142 447.572 283.142C447.56 283.142 447.548 283.143 447.536 283.143C447.532 283.143 447.526 283.143 447.521 283.143C447.505 283.143 447.488 283.143 447.472 283.143C447.471 283.143 447.469 283.143 447.467 283.143C447.452 283.145 447.436 283.145 447.421 283.145C447.416 283.145 447.412 283.145 447.407 283.145C447.393 283.145 447.38 283.145 447.366 283.145C447.362 283.145 447.36 283.145 447.356 283.145C447.34 283.145 447.323 283.145 447.307 283.145C447.302 283.145 447.299 283.146 447.294 283.146C447.281 283.146 447.268 283.146 447.255 283.146C447.25 283.146 447.244 283.146 447.241 283.146C447.224 283.146 447.207 283.146 447.19 283.146Z" fill="#A3BEE7"/>
<path d="M426.058 271.558C423.606 267.712 422.251 263.273 422.133 258.723C422.255 263.418 423.693 267.809 426.09 271.536L426.058 271.558ZM422.133 258.716C422.132 258.683 422.132 258.648 422.131 258.614C422.132 258.648 422.132 258.681 422.133 258.716ZM422.127 258.357C422.127 258.355 422.127 258.353 422.127 258.35C422.127 258.354 422.127 258.355 422.127 258.357Z" fill="#799BD7"/>
<path d="M426.09 271.536C423.693 267.808 422.255 263.417 422.133 258.722C422.133 258.72 422.133 258.718 422.133 258.715C422.132 258.681 422.132 258.648 422.131 258.614C422.131 258.607 422.131 258.599 422.131 258.592C422.131 258.583 422.13 258.575 422.13 258.567C422.13 258.557 422.13 258.548 422.13 258.539C422.13 258.532 422.13 258.526 422.13 258.52C422.129 258.504 422.129 258.489 422.129 258.474C422.129 258.468 422.129 258.462 422.129 258.456C422.129 258.444 422.127 258.434 422.127 258.422C422.127 258.416 422.127 258.41 422.127 258.405C422.127 258.389 422.127 258.372 422.127 258.357C422.127 258.355 422.127 258.354 422.127 258.35C422.126 258.336 422.126 258.321 422.126 258.307C422.126 258.302 422.126 258.297 422.126 258.292C422.126 258.278 422.126 258.265 422.126 258.252C422.126 258.249 422.126 258.244 422.126 258.241C422.126 258.224 422.126 258.208 422.125 258.191C422.125 258.188 422.125 258.184 422.125 258.18C422.125 258.167 422.125 258.153 422.125 258.139C422.125 258.136 422.125 258.131 422.125 258.126C422.125 258.11 422.125 258.093 422.125 258.076C422.125 244.324 433.44 233.006 447.19 233.006C447.22 233.006 447.248 233.006 447.278 233.006L447.19 258.076L426.09 271.536Z" fill="#C0D4F0"/>
<path d="M472.386 179.955H359.348V120.784H472.386V179.955ZM451.936 130.908V179.071H471.503V130.908H451.936ZM430.914 130.908V179.071H451.053V130.908H430.914ZM409.891 130.908V179.071H430.03V130.908H409.891ZM388.868 130.908V179.071H409.007V130.908H388.868ZM360.231 130.908V179.071H387.985V130.908H360.231ZM451.936 121.667V130.024H471.503V121.667H451.936ZM430.914 121.667V130.024H451.053V121.667H430.914ZM409.891 121.667V130.024H430.03V121.667H409.891ZM388.868 121.667V130.024H409.007V121.667H388.868ZM360.231 121.667V130.024H387.985V121.667H360.231Z" fill="#6F757E"/>
<path d="M403.441 139.177H395.287C394.636 139.177 394.109 138.649 394.109 137.999C394.109 137.348 394.636 136.82 395.287 136.82H403.441C404.093 136.82 404.619 137.348 404.619 137.999C404.619 138.649 404.093 139.177 403.441 139.177Z" fill="#6F757E"/>
<path d="M424.721 149.867H415.869C415.219 149.867 414.691 149.339 414.691 148.689C414.691 148.037 415.219 147.511 415.869 147.511H424.721C425.371 147.511 425.899 148.037 425.899 148.689C425.899 149.339 425.371 149.867 424.721 149.867Z" fill="#6F757E"/>
<path d="M425.112 171.248H415.869C415.219 171.248 414.691 170.721 414.691 170.07C414.691 169.418 415.219 168.892 415.869 168.892H425.112C425.762 168.892 426.29 169.418 426.29 170.07C426.29 170.721 425.762 171.248 425.112 171.248Z" fill="#6F757E"/>
<path d="M445.601 160.557H435.834C435.184 160.557 434.656 160.03 434.656 159.378C434.656 158.727 435.184 158.2 435.834 158.2H445.601C446.251 158.2 446.779 158.727 446.779 159.378C446.779 160.03 446.251 160.557 445.601 160.557Z" fill="#6F757E"/>
<path d="M466.671 139.177H456.787C456.136 139.177 455.609 138.649 455.609 137.999C455.609 137.348 456.136 136.82 456.787 136.82H466.671C467.322 136.82 467.849 137.348 467.849 137.999C467.849 138.649 467.322 139.177 466.671 139.177Z" fill="#6F757E"/>
<path d="M465.408 171.248H456.787C456.136 171.248 455.609 170.721 455.609 170.07C455.609 169.418 456.136 168.892 456.787 168.892H465.408C466.059 168.892 466.586 169.418 466.586 170.07C466.586 170.721 466.059 171.248 465.408 171.248Z" fill="#6F757E"/>
<path d="M402.278 160.557H395.287C394.636 160.557 394.109 160.03 394.109 159.378C394.109 158.727 394.636 158.2 395.287 158.2H402.278C402.928 158.2 403.456 158.727 403.456 159.378C403.456 160.03 402.928 160.557 402.278 160.557Z" fill="#6F757E"/>
<path d="M403.441 171.248H395.287C394.636 171.248 394.109 170.721 394.109 170.07C394.109 169.418 394.636 168.892 395.287 168.892H403.441C404.093 168.892 404.619 169.418 404.619 170.07C404.619 170.721 404.093 171.248 403.441 171.248Z" fill="#6F757E"/>
<path d="M383.119 139.177H364.479C363.829 139.177 363.301 138.649 363.301 137.999C363.301 137.348 363.829 136.82 364.479 136.82H383.119C383.771 136.82 384.297 137.348 384.297 137.999C384.297 138.649 383.771 139.177 383.119 139.177Z" fill="#6F757E"/>
<path d="M376.89 149.867H364.479C363.829 149.867 363.301 149.339 363.301 148.689C363.301 148.037 363.829 147.511 364.479 147.511H376.89C377.54 147.511 378.068 148.037 378.068 148.689C378.068 149.339 377.54 149.867 376.89 149.867Z" fill="#6F757E"/>
<path d="M383.119 160.557H364.479C363.829 160.557 363.301 160.03 363.301 159.378C363.301 158.727 363.829 158.2 364.479 158.2H383.119C383.771 158.2 384.297 158.727 384.297 159.378C384.297 160.03 383.771 160.557 383.119 160.557Z" fill="#6F757E"/>
<path d="M373.799 171.248H364.479C363.829 171.248 363.301 170.721 363.301 170.07C363.301 169.418 363.829 168.892 364.479 168.892H373.799C374.451 168.892 374.977 169.418 374.977 170.07C374.977 170.721 374.451 171.248 373.799 171.248Z" fill="#6F757E"/>
<path d="M404.631 108.379H360.526C359.875 108.379 359.348 107.851 359.348 107.201C359.348 106.55 359.875 106.023 360.526 106.023H404.631C405.281 106.023 405.809 106.55 405.809 107.201C405.809 107.851 405.281 108.379 404.631 108.379Z" fill="#6F757E"/>
<path d="M389.163 114.994H360.526C359.875 114.994 359.348 114.467 359.348 113.816C359.348 113.166 359.875 112.638 360.526 112.638H389.163C389.813 112.638 390.341 113.166 390.341 113.816C390.341 114.467 389.813 114.994 389.163 114.994Z" fill="#6F757E"/>
<path d="M417.436 190.174H360.526C359.875 190.174 359.348 189.646 359.348 188.996C359.348 188.344 359.875 187.817 360.526 187.817H417.436C418.087 187.817 418.614 188.344 418.614 188.996C418.614 189.646 418.087 190.174 417.436 190.174Z" fill="#6F757E"/>
<path d="M359.348 243.908H366.378V236.877H359.348V243.908Z" fill="#4870C0"/>
<path d="M406.39 241.57H371.49C370.84 241.57 370.312 241.042 370.312 240.392C370.312 239.741 370.84 239.214 371.49 239.214H406.39C407.041 239.214 407.568 239.741 407.568 240.392C407.568 241.042 407.041 241.57 406.39 241.57Z" fill="#6F757E"/>
<path d="M359.348 255.697H366.378V248.666H359.348V255.697Z" fill="#4870C0"/>
<path d="M406.39 253.359H371.49C370.84 253.359 370.312 252.833 370.312 252.181C370.312 251.531 370.84 251.003 371.49 251.003H406.39C407.041 251.003 407.568 251.531 407.568 252.181C407.568 252.833 407.041 253.359 406.39 253.359Z" fill="#6F757E"/>
<path d="M359.348 267.485H366.378V260.454H359.348V267.485Z" fill="#4870C0"/>
<path d="M406.39 265.148H371.49C370.84 265.148 370.312 264.622 370.312 263.97C370.312 263.32 370.84 262.792 371.49 262.792H406.39C407.041 262.792 407.568 263.32 407.568 263.97C407.568 264.622 407.041 265.148 406.39 265.148Z" fill="#6F757E"/>
<path d="M359.348 279.275H366.378V272.244H359.348V279.275Z" fill="#4870C0"/>
<path d="M406.39 276.937H371.49C370.84 276.937 370.312 276.41 370.312 275.758C370.312 275.107 370.84 274.58 371.49 274.58H406.39C407.041 274.58 407.568 275.107 407.568 275.758C407.568 276.41 407.041 276.937 406.39 276.937Z" fill="#6F757E"/>
<path d="M470.818 200.704H368.647C367.996 200.704 367.469 200.177 367.469 199.526C367.469 198.874 367.996 198.348 368.647 198.348H470.818C471.468 198.348 471.996 198.874 471.996 199.526C471.996 200.177 471.468 200.704 470.818 200.704Z" fill="#6F757E"/>
<path d="M470.948 206.608H360.526C359.875 206.608 359.348 206.082 359.348 205.43C359.348 204.779 359.875 204.252 360.526 204.252H470.948C471.598 204.252 472.126 204.779 472.126 205.43C472.126 206.082 471.598 206.608 470.948 206.608Z" fill="#6F757E"/>
<path d="M471.077 212.514H360.655C360.004 212.514 359.477 211.986 359.477 211.335C359.477 210.684 360.004 210.157 360.655 210.157H471.077C471.728 210.157 472.255 210.684 472.255 211.335C472.255 211.986 471.728 212.514 471.077 212.514Z" fill="#6F757E"/>
<path d="M454.708 218.416H360.787C360.137 218.416 359.609 217.889 359.609 217.238C359.609 216.587 360.137 216.06 360.787 216.06H454.708C455.358 216.06 455.886 216.587 455.886 217.238C455.886 217.889 455.358 218.416 454.708 218.416Z" fill="#6F757E"/>
<path d="M366.379 255.697H365.672C365.966 254.045 366.204 252.435 366.379 250.879V255.697Z" fill="#799BD7"/>
<path d="M366.381 267.485H362.891C363.566 265.112 364.177 262.757 364.702 260.454H366.381V267.485Z" fill="#A1BCE6"/>
<path d="M366.378 279.275H359.348V278.599C360.082 276.495 360.79 274.372 361.46 272.244H366.378V279.275Z" fill="#C7D9F2"/>
<path d="M479.934 336.233C479.934 336.233 474.338 324.022 480.732 311.985C487.125 299.948 488.978 297.112 484.902 294.646C480.827 292.181 478.957 304.276 478.957 304.276C478.957 304.276 475.522 295.955 478.358 287.246C481.195 278.538 482.974 264.353 479.1 262.831C475.226 261.31 478.361 280.527 475 287.077C475 287.077 472.176 279.784 471.711 272.791C471.247 265.794 471.972 254.627 468.913 251.76C465.854 248.895 463.894 250.878 466.901 266.314C469.907 281.75 469.885 294.299 469.885 294.299C469.885 294.299 463.245 274.05 458.788 273.458C454.332 272.869 454.338 279.426 458.152 285.114C461.966 290.801 469.323 300.99 470.529 306.233C470.529 306.233 463.241 290.996 456.685 295.666C450.129 300.336 462.392 309.54 467.858 312.865C473.322 316.192 477.118 337.04 477.118 337.04L479.934 336.233Z" fill="#4870C0"/>
<path d="M477.118 337.04C477.118 337.04 473.323 316.192 467.858 312.865C463.497 310.213 454.809 303.817 454.805 298.967C454.804 297.74 455.361 296.61 456.686 295.666C457.558 295.045 458.44 294.777 459.319 294.777C465.05 294.777 470.53 306.233 470.53 306.233C469.324 300.99 461.967 290.801 458.153 285.114C457.34 283.902 456.699 282.65 456.238 281.437C455.66 279.913 455.364 278.449 455.364 277.198C455.363 274.97 456.301 273.422 458.247 273.422C458.419 273.422 458.6 273.434 458.789 273.458C463.245 274.05 469.885 294.299 469.885 294.299C469.885 294.299 469.885 294.296 469.885 294.29C469.885 294.289 469.885 294.289 469.885 294.289C469.885 294.287 469.885 294.287 469.885 294.287C469.885 294.287 469.885 294.287 469.885 294.287C469.885 294.285 469.885 294.285 469.885 294.284C469.885 293.87 469.857 284.486 467.917 272.105C467.624 270.235 467.288 268.299 466.902 266.314C466.249 262.964 465.83 260.246 465.606 258.075C465.468 256.741 465.403 255.615 465.403 254.673C465.403 251.801 465.999 250.654 466.933 250.654C467.492 250.654 468.17 251.064 468.914 251.76C471.973 254.627 471.247 265.794 471.711 272.791C472.177 279.784 475 287.077 475 287.077C478.234 280.774 475.454 262.745 478.69 262.745C478.817 262.745 478.954 262.774 479.101 262.831C480.694 263.457 481.331 266.223 481.331 269.869C481.333 275.09 480.029 282.118 478.359 287.246C477.531 289.788 477.237 292.299 477.236 294.577C477.235 300.106 478.957 304.276 478.957 304.276C478.957 304.276 480.498 294.315 483.828 294.315C484.167 294.315 484.526 294.419 484.903 294.646C486.363 295.53 487.063 296.462 487.064 297.847C487.068 300.327 484.834 304.262 480.732 311.985C478.637 315.932 477.829 319.897 477.69 323.444C477.686 323.542 477.683 323.641 477.68 323.739C477.672 324.021 477.668 324.301 477.668 324.578C477.666 331.283 479.935 336.233 479.935 336.233L477.118 337.04Z" fill="#395EB4"/>
<path d="M475.517 341.241C475.517 341.241 480.965 328.948 474.428 317.007C467.89 305.065 466.003 302.258 470.048 299.732C474.095 297.205 476.109 309.273 476.109 309.273C476.109 309.273 479.445 300.9 476.504 292.235C473.562 283.569 471.615 269.413 475.47 267.834C479.325 266.254 476.421 285.515 479.861 292.015C479.861 292.015 482.597 284.681 482.977 277.68C483.357 270.679 482.499 259.522 485.523 256.612C488.548 253.702 490.531 255.654 487.71 271.133C484.889 286.613 485.062 299.16 485.062 299.16C485.062 299.16 491.459 278.813 495.908 278.156C500.356 277.5 500.43 284.056 496.683 289.801C492.937 295.545 485.704 305.843 484.56 311.104C484.56 311.104 491.665 295.758 498.277 300.331C504.889 304.903 492.737 314.288 487.312 317.695C481.886 321.103 478.342 342.005 478.342 342.005L475.517 341.241Z" fill="#4870C0"/>
<path d="M500.649 332.479H455.637L459.279 364.694H497.006L500.649 332.479Z" fill="#1D2A30"/>
<path d="M228.835 56.1973H262.676C268.432 56.1973 273.098 60.8641 273.098 66.6195V96.0762C273.098 101.833 268.432 106.498 262.677 106.498H252.796L256.365 119.337L245.787 106.498H228.835C223.08 106.498 218.414 101.833 218.414 96.0762V66.6195C218.414 60.8641 223.08 56.1973 228.835 56.1973Z" fill="#4870C0"/>
<path d="M256.365 119.337L245.787 106.498H228.835C223.977 106.498 219.896 103.175 218.742 98.6764C218.527 97.8458 218.414 96.974 218.414 96.0762V66.6195C218.414 60.8641 223.08 56.1973 228.835 56.1973H262.676C268.432 56.1973 273.098 60.8641 273.098 66.6195V96.0762C273.098 101.833 268.432 106.498 262.677 106.498H252.796L256.365 119.337ZM240.645 66.6689C237.946 66.6689 235.248 67.6987 233.19 69.7581C229.071 73.877 229.071 80.5549 233.19 84.6738C235.248 86.7333 237.946 87.7618 240.645 87.7618C243.344 87.7618 246.043 86.7333 248.102 84.6738C252.22 80.5549 252.22 73.877 248.102 69.7581C246.043 67.6987 243.344 66.6689 240.645 66.6689Z" fill="#C7D9F2"/>
<path d="M240.646 87.7617C237.947 87.7617 235.248 86.7332 233.19 84.6737C229.072 80.5548 229.072 73.8769 233.19 69.758C235.248 67.6986 237.947 66.6688 240.646 66.6688C243.345 66.6688 246.043 67.6986 248.103 69.758C252.221 73.8769 252.221 80.5548 248.103 84.6737C246.043 86.7332 243.345 87.7617 240.646 87.7617Z" fill="#F0F6FC"/>
<path d="M248.1 69.7588L247.019 70.8404C248.782 72.6053 249.658 74.9039 249.66 77.2167C249.658 79.5294 248.782 81.8281 247.019 83.593C245.254 85.3555 242.956 86.2321 240.644 86.2332C238.331 86.2321 236.033 85.3555 234.269 83.593C232.506 81.8281 231.631 79.5294 231.628 77.2167C231.631 74.9039 232.506 72.6053 234.269 70.8404C236.033 69.0767 238.331 68.2013 240.644 68.2001C242.956 68.2013 245.254 69.0767 247.019 70.8404L248.1 69.7588L249.182 68.6773C246.828 66.3221 243.729 65.1392 240.644 65.1404C237.558 65.1392 234.46 66.3221 232.107 68.6773H232.105C229.752 71.0312 228.568 74.131 228.57 77.2167C228.568 80.3023 229.752 83.4021 232.105 85.7561H232.107C234.46 88.1113 237.558 89.2941 240.644 89.293C243.729 89.2941 246.828 88.1113 249.182 85.7561C251.537 83.4021 252.721 80.3023 252.718 77.2167C252.721 74.131 251.537 71.0312 249.182 68.6773L248.1 69.7588Z" fill="#4870C0"/>
<path d="M247.02 85.7558L259.042 97.7803L261.205 95.6171L249.182 83.5927" fill="#4870C0"/>
<path d="M250.606 90.4227L259.788 99.6077C260.685 100.503 262.137 100.503 263.033 99.6077C263.929 98.7111 263.929 97.2584 263.033 96.3619L253.85 87.178C252.954 86.2826 251.501 86.2826 250.606 87.178C249.709 88.0746 249.709 89.5273 250.606 90.4227Z" fill="#4870C0"/>
<path d="M242.277 72.4508C242.277 73.7374 241.235 74.7812 239.947 74.7812C238.661 74.7812 237.617 73.7374 237.617 72.4508C237.617 71.1631 238.661 70.1204 239.947 70.1204C241.235 70.1204 242.277 71.1631 242.277 72.4508Z" fill="white"/>
<path d="M245.775 74.1688C245.775 74.8132 245.255 75.334 244.61 75.334C243.967 75.334 243.445 74.8132 243.445 74.1688C243.445 73.5255 243.967 73.0035 244.61 73.0035C245.255 73.0035 245.775 73.5255 245.775 74.1688Z" fill="white"/>
<path d="M164.734 301.101H340.183V272.859H164.734V301.101Z" fill="#4870C0"/>
<path d="M331.844 299.577H219.446C216.814 299.577 214.372 298.786 212.34 297.423C213.041 296.169 213.776 294.658 214.362 293L296.298 292.057L215.132 290.284C215.374 289.149 215.53 287.98 215.53 286.795C215.53 285.792 215.42 284.811 215.241 283.858L326.428 283.579C326.821 285.201 327.304 286.97 327.899 288.888L286.253 290.377L328.335 290.257C328.796 291.666 329.313 293.148 329.897 294.706L253.233 295.873L330.678 296.733C331.045 297.657 331.432 298.605 331.844 299.577ZM326.406 283.484L214.962 282.611C214.525 280.932 213.877 279.377 213.193 278.033C214.883 276.512 217.105 275.622 219.473 275.622H325.003C325.084 276.381 325.192 277.22 325.336 278.14L220.055 278.986L325.687 280.161C325.883 281.189 326.121 282.297 326.406 283.484Z" fill="#DBE8F7"/>
<path d="M325.687 280.16L220.055 278.986L325.336 278.14C325.435 278.776 325.552 279.449 325.687 280.16Z" fill="#ADB7D0"/>
<path d="M286.254 290.376L327.9 288.887C328.039 289.334 328.185 289.793 328.336 290.256L286.254 290.376Z" fill="#ADB7D0"/>
<path d="M330.68 296.732L253.234 295.873L329.899 294.705C330.147 295.368 330.408 296.042 330.68 296.732Z" fill="#ADB7D0"/>
<path d="M212.34 297.423C211.643 296.957 210.997 296.424 210.407 295.834C208.095 293.522 206.669 290.335 206.664 286.811C206.656 279.769 212.78 274.013 219.821 274.013H324.861C324.895 274.502 324.941 275.038 325.002 275.621H219.472C217.105 275.621 214.883 276.512 213.193 278.033C213.877 279.377 214.525 280.931 214.962 282.611L326.405 283.484C326.412 283.515 326.421 283.547 326.428 283.578L215.241 283.858C215.42 284.811 215.53 285.792 215.53 286.795C215.53 287.979 215.374 289.149 215.132 290.283L296.298 292.057L214.362 292.999C213.776 294.658 213.041 296.168 212.34 297.423Z" fill="#ADB7D0"/>
<path d="M206.666 286.812C206.671 290.336 208.097 293.522 210.409 295.834C212.725 298.15 215.916 299.577 219.447 299.577H342.209C342.729 299.577 343.15 299.999 343.15 300.519V301.529C343.15 302.05 342.729 302.472 342.209 302.472H160.869C156.548 302.472 152.623 300.716 149.786 297.881C146.925 295.017 145.164 291.056 145.196 286.678C145.259 278 152.595 271.119 161.272 271.119H342.209C342.729 271.119 343.15 271.54 343.15 272.06V273.072C343.15 273.591 342.729 274.013 342.209 274.013H219.823C212.782 274.013 206.658 279.769 206.666 286.812Z" fill="#4870C0"/>
<path d="M215.991 302.23H158.117C154.895 301.658 152.008 300.1 149.787 297.881C146.954 295.046 145.199 291.133 145.195 286.807C145.195 286.764 145.196 286.721 145.196 286.679C145.26 278 152.596 271.12 161.273 271.12H265.311H219.145C210.469 271.12 203.134 278 203.069 286.679C203.069 286.721 203.069 286.764 203.069 286.807C203.073 291.133 204.827 295.046 207.661 297.881C209.88 300.1 212.768 301.658 215.991 302.23Z" fill="#8DAEE0"/>
<path d="M206.664 286.812C206.669 290.336 208.096 293.522 210.407 295.834C212.723 298.15 215.914 299.577 219.446 299.577H342.207C342.727 299.577 343.149 299.999 343.149 300.519V301.529C343.149 302.05 342.727 302.472 342.207 302.472H218.741C214.419 302.472 210.494 300.716 207.659 297.881C204.797 295.017 203.035 291.056 203.067 286.678C203.132 278 210.467 271.119 219.143 271.119H342.207C342.727 271.119 343.149 271.54 343.149 272.06V273.072C343.149 273.591 342.727 274.013 342.207 274.013H219.822C212.781 274.013 206.656 279.769 206.664 286.812Z" fill="#4870C0"/>
<path d="M229.785 279.205V290.526L233.883 286.429L237.854 290.4V279.205H229.785Z" fill="#1D2A30"/>
<path d="M333.005 302.23H290.021H215.992C212.769 301.658 209.882 300.1 207.662 297.881C204.828 295.046 203.074 291.133 203.07 286.807C203.07 286.764 203.07 286.721 203.07 286.679C203.135 278 210.471 271.12 219.146 271.12H265.312C267.752 271.203 273.094 271.347 281.18 271.347C286.338 271.347 292.614 271.288 299.968 271.12H324.798C324.777 271.747 324.777 272.713 324.865 274.013H219.825C212.784 274.013 206.66 279.77 206.668 286.812C206.673 290.336 208.099 293.522 210.41 295.834C212.726 298.151 215.918 299.577 219.449 299.577H331.848C332.213 300.442 332.6 301.328 333.005 302.23Z" fill="#B4CAEC"/>
<path d="M173.203 363.323H348.652V335.082H173.203V363.323Z" fill="#4870C0"/>
<path d="M348.654 361.801H227.918C225.288 361.801 222.845 361.008 220.812 359.646C221.513 358.391 222.248 356.88 222.836 355.22L304.772 354.281L223.606 352.507C223.848 351.372 224.004 350.203 224.004 349.018C224.004 348.015 223.894 347.034 223.714 346.082L343.948 345.778L223.436 344.834C222.998 343.152 222.35 341.601 221.665 340.254C223.356 338.733 225.579 337.842 227.946 337.842H348.654V340.245L228.527 341.208L348.654 342.544V350.671L294.727 352.6L348.654 352.446V356.771L261.706 358.096L348.654 359.06V361.801Z" fill="#C7D9F2"/>
<path d="M348.654 342.545L228.527 341.209L348.654 340.245V342.545Z" fill="#9CACD3"/>
<path d="M294.727 352.601L348.653 350.671V352.446L294.727 352.601Z" fill="#9CACD3"/>
<path d="M348.655 359.061L261.707 358.097L348.655 356.771V359.061Z" fill="#9CACD3"/>
<path d="M220.811 359.646C220.116 359.18 219.469 358.648 218.879 358.058C216.568 355.746 215.14 352.559 215.137 349.035C215.127 341.994 221.253 336.236 228.293 336.236H348.652V337.843H227.945C225.577 337.843 223.354 338.734 221.664 340.255C222.348 341.601 222.996 343.153 223.435 344.835L343.946 345.778L223.713 346.082C223.893 347.034 224.002 348.015 224.002 349.018C224.002 350.203 223.847 351.372 223.604 352.508L304.771 354.281L222.835 355.221C222.247 356.881 221.512 358.391 220.811 359.646Z" fill="#9CACD3"/>
<path d="M215.137 349.035C215.141 352.559 216.568 355.746 218.879 358.058C221.194 360.373 224.387 361.801 227.917 361.801H350.68C351.2 361.801 351.621 362.222 351.621 362.741V363.753C351.621 364.273 351.2 364.694 350.68 364.694H159.694C155.374 364.694 151.447 362.938 148.612 360.102C145.75 357.24 143.988 353.279 144.02 348.9C144.085 340.223 151.419 333.341 160.096 333.341H350.68C351.2 333.341 351.621 333.764 351.621 334.284V335.293C351.621 335.814 351.2 336.236 350.68 336.236H228.293C221.253 336.236 215.128 341.993 215.137 349.035Z" fill="#1D2A30"/>
<path d="M227.212 364.694H159.694C155.373 364.694 151.447 362.938 148.611 360.102C145.777 357.269 144.023 353.357 144.02 349.028C144.02 348.986 144.02 348.944 144.02 348.9C144.077 341.175 149.898 334.873 157.298 333.582H215.181H224.816C217.417 334.873 211.595 341.175 211.539 348.9C211.539 348.944 211.539 348.986 211.539 349.028C211.541 353.357 213.297 357.269 216.13 360.102C218.965 362.938 222.891 364.694 227.212 364.694Z" fill="#45555C"/>
<path d="M215.137 349.035C215.141 352.559 216.568 355.746 218.88 358.058C221.194 360.373 224.387 361.801 227.917 361.801H350.68C351.2 361.801 351.621 362.222 351.621 362.741V363.753C351.621 364.273 351.2 364.694 350.68 364.694H227.213C222.892 364.694 218.966 362.938 216.13 360.102C213.269 357.24 211.508 353.279 211.539 348.9C211.603 340.223 218.939 333.341 227.616 333.341H350.68C351.2 333.341 351.621 333.764 351.621 334.284V335.293C351.621 335.814 351.2 336.236 350.68 336.236H228.293C221.253 336.236 215.128 341.993 215.137 349.035Z" fill="#1D2A30"/>
<path d="M228.527 345.45V356.771L232.626 352.673L236.597 356.644V345.45H228.527Z" fill="#4870C0"/>
<path d="M350.68 364.694H227.212C222.891 364.694 218.965 362.938 216.13 360.102C213.297 357.269 211.541 353.357 211.539 349.028C211.539 348.986 211.539 348.944 211.539 348.9C211.596 341.175 217.417 334.873 224.816 333.582H338.649C339.586 333.582 340.506 333.5 341.401 333.341H350.68C350.748 333.341 350.814 333.348 350.879 333.362C351.123 333.718 351.371 334.077 351.621 334.436V335.293C351.621 335.814 351.199 336.236 350.68 336.236H348.652H228.293C221.253 336.236 215.127 341.993 215.137 349.035C215.14 352.559 216.568 355.746 218.879 358.058C221.194 360.373 224.386 361.801 227.917 361.801H350.68C351.199 361.801 351.621 362.222 351.621 362.741V363.753C351.621 364.273 351.199 364.694 350.68 364.694Z" fill="#758288"/>
<path d="M157.418 332.169H222.425V303.969H157.418V332.169Z" fill="#4870C0"/>
<path d="M217.21 330.688H157.418V305.124V306.727H217.21L217.173 305.124H217.21V309.132L163.269 310.283L217.21 311.432V319.559L160.088 320.523L217.21 321.334V325.66L160.597 326.804L217.21 327.949V330.688ZM157.418 313.149V315.948L212.186 314.803L157.418 313.149Z" fill="#DBE8F7"/>
<path d="M217.21 306.728H157.418V305.125H215.185H217.173L217.21 306.728Z" fill="#ADB7D0"/>
<path d="M217.206 311.433L163.266 310.283L217.206 309.132V311.433Z" fill="#ADB7D0"/>
<path d="M217.207 321.334L160.086 320.523L217.207 319.559V321.334Z" fill="#ADB7D0"/>
<path d="M217.206 327.949L160.594 326.804L217.206 325.66V327.949Z" fill="#ADB7D0"/>
<path d="M157.418 315.949V313.15L212.186 314.804L157.418 315.949Z" fill="#ADB7D0"/>
<path d="M302.497 317.922C302.492 321.447 301.065 324.634 298.753 326.946C296.438 329.26 293.246 330.689 289.715 330.689H154.414C153.894 330.689 153.473 331.111 153.473 331.63V332.641C153.473 333.162 153.894 333.582 154.414 333.582H290.42C294.741 333.582 298.667 331.827 301.502 328.991C304.364 326.129 306.126 322.167 306.093 317.789C306.03 309.111 298.695 302.23 290.017 302.23H154.414C153.894 302.23 153.473 302.652 153.473 303.172V304.182C153.473 304.703 153.894 305.125 154.414 305.125H289.34C296.381 305.125 302.505 310.881 302.497 317.922Z" fill="#1D2A30"/>
<path d="M215.181 333.582H154.414C153.894 333.582 153.473 333.162 153.473 332.641V331.63C153.473 331.111 153.894 330.689 154.414 330.689H217.206H215.181C214.662 330.689 214.24 331.111 214.24 331.63V332.641C214.24 333.162 214.662 333.582 215.181 333.582Z" fill="#758288"/>
<path d="M215.181 305.125H154.414C153.894 305.125 153.473 304.703 153.473 304.182V303.173C153.473 302.652 153.894 302.23 154.414 302.23H290.017H215.181C214.662 302.23 214.24 302.652 214.24 303.173V304.182C214.24 304.703 214.662 305.125 215.181 305.125Z" fill="#758288"/>
<path d="M351.843 318.09C351.843 325.889 345.522 332.211 337.725 332.211H217.211V303.97H337.725C345.522 303.97 351.843 310.292 351.843 318.09Z" fill="#4870C0"/>
<path d="M217.209 330.688H217.207V327.949H217.208V325.66H217.207V321.334H217.208V319.559H217.207V311.432L217.208 311.434V309.132H217.207V305.124V306.727L217.209 309.132H217.208V311.434L217.209 319.559H217.208V321.334L217.209 325.66H217.208V327.949L217.209 330.688Z" fill="#F7F9FD"/>
<path d="M337.947 330.688H337.538L339.847 324.074L343.026 324.111C343.609 325.77 344.344 327.282 345.049 328.537C343.018 329.897 340.576 330.688 337.947 330.688ZM336.443 330.688H217.212V327.949L304.16 326.984L217.211 325.66L217.212 321.334L271.139 321.49L217.211 319.559L217.212 311.434L332.649 310.15L331.883 313.804L221.916 314.668L329.269 314.933V321.675L261.097 323.166L329.269 323.952V325.532L330.69 324.111L329.653 327.982L336.443 330.688ZM340.771 321.423L341.113 320.444L341.654 318.888C341.746 319.045 341.841 319.206 341.933 319.363C342.002 320.05 342.117 320.727 342.264 321.391L340.771 321.423ZM332.668 310.06L217.211 309.132L217.212 306.727H334.418C334.352 307.183 334.291 307.607 334.233 308L333.171 307.655L332.668 310.06Z" fill="#C7D9F2"/>
<path d="M217.212 311.434V309.132L332.668 310.06L332.649 310.15L217.211 311.434" fill="#9CACD3"/>
<path d="M271.139 321.49L217.211 321.335L217.212 319.56L271.139 321.49Z" fill="#9CACD3"/>
<path d="M217.212 327.949V325.66L304.16 326.984L217.211 327.949" fill="#9CACD3"/>
<path d="M345.047 328.538C344.342 327.283 343.607 325.77 343.024 324.112L339.845 324.075L340.77 321.424L342.262 321.392C342.115 320.728 342.001 320.05 341.931 319.363C343.409 321.872 345.012 324.472 346.753 327.17C346.225 327.673 345.654 328.13 345.047 328.538ZM329.268 323.952L261.096 323.166L329.268 321.676V323.952ZM329.268 314.933L221.914 314.668L331.882 313.805L331.825 314.078L332.59 314.337H329.268V314.933Z" fill="#9CACD3"/>
<path d="M217.207 306.728H217.209V305.125H217.207V306.728Z" fill="#C3C6CD"/>
<path d="M334.416 306.728H217.207L217.209 305.125H334.337C334.417 305.291 334.496 305.459 334.576 305.627C334.521 306.01 334.466 306.379 334.416 306.728Z" fill="#9CACD3"/>
<path d="M350.726 317.922C350.722 321.447 349.295 324.634 346.984 326.946C344.669 329.26 341.476 330.689 337.945 330.689H215.183C214.664 330.689 214.242 331.111 214.242 331.63V332.641C214.242 333.162 214.664 333.582 215.183 333.582H338.651C342.97 333.582 346.897 331.827 349.732 328.991C352.594 326.129 354.355 322.167 354.324 317.789C354.259 309.111 346.925 302.23 338.248 302.23H215.183C214.664 302.23 214.242 302.652 214.242 303.172V304.182C214.242 304.703 214.664 305.125 215.183 305.125H337.569C344.61 305.125 350.735 310.881 350.726 317.922Z" fill="#1D2A30"/>
<path d="M337.334 314.337V325.66L333.237 321.561L329.266 325.532V314.337H337.334Z" fill="#4870C0"/>
<path d="M369.173 155.194L366.226 155.251C365.117 155.272 364.088 155.827 363.461 156.742L360.534 161.017C359.363 162.725 359.093 164.895 359.807 166.839L360.25 168.042C365.144 168.285 370.612 164.941 370.612 164.941L372.277 164.16C373.759 163.465 374.399 161.817 373.745 160.376L372.242 157.057C371.722 155.91 370.502 155.171 369.173 155.194Z" fill="#FAB6B9"/>
<path d="M313.3 160.439L316.126 162.71C317.106 163.481 318.108 164.235 319.118 164.975C321.131 166.466 323.189 167.884 325.26 169.255C327.34 170.615 329.46 171.86 331.59 173.039C333.736 174.178 335.895 175.188 338.07 176.049L336.949 175.814C336.896 175.879 337.577 175.876 338.369 175.658C339.176 175.45 340.122 175.09 341.082 174.639C343.011 173.722 345.042 172.56 347.028 171.276C349.031 170.001 351.021 168.619 353.004 167.196C355 165.802 356.981 164.278 358.91 162.841L358.984 162.787C360.307 161.803 362.179 162.077 363.163 163.401C363.976 164.493 363.929 165.961 363.145 166.993C361.537 169.109 359.854 171.013 358.098 172.947C356.329 174.848 354.465 176.678 352.481 178.445C350.474 180.187 348.377 181.896 345.923 183.417C344.69 184.177 343.366 184.903 341.81 185.527C340.243 186.127 338.427 186.709 335.862 186.569C335.597 186.553 335.34 186.51 335.095 186.439L334.741 186.333C331.902 185.493 329.153 184.489 326.548 183.289C323.947 182.089 321.421 180.78 319.01 179.331C316.588 177.899 314.255 176.35 311.993 174.716C310.868 173.888 309.756 173.047 308.659 172.176C307.535 171.302 306.524 170.447 305.355 169.396C302.897 167.187 302.696 163.403 304.904 160.946C307.035 158.574 310.629 158.303 313.087 160.268L313.3 160.439Z" fill="#FAB6B9"/>
<path d="M297.478 152.059C294.722 159.737 299.163 167.381 309.842 176.363C315.163 175.579 322.33 164.676 322.33 164.676C322.33 164.676 307.308 149.646 297.478 152.059Z" fill="#4870C0"/>
<path d="M306.668 104.339C306.668 104.339 296.146 93.5705 282.441 107.085C268.736 120.6 266.059 165.37 266.059 165.37L301.842 172.323C301.842 172.323 306.471 167.006 308.849 151.679C311.228 136.354 312.489 121.698 315.507 118.278C318.527 114.857 306.668 104.339 306.668 104.339Z" fill="#1D2A30"/>
<path d="M337.404 331.071L329.652 327.982L332.68 316.68L335.473 306.314L345.273 308.484L341.112 320.444L337.404 331.071Z" fill="#FAB6B9"/>
<path d="M332.619 316.903L332.594 316.891L333.226 314.555L333.249 314.562L332.679 316.681L332.619 316.903Z" fill="#395EB4"/>
<path d="M341.013 320.684L332.617 316.903L332.677 316.68L333.247 314.562L340.593 317.061C340.935 317.659 341.286 318.266 341.643 318.876L341.013 320.684Z" fill="#CA9091"/>
<path d="M278.748 229.26C278.748 229.26 343.52 220.525 361.539 232.022C379.559 243.52 344.68 313.553 344.68 313.553L333.773 311.141C333.773 311.141 341.946 255.63 341.334 253.304C340.724 250.976 310.218 266.128 268.461 267.564L278.748 229.26Z" fill="#1D2A30"/>
<path d="M336.029 308.584L334.23 308.001C334.331 307.306 334.447 306.509 334.575 305.627C335.038 306.593 335.522 307.578 336.029 308.584ZM354.133 292.346C348.624 272.101 343.02 252.158 342.134 251.443C333.902 244.793 322.066 241.326 312.598 239.53H346.462C347.379 239.53 348.467 239.161 348.526 238.264H349.244C350.543 238.264 351.829 237.305 352.118 235.982L353.694 228.83C356.808 229.658 359.478 230.708 361.537 232.022C365.233 234.379 366.703 239.199 366.706 245.373C366.707 247.108 366.592 248.953 366.378 250.878C366.203 252.435 365.965 254.045 365.671 255.697C365.394 257.251 365.068 258.839 364.699 260.455C364.174 262.758 363.562 265.112 362.887 267.486C362.437 269.065 361.959 270.656 361.459 272.245C360.789 274.372 360.081 276.495 359.347 278.599C357.676 283.39 355.878 288.06 354.133 292.346ZM299.365 234.464H296.884C296.786 233.185 296.664 231.642 296.535 230.079C297.585 230.577 298.296 230.834 298.296 230.834L299.945 231.646C299.958 231.652 299.973 231.659 299.987 231.666L299.365 234.464Z" fill="#182124"/>
<path d="M333.168 307.656L346.897 312.108L344.436 318.368L331.824 314.078L333.168 307.656Z" fill="#1D2A30"/>
<path d="M340.129 329.681L340.354 329.855L340.429 329.76C340.604 329.546 341.072 328.999 341.653 328.516C342.233 328.029 342.931 327.625 343.496 327.632C343.79 327.635 344.053 327.723 344.318 327.971C344.55 328.189 344.603 328.342 344.599 328.406L344.489 328.599C344.331 328.747 343.962 328.905 343.513 329.018C342.839 329.191 341.985 329.288 341.307 329.338C340.628 329.39 340.126 329.396 340.125 329.396C339.971 329.399 339.846 329.523 339.844 329.678C339.843 329.832 339.964 329.961 340.118 329.965C340.119 329.965 340.434 329.976 340.912 330.021C341.628 330.085 342.707 330.227 343.582 330.505C344.019 330.643 344.401 330.817 344.655 331.013C344.91 331.213 345.02 331.402 345.021 331.618L345.02 331.66C345.002 331.928 344.933 332.072 344.867 332.14C344.801 332.209 344.722 332.244 344.566 332.246C344.3 332.251 343.868 332.096 343.406 331.836C342.71 331.452 341.932 330.858 341.336 330.364C341.038 330.116 340.785 329.893 340.606 329.732C340.427 329.572 340.324 329.475 340.324 329.475L340.129 329.681L339.933 329.887C339.937 329.891 340.693 330.609 341.637 331.332C342.109 331.694 342.629 332.056 343.13 332.334C343.636 332.611 344.115 332.812 344.566 332.815C344.824 332.819 345.094 332.734 345.283 332.529C345.472 332.325 345.565 332.043 345.588 331.696L345.59 331.618C345.591 331.327 345.478 331.061 345.304 330.85C344.685 330.125 343.419 329.822 342.281 329.621C341.145 329.432 340.147 329.397 340.138 329.396L340.129 329.681L340.132 329.965C340.139 329.965 341.335 329.95 342.546 329.78C343.153 329.694 343.762 329.573 344.246 329.382C344.487 329.285 344.701 329.174 344.87 329.02C345.039 328.872 345.17 328.656 345.168 328.406C345.165 328.099 344.993 327.827 344.708 327.556C344.348 327.213 343.917 327.061 343.496 327.063C342.566 327.074 341.699 327.707 341.03 328.304C340.364 328.906 339.91 329.5 339.903 329.508C339.814 329.624 339.827 329.788 339.933 329.887L340.129 329.681Z" fill="#546DBE"/>
<path d="M328.201 323.159C328.506 322.289 339.032 326.47 339.032 326.47C339.032 326.47 343.457 335.349 349.389 338.949C355.322 342.551 350.479 345.237 343.299 342.902C336.119 340.568 330.641 338.785 325.54 337.128C320.439 335.469 325.039 332.158 328.201 323.159Z" fill="#252D32"/>
<path d="M340.594 317.062L331.824 314.078L333.168 307.656L336.03 308.584C337.384 311.271 338.898 314.096 340.594 317.062Z" fill="#758288"/>
<path d="M371.206 353.493L363.175 355.756L358.705 344.941L354.621 335.014L363.719 330.776L367.689 342.803L371.206 353.493Z" fill="#FAB6B9"/>
<path d="M359.609 350.074C359.654 349.155 370.935 350.157 370.935 350.157C370.935 350.157 377.71 357.403 384.422 359.16C391.136 360.917 387.261 364.876 379.714 364.689C372.166 364.5 366.407 364.355 361.044 364.222C355.681 364.088 359.147 359.603 359.609 350.074Z" fill="#252D32"/>
<path d="M372.297 351.385L372.562 351.486L372.616 351.355C372.741 351.055 373.088 350.289 373.574 349.619C374.061 348.938 374.685 348.398 375.274 348.41C375.447 348.412 375.626 348.45 375.823 348.549C375.997 348.637 376.106 348.722 376.16 348.789L376.225 348.934C376.226 348.985 376.198 349.073 376.106 349.189C375.788 349.604 374.791 350.128 373.9 350.492C373.454 350.678 373.03 350.834 372.719 350.943C372.408 351.052 372.212 351.113 372.212 351.113C372.064 351.159 371.98 351.315 372.023 351.463C372.065 351.612 372.218 351.699 372.368 351.66C372.369 351.66 372.82 351.542 373.469 351.424C374.118 351.305 374.959 351.187 375.715 351.187C376.214 351.186 376.675 351.242 377 351.364C377.328 351.492 377.492 351.649 377.548 351.884C377.573 351.994 377.583 352.087 377.583 352.163C377.577 352.369 377.528 352.436 377.437 352.506C377.341 352.574 377.153 352.625 376.895 352.624C376.18 352.627 375.036 352.26 374.103 351.882C373.634 351.694 373.214 351.505 372.911 351.365C372.608 351.224 372.426 351.131 372.426 351.131L372.297 351.385L372.168 351.638C372.172 351.641 372.929 352.025 373.891 352.41C374.858 352.795 376.014 353.188 376.895 353.192C377.215 353.192 377.513 353.142 377.761 352.973C378.011 352.807 378.159 352.501 378.153 352.163C378.153 352.035 378.135 351.901 378.102 351.757C377.998 351.286 377.624 350.985 377.199 350.83C376.768 350.671 376.253 350.619 375.715 350.618C374.095 350.621 372.237 351.107 372.225 351.109L372.297 351.385L372.381 351.656C372.388 351.655 373.447 351.324 374.519 350.846C375.055 350.605 375.594 350.329 376.016 350.028C376.227 349.876 376.411 349.718 376.551 349.544C376.689 349.369 376.792 349.168 376.794 348.934C376.795 348.752 376.721 348.568 376.596 348.422C376.47 348.274 376.299 348.152 376.08 348.042C375.811 347.906 375.538 347.841 375.274 347.841C374.749 347.842 374.284 348.088 373.895 348.419C372.731 349.416 372.043 351.266 372.031 351.282C371.979 351.419 372.038 351.572 372.168 351.638L372.297 351.385Z" fill="#546DBE"/>
<path d="M358.767 345.161L357.992 343.272L358.016 343.265L358.705 344.941L358.793 345.155L358.767 345.161Z" fill="#CECDCC"/>
<path d="M358.793 345.155L358.705 344.941L358.016 343.265L366.846 340.28L367.757 343.049L358.793 345.155Z" fill="#CA9091"/>
<path d="M297.123 237.639C297.123 237.639 296.19 224.821 295.759 222.204C295.314 219.428 294.73 216.183 294.175 214.528C291.324 205.978 253.24 216.03 253.24 216.03L252.159 221.888C252.159 221.888 234.974 254.295 246.458 265.969C249.948 269.518 256.791 271.116 263.781 271.059C263.781 271.059 285.138 272.092 324.851 270.243C324.851 270.243 321.913 293.377 354.651 338.716L365.603 335.21C365.603 335.21 343.95 252.91 342.135 251.443C326.296 238.648 297.123 237.639 297.123 237.639Z" fill="#1D2A30"/>
<path d="M352.672 338.195L366.278 333.379L368.13 339.846L355.51 344.111L352.672 338.195Z" fill="#1D2A30"/>
<path d="M309.931 158.195C309.931 158.195 308.564 161.542 306.655 167.386C306.195 168.752 305.724 170.26 305.229 171.885C304.583 174.019 303.886 176.363 303.191 178.907C302.685 180.747 302.179 182.667 301.685 184.692C301.178 186.742 300.66 188.91 300.152 191.137C300.105 191.397 300.034 191.667 299.988 191.926C298.067 200.575 296.384 208.939 295.322 219.602L253.48 215.949C253.48 215.949 253.34 203.026 254.906 188.452C255.753 180.569 257.097 172.215 259.23 165.146C260.889 159.634 263.035 154.896 265.79 151.798C265.79 151.798 288.479 144.353 309.931 158.195Z" fill="#4870C0"/>
<path d="M288.585 145.787C275.997 141.765 271.109 151.629 271.109 151.629L277.804 150.97L291.417 168.055L299.391 157.728L304.409 160.42C304.409 160.42 299.52 149.28 288.585 145.787Z" fill="#4870C0"/>
<path d="M291.417 168.055L277.804 150.97L271.109 151.629C271.109 151.629 274.481 144.823 282.839 144.823C283.384 144.823 283.951 144.852 284.54 144.914C283.125 147.19 281.444 149.028 279.536 149.894L291.078 167.178L299.191 155.365C295.891 153.52 294.896 151.349 295.098 149.119C301.484 153.754 304.409 160.42 304.409 160.42L299.391 157.728L291.417 168.055Z" fill="#B4CAEC"/>
<path d="M291.077 167.179L279.535 149.895C284.985 147.422 288.589 137.014 289.369 131.143L297.528 143.469C294.867 147.428 293.088 151.952 299.19 155.365L291.077 167.179Z" fill="#FAB6B9"/>
<path d="M295.885 146.346C295.884 146.346 295.884 146.346 295.883 146.346C295.915 146.276 295.946 146.206 295.979 146.136C295.948 146.207 295.916 146.276 295.885 146.346ZM297.525 143.463L296.2 141.46L297.526 143.463H297.525Z" fill="#182124"/>
<path d="M295.884 146.346C293.476 145.263 290.911 141.66 291.51 139.116C291.808 137.846 292.279 136.68 292.695 136.171L296.201 141.46L297.526 143.463C296.937 144.331 296.399 145.228 295.98 146.136C295.947 146.206 295.916 146.276 295.884 146.346Z" fill="#CA9091"/>
<path d="M252.793 217.328L265.877 218.189L265.406 221.883L251.508 220.881L252.793 217.328Z" fill="#100F0D"/>
<path d="M296.331 224.097L266.984 221.99L267.456 218.297L295.852 220.162L296.331 224.097Z" fill="#100F0D"/>
<path d="M281.043 219.766L280.454 219.743L280.358 222.151L280.355 222.216C280.357 223.065 281.013 223.773 281.867 223.832L285.457 224.073L285.567 224.076C286.409 224.076 287.116 223.427 287.181 222.578L287.361 220.133L287.365 220.013C287.365 219.158 286.699 218.446 285.837 218.397L282.163 218.191L282.072 218.189C281.207 218.189 280.491 218.869 280.454 219.742L281.043 219.766L281.631 219.79C281.641 219.552 281.839 219.366 282.072 219.366L282.097 219.367L285.771 219.573C286.006 219.586 286.187 219.782 286.187 220.013L286.185 220.046L286.005 222.49V222.489C285.99 222.72 285.793 222.899 285.567 222.898L285.536 222.897L281.946 222.656H281.947C281.713 222.641 281.533 222.447 281.533 222.216L281.535 222.198L281.631 219.79L281.043 219.766Z" fill="white"/>
<path d="M355.51 344.111L352.672 338.195L366.278 333.379L368.13 339.846L366.846 340.28L358.015 343.265L357.992 343.272L355.51 344.111Z" fill="#8E989B"/>
<path d="M318.265 127.503C318.256 127.486 317.935 126.85 317.303 126.179C316.672 125.51 315.715 124.79 314.437 124.679C314.258 124.664 314.1 124.796 314.083 124.976C314.068 125.155 314.201 125.314 314.381 125.329C315.433 125.418 316.259 126.022 316.828 126.627C317.112 126.927 317.327 127.224 317.471 127.444C317.543 127.554 317.597 127.645 317.633 127.706L317.682 127.798C317.763 127.958 317.96 128.023 318.121 127.941C318.282 127.86 318.346 127.663 318.265 127.503Z" fill="#1D2A30"/>
<path d="M314.042 133.078C314.042 133.078 314.258 135.93 315.014 137.878C315.014 137.878 313.73 138.753 312.242 137.861L314.042 133.078Z" fill="#ED6A75"/>
<path d="M316.644 131.317C316.343 132.052 315.702 132.484 315.211 132.284C314.721 132.083 314.568 131.325 314.869 130.59C315.17 129.855 315.811 129.421 316.301 129.623C316.791 129.823 316.944 130.582 316.644 131.317Z" fill="#1D2A30"/>
<path d="M316.082 129.575L317.937 129.602C317.937 129.602 316.59 130.621 316.082 129.575Z" fill="#1D2A30"/>
<path d="M289.529 137.657C289.579 137.78 289.631 137.903 289.71 138.001C289.826 138.234 289.955 138.453 290.085 138.687C290.849 140.061 291.805 141.427 293.105 142.488C297.126 145.827 300.594 146.889 303.689 146.032C303.839 145.996 303.99 145.945 304.141 145.896L304.154 145.909C308.762 144.169 312.404 138.801 315.468 131.656C316.891 128.387 317.834 125.404 318.035 122.807L318.079 122.673C318.081 122.564 318.112 122.43 318.114 122.322C318.314 118.655 317.117 115.618 314.066 113.048C313.005 112.155 311.727 111.31 310.203 110.527C296.763 103.578 283.067 124.72 289.529 137.657Z" fill="#FAB6B9"/>
<path d="M318.089 122.72C318.089 122.72 314.06 132.568 303.035 132.113C303.035 132.113 294.223 140.011 288.479 137.29C280.648 133.581 279.376 119.137 287.705 109.276C298.506 96.4864 321.126 106.404 318.089 122.72Z" fill="#1D2A30"/>
<path d="M308.95 131.684C309.691 130.204 309.754 127.123 307.287 126.303C304.734 125.454 300.464 130.651 305.646 134.903C306.391 135.514 307.404 134.77 308.95 131.684Z" fill="#FAB6B9"/>
<path d="M306.666 104.339C306.666 104.339 316.853 106.607 320.017 112.758C323.711 119.942 323.711 125.446 313.372 128.78C313.372 128.78 300.679 116.215 295.112 114.715C289.543 113.214 285.195 112.868 285.195 112.868C289.183 102.311 302.651 99.7477 306.666 104.339Z" fill="#1D2A30"/>
<path d="M303.036 132.113C296.626 144.913 282.53 166.674 267.516 151.321C267.516 151.321 272.906 133.965 283.809 126.792C294.711 119.62 303.036 132.113 303.036 132.113Z" fill="#1D2A30"/>
<path d="M300.703 153.476C306.188 157.519 299.172 170.864 306.089 173.834C306.089 173.834 303.911 171.169 305.357 167.538C306.804 163.907 312.685 154.322 310.346 141.334L300.703 153.476Z" fill="#1D2A30"/>
<path d="M254.906 188.451C255.753 180.568 257.097 172.215 259.23 165.146C260.565 164.484 261.759 164.109 262.688 164.109C262.718 164.109 262.746 164.109 262.774 164.11C269.066 164.227 271.362 170.129 271.362 170.129C271.362 170.129 272.482 176.044 272.328 181.63C272.328 181.63 263.376 187.696 254.906 188.451Z" fill="#395EB4"/>
<path d="M305.005 223.62L303.119 221.353C302.411 220.501 301.333 220.044 300.228 220.125L295.061 220.512C292.996 220.665 291.132 221.81 290.062 223.583L289.398 224.681C292.268 228.655 298.297 230.834 298.297 230.834L299.946 231.646C301.415 232.368 303.101 231.839 303.818 230.427L305.469 227.18C306.039 226.058 305.854 224.641 305.005 223.62Z" fill="#FAB6B9"/>
<path d="M268.736 169.463L268.73 173.088C268.739 174.335 268.777 175.588 268.831 176.838C268.926 179.342 269.104 181.835 269.329 184.309C269.566 186.784 269.918 189.216 270.331 191.615C270.782 194.004 271.344 196.319 272.029 198.558L271.513 197.536C271.923 198.267 272.707 199.281 273.491 200.26C274.295 201.254 275.168 202.26 276.071 203.259C277.886 205.255 279.766 207.279 281.697 209.268L287.514 215.274L293.345 221.327C294.49 222.515 294.455 224.405 293.267 225.55C292.257 226.524 290.731 226.641 289.594 225.92C287.161 224.378 284.847 222.742 282.506 221.1C280.188 219.436 277.91 217.716 275.652 215.945C273.411 214.152 271.173 212.337 268.997 210.363C267.905 209.377 266.821 208.359 265.735 207.265C264.641 206.151 263.589 205.021 262.439 203.407C262.284 203.188 262.158 202.96 262.059 202.723L261.922 202.385C260.803 199.642 259.87 196.87 259.178 194.084C258.488 191.305 257.932 188.513 257.558 185.725C257.163 182.94 256.912 180.151 256.775 177.364C256.719 175.968 256.68 174.573 256.673 173.173C256.654 171.749 256.689 170.425 256.779 168.855C256.969 165.556 259.796 163.034 263.094 163.223C266.276 163.405 268.734 166.041 268.736 169.188V169.463Z" fill="#FAB6B9"/>
<path d="M265.394 151.873C257.679 154.519 254.487 162.763 254.148 176.714C258.085 180.379 271.075 179.162 271.075 179.162C271.075 179.162 273.419 158.04 265.394 151.873Z" fill="#4870C0"/>
<path d="M348.533 234.464V238.186C348.533 239.14 347.408 239.53 346.465 239.53H272.12C271.164 239.53 270.016 239.14 270.016 238.186V234.464H348.533Z" fill="#1D2A30"/>
<path d="M297.43 239.53H272.12C271.164 239.53 270.016 239.14 270.016 238.186V234.464H299.368H295.344V238.186C295.344 239.14 296.477 239.53 297.43 239.53Z" fill="#758288"/>
<path d="M346.465 239.53H297.43C296.477 239.53 295.344 239.14 295.344 238.186V234.464H299.368L299.085 235.74C298.787 237.063 299.614 238.264 300.902 238.264H302.545H348.529C348.47 239.162 347.382 239.53 346.465 239.53Z" fill="#59656A"/>
<path d="M360.971 195.832L352.12 235.982C351.832 237.305 350.545 238.264 349.246 238.264H300.901C299.613 238.264 298.786 237.063 299.084 235.74L307.924 195.898C308.222 194.588 309.498 193.934 310.797 193.934H359.143C360.442 193.934 361.258 194.522 360.971 195.832Z" fill="#1D2A30"/>
<path d="M349.243 238.264H302.542C301.244 238.264 300.427 237.063 300.713 235.74L309.565 195.898C309.852 194.588 311.139 193.934 312.438 193.934H359.141C360.263 193.934 361.023 194.372 361.026 195.334C361.026 195.488 361.007 195.653 360.968 195.832L352.118 235.982C351.829 237.305 350.543 238.264 349.243 238.264ZM333.315 210.031C330.671 210.135 327.983 212.881 327.213 216.251C326.442 219.689 328.044 222.482 330.745 222.482C333.447 222.482 337.131 219.689 337.131 216.251V216.239L336.884 216.251C334.195 216.251 332.544 213.468 333.315 210.031Z" fill="#758288"/>
<path d="M330.746 222.481C328.045 222.481 326.443 219.688 327.213 216.25C327.983 212.88 330.672 210.134 333.315 210.03C332.545 213.467 334.195 216.25 336.884 216.25L337.132 216.238V216.25C337.132 219.688 333.447 222.481 330.746 222.481Z" fill="#59656A"/>
</svg>
