<svg width="105" height="66" viewBox="0 0 105 66" fill="none" xmlns="http://www.w3.org/2000/svg">
<path d="M0 33C0 14.7746 14.7746 0 33 0H69C88.8823 0 105 16.1178 105 36V66H33C14.7746 66 0 51.2254 0 33Z" fill="#24384A"/>
<g clip-path="url(#clip0_8_49050)">
<path d="M52 12C46.473 12 42 16.4725 42 22C42 27.5269 46.4725 32 52 32C57.527 32 62 27.5275 62 22C62 16.473 57.5275 12 52 12ZM51.7041 26.6804C51.1381 26.6804 50.7037 26.2066 50.7037 25.6668C50.7037 25.114 51.1512 24.6533 51.7041 24.6533C52.257 24.6533 52.7176 25.114 52.7176 25.6669C52.7176 26.2065 52.2701 26.6804 51.7041 26.6804ZM53.2046 21.56C52.4807 22.126 52.4675 22.5209 52.4675 23.2054C52.4675 23.4555 52.3359 23.7451 51.6909 23.7451C51.1512 23.7451 50.967 23.5476 50.967 22.8632C50.967 21.7311 51.4671 21.1914 51.8489 20.8624C52.2832 20.4938 53.0204 20.0858 53.0204 19.375C53.0204 18.7695 52.4939 18.4799 51.8357 18.4799C50.4931 18.4799 50.7827 19.4935 50.0718 19.4935C49.7164 19.4935 49.2821 19.2565 49.2821 18.7432C49.2821 18.0324 50.0982 16.9793 51.8752 16.9793C53.56 16.9793 54.6789 17.9139 54.6789 19.1512C54.6789 20.3885 53.56 21.2836 53.2046 21.56Z" fill="white"/>
</g>
<path d="M25.7852 49H24.623V44.29H19.373V49H18.2109V39.0059H19.373V43.2646H24.623V39.0059H25.7852V49ZM31.2471 41.3711C31.8851 41.3711 32.432 41.5124 32.8877 41.7949C33.3434 42.0775 33.6921 42.474 33.9336 42.9844C34.1751 43.4902 34.2959 44.0827 34.2959 44.7617V45.4658H29.1211C29.1348 46.3454 29.3535 47.0153 29.7773 47.4756C30.2012 47.9359 30.7982 48.166 31.5684 48.166C32.0423 48.166 32.4616 48.1227 32.8262 48.0361C33.1908 47.9495 33.569 47.8219 33.9609 47.6533V48.6514C33.5827 48.82 33.2067 48.943 32.833 49.0205C32.4639 49.098 32.0264 49.1367 31.5205 49.1367C30.8005 49.1367 30.1715 48.9909 29.6338 48.6992C29.1006 48.403 28.6859 47.9701 28.3896 47.4004C28.0934 46.8307 27.9453 46.1335 27.9453 45.3086C27.9453 44.502 28.0798 43.8047 28.3486 43.2168C28.6221 42.6243 29.0049 42.1686 29.4971 41.8496C29.9938 41.5306 30.5771 41.3711 31.2471 41.3711ZM31.2334 42.3008C30.6273 42.3008 30.1442 42.499 29.7842 42.8955C29.4242 43.292 29.21 43.8457 29.1416 44.5566H33.1064C33.1019 44.11 33.0312 43.7181 32.8945 43.3809C32.7624 43.0391 32.5596 42.7747 32.2861 42.5879C32.0127 42.3965 31.6618 42.3008 31.2334 42.3008ZM37.3652 49H36.2236V38.3633H37.3652V49ZM43.2852 41.3711C44.2194 41.3711 44.9645 41.6924 45.5205 42.335C46.0765 42.9775 46.3545 43.9437 46.3545 45.2334C46.3545 46.0856 46.2269 46.8011 45.9717 47.3799C45.7165 47.9587 45.3564 48.3962 44.8916 48.6924C44.4313 48.9886 43.8867 49.1367 43.2578 49.1367C42.8613 49.1367 42.5127 49.0843 42.2119 48.9795C41.9111 48.8747 41.6536 48.7334 41.4395 48.5557C41.2253 48.3779 41.0475 48.1842 40.9062 47.9746H40.8242C40.8379 48.1523 40.8538 48.3665 40.8721 48.6172C40.8949 48.8678 40.9062 49.0866 40.9062 49.2734V52.3496H39.7646V41.5078H40.7012L40.8516 42.6152H40.9062C41.0521 42.3874 41.2298 42.18 41.4395 41.9932C41.6491 41.8018 41.9043 41.6514 42.2051 41.542C42.5104 41.4281 42.8704 41.3711 43.2852 41.3711ZM43.0869 42.3281C42.5674 42.3281 42.1481 42.4284 41.8291 42.6289C41.5146 42.8294 41.2845 43.1302 41.1387 43.5312C40.9928 43.9277 40.9154 44.4268 40.9062 45.0283V45.2471C40.9062 45.8805 40.9746 46.416 41.1113 46.8535C41.2526 47.291 41.4827 47.6237 41.8018 47.8516C42.1253 48.0794 42.5583 48.1934 43.1006 48.1934C43.5654 48.1934 43.9528 48.068 44.2627 47.8174C44.5726 47.5667 44.8027 47.2181 44.9531 46.7715C45.1081 46.3203 45.1855 45.8031 45.1855 45.2197C45.1855 44.3356 45.0124 43.6338 44.666 43.1143C44.3242 42.5902 43.7979 42.3281 43.0869 42.3281ZM53.1084 38.3633V41.542C53.1084 41.7243 53.1038 41.9089 53.0947 42.0957C53.0856 42.278 53.0697 42.4466 53.0469 42.6016H53.1221C53.277 42.3372 53.473 42.1162 53.71 41.9385C53.9515 41.7562 54.2249 41.6195 54.5303 41.5283C54.8356 41.4326 55.1592 41.3848 55.501 41.3848C56.1025 41.3848 56.6038 41.4805 57.0049 41.6719C57.4105 41.8633 57.7135 42.1595 57.9141 42.5605C58.1191 42.9616 58.2217 43.4811 58.2217 44.1191V49H57.1006V44.1943C57.1006 43.57 56.957 43.1029 56.6699 42.793C56.3874 42.4831 55.9521 42.3281 55.3643 42.3281C54.8083 42.3281 54.3639 42.4352 54.0312 42.6494C53.7031 42.859 53.4661 43.1689 53.3203 43.5791C53.179 43.9893 53.1084 44.4906 53.1084 45.083V49H51.9736V38.3633H53.1084ZM63.4443 41.3711C64.0824 41.3711 64.6292 41.5124 65.085 41.7949C65.5407 42.0775 65.8893 42.474 66.1309 42.9844C66.3724 43.4902 66.4932 44.0827 66.4932 44.7617V45.4658H61.3184C61.332 46.3454 61.5508 47.0153 61.9746 47.4756C62.3984 47.9359 62.9954 48.166 63.7656 48.166C64.2396 48.166 64.6589 48.1227 65.0234 48.0361C65.388 47.9495 65.7663 47.8219 66.1582 47.6533V48.6514C65.7799 48.82 65.404 48.943 65.0303 49.0205C64.6611 49.098 64.2236 49.1367 63.7178 49.1367C62.9977 49.1367 62.3688 48.9909 61.8311 48.6992C61.2979 48.403 60.8831 47.9701 60.5869 47.4004C60.2907 46.8307 60.1426 46.1335 60.1426 45.3086C60.1426 44.502 60.277 43.8047 60.5459 43.2168C60.8193 42.6243 61.2021 42.1686 61.6943 41.8496C62.1911 41.5306 62.7744 41.3711 63.4443 41.3711ZM63.4307 42.3008C62.8245 42.3008 62.3415 42.499 61.9814 42.8955C61.6214 43.292 61.4072 43.8457 61.3389 44.5566H65.3037C65.2992 44.11 65.2285 43.7181 65.0918 43.3809C64.9596 43.0391 64.7568 42.7747 64.4834 42.5879C64.21 42.3965 63.859 42.3008 63.4307 42.3008ZM71.8252 41.3711C71.9756 41.3711 72.1328 41.3802 72.2969 41.3984C72.4609 41.4121 72.6068 41.4326 72.7344 41.46L72.5908 42.5127C72.4678 42.4808 72.3311 42.4557 72.1807 42.4375C72.0303 42.4193 71.889 42.4102 71.7568 42.4102C71.4561 42.4102 71.1712 42.4717 70.9023 42.5947C70.638 42.7132 70.4056 42.8864 70.2051 43.1143C70.0046 43.3376 69.8473 43.6087 69.7334 43.9277C69.6195 44.2422 69.5625 44.5931 69.5625 44.9805V49H68.4209V41.5078H69.3643L69.4873 42.8887H69.5352C69.6901 42.6107 69.877 42.3577 70.0957 42.1299C70.3145 41.8975 70.5674 41.7129 70.8545 41.5762C71.1462 41.4395 71.4697 41.3711 71.8252 41.3711ZM77.0342 41.3711C77.6722 41.3711 78.2191 41.5124 78.6748 41.7949C79.1305 42.0775 79.4792 42.474 79.7207 42.9844C79.9622 43.4902 80.083 44.0827 80.083 44.7617V45.4658H74.9082C74.9219 46.3454 75.1406 47.0153 75.5645 47.4756C75.9883 47.9359 76.5853 48.166 77.3555 48.166C77.8294 48.166 78.2487 48.1227 78.6133 48.0361C78.9779 47.9495 79.3561 47.8219 79.748 47.6533V48.6514C79.3698 48.82 78.9938 48.943 78.6201 49.0205C78.251 49.098 77.8135 49.1367 77.3076 49.1367C76.5876 49.1367 75.9587 48.9909 75.4209 48.6992C74.8877 48.403 74.473 47.9701 74.1768 47.4004C73.8805 46.8307 73.7324 46.1335 73.7324 45.3086C73.7324 44.502 73.8669 43.8047 74.1357 43.2168C74.4092 42.6243 74.792 42.1686 75.2842 41.8496C75.7809 41.5306 76.3643 41.3711 77.0342 41.3711ZM77.0205 42.3008C76.4144 42.3008 75.9313 42.499 75.5713 42.8955C75.2113 43.292 74.9971 43.8457 74.9287 44.5566H78.8936C78.889 44.11 78.8184 43.7181 78.6816 43.3809C78.5495 43.0391 78.3467 42.7747 78.0732 42.5879C77.7998 42.3965 77.4489 42.3008 77.0205 42.3008ZM86.6729 46.2246H85.9277L85.6133 39.0059H86.9873L86.6729 46.2246ZM85.4766 48.2891C85.4766 47.9701 85.554 47.7445 85.709 47.6123C85.8639 47.4756 86.0576 47.4072 86.29 47.4072C86.5179 47.4072 86.7093 47.4756 86.8643 47.6123C87.0238 47.7445 87.1035 47.9701 87.1035 48.2891C87.1035 48.6035 87.0238 48.8337 86.8643 48.9795C86.7093 49.1208 86.5179 49.1914 86.29 49.1914C86.0576 49.1914 85.8639 49.1208 85.709 48.9795C85.554 48.8337 85.4766 48.6035 85.4766 48.2891Z" fill="white"/>
<defs>
<clipPath id="clip0_8_49050">
<rect width="20" height="20" fill="white" transform="translate(42 12)"/>
</clipPath>
</defs>
</svg>
