<svg width="1170" height="156" viewBox="0 0 1170 156" fill="none" xmlns="http://www.w3.org/2000/svg">
<g clip-path="url(#clip0_1130_549932)">
<rect width="1170" height="156" fill="#F4F8FD"/>
<g opacity="0.3" clip-path="url(#clip1_1130_549932)" filter="url(#filter0_f_1130_549932)">
<rect width="1844" height="1152" transform="translate(-599 -304)" fill="#F6F6F6"/>
<g filter="url(#filter1_f_1130_549932)">
<path d="M157.5 431.999C300.266 431.999 335.5 204.489 335.5 61.9994C335.5 -80.4901 675.809 -166.931 478.5 -258.501C386.93 -300.997 316.025 -289.648 220 -258.501C-8.10593 -184.51 -101 31.5096 -101 173.999C-101 316.489 14.7344 431.999 157.5 431.999Z" fill="#3DB9EA"/>
</g>
<g filter="url(#filter2_f_1130_549932)">
<path d="M189.544 -289.991C268.062 -380.981 334.485 -527.543 332.534 -647.712C326.32 -1030.38 -523.774 -681.188 -705.519 -344.382C-860.187 -57.7521 -1014.97 513.336 -690.16 537.33C-484.178 552.546 -260.672 485.572 -172.139 298.965C-119.593 188.211 -140.544 5.93036 -66.9419 -92.1023C-9.36687 -168.788 126.896 -217.391 189.544 -289.991Z" fill="#F1F1F1"/>
</g>
<g filter="url(#filter3_f_1130_549932)">
<circle cx="608.5" cy="290.5" r="635.5" fill="url(#paint0_linear_1130_549932)"/>
</g>
<g filter="url(#filter4_f_1130_549932)">
<circle cx="484" cy="82" r="120" fill="#0094FF"/>
</g>
</g>
</g>
<defs>
<filter id="filter0_f_1130_549932" x="-609" y="-314" width="1864" height="1172" filterUnits="userSpaceOnUse" color-interpolation-filters="sRGB">
<feFlood flood-opacity="0" result="BackgroundImageFix"/>
<feBlend mode="normal" in="SourceGraphic" in2="BackgroundImageFix" result="shape"/>
<feGaussianBlur stdDeviation="5" result="effect1_foregroundBlur_1130_549932"/>
</filter>
<filter id="filter1_f_1130_549932" x="-501" y="-686.279" width="1441.03" height="1518.28" filterUnits="userSpaceOnUse" color-interpolation-filters="sRGB">
<feFlood flood-opacity="0" result="BackgroundImageFix"/>
<feBlend mode="normal" in="SourceGraphic" in2="BackgroundImageFix" result="shape"/>
<feGaussianBlur stdDeviation="200" result="effect1_foregroundBlur_1130_549932"/>
</filter>
<filter id="filter2_f_1130_549932" x="-1281.28" y="-1214.77" width="2013.86" height="2154.18" filterUnits="userSpaceOnUse" color-interpolation-filters="sRGB">
<feFlood flood-opacity="0" result="BackgroundImageFix"/>
<feBlend mode="normal" in="SourceGraphic" in2="BackgroundImageFix" result="shape"/>
<feGaussianBlur stdDeviation="200" result="effect1_foregroundBlur_1130_549932"/>
</filter>
<filter id="filter3_f_1130_549932" x="-427" y="-745" width="2071" height="2071" filterUnits="userSpaceOnUse" color-interpolation-filters="sRGB">
<feFlood flood-opacity="0" result="BackgroundImageFix"/>
<feBlend mode="normal" in="SourceGraphic" in2="BackgroundImageFix" result="shape"/>
<feGaussianBlur stdDeviation="200" result="effect1_foregroundBlur_1130_549932"/>
</filter>
<filter id="filter4_f_1130_549932" x="64" y="-338" width="840" height="840" filterUnits="userSpaceOnUse" color-interpolation-filters="sRGB">
<feFlood flood-opacity="0" result="BackgroundImageFix"/>
<feBlend mode="normal" in="SourceGraphic" in2="BackgroundImageFix" result="shape"/>
<feGaussianBlur stdDeviation="150" result="effect1_foregroundBlur_1130_549932"/>
</filter>
<linearGradient id="paint0_linear_1130_549932" x1="608.5" y1="-345" x2="608.5" y2="926" gradientUnits="userSpaceOnUse">
<stop stop-color="#8BB5FF"/>
<stop offset="1" stop-color="#B1C8CB"/>
</linearGradient>
<clipPath id="clip0_1130_549932">
<rect width="1170" height="156" fill="white"/>
</clipPath>
<clipPath id="clip1_1130_549932">
<rect width="1844" height="1152" fill="white" transform="translate(-599 -304)"/>
</clipPath>
</defs>
</svg>
