<svg width="48" height="48" viewBox="0 0 48 48" fill="none" xmlns="http://www.w3.org/2000/svg">
<circle cx="24" cy="24" r="24" fill="#EBF4F7"/>
<g clip-path="url(#clip0_8_49383)">
<path d="M14.5556 26.7949H16.7777C17.0845 26.7949 17.3333 27.0435 17.3333 27.3503V32.906C17.3333 33.2128 17.0845 33.4616 16.7777 33.4616H14.5556C14.2488 33.4616 14 33.2128 14 32.906V27.3503C14 27.0435 14.2488 26.7949 14.5556 26.7949Z" fill="#3792B1"/>
<path d="M20.1101 22.3506H22.3324C22.6392 22.3506 22.888 22.5994 22.888 22.9062V32.9062C22.888 33.213 22.6392 33.4618 22.3324 33.4618H20.1101C19.8033 33.4618 19.5547 33.213 19.5547 32.9062V22.9062C19.5547 22.5994 19.8033 22.3506 20.1101 22.3506Z" fill="#3792B1"/>
<path d="M25.667 24.5732H27.8892C28.196 24.5732 28.4447 24.8221 28.4447 25.1289V32.9066C28.4447 33.2134 28.196 33.4622 27.8892 33.4622H25.667C25.3601 33.4622 25.1113 33.2134 25.1113 32.9066V25.1289C25.1113 24.8221 25.3601 24.5732 25.667 24.5732Z" fill="#3792B1"/>
<path d="M31.2216 21.2393H33.4437C33.7505 21.2393 33.9993 21.4881 33.9993 21.7949V32.9059C33.9993 33.2127 33.7505 33.4615 33.4437 33.4615H31.2216C30.9148 33.4615 30.666 33.2127 30.666 32.9059V21.7949C30.666 21.4881 30.9148 21.2393 31.2216 21.2393Z" fill="#3792B1"/>
<path d="M32.3333 14.5732C31.4133 14.5743 30.6677 15.3199 30.6667 16.2399C30.6689 16.4214 30.701 16.6012 30.7619 16.7721L27.9807 18.4254C27.6157 18.0382 27.0865 17.8506 26.5592 17.9212C26.0317 17.9918 25.5706 18.3121 25.3202 18.7816L22.8672 17.5666C22.8792 17.4952 22.8863 17.4232 22.889 17.351C22.8902 16.6763 22.4847 16.0676 21.8617 15.8086C21.2388 15.5498 20.5212 15.692 20.0441 16.1689C19.5668 16.6458 19.4242 17.3632 19.6828 17.9863L16.5008 20.361C16.2485 20.2107 15.9604 20.1305 15.6667 20.1289C14.7463 20.1289 14 20.8749 14 21.7955C14 22.7159 14.7463 23.4622 15.6667 23.4622C16.5871 23.4622 17.3333 22.7159 17.3333 21.7955C17.3319 21.5949 17.2941 21.3966 17.2216 21.2096L20.4353 18.8111C21.064 19.1617 21.8481 19.0589 22.3651 18.558L25.1546 19.9397C25.3405 20.7679 26.12 21.3237 26.9637 21.2297C27.8074 21.1357 28.4454 20.4222 28.4444 19.5732C28.4444 19.5309 28.435 19.491 28.432 19.4495L31.4569 17.6512C31.7191 17.8171 32.0229 17.9056 32.3333 17.9066C33.2537 17.9066 34 17.1603 34 16.2399C34 15.3195 33.2537 14.5732 32.3333 14.5732Z" fill="#3792B1"/>
</g>
<defs>
<clipPath id="clip0_8_49383">
<rect width="20" height="20" fill="white" transform="translate(14 14)"/>
</clipPath>
</defs>
</svg>
