<svg width="48" height="48" viewBox="0 0 48 48" fill="none" xmlns="http://www.w3.org/2000/svg">
<circle cx="24" cy="24" r="24" fill="#EBF2F8"/>
<g clip-path="url(#clip0_898_44770)">
<path d="M17.125 32.75C14.0195 32.75 11.5 30.2305 11.5 27.125C11.5 24.6719 13.0703 22.5859 15.2578 21.8164C15.2539 21.7109 15.25 21.6055 15.25 21.5C15.25 18.0469 18.0469 15.25 21.5 15.25C23.8164 15.25 25.8359 16.5078 26.918 18.3828C27.5117 17.9844 28.2305 17.75 29 17.75C31.0703 17.75 32.75 19.4297 32.75 21.5C32.75 21.9766 32.6602 22.4297 32.5 22.8516C34.7812 23.3125 36.5 25.332 36.5 27.75C36.5 30.5117 34.2617 32.75 31.5 32.75H17.125ZM20.2109 24.2734C19.8438 24.6406 19.8438 25.2344 20.2109 25.5977C20.5781 25.9609 21.1719 25.9648 21.5352 25.5977L23.0586 24.0742L23.0625 29.3125C23.0625 29.832 23.4805 30.25 24 30.25C24.5195 30.25 24.9375 29.832 24.9375 29.3125V24.0742L26.4609 25.5977C26.8281 25.9648 27.4219 25.9648 27.7852 25.5977C28.1484 25.2305 28.1523 24.6367 27.7852 24.2734L24.6602 21.1484C24.293 20.7812 23.6992 20.7812 23.3359 21.1484L20.2109 24.2734Z" fill="#3379B7"/>
</g>
<defs>
<clipPath id="clip0_898_44770">
<rect width="25" height="20" fill="white" transform="translate(11.5 14)"/>
</clipPath>
</defs>
</svg>
