<svg width="48" height="48" viewBox="0 0 48 48" fill="none" xmlns="http://www.w3.org/2000/svg">
<circle cx="24" cy="24" r="24" fill="#EBF2F8"/>
<path d="M17.4 14.4004C18.1956 14.4004 18.9587 14.7165 19.5213 15.2791C20.0839 15.8417 20.4 16.6047 20.4 17.4004C20.4 18.196 20.0839 18.9591 19.5213 19.5217C18.9587 20.0843 18.1956 20.4004 17.4 20.4004C16.6044 20.4004 15.8413 20.0843 15.2787 19.5217C14.7161 18.9591 14.4 18.196 14.4 17.4004C14.4 16.6047 14.7161 15.8417 15.2787 15.2791C15.8413 14.7165 16.6044 14.4004 17.4 14.4004ZM31.2 14.4004C31.9956 14.4004 32.7587 14.7165 33.3213 15.2791C33.8839 15.8417 34.2 16.6047 34.2 17.4004C34.2 18.196 33.8839 18.9591 33.3213 19.5217C32.7587 20.0843 31.9956 20.4004 31.2 20.4004C30.4044 20.4004 29.6413 20.0843 29.0787 19.5217C28.5161 18.9591 28.2 18.196 28.2 17.4004C28.2 16.6047 28.5161 15.8417 29.0787 15.2791C29.6413 14.7165 30.4044 14.4004 31.2 14.4004ZM12 25.6016C12 23.3929 13.7925 21.6004 16.0013 21.6004H17.6025C18.1988 21.6004 18.765 21.7316 19.275 21.9641C19.2263 22.2341 19.2038 22.5154 19.2038 22.8004C19.2038 24.2329 19.8338 25.5191 20.8275 26.4004C20.82 26.4004 20.8125 26.4004 20.8013 26.4004H12.7987C12.36 26.4004 12 26.0404 12 25.6016ZM27.1988 26.4004C27.1912 26.4004 27.1838 26.4004 27.1725 26.4004C28.17 25.5191 28.7963 24.2329 28.7963 22.8004C28.7963 22.5154 28.77 22.2379 28.725 21.9641C29.235 21.7279 29.8013 21.6004 30.3975 21.6004H31.9988C34.2075 21.6004 36 23.3929 36 25.6016C36 26.0441 35.64 26.4004 35.2013 26.4004H27.2025H27.1988ZM20.4 22.8004C20.4 21.8456 20.7793 20.9299 21.4544 20.2548C22.1295 19.5797 23.0452 19.2004 24 19.2004C24.9548 19.2004 25.8705 19.5797 26.5456 20.2548C27.2207 20.9299 27.6 21.8456 27.6 22.8004C27.6 23.7552 27.2207 24.6708 26.5456 25.346C25.8705 26.0211 24.9548 26.4004 24 26.4004C23.0452 26.4004 22.1295 26.0211 21.4544 25.346C20.7793 24.6708 20.4 23.7552 20.4 22.8004ZM16.8 32.5991C16.8 29.8391 19.0387 27.6004 21.7987 27.6004H26.1975C28.9613 27.6004 31.2 29.8391 31.2 32.5991C31.2 33.1504 30.7537 33.6004 30.1987 33.6004H17.7975C17.2463 33.6004 16.7963 33.1541 16.7963 32.5991H16.8Z" fill="#3379B7"/>
</svg>
