<svg width="48" height="48" viewBox="0 0 48 48" fill="none" xmlns="http://www.w3.org/2000/svg">
<circle cx="24" cy="24" r="24" fill="#EBF7F6"/>
<path d="M28.1831 14.7332L26.2904 16.6257L31.3741 21.709L33.2668 19.8164C34.2444 18.8389 34.2444 17.2552 33.2668 16.2777L31.726 14.7332C30.7484 13.7556 29.1647 13.7556 28.187 14.7332H28.1831ZM25.4067 17.5094L16.2913 26.628C15.8846 27.0346 15.5874 27.5391 15.4232 28.0904L14.0388 32.7944C13.9411 33.1267 14.031 33.4826 14.2735 33.725C14.5159 33.9674 14.8718 34.0574 15.2003 33.9635L19.9046 32.5793C20.456 32.4151 20.9604 32.1179 21.3671 31.7112L30.4903 22.5927L25.4067 17.5094Z" fill="#35AEA9"/>
</svg>
