<svg width="48" height="48" viewBox="0 0 48 48" fill="none" xmlns="http://www.w3.org/2000/svg">
<circle cx="24" cy="24" r="24" fill="#EBF4F7"/>
<g clip-path="url(#clip0_898_45349)">
<path d="M23.7178 15.4688C20.6405 15.4688 18.1763 16.8703 16.3824 18.5385C14.6 20.1914 13.4079 22.1719 12.8443 23.5315C12.7186 23.8324 12.7186 24.1676 12.8443 24.4685C13.4079 25.8281 14.6 27.8086 16.3824 29.4615C18.1763 31.1297 20.6405 32.5312 23.7178 32.5312C26.7951 32.5312 29.2593 31.1297 31.0532 29.4615C32.8356 27.8048 34.0277 25.8281 34.5951 24.4685C34.7208 24.1676 34.7208 23.8324 34.5951 23.5315C34.0277 22.1719 32.8356 20.1914 31.0532 18.5385C29.2593 16.8703 26.7951 15.4688 23.7178 15.4688ZM18.2334 24C18.2334 22.5455 18.8112 21.1505 19.8398 20.122C20.8683 19.0934 22.2633 18.5156 23.7178 18.5156C25.1723 18.5156 26.5673 19.0934 27.5958 20.122C28.6244 21.1505 29.2022 22.5455 29.2022 24C29.2022 25.4545 28.6244 26.8495 27.5958 27.878C26.5673 28.9066 25.1723 29.4844 23.7178 29.4844C22.2633 29.4844 20.8683 28.9066 19.8398 27.878C18.8112 26.8495 18.2334 25.4545 18.2334 24ZM23.7178 21.5625C23.7178 22.9069 22.6247 24 21.2803 24C21.0099 24 20.7509 23.9543 20.5072 23.8743C20.2977 23.8058 20.0539 23.9353 20.0615 24.1562C20.073 24.4189 20.1111 24.6817 20.1834 24.9445C20.7052 26.8945 22.7123 28.0523 24.6623 27.5306C26.6123 27.0088 27.7701 25.0017 27.2484 23.0517C26.8256 21.4711 25.4279 20.4085 23.874 20.3438C23.6531 20.3361 23.5236 20.5761 23.5921 20.7894C23.6721 21.0331 23.7178 21.2921 23.7178 21.5625Z" fill="#3792B1"/>
</g>
<defs>
<clipPath id="clip0_898_45349">
<rect width="24" height="24" fill="white" transform="translate(12 12)"/>
</clipPath>
</defs>
</svg>
