<svg width="48" height="48" viewBox="0 0 48 48" fill="none" xmlns="http://www.w3.org/2000/svg">
<circle cx="24" cy="24" r="24" fill="#EBF7F3"/>
<path d="M21.9642 15.668L20.5243 16.2188C20.4097 16.2617 20.3333 16.375 20.3333 16.5C20.3333 16.625 20.4097 16.7383 20.5243 16.7812L21.9642 17.332L22.5028 18.8047C22.5448 18.9219 22.6556 19 22.7778 19C22.9 19 23.0108 18.9219 23.0528 18.8047L23.5913 17.332L25.0313 16.7812C25.1458 16.7383 25.2222 16.625 25.2222 16.5C25.2222 16.375 25.1458 16.2617 25.0313 16.2188L23.5913 15.668L23.0528 14.1953C23.0108 14.0781 22.9 14 22.7778 14C22.6556 14 22.5448 14.0781 22.5028 14.1953L21.9642 15.668ZM14.7608 29.4453C14.0465 30.1758 14.0465 31.3633 14.7608 32.0977L16.0823 33.4492C16.7965 34.1797 17.9576 34.1797 18.6757 33.4492L33.2392 18.5508C33.9535 17.8203 33.9535 16.6328 33.2392 15.8984L31.9177 14.5508C31.2035 13.8203 30.0424 13.8203 29.3243 14.5508L14.7608 29.4453ZM31.509 17.2266L27.4986 21.3281L26.6087 20.418L30.6191 16.3164L31.509 17.2266ZM13.2865 18.5781C13.1146 18.6445 13 18.8125 13 19C13 19.1875 13.1146 19.3555 13.2865 19.4219L15.4444 20.25L16.2542 22.457C16.3191 22.6328 16.4833 22.75 16.6667 22.75C16.85 22.75 17.0142 22.6328 17.0792 22.457L17.8889 20.25L20.0469 19.4219C20.2188 19.3555 20.3333 19.1875 20.3333 19C20.3333 18.8125 20.2188 18.6445 20.0469 18.5781L17.8889 17.75L17.0792 15.543C17.0142 15.3672 16.85 15.25 16.6667 15.25C16.4833 15.25 16.3191 15.3672 16.2542 15.543L15.4444 17.75L13.2865 18.5781ZM26.7309 28.5781C26.559 28.6445 26.4444 28.8125 26.4444 29C26.4444 29.1875 26.559 29.3555 26.7309 29.4219L28.8889 30.25L29.6986 32.457C29.7635 32.6328 29.9278 32.75 30.1111 32.75C30.2944 32.75 30.4587 32.6328 30.5236 32.457L31.3333 30.25L33.4913 29.4219C33.6632 29.3555 33.7778 29.1875 33.7778 29C33.7778 28.8125 33.6632 28.6445 33.4913 28.5781L31.3333 27.75L30.5236 25.543C30.4587 25.3672 30.2944 25.25 30.1111 25.25C29.9278 25.25 29.7635 25.3672 29.6986 25.543L28.8889 27.75L26.7309 28.5781Z" fill="#37B183"/>
</svg>
