<svg width="20" height="20" viewBox="0 0 20 20" fill="none" xmlns="http://www.w3.org/2000/svg">
<g clip-path="url(#clip0_8_44914)">
<path fill-rule="evenodd" clip-rule="evenodd" d="M19.5 17.7174V19.346C19.5 19.37 19.4905 19.393 19.4733 19.4098C19.4566 19.427 19.4335 19.4365 19.4095 19.4365H0.590482C0.566501 19.4365 0.543432 19.427 0.526686 19.4098C0.509498 19.393 0.5 19.37 0.5 19.346C0.5 19.1171 0.5 17.9463 0.5 17.7174C0.5 17.6935 0.509498 17.6704 0.526686 17.6536C0.543432 17.6365 0.566501 17.627 0.590482 17.627H19.4095C19.4335 17.627 19.4566 17.6365 19.4733 17.6536C19.4905 17.6704 19.5 17.6935 19.5 17.7174Z" fill="#24384a"/>
<path fill-rule="evenodd" clip-rule="evenodd" d="M5.92764 16.7221H2.30859V16.2698C2.30859 16.02 2.51126 15.8174 2.76097 15.8174H5.47526C5.72498 15.8174 5.92764 16.02 5.92764 16.2698V16.7221Z" fill="#24384a"/>
<path fill-rule="evenodd" clip-rule="evenodd" d="M11.8105 16.7221H8.19141V16.2698C8.19141 16.02 8.39407 15.8174 8.64379 15.8174H11.3581C11.6078 15.8174 11.8105 16.02 11.8105 16.2698V16.7221Z" fill="#24384a"/>
<path fill-rule="evenodd" clip-rule="evenodd" d="M17.6913 16.7221H14.0723V16.2698C14.0723 16.02 14.2749 15.8174 14.5246 15.8174H17.2389C17.4886 15.8174 17.6913 16.02 17.6913 16.2698V16.7221Z" fill="#24384a"/>
<path fill-rule="evenodd" clip-rule="evenodd" d="M3.21484 14.9135H5.02437V10.3896H3.21484V14.9135Z" fill="#24384a"/>
<path fill-rule="evenodd" clip-rule="evenodd" d="M9.0957 14.9135H10.9052V10.3896H9.0957V14.9135Z" fill="#24384a"/>
<path fill-rule="evenodd" clip-rule="evenodd" d="M14.9766 14.9135H16.7861V10.3896H14.9766V14.9135Z" fill="#24384a"/>
<path fill-rule="evenodd" clip-rule="evenodd" d="M5.92764 9.03246C5.92764 9.28217 5.72498 9.48484 5.47526 9.48484H2.76097C2.51126 9.48484 2.30859 9.28217 2.30859 9.03246V8.58008H5.92764V9.03246Z" fill="#24384a"/>
<path fill-rule="evenodd" clip-rule="evenodd" d="M11.8105 9.03246C11.8105 9.28217 11.6078 9.48484 11.3581 9.48484H8.64379C8.39407 9.48484 8.19141 9.28217 8.19141 9.03246V8.58008H11.8105V9.03246Z" fill="#24384a"/>
<path fill-rule="evenodd" clip-rule="evenodd" d="M17.6913 9.03246C17.6913 9.28217 17.4886 9.48484 17.2389 9.48484H14.5246C14.2749 9.48484 14.0723 9.28217 14.0723 9.03246V8.58008H17.6913V9.03246Z" fill="#24384a"/>
<path fill-rule="evenodd" clip-rule="evenodd" d="M19.5 5.95002V7.22257C19.5 7.47228 19.2973 7.67495 19.0476 7.67495H0.952381C0.702666 7.67495 0.5 7.47228 0.5 7.22257V5.95002C0.5 5.78445 0.590482 5.63244 0.735689 5.55282L9.78331 0.617802C9.91857 0.544066 10.0814 0.544066 10.2167 0.617802L19.2643 5.55282C19.4095 5.63244 19.5 5.78445 19.5 5.95002Z" fill="#24384a"/>
</g>
<defs>
<clipPath id="clip0_8_44914">
<rect width="20" height="20" fill="#24384a"/>
</clipPath>
</defs>
</svg>
