<svg width="28" height="32" viewBox="0 0 28 32" fill="none" xmlns="http://www.w3.org/2000/svg">
<g clip-path="url(#clip0_904_28308)">
<g clip-path="url(#clip1_904_28308)">
<path d="M25.5325 6.38569L16.4675 1.09417C15.7894 0.698056 14.8925 0.5 14 0.5C13.1075 0.5 12.2106 0.698056 11.5325 1.09417L2.4675 6.38569C1.11125 7.17792 0 9.12403 0 10.7042V21.2915C0 22.876 1.11125 24.8178 2.4675 25.61L11.5369 30.9058C12.215 31.3019 13.1075 31.5 14.0044 31.5C14.9012 31.5 15.7938 31.3019 16.4719 30.9058L25.5413 25.61C26.8975 24.8178 28.0087 22.876 28.0087 21.2915V10.7042C28.0087 9.11972 26.8975 7.17792 25.5413 6.38569H25.5325Z" fill="#D98429"/>
<path d="M17.9108 9.15458L14.1395 10.6142L21.0389 13.3826L24.3158 12.1125C24.5783 12.0092 24.5827 11.6432 24.3158 11.5399L18.3745 9.15458C18.2258 9.09431 18.0595 9.09431 17.9064 9.15458H17.9108ZM9.90453 9.15458L3.95891 11.5399C3.69641 11.6432 3.70078 12.0092 3.95891 12.1125L7.23579 13.3826L14.1352 10.6142L10.3639 9.15458C10.2152 9.09861 10.0489 9.09861 9.89578 9.15458H9.90453ZM7.24016 13.3783V19.7549C7.24016 20.0046 7.39328 20.2328 7.62953 20.3275L13.9033 22.8419C14.0564 22.9022 14.2227 22.9022 14.3758 22.8419L20.6495 20.3275C20.8858 20.2328 21.0389 20.0089 21.0389 19.7549V13.3783L14.1395 16.1425L7.24016 13.3783Z" fill="white"/>
</g>
</g>
<defs>
<clipPath id="clip0_904_28308">
<rect width="28" height="32" fill="white"/>
</clipPath>
<clipPath id="clip1_904_28308">
<rect width="28" height="31" fill="white" transform="translate(0 0.5)"/>
</clipPath>
</defs>
</svg>
