<svg width="36" height="36" viewBox="0 0 36 36" fill="none" xmlns="http://www.w3.org/2000/svg">
<rect width="36" height="36" rx="8" fill="#F1F8FD"/>
<path d="M17.6212 10.4004C17.2811 10.4391 16.8848 10.4591 16.4986 10.533C15.5937 10.7058 14.7848 11.0906 14.1193 11.7376C13.4812 12.3578 13.4506 13.3536 14.0314 14.0139C14.5031 14.5503 15.2033 14.5486 15.9491 14.009C16.0003 13.9718 16.0525 13.9358 16.103 13.8976C16.6597 13.4751 17.2976 13.3097 17.9793 13.3777C18.5417 13.4339 19.0234 13.6755 19.2244 14.2567C19.4185 14.8177 19.1471 15.2412 18.7525 15.5996C18.5545 15.7795 18.3264 15.9269 18.1106 16.0874C16.8146 17.0504 16.2518 18.5651 16.6503 20.0184C16.84 20.7098 17.1621 21.0726 17.5858 21.0721C18 21.0716 18.3158 20.7465 18.5003 20.0588C18.6919 19.345 19.0586 18.7472 19.6224 18.2821C20.0734 17.9102 20.5667 17.5902 21.0212 17.2225C22.4418 16.0726 22.7871 14.2937 21.8849 12.71C20.9583 11.0839 19.451 10.5015 17.6212 10.4004Z" fill="#337AB7"/>
<path d="M17.8595 22.2188C16.8127 22.2205 16.1482 22.8641 16.1504 23.8742C16.1526 24.8727 16.8639 25.6033 17.8307 25.5998C18.8452 25.5964 19.574 24.8744 19.569 23.8781C19.5644 22.8641 18.8976 22.217 17.8595 22.2188Z" fill="#337AB7"/>
</svg>
