<svg width="48" height="48" viewBox="0 0 48 48" fill="none" xmlns="http://www.w3.org/2000/svg">
<circle cx="24" cy="24" r="24" fill="#EBF7F3"/>
<g clip-path="url(#clip0_8_49381)">
<path d="M30.2508 22.1238C30.2508 23.9165 29.6687 25.5725 28.6882 26.9161L33.6338 31.8646C34.1221 32.3528 34.1221 33.1456 33.6338 33.6338C33.1455 34.1221 32.3525 34.1221 31.8642 33.6338L26.9186 28.6853C25.5748 29.6696 23.9185 30.2476 22.1254 30.2476C17.6369 30.2476 14 26.6114 14 22.1238C14 17.6362 17.6369 14 22.1254 14C26.6139 14 30.2508 17.6362 30.2508 22.1238ZM22.1254 27.748C22.8641 27.748 23.5956 27.6025 24.2781 27.3199C24.9606 27.0372 25.5807 26.623 26.1031 26.1007C26.6254 25.5784 27.0398 24.9584 27.3225 24.2761C27.6052 23.5937 27.7507 22.8624 27.7507 22.1238C27.7507 21.3852 27.6052 20.6539 27.3225 19.9715C27.0398 19.2892 26.6254 18.6692 26.1031 18.1469C25.5807 17.6247 24.9606 17.2104 24.2781 16.9277C23.5956 16.6451 22.8641 16.4996 22.1254 16.4996C21.3867 16.4996 20.6552 16.6451 19.9727 16.9277C19.2902 17.2104 18.6701 17.6247 18.1477 18.1469C17.6254 18.6692 17.211 19.2892 16.9283 19.9715C16.6456 20.6539 16.5001 21.3852 16.5001 22.1238C16.5001 22.8624 16.6456 23.5937 16.9283 24.2761C17.211 24.9584 17.6254 25.5784 18.1477 26.1007C18.6701 26.623 19.2902 27.0372 19.9727 27.3199C20.6552 27.6025 21.3867 27.748 22.1254 27.748Z" fill="#37B183"/>
</g>
<defs>
<clipPath id="clip0_8_49381">
<rect width="20" height="20" fill="white" transform="translate(14 14)"/>
</clipPath>
</defs>
</svg>
