<svg width="48" height="48" viewBox="0 0 48 48" fill="none" xmlns="http://www.w3.org/2000/svg">
<circle cx="24" cy="24" r="24" fill="#EBF7F6"/>
<g clip-path="url(#clip0_898_45350)">
<path d="M29.7143 22.5714C32.0804 22.5714 34 20.6518 34 18.2857C34 15.9196 32.0804 14 29.7143 14C27.3482 14 25.4286 15.9196 25.4286 18.2857C25.4286 18.4643 25.4375 18.6429 25.4598 18.817L21.2589 20.9152C20.4911 20.1696 19.442 19.7143 18.2857 19.7143C15.9196 19.7143 14 21.6339 14 24C14 26.3661 15.9196 28.2857 18.2857 28.2857C19.442 28.2857 20.4911 27.8304 21.2589 27.0848L25.4598 29.183C25.4375 29.3571 25.4286 29.5312 25.4286 29.7143C25.4286 32.0804 27.3482 34 29.7143 34C32.0804 34 34 32.0804 34 29.7143C34 27.3482 32.0804 25.4286 29.7143 25.4286C28.558 25.4286 27.5089 25.8839 26.7411 26.6295L22.5402 24.5312C22.5625 24.3571 22.5714 24.183 22.5714 24C22.5714 23.817 22.5625 23.6429 22.5402 23.4688L26.7411 21.3705C27.5089 22.1161 28.558 22.5714 29.7143 22.5714Z" fill="#35AEA9"/>
</g>
<defs>
<clipPath id="clip0_898_45350">
<rect width="20" height="20" fill="white" transform="translate(14 14)"/>
</clipPath>
</defs>
</svg>
