<svg xmlns="http://www.w3.org/2000/svg" width="28" height="32" viewBox="0 0 28 32">
  <defs/>
  <path d="M14,0.5 C14.892,0.5 15.789,0.698 16.468,1.094 L25.541,6.386 C26.828,7.137 27.894,8.923 28,10.457 L28,21.539 C27.894,23.073 26.828,24.859 25.541,25.61 L16.472,30.906 C15.794,31.302 14.901,31.5 14.004,31.5 C13.108,31.5 12.215,31.302 11.537,30.906 L2.467,25.61 C1.111,24.822 0,22.876 0,21.292 L0,10.704 C0,9.124 1.111,7.178 2.467,6.386 L11.533,1.094 C12.211,0.698 13.108,0.5 14,0.5 Z M14,1.792 C13.309,1.792 12.657,1.942 12.206,2.205 L3.137,7.497 C2.183,8.052 1.312,9.585 1.312,10.704 L1.312,21.292 C1.312,22.415 2.183,23.944 3.137,24.499 L12.211,29.799 C12.657,30.062 13.313,30.213 14.004,30.213 C14.696,30.213 15.347,30.062 15.798,29.799 L24.868,24.503 C25.821,23.948 26.692,22.42 26.692,21.296 L26.692,10.708 C26.692,9.585 25.821,8.056 24.868,7.501 L15.798,2.205 C15.347,1.942 14.691,1.792 14,1.792 Z"/>
  <path d="M13.172,10.214 L13.172,14.132 C13.172,14.739 12.674,15.234 12.052,15.234 L8.071,15.234 C7.454,15.234 6.951,14.743 6.951,14.132 L6.951,10.214 C6.951,9.606 7.454,9.111 8.071,9.111 L12.052,9.111 C12.669,9.111 13.172,9.606 13.172,10.214 Z"/>
  <path d="M20.952,10.214 L20.952,14.132 C20.952,14.739 20.449,15.234 19.832,15.234 L15.851,15.234 C15.234,15.234 14.731,14.743 14.731,14.132 L14.731,10.214 C14.731,9.606 15.229,9.111 15.851,9.111 L19.832,9.111 C20.449,9.111 20.952,9.606 20.952,10.214 Z"/>
  <path d="M13.172,17.869 L13.172,21.787 C13.172,22.394 12.674,22.889 12.052,22.889 L8.071,22.889 C7.454,22.889 6.951,22.394 6.951,21.787 L6.951,17.869 C6.951,17.262 7.454,16.767 8.071,16.767 L12.052,16.767 C12.669,16.767 13.172,17.257 13.172,17.869 Z"/>
  <path d="M20.952,17.869 L20.952,21.787 C20.952,22.394 20.449,22.889 19.832,22.889 L15.851,22.889 C15.234,22.889 14.731,22.394 14.731,21.787 L14.731,17.869 C14.731,17.262 15.229,16.767 15.851,16.767 L19.832,16.767 C20.449,16.767 20.952,17.257 20.952,17.869 Z"/>
</svg>

