<svg width="28" height="32" viewBox="0 0 28 32" fill="none" xmlns="http://www.w3.org/2000/svg">
<g clip-path="url(#clip0_904_28310)">
<g clip-path="url(#clip1_904_28310)">
<path d="M25.5325 6.38569L16.4675 1.09417C15.7894 0.698056 14.8925 0.5 14 0.5C13.1075 0.5 12.2106 0.698056 11.5325 1.09417L2.4675 6.38569C1.11125 7.17792 0 9.12403 0 10.7042V21.2915C0 22.876 1.11125 24.8178 2.4675 25.61L11.5369 30.9058C12.215 31.3019 13.1075 31.5 14.0044 31.5C14.9012 31.5 15.7938 31.3019 16.4719 30.9058L25.5413 25.61C26.8975 24.8178 28.0087 22.876 28.0087 21.2915V10.7042C28.0087 9.11972 26.8975 7.17792 25.5413 6.38569H25.5325Z" fill="#9A7832"/>
<path d="M13.1724 10.2136C13.1724 9.60647 12.6693 9.11133 12.0524 9.11133H8.07117C7.4543 9.11133 6.95117 9.60647 6.95117 10.2136V14.1316C6.95117 14.743 7.4543 15.2338 8.07117 15.2338H12.0524C12.6737 15.2338 13.1724 14.7387 13.1724 14.1316V10.2136Z" fill="white"/>
<path d="M20.9517 10.2136C20.9517 9.60647 20.4486 9.11133 19.8317 9.11133H15.8505C15.2292 9.11133 14.7305 9.60647 14.7305 10.2136V14.1316C14.7305 14.743 15.2336 15.2338 15.8505 15.2338H19.8317C20.4486 15.2338 20.9517 14.7387 20.9517 14.1316V10.2136Z" fill="white"/>
<path d="M13.1724 17.8688C13.1724 17.2574 12.6693 16.7666 12.0524 16.7666H8.07117C7.4543 16.7666 6.95117 17.2617 6.95117 17.8688V21.7869C6.95117 22.394 7.4543 22.8891 8.07117 22.8891H12.0524C12.6737 22.8891 13.1724 22.394 13.1724 21.7869V17.8688Z" fill="white"/>
<path d="M20.9517 17.8688C20.9517 17.2574 20.4486 16.7666 19.8317 16.7666H15.8505C15.2292 16.7666 14.7305 17.2617 14.7305 17.8688V21.7869C14.7305 22.394 15.2336 22.8891 15.8505 22.8891H19.8317C20.4486 22.8891 20.9517 22.394 20.9517 21.7869V17.8688Z" fill="white"/>
</g>
</g>
<defs>
<clipPath id="clip0_904_28310">
<rect width="28" height="32" fill="white"/>
</clipPath>
<clipPath id="clip1_904_28310">
<rect width="28" height="31" fill="white" transform="translate(0 0.5)"/>
</clipPath>
</defs>
</svg>
