<svg width="48" height="48" viewBox="0 0 48 48" fill="none" xmlns="http://www.w3.org/2000/svg">
<circle cx="24" cy="24" r="24" fill="#EBF7F6"/>
<g clip-path="url(#clip0_8_49382)">
<path d="M26.3511 17.3594L15.3468 28.3645C15.2914 28.42 15.2515 28.4901 15.2324 28.5654L14.0127 33.4611C13.9762 33.6085 14.0195 33.7652 14.1271 33.8728C14.2085 33.9542 14.3193 33.9992 14.4328 33.9992C14.4675 33.9992 14.503 33.9949 14.5376 33.9862L19.4333 32.7663C19.5096 32.7473 19.5789 32.7075 19.6343 32.6521L30.6395 21.6478L26.3511 17.3594Z" fill="#35AEA9"/>
<path d="M33.365 15.8592L32.14 14.6342C31.3213 13.8155 29.8944 13.8163 29.0767 14.6342L27.5762 16.1347L31.8645 20.423L33.365 18.9225C33.7739 18.5137 33.9992 17.9696 33.9992 17.3909C33.9992 16.8122 33.7739 16.2681 33.365 15.8592Z" fill="#35AEA9"/>
</g>
<defs>
<clipPath id="clip0_8_49382">
<rect width="20" height="20" fill="white" transform="translate(14 14)"/>
</clipPath>
</defs>
</svg>
