<svg width="48" height="48" viewBox="0 0 48 48" fill="none" xmlns="http://www.w3.org/2000/svg">
<circle cx="24" cy="24" r="24" fill="#EBF2F8"/>
<g clip-path="url(#clip0_8_49384)">
<path d="M17.334 19.625C17.334 17.4425 19.1098 15.6667 21.2923 15.6667H28.9032C28.629 14.7075 27.7548 14 26.709 14H17.1257C15.8615 14 14.834 15.0275 14.834 16.2917V29.2083C14.834 30.4725 15.8615 31.5 17.1257 31.5H17.334V19.625Z" fill="#3379B7"/>
<path d="M30.875 17.333H21.2917C20.0275 17.333 19 18.3605 19 19.6247V31.708C19 32.9722 20.0275 33.9997 21.2917 33.9997H30.875C32.1392 33.9997 33.1667 32.9722 33.1667 31.708V19.6247C33.1667 18.3605 32.1392 17.333 30.875 17.333ZM29.2083 31.4997H22.9583C22.6133 31.4997 22.3333 31.2197 22.3333 30.8747C22.3333 30.5297 22.6133 30.2497 22.9583 30.2497H29.2083C29.5533 30.2497 29.8333 30.5297 29.8333 30.8747C29.8333 31.2197 29.5533 31.4997 29.2083 31.4997ZM29.2083 28.1663H22.9583C22.6133 28.1663 22.3333 27.8863 22.3333 27.5413C22.3333 27.1963 22.6133 26.9163 22.9583 26.9163H29.2083C29.5533 26.9163 29.8333 27.1963 29.8333 27.5413C29.8333 27.8863 29.5533 28.1663 29.2083 28.1663ZM29.2083 25.2497H22.9583C22.6133 25.2497 22.3333 24.9697 22.3333 24.6247C22.3333 24.2797 22.6133 23.9997 22.9583 23.9997H29.2083C29.5533 23.9997 29.8333 24.2797 29.8333 24.6247C29.8333 24.9697 29.5533 25.2497 29.2083 25.2497ZM29.2083 21.9163H22.9583C22.6133 21.9163 22.3333 21.6363 22.3333 21.2913C22.3333 20.9463 22.6133 20.6663 22.9583 20.6663H29.2083C29.5533 20.6663 29.8333 20.9463 29.8333 21.2913C29.8333 21.6363 29.5533 21.9163 29.2083 21.9163Z" fill="#3379B7"/>
</g>
<defs>
<clipPath id="clip0_8_49384">
<rect width="20" height="20" fill="white" transform="translate(14 14)"/>
</clipPath>
</defs>
</svg>
