<svg width="36" height="36" viewBox="0 0 36 36" fill="none" xmlns="http://www.w3.org/2000/svg">
<g clip-path="url(#clip0_8_49499)">
<path d="M28.0463 17.3105C27.1553 17.2216 25.195 17.2216 25.195 15.974C25.195 14.2814 27.6897 12.0539 31.6992 9.6481C32.9462 8.84597 35.5309 7.59891 35.5309 5.90578C35.5309 4.56928 34.5505 3.58941 32.5013 3.8566C30.541 4.12378 27.5113 5.46028 23.5024 8.84597C19.3146 12.3211 15.3945 18.1126 15.3945 23.8147C15.3945 29.6062 19.3146 35.3977 25.641 35.3977C30.7193 35.3977 35.0854 31.5665 35.0854 26.3093C35.0848 22.2998 32.323 17.6671 28.0463 17.3105Z" fill="#337AB7"/>
<path d="M15.5218 14.8053C14.79 14.4228 13.9873 14.1725 13.1211 14.1005C12.2301 14.0116 10.2697 14.0116 10.2697 12.764C10.2697 11.0714 12.7644 8.84395 16.7739 6.43814C18.0216 5.63601 20.6051 4.38895 20.6051 2.69582C20.6051 1.35932 19.6247 0.379449 17.5755 0.646636C15.6152 0.913824 12.5856 2.25032 8.57662 5.63601C4.38937 9.11114 0.46875 14.9026 0.46875 20.6053C0.46875 26.3968 4.38881 32.1883 10.7153 32.1883C12.2025 32.1883 13.6279 31.8575 14.9008 31.2607C13.6526 29.0039 12.9872 26.3928 12.9872 23.8154C12.9877 20.6328 14.0126 17.5464 15.5218 14.8053Z" fill="#337AB7"/>
</g>
<defs>
<clipPath id="clip0_8_49499">
<rect width="36" height="36" fill="white"/>
</clipPath>
</defs>
</svg>
