<svg width="48" height="48" viewBox="0 0 48 48" fill="none" xmlns="http://www.w3.org/2000/svg">
<circle cx="24" cy="24" r="24" fill="#EBF7F3"/>
<g clip-path="url(#clip0_8_49381)">
<path d="M33.5264 31.106L28.9282 26.5076C29.7095 25.2638 30.1629 23.7937 30.1629 22.2161C30.1629 17.7526 26.5446 14.1348 22.0813 14.1348C17.618 14.1348 14 17.7526 14 22.2161C14 26.6797 17.6179 30.2972 22.0813 30.2972C23.7982 30.2972 25.3885 29.7604 26.6971 28.8483L31.2405 33.3921C31.5562 33.7074 31.9701 33.8645 32.3834 33.8645C32.7973 33.8645 33.2107 33.7074 33.5269 33.3921C34.1578 32.7605 34.1578 31.7375 33.5264 31.106ZM22.0813 27.679C19.0645 27.679 16.6187 25.2333 16.6187 22.2164C16.6187 19.1995 19.0645 16.7537 22.0813 16.7537C25.0982 16.7537 27.5439 19.1995 27.5439 22.2164C27.5439 25.2333 25.0982 27.679 22.0813 27.679Z" fill="#37B183"/>
</g>
<defs>
<clipPath id="clip0_8_49381">
<rect width="20" height="20" fill="white" transform="translate(14 14)"/>
</clipPath>
</defs>
</svg>
