<svg xmlns="http://www.w3.org/2000/svg" width="16" height="16" viewBox="0 0 16 16">
  <defs/>
  <path d="M8,16 C5.878,16 3.843,15.157 2.343,13.657 C0.843,12.157 0,10.122 0,8 C0,5.878 0.843,3.843 2.343,2.343 C3.843,0.843 5.878,0 8,0 C10.122,0 12.157,0.843 13.657,2.343 C15.157,3.843 16,5.878 16,8 C16,10.122 15.157,12.157 13.657,13.657 C12.157,15.157 10.122,16 8,16 Z M11.531,6.531 L11.528,6.528 C11.822,6.238 11.819,5.762 11.528,5.469 C11.238,5.175 10.762,5.175 10.469,5.469 L7,8.941 L5.531,7.472 C5.241,7.178 4.766,7.181 4.472,7.472 C4.178,7.762 4.178,8.238 4.472,8.531 L6.472,10.531 C6.762,10.825 7.238,10.825 7.531,10.531 Z"/>
</svg>

