<svg xmlns="http://www.w3.org/2000/svg" width="16" height="16" viewBox="0 0 16 16">
  <defs/>
  <path d="M7.999,10.667 C7.912,10.668 7.825,10.651 7.744,10.618 C7.662,10.585 7.588,10.536 7.526,10.474 L3.526,6.474 C3.401,6.348 3.33,6.178 3.33,6 C3.33,5.823 3.401,5.653 3.526,5.527 C3.652,5.402 3.822,5.331 3.999,5.331 C4.177,5.331 4.347,5.402 4.473,5.527 L7.999,9.06 L11.526,5.534 C11.654,5.425 11.818,5.367 11.986,5.374 C12.153,5.38 12.312,5.45 12.431,5.569 C12.55,5.687 12.62,5.847 12.626,6.014 C12.632,6.182 12.575,6.346 12.466,6.474 L8.466,10.474 C8.342,10.597 8.174,10.666 7.999,10.667 Z"/>
</svg>

