<svg xmlns="http://www.w3.org/2000/svg" width="16" height="16" viewBox="0 0 16 16">
  <defs/>
  <path d="M9.984,8.331 C9.985,8.418 9.968,8.505 9.936,8.587 C9.904,8.668 9.856,8.742 9.796,8.804 L5.9,12.804 C5.778,12.93 5.612,13 5.439,13 C5.266,13 5.1,12.93 4.978,12.804 C4.856,12.678 4.787,12.508 4.787,12.331 C4.787,12.153 4.856,11.983 4.978,11.857 L8.419,8.331 L4.985,4.804 C4.878,4.676 4.823,4.512 4.829,4.345 C4.835,4.177 4.903,4.018 5.019,3.899 C5.134,3.78 5.289,3.711 5.453,3.704 C5.616,3.698 5.776,3.755 5.9,3.864 L9.796,7.864 C9.916,7.988 9.983,8.156 9.984,8.331 Z"/>
</svg>

