<svg xmlns="http://www.w3.org/2000/svg" width="24" height="24" viewBox="0 0 24 24">
  <defs/>
  <path d="M3,2.25 C3,1.008 4.008,0 5.25,0 L5.25,2.25 L5.25,20.691 L11.348,16.336 C11.738,16.055 12.267,16.055 12.656,16.336 L18.75,20.691 L18.75,2.25 L5.25,2.25 L5.25,0 L18.75,0 C19.992,0 21,1.008 21,2.25 L21,22.875 C21,23.297 20.766,23.681 20.391,23.873 C20.016,24.066 19.566,24.033 19.223,23.789 L12,18.633 L4.777,23.789 C4.434,24.033 3.984,24.066 3.609,23.873 C3.234,23.681 3,23.297 3,22.875 L3,2.25 Z"/>
</svg>

