<svg xmlns="http://www.w3.org/2000/svg" width="24" height="24" viewBox="0 0 24 24">
  <defs/>
  <path d="M2.562,23.863 C2.732,23.958 2.925,24.005 3.119,24 C3.314,23.994 3.504,23.937 3.669,23.834 L11.818,18.741 L19.967,23.834 C20.132,23.937 20.322,23.994 20.517,23.999 C20.711,24.005 20.904,23.957 21.074,23.863 C21.244,23.769 21.386,23.63 21.485,23.462 C21.584,23.295 21.636,23.104 21.636,22.909 L21.636,3.273 C21.636,2.405 21.291,1.572 20.678,0.959 C20.064,0.345 19.231,0 18.363,0 L5.273,0 C4.405,0 3.572,0.345 2.959,0.959 C2.345,1.572 2,2.405 2,3.273 L2,22.909 C2,23.104 2.052,23.295 2.151,23.463 C2.25,23.631 2.391,23.769 2.562,23.863 Z M4.182,3.273 C4.182,2.983 4.297,2.706 4.501,2.501 C4.706,2.297 4.983,2.182 5.273,2.182 L18.363,2.182 C18.653,2.182 18.93,2.297 19.135,2.501 C19.339,2.706 19.454,2.983 19.454,3.273 L19.454,20.945 L12.396,16.534 C12.223,16.425 12.023,16.368 11.818,16.368 C11.614,16.368 11.413,16.425 11.24,16.534 L4.182,20.945 L4.182,3.273 Z"/>
</svg>

