<svg xmlns="http://www.w3.org/2000/svg" width="16" height="16" viewBox="0 0 16 16">
  <defs/>
  <path d="M12.667,3.333 L12.001,3.333 L12.001,2 C12.001,1.823 11.93,1.653 11.805,1.528 C11.68,1.403 11.511,1.333 11.334,1.333 C11.157,1.333 10.988,1.403 10.863,1.528 C10.738,1.653 10.667,1.823 10.667,2 L10.667,3.333 L5.334,3.333 L5.334,2 C5.334,1.823 5.264,1.653 5.139,1.528 C5.014,1.403 4.844,1.333 4.667,1.333 C4.491,1.333 4.321,1.403 4.196,1.528 C4.071,1.653 4.001,1.823 4.001,2 L4.001,3.333 L3.334,3.333 C2.804,3.333 2.295,3.544 1.92,3.919 C1.545,4.294 1.334,4.803 1.334,5.333 L1.334,6 L14.667,6 L14.667,5.333 C14.667,4.803 14.457,4.294 14.082,3.919 C13.707,3.544 13.198,3.333 12.667,3.333 Z"/>
  <path d="M1.334,12.666 C1.334,13.197 1.545,13.706 1.92,14.081 C2.295,14.456 2.804,14.666 3.334,14.666 L12.667,14.666 C13.198,14.666 13.707,14.456 14.082,14.081 C14.457,13.706 14.667,13.197 14.667,12.666 L14.667,7.333 L1.334,7.333 L1.334,12.666 Z"/>
</svg>

