<svg xmlns="http://www.w3.org/2000/svg" width="16" height="16" viewBox="0 0 16 16">
  <defs/>
  <path d="M13.645,4.049 C14.113,3.581 14.113,2.82 13.645,2.351 C13.176,1.883 12.415,1.883 11.947,2.351 L8,6.302 L4.049,2.355 C3.581,1.887 2.82,1.887 2.351,2.355 C1.883,2.824 1.883,3.585 2.351,4.053 L6.302,8 L2.355,11.951 C1.887,12.419 1.887,13.18 2.355,13.649 C2.824,14.117 3.585,14.117 4.053,13.649 L8,9.698 L11.951,13.645 C12.419,14.113 13.18,14.113 13.649,13.645 C14.117,13.176 14.117,12.415 13.649,11.947 L9.698,8 L13.645,4.049 Z"/>
</svg>

