<svg xmlns="http://www.w3.org/2000/svg" width="16" height="16" viewBox="0 0 16 16">
  <defs/>
  <path d="M2.586,14 C2.47,14 2.357,13.966 2.26,13.901 C2.164,13.837 2.089,13.745 2.045,13.638 C2,13.531 1.989,13.413 2.011,13.3 C2.034,13.186 2.09,13.082 2.172,12.999 L13,2.172 C13.11,2.062 13.258,2 13.414,2 C13.569,2 13.718,2.062 13.828,2.172 C13.938,2.282 14,2.431 14,2.586 C14,2.741 13.938,2.89 13.828,3 L3,13.828 C2.946,13.883 2.881,13.926 2.81,13.955 C2.739,13.985 2.663,14 2.586,14 Z"/>
  <path d="M13.414,14 C13.337,14 13.261,13.985 13.19,13.955 C13.118,13.926 13.054,13.883 12.999,13.828 L2.172,3 C2.062,2.89 2,2.741 2,2.586 C2,2.431 2.062,2.282 2.172,2.172 C2.282,2.062 2.431,2 2.586,2 C2.741,2 2.89,2.062 3,2.172 L13.828,12.999 C13.91,13.082 13.966,13.186 13.989,13.3 C14.011,13.413 14,13.531 13.955,13.638 C13.911,13.745 13.836,13.837 13.739,13.901 C13.643,13.966 13.53,14 13.414,14 Z"/>
</svg>

