<svg xmlns="http://www.w3.org/2000/svg" width="28" height="32" viewBox="0 0 28 32">
  <defs/>
  <path d="M14,0.5 C14.892,0.5 15.789,0.698 16.468,1.094 L25.541,6.386 C26.828,7.137 27.894,8.923 28,10.457 L28,21.539 C27.894,23.073 26.828,24.859 25.541,25.61 L16.472,30.906 C15.794,31.302 14.901,31.5 14.004,31.5 C13.108,31.5 12.215,31.302 11.537,30.906 L2.467,25.61 C1.111,24.822 0,22.876 0,21.292 L0,10.704 C0,9.124 1.111,7.178 2.467,6.386 L11.533,1.094 C12.211,0.698 13.108,0.5 14,0.5 Z M14,1.792 C13.309,1.792 12.657,1.942 12.206,2.205 L3.137,7.497 C2.183,8.052 1.312,9.585 1.312,10.704 L1.312,21.292 C1.312,22.415 2.183,23.944 3.137,24.499 L12.211,29.799 C12.657,30.062 13.313,30.213 14.004,30.213 C14.696,30.213 15.347,30.062 15.798,29.799 L24.868,24.503 C25.821,23.948 26.692,22.415 26.692,21.296 L26.692,10.708 C26.692,9.585 25.821,8.056 24.868,7.501 L15.798,2.205 C15.347,1.942 14.691,1.792 14,1.792 Z"/>
  <path d="M12.736,23.733 L10.859,23.199 C10.662,23.143 10.553,22.941 10.606,22.747 L14.806,8.513 C14.862,8.319 15.068,8.211 15.265,8.263 L17.142,8.797 C17.339,8.853 17.448,9.055 17.396,9.249 L13.196,23.483 C13.139,23.677 12.933,23.789 12.736,23.733 Z M19.294,20.353 L19.294,20.349 C19.141,20.486 18.909,20.478 18.769,20.331 L17.431,18.928 C17.286,18.777 17.299,18.545 17.457,18.407 L20.244,15.996 L17.457,13.58 C17.299,13.443 17.291,13.206 17.431,13.059 L18.769,11.656 C18.914,11.509 19.146,11.501 19.294,11.639 L23.726,15.733 C23.884,15.875 23.884,16.121 23.726,16.263 Z M9.227,20.336 C9.087,20.486 8.851,20.491 8.702,20.353 L4.27,16.263 C4.113,16.121 4.113,15.875 4.27,15.733 L8.702,11.647 C8.855,11.509 9.087,11.518 9.227,11.664 L10.566,13.068 C10.71,13.219 10.697,13.451 10.54,13.589 L7.753,16 L10.54,18.411 C10.697,18.549 10.706,18.786 10.566,18.932 Z"/>
</svg>

