<svg width="28" height="32" viewBox="0 0 28 32" fill="none" xmlns="http://www.w3.org/2000/svg">
<g clip-path="url(#clip0_904_28307)">
<g clip-path="url(#clip1_904_28307)">
<path d="M25.5325 6.38569L16.4675 1.09417C15.7894 0.698056 14.8969 0.5 14 0.5C13.1031 0.5 12.2106 0.698056 11.5325 1.09417L2.4675 6.38569C1.11125 7.17792 0 9.12403 0 10.7042V21.2915C0 22.876 1.11125 24.8178 2.4675 25.61L11.5369 30.9058C12.215 31.3019 13.1075 31.5 14.0044 31.5C14.9012 31.5 15.7938 31.3019 16.4719 30.9058L25.5413 25.61C26.8975 24.8178 28.0087 22.876 28.0087 21.2915V10.7042C28.0087 9.11972 26.8975 7.17792 25.5413 6.38569H25.5325Z" fill="#74A543"/>
<path d="M12.7361 23.7328L10.8592 23.1989C10.6623 23.1429 10.553 22.9405 10.6055 22.7468L14.8055 8.51262C14.8623 8.31887 15.068 8.21123 15.2648 8.2629L17.1417 8.79679C17.3386 8.85276 17.448 9.05512 17.3955 9.24887L13.1955 23.483C13.1386 23.6768 12.933 23.7887 12.7361 23.7328ZM9.22734 20.3357L10.5661 18.9321C10.7061 18.7857 10.6973 18.5489 10.5398 18.4111L7.75297 16L10.5398 13.5889C10.6973 13.4511 10.7105 13.2186 10.5661 13.0679L9.22734 11.6643C9.08734 11.5179 8.85547 11.5093 8.70234 11.6471L4.27047 15.733C4.11297 15.8751 4.11297 16.1205 4.27047 16.2626L8.70234 20.3529C8.85109 20.4907 9.08734 20.4864 9.22734 20.3357ZM19.2942 20.3529L23.7261 16.2626C23.8836 16.1205 23.8836 15.8751 23.7261 15.733L19.2942 11.6385C19.1455 11.5007 18.9136 11.5093 18.7692 11.6557L17.4305 13.0593C17.2905 13.2057 17.2992 13.4425 17.4567 13.5803L20.2436 15.9957L17.4567 18.4068C17.2992 18.5446 17.2861 18.7771 17.4305 18.9278L18.7692 20.3314C18.9092 20.4778 19.1411 20.4864 19.2942 20.3486V20.3529Z" fill="white"/>
</g>
</g>
<defs>
<clipPath id="clip0_904_28307">
<rect width="28" height="32" fill="white"/>
</clipPath>
<clipPath id="clip1_904_28307">
<rect width="28" height="31" fill="white" transform="translate(0 0.5)"/>
</clipPath>
</defs>
</svg>
