<svg xmlns="http://www.w3.org/2000/svg" width="28" height="32" viewBox="0 0 28 32">
  <defs/>
  <path d="M14,0 C14.892,0 15.789,0.204 16.468,0.613 L25.541,6.076 C26.828,6.851 27.894,8.695 28,10.278 L28,21.717 C27.894,23.301 26.828,25.144 25.541,25.92 L16.472,31.387 C15.794,31.796 14.901,32 14.004,32 C13.108,32 12.215,31.796 11.537,31.387 L2.467,25.92 C1.111,25.107 0,23.098 0,21.462 L0,10.533 C0,8.902 1.111,6.893 2.467,6.076 L11.533,0.613 C12.211,0.204 13.108,0 14,0 Z M14,1.333 C13.309,1.333 12.657,1.489 12.206,1.76 L3.137,7.222 C2.183,7.796 1.312,9.378 1.312,10.533 L1.312,21.462 C1.312,22.622 2.183,24.2 3.137,24.773 L12.211,30.244 C12.657,30.516 13.313,30.671 14.004,30.671 C14.696,30.671 15.347,30.516 15.798,30.244 L24.868,24.778 C25.821,24.204 26.692,22.622 26.692,21.467 L26.692,10.538 C26.692,9.378 25.821,7.8 24.868,7.227 L15.798,1.76 C15.347,1.489 14.691,1.333 14,1.333 Z"/>
  <path d="M12.732,23.982 L10.855,23.431 C10.658,23.373 10.549,23.164 10.602,22.964 L14.802,8.271 C14.858,8.071 15.064,7.96 15.261,8.013 L17.138,8.564 C17.335,8.622 17.444,8.831 17.392,9.031 L13.192,23.724 C13.135,23.924 12.929,24.04 12.732,23.982 Z M19.29,20.493 L19.29,20.489 C19.137,20.631 18.905,20.622 18.765,20.471 L17.427,19.022 C17.282,18.867 17.295,18.627 17.453,18.484 L20.24,15.995 L17.453,13.502 C17.295,13.36 17.287,13.116 17.427,12.964 L18.765,11.516 C18.91,11.364 19.142,11.356 19.29,11.498 L23.722,15.724 C23.88,15.871 23.88,16.124 23.722,16.271 Z M9.223,20.476 C9.083,20.631 8.847,20.635 8.698,20.493 L4.267,16.271 C4.109,16.124 4.109,15.871 4.267,15.724 L8.698,11.507 C8.852,11.364 9.083,11.373 9.223,11.524 L10.562,12.973 C10.707,13.129 10.693,13.369 10.536,13.511 L7.749,16 L10.536,18.489 C10.693,18.631 10.702,18.875 10.562,19.027 Z"/>
</svg>

