<svg xmlns="http://www.w3.org/2000/svg" width="48" height="48" viewBox="0 0 48 48">
  <defs/>
  <path d="M48,24 A24 24 0 1 1 0,24 A24 24 0 1 1 48,24 Z"/>
  <path d="M14.556,26.795 L16.778,26.795 C17.084,26.795 17.333,27.044 17.333,27.35 L17.333,32.906 C17.333,33.213 17.084,33.462 16.778,33.462 L14.556,33.462 C14.249,33.462 14,33.213 14,32.906 L14,27.35 C14,27.044 14.249,26.795 14.556,26.795 Z"/>
  <path d="M20.11,22.351 L22.332,22.351 C22.639,22.351 22.888,22.599 22.888,22.906 L22.888,32.906 C22.888,33.213 22.639,33.462 22.332,33.462 L20.11,33.462 C19.803,33.462 19.555,33.213 19.555,32.906 L19.555,22.906 C19.555,22.599 19.803,22.351 20.11,22.351 Z"/>
  <path d="M25.667,24.573 L27.889,24.573 C28.196,24.573 28.445,24.822 28.445,25.129 L28.445,32.907 C28.445,33.213 28.196,33.462 27.889,33.462 L25.667,33.462 C25.36,33.462 25.111,33.213 25.111,32.907 L25.111,25.129 C25.111,24.822 25.36,24.573 25.667,24.573 Z"/>
  <path d="M31.222,21.239 L33.444,21.239 C33.75,21.239 33.999,21.488 33.999,21.795 L33.999,32.906 C33.999,33.213 33.75,33.461 33.444,33.461 L31.222,33.461 C30.915,33.461 30.666,33.213 30.666,32.906 L30.666,21.795 C30.666,21.488 30.915,21.239 31.222,21.239 Z"/>
  <path d="M32.333,14.573 C33.254,14.573 34,15.319 34,16.24 C34,17.16 33.254,17.907 32.333,17.907 C32.023,17.906 31.719,17.817 31.457,17.651 L28.432,19.449 C28.435,19.491 28.444,19.531 28.444,19.573 C28.445,20.422 27.807,21.136 26.964,21.23 C26.12,21.324 25.34,20.768 25.155,19.94 L22.365,18.558 C21.848,19.059 21.064,19.162 20.435,18.811 L17.222,21.21 C17.294,21.397 17.332,21.595 17.333,21.795 C17.333,22.716 16.587,23.462 15.667,23.462 C14.746,23.462 14,22.716 14,21.795 C14,20.875 14.746,20.129 15.667,20.129 C15.96,20.131 16.249,20.211 16.501,20.361 L19.683,17.986 C19.424,17.363 19.567,16.646 20.044,16.169 C20.521,15.692 21.239,15.55 21.862,15.809 C22.485,16.068 22.89,16.676 22.889,17.351 C22.886,17.423 22.879,17.495 22.867,17.567 L25.32,18.782 C25.571,18.312 26.032,17.992 26.559,17.921 C27.087,17.851 27.616,18.038 27.981,18.425 L30.762,16.772 C30.701,16.601 30.669,16.421 30.667,16.24 C30.668,15.32 31.413,14.574 32.333,14.573 Z"/>
</svg>

