<svg xmlns="http://www.w3.org/2000/svg" width="20" height="20" viewBox="0 0 20 20">
  <defs/>
  <path d="M0,12.5 C0,11.395 0.895,10.5 2,10.5 L18,10.5 C19.105,10.5 20,11.395 20,12.5 L20,15.5 C20,17.709 18.209,19.5 16,19.5 L4,19.5 C1.791,19.5 0,17.709 0,15.5 Z M2,8 C2,6.895 2.895,6 4,6 L16,6 C17.105,6 18,6.895 18,8 L18,9 L2,9 Z M4,3.5 C4,2.395 4.895,1.5 6,1.5 L14,1.5 C15.105,1.5 16,2.395 16,3.5 L16,4.5 L4,4.5 Z M7.25,13.5 C7.25,13.914 7.586,14.25 8,14.25 L12,14.25 C12.414,14.25 12.75,13.914 12.75,13.5 C12.75,13.086 12.414,12.75 12,12.75 L8,12.75 C7.586,12.75 7.25,13.086 7.25,13.5 Z"/>
</svg>

