<svg xmlns="http://www.w3.org/2000/svg" width="16" height="16" viewBox="0 0 16 16">
  <defs/>
  <path d="M0,14.499 C0,14.37 0.051,14.243 0.145,14.147 L0.154,14.137 C0.163,14.128 0.176,14.116 0.195,14.094 C0.229,14.056 0.282,13.997 0.348,13.916 C0.476,13.759 0.648,13.528 0.823,13.241 C1.135,12.722 1.432,12.041 1.492,11.275 C0.554,10.212 0.001,8.909 0.001,7.5 C0.001,3.909 3.582,1 8.001,1 C12.379,1 15.935,3.856 16,7.401 L16,7.599 C15.935,11.144 12.379,14 8.001,14 C6.842,14 5.742,13.8 4.748,13.441 C4.376,13.712 3.77,14.084 3.051,14.397 C2.301,14.722 1.398,15 0.501,15 C0.298,15 0.117,14.878 0.038,14.691 C0.013,14.628 0,14.563 0,14.499 Z"/>
</svg>

