<svg width="28" height="32" viewBox="0 0 28 32" fill="none" xmlns="http://www.w3.org/2000/svg">
<g clip-path="url(#clip0_904_28306)">
<g clip-path="url(#clip1_904_28306)">
<path d="M25.5325 6.38569L16.4675 1.09417C15.7894 0.698056 14.8969 0.5 14 0.5C13.1031 0.5 12.2106 0.698056 11.5325 1.09417L2.4675 6.38569C1.11125 7.17792 0 9.12403 0 10.7042V21.2915C0 22.876 1.11125 24.8178 2.4675 25.61L11.5369 30.9058C12.215 31.3019 13.1075 31.5 14.0044 31.5C14.9012 31.5 15.7938 31.3019 16.4719 30.9058L25.5413 25.61C26.8975 24.8178 28.0087 22.876 28.0087 21.2915V10.7042C28.0087 9.11972 26.8975 7.17792 25.5413 6.38569H25.5325Z" fill="#0087CD"/>
<path d="M17.0188 12.2671V23.1042C17.0188 23.4615 17.3119 23.75 17.675 23.75H20.3438C20.7069 23.75 21 23.4615 21 23.1042V12.2671C21 11.9097 20.7069 11.6212 20.3438 11.6212H17.675C17.3119 11.6212 17.0188 11.9097 17.0188 12.2671ZM12.6656 23.75H15.3344C15.6975 23.75 15.9906 23.4615 15.9906 23.1042V8.89583C15.9906 8.53847 15.6975 8.25 15.3344 8.25H12.6656C12.3025 8.25 12.0094 8.53847 12.0094 8.89583V23.1042C12.0094 23.4615 12.3025 23.75 12.6656 23.75ZM7.65625 23.75H10.325C10.6881 23.75 10.9813 23.4615 10.9813 23.1042V16.6458C10.9813 16.2885 10.6881 16 10.325 16H7.65625C7.29313 16 7 16.2885 7 16.6458V23.1042C7 23.4615 7.29313 23.75 7.65625 23.75Z" fill="white"/>
</g>
</g>
<defs>
<clipPath id="clip0_904_28306">
<rect width="28" height="32" fill="white"/>
</clipPath>
<clipPath id="clip1_904_28306">
<rect width="28" height="31" fill="white" transform="translate(0 0.5)"/>
</clipPath>
</defs>
</svg>
