<svg xmlns="http://www.w3.org/2000/svg" width="28" height="32" viewBox="0 0 28 32">
  <defs/>
  <path d="M14,0.5 C14.892,0.5 15.789,0.698 16.468,1.094 L25.541,6.386 C26.828,7.137 27.894,8.923 28,10.457 L28,21.539 C27.894,23.073 26.828,24.859 25.541,25.61 L16.472,30.906 C15.794,31.302 14.901,31.5 14.004,31.5 C13.108,31.5 12.215,31.302 11.537,30.906 L2.467,25.61 C1.111,24.822 0,22.876 0,21.292 L0,10.704 C0,9.124 1.111,7.178 2.467,6.386 L11.533,1.094 C12.211,0.698 13.108,0.5 14,0.5 Z M14,1.792 C13.309,1.792 12.657,1.942 12.206,2.205 L3.137,7.497 C2.183,8.052 1.312,9.585 1.312,10.704 L1.312,21.292 C1.312,22.415 2.183,23.944 3.137,24.499 L12.211,29.799 C12.657,30.062 13.313,30.213 14.004,30.213 C14.696,30.213 15.347,30.062 15.798,29.799 L24.868,24.503 C25.821,23.948 26.692,22.415 26.692,21.296 L26.692,10.708 C26.692,9.585 25.821,8.056 24.868,7.501 L15.798,2.205 C15.347,1.942 14.691,1.792 14,1.792 Z"/>
  <path d="M12.666,23.75 C12.302,23.75 12.009,23.462 12.009,23.104 L12.009,8.896 C12.009,8.538 12.302,8.25 12.666,8.25 L15.334,8.25 C15.698,8.25 15.991,8.538 15.991,8.896 L15.991,23.104 C15.991,23.462 15.698,23.75 15.334,23.75 Z M17.019,12.267 C17.019,11.91 17.312,11.621 17.675,11.621 L20.344,11.621 C20.707,11.621 21,11.91 21,12.267 L21,23.104 C21,23.462 20.707,23.75 20.344,23.75 L17.675,23.75 C17.312,23.75 17.019,23.462 17.019,23.104 Z M7.656,23.75 C7.293,23.75 7,23.462 7,23.104 L7,16.646 C7,16.288 7.293,16 7.656,16 L10.325,16 C10.688,16 10.981,16.288 10.981,16.646 L10.981,23.104 C10.981,23.462 10.688,23.75 10.325,23.75 Z"/>
</svg>

