<svg xmlns="http://www.w3.org/2000/svg" width="28" height="32" viewBox="0 0 28 32">
  <defs/>
  <path d="M14,0 C14.892,0 15.789,0.204 16.468,0.613 L25.541,6.076 C26.828,6.851 27.894,8.695 28,10.278 L28,21.717 C27.894,23.301 26.828,25.144 25.541,25.92 L16.472,31.387 C15.794,31.796 14.901,32 14.004,32 C13.108,32 12.215,31.796 11.537,31.387 L2.467,25.92 C1.111,25.107 0,23.098 0,21.462 L0,10.533 C0,8.902 1.111,6.893 2.467,6.076 L11.533,0.613 C12.211,0.204 13.108,0 14,0 Z M14,1.333 C13.309,1.333 12.657,1.489 12.206,1.76 L3.137,7.222 C2.183,7.796 1.312,9.378 1.312,10.533 L1.312,21.462 C1.312,22.622 2.183,24.2 3.137,24.773 L12.211,30.244 C12.657,30.516 13.313,30.671 14.004,30.671 C14.696,30.671 15.347,30.516 15.798,30.244 L24.868,24.778 C25.821,24.204 26.692,22.622 26.692,21.467 L26.692,10.538 C26.692,9.378 25.821,7.8 24.868,7.227 L15.798,1.76 C15.347,1.489 14.691,1.333 14,1.333 Z"/>
  <path d="M12.666,24 C12.302,24 12.009,23.702 12.009,23.333 L12.009,8.667 C12.009,8.298 12.302,8 12.666,8 L15.334,8 C15.698,8 15.991,8.298 15.991,8.667 L15.991,23.333 C15.991,23.702 15.698,24 15.334,24 Z M17.019,12.147 C17.019,11.778 17.312,11.48 17.675,11.48 L20.344,11.48 C20.707,11.48 21,11.778 21,12.147 L21,23.333 C21,23.702 20.707,24 20.344,24 L17.675,24 C17.312,24 17.019,23.702 17.019,23.333 Z M7.656,24 C7.293,24 7,23.702 7,23.333 L7,16.667 C7,16.298 7.293,16 7.656,16 L10.325,16 C10.688,16 10.981,16.298 10.981,16.667 L10.981,23.333 C10.981,23.702 10.688,24 10.325,24 Z"/>
</svg>

