<svg xmlns="http://www.w3.org/2000/svg" width="48" height="48" viewBox="0 0 48 48">
  <defs/>
  <path d="M48,24 A24 24 0 1 1 0,24 A24 24 0 1 1 48,24 Z"/>
  <path d="M26.351,17.359 L30.639,21.648 L19.634,32.652 C19.579,32.708 19.51,32.747 19.433,32.766 L14.538,33.986 C14.503,33.995 14.467,33.999 14.433,33.999 C14.319,33.999 14.208,33.954 14.127,33.873 C14.045,33.791 14.001,33.681 14,33.569 L14,33.562 C14,33.528 14.004,33.494 14.013,33.461 L15.232,28.565 C15.252,28.49 15.291,28.42 15.347,28.365 Z"/>
  <path d="M33.365,15.859 C33.774,16.268 33.999,16.812 33.999,17.391 C33.999,17.97 33.774,18.514 33.365,18.923 L31.865,20.423 L27.576,16.135 L29.077,14.634 C29.894,13.816 31.321,13.816 32.14,14.634 Z"/>
</svg>

