<svg xmlns="http://www.w3.org/2000/svg" width="16" height="16" viewBox="0 0 16 16">
  <defs/>
  <path d="M8.444,7.562 L8.444,1.454 C8.444,1.208 8.639,1 8.889,1 C12.325,1 15.111,3.743 15.111,7.125 C15.111,7.371 14.9,7.562 14.65,7.562 L8.444,7.562 Z M0.889,8.438 C0.889,5.121 3.391,2.375 6.639,1.938 C6.894,1.902 7.111,2.105 7.111,2.359 L7.111,8.875 L11.458,13.154 C11.644,13.338 11.63,13.638 11.416,13.786 C10.328,14.552 8.994,15 7.555,15 C3.875,15 0.889,12.063 0.889,8.438 Z M15.511,8.875 C15.769,8.875 15.972,9.088 15.939,9.34 C15.725,10.868 14.978,12.227 13.886,13.231 C13.719,13.384 13.458,13.373 13.297,13.212 L8.889,8.875 L15.511,8.875 Z"/>
</svg>

