<svg xmlns="http://www.w3.org/2000/svg" width="16" height="16" viewBox="0 0 16 16">
  <defs/>
  <path d="M2.097,0 L7.451,0 L11.982,4.728 L11.982,13.919 C11.982,15.068 11.05,16 9.901,16 L2.097,16 C0.947,16 0.016,15.068 0.016,13.919 L0.016,2.081 C0.016,0.932 0.947,0 2.097,0 Z"/>
  <path opacity="0.302" d="M7.443,0 L11.981,4.689 L7.443,4.689 L7.443,0 Z"/>
  <path d="M1.947,11.416 L1.947,8.768 L2.886,8.768 C3.073,8.768 3.248,8.796 3.41,8.847 C3.571,8.901 3.718,8.979 3.85,9.082 C3.981,9.186 4.085,9.324 4.16,9.497 C4.236,9.669 4.275,9.868 4.275,10.092 C4.275,10.316 4.236,10.515 4.16,10.687 C4.085,10.86 3.981,10.998 3.85,11.101 C3.718,11.205 3.571,11.283 3.41,11.336 C3.248,11.388 3.073,11.416 2.886,11.416 L1.947,11.416 Z M2.609,10.84 L2.806,10.84 C2.911,10.84 3.011,10.827 3.099,10.804 C3.19,10.778 3.272,10.737 3.349,10.683 C3.427,10.629 3.487,10.551 3.53,10.45 C3.576,10.351 3.597,10.23 3.597,10.092 C3.597,9.954 3.576,9.833 3.53,9.732 C3.487,9.632 3.427,9.555 3.349,9.501 C3.272,9.445 3.19,9.406 3.099,9.38 C3.011,9.356 2.911,9.343 2.806,9.343 L2.609,9.343 L2.609,10.84 Z M5.881,11.446 C5.482,11.446 5.152,11.317 4.891,11.06 C4.63,10.804 4.501,10.48 4.501,10.092 C4.501,9.704 4.63,9.38 4.891,9.123 C5.152,8.867 5.482,8.737 5.881,8.737 C6.274,8.737 6.6,8.867 6.861,9.123 C7.12,9.38 7.249,9.704 7.249,10.092 C7.249,10.48 7.12,10.804 6.861,11.06 C6.6,11.317 6.274,11.446 5.881,11.446 Z M5.372,10.65 C5.504,10.797 5.672,10.87 5.877,10.87 C6.082,10.87 6.248,10.797 6.38,10.65 C6.511,10.502 6.576,10.316 6.576,10.092 C6.576,9.868 6.511,9.682 6.38,9.533 C6.248,9.387 6.082,9.313 5.877,9.313 C5.672,9.313 5.504,9.387 5.372,9.533 C5.241,9.682 5.174,9.868 5.174,10.092 C5.174,10.316 5.241,10.502 5.372,10.65 Z M8.824,11.446 C8.437,11.446 8.116,11.326 7.862,11.088 C7.605,10.849 7.478,10.517 7.478,10.092 C7.478,9.669 7.607,9.337 7.866,9.098 C8.127,8.858 8.444,8.737 8.824,8.737 C9.166,8.737 9.447,8.821 9.669,8.992 C9.889,9.16 10.016,9.384 10.049,9.665 L9.38,9.801 C9.352,9.654 9.285,9.535 9.182,9.447 C9.078,9.358 8.957,9.313 8.819,9.313 C8.629,9.313 8.472,9.38 8.345,9.516 C8.217,9.654 8.153,9.844 8.153,10.092 C8.153,10.34 8.217,10.53 8.343,10.666 C8.47,10.804 8.627,10.87 8.819,10.87 C8.957,10.87 9.076,10.832 9.173,10.754 C9.27,10.676 9.33,10.573 9.356,10.443 L10.04,10.599 C9.977,10.866 9.839,11.073 9.624,11.222 C9.41,11.371 9.143,11.446 8.824,11.446 Z"/>
</svg>

