<svg xmlns="http://www.w3.org/2000/svg" width="20" height="20" viewBox="0 0 20 20">
  <defs/>
  <path d="M10.628,11.214 C7.537,11.214 5.021,8.698 5.021,5.607 C5.021,2.515 7.537,0 10.628,0 C13.72,0 16.235,2.515 16.235,5.607 C16.235,8.698 13.72,11.214 10.628,11.214 Z M10.042,3.163 C9.33,3.292 8.787,3.916 8.787,4.665 C8.787,5.508 9.472,6.193 10.314,6.193 L10.942,6.193 C11.138,6.193 11.298,6.352 11.298,6.548 C11.298,6.744 11.138,6.904 10.942,6.904 L10.001,6.904 C9.677,6.904 9.415,7.166 9.415,7.49 C9.415,7.813 9.677,8.076 10.001,8.076 L10.042,8.076 L10.042,8.117 C10.042,8.441 10.305,8.703 10.628,8.703 C10.952,8.703 11.214,8.441 11.214,8.117 L11.214,8.051 C11.927,7.922 12.469,7.298 12.469,6.548 C12.469,5.706 11.784,5.021 10.942,5.021 L10.314,5.021 C10.118,5.021 9.959,4.861 9.959,4.665 C9.959,4.469 10.118,4.31 10.314,4.31 L11.256,4.31 C11.58,4.31 11.842,4.048 11.842,3.724 C11.842,3.4 11.58,3.138 11.256,3.138 L11.214,3.138 L11.214,3.096 C11.214,2.773 10.952,2.51 10.628,2.51 C10.305,2.51 10.042,2.773 10.042,3.096 Z"/>
  <path d="M18.42,3.621 C18.132,3.765 17.779,3.649 17.634,3.358 C17.49,3.069 17.607,2.717 17.896,2.572 L19.152,1.945 C19.441,1.8 19.793,1.917 19.938,2.207 C20.082,2.496 19.965,2.848 19.676,2.993 Z"/>
  <path d="M19.676,8.221 C19.965,8.365 20.082,8.717 19.938,9.007 C19.793,9.297 19.441,9.413 19.152,9.269 L17.896,8.641 C17.607,8.497 17.49,8.145 17.634,7.855 C17.779,7.566 18.131,7.449 18.42,7.593 Z"/>
  <path d="M3.359,2.572 C3.649,2.717 3.766,3.069 3.621,3.358 C3.476,3.649 3.123,3.765 2.835,3.621 L1.58,2.993 C1.29,2.848 1.173,2.496 1.318,2.207 C1.463,1.917 1.814,1.8 2.104,1.945 Z"/>
  <path d="M2.835,7.593 C3.124,7.449 3.476,7.566 3.621,7.855 C3.766,8.145 3.649,8.497 3.359,8.641 L2.104,9.269 C1.815,9.413 1.463,9.297 1.318,9.007 C1.173,8.717 1.29,8.365 1.58,8.221 Z"/>
  <path d="M15.854,12.861 C16.583,12.132 17.792,12.083 18.571,12.86 C18.81,13.099 18.796,13.469 18.574,13.692 L14.32,17.946 C13.804,18.461 13.119,18.745 12.39,18.745 L4.311,18.745 L4.311,14.435 L5.217,14.435 C5.311,14.05 5.874,12.552 7.651,12.552 L11.473,12.552 C12.166,12.552 12.728,13.114 12.728,13.808 C12.728,14.501 12.166,15.063 11.473,15.063 L9.575,15.063 C9.242,15.063 8.974,15.34 8.99,15.677 C9.005,15.992 9.276,16.235 9.592,16.235 L11.718,16.235 C12.21,16.235 12.672,16.043 13.02,15.696 Z"/>
  <path d="M2.552,13.18 C2.876,13.18 3.138,13.442 3.138,13.766 L3.138,19.414 C3.138,19.738 2.876,20 2.552,20 L0.586,20 C0.262,20 0,19.738 0,19.414 L0,13.766 C0,13.442 0.262,13.18 0.586,13.18 Z"/>
</svg>

