<svg xmlns="http://www.w3.org/2000/svg" width="16" height="16" viewBox="0 0 16 16">
  <defs/>
  <path d="M8,11.852 C7.47,11.852 6.961,12.07 6.586,12.459 C6.211,12.848 6,13.376 6,13.926 C6,14.476 6.211,15.004 6.586,15.393 C6.961,15.781 7.47,16 8,16 C8.53,16 9.039,15.781 9.414,15.393 C9.789,15.004 10,14.476 10,13.926 C10,13.376 9.789,12.848 9.414,12.459 C9.039,12.07 8.53,11.852 8,11.852 Z M8,5.926 C7.47,5.926 6.961,6.144 6.586,6.533 C6.211,6.922 6,7.45 6,8 C6,8.55 6.211,9.078 6.586,9.467 C6.961,9.856 7.47,10.074 8,10.074 C8.53,10.074 9.039,9.856 9.414,9.467 C9.789,9.078 10,8.55 10,8 C10,7.45 9.789,6.922 9.414,6.533 C9.039,6.144 8.53,5.926 8,5.926 Z M10,2.074 C10,1.524 9.789,0.996 9.414,0.607 C9.039,0.219 8.53,0 8,0 C7.47,0 6.961,0.219 6.586,0.607 C6.211,0.996 6,1.524 6,2.074 C6,2.624 6.211,3.152 6.586,3.541 C6.961,3.93 7.47,4.148 8,4.148 C8.53,4.148 9.039,3.93 9.414,3.541 C9.789,3.152 10,2.624 10,2.074 Z"/>
</svg>

