<svg xmlns="http://www.w3.org/2000/svg" width="16" height="16" viewBox="0 0 16 16">
  <defs/>
  <path d="M6.5,8 C6.5,8.827 7.173,9.5 8,9.5 C8.827,9.5 9.5,8.827 9.5,8 C9.5,7.173 8.827,6.5 8,6.5 C7.173,6.5 6.5,7.173 6.5,8 Z"/>
  <path d="M6.5,13 C6.5,13.827 7.173,14.5 8,14.5 C8.827,14.5 9.5,13.827 9.5,13 C9.5,12.173 8.827,11.5 8,11.5 C7.173,11.5 6.5,12.173 6.5,13 Z"/>
  <path d="M6.5,3 C6.5,3.827 7.173,4.5 8,4.5 C8.827,4.5 9.5,3.827 9.5,3 C9.5,2.173 8.827,1.5 8,1.5 C7.173,1.5 6.5,2.173 6.5,3 Z"/>
</svg>

