<svg xmlns="http://www.w3.org/2000/svg" width="16" height="16" viewBox="0 0 16 16">
  <defs/>
  <path d="M14.359,2.232 C14.656,1.985 15.072,1.929 15.425,2.094 C15.778,2.26 16,2.613 16,3 L16,13 C16,13.388 15.775,13.741 15.425,13.907 C15.075,14.072 14.659,14.019 14.359,13.769 L9,9.304 L9,8 L9,6.697 L14.359,2.232 Z M8,5 L8,8 L8,12 L8,13 C8,13.388 7.775,13.741 7.425,13.907 C7.075,14.072 6.659,14.019 6.359,13.769 L0.359,8.769 C0.131,8.579 0,8.297 0,8 C0,7.704 0.131,7.422 0.359,7.232 L6.359,2.232 C6.656,1.985 7.072,1.929 7.425,2.094 C7.778,2.26 8,2.613 8,3 L8,5 Z"/>
</svg>

