<svg xmlns="http://www.w3.org/2000/svg" width="16" height="16" viewBox="0 0 16 16">
  <defs/>
  <path d="M0.394,8.95 C0.131,8.687 0,8.343 0,7.999 C0,7.656 0.131,7.312 0.394,7.05 L7.049,0.395 C7.574,-0.13 8.425,-0.13 8.95,0.395 C9.475,0.919 9.475,1.771 8.95,2.296 L3.246,8 L8.95,13.704 C9.475,14.229 9.475,15.08 8.95,15.605 C8.425,16.13 7.574,16.13 7.049,15.605 Z M8.396,9.353 C7.865,8.793 7.865,7.887 8.396,7.328 L13.68,1.759 C14.211,1.2 15.071,1.2 15.602,1.759 C16.133,2.318 16.133,3.225 15.602,3.784 L11.278,8.34 L15.602,12.897 C16.133,13.456 16.133,14.363 15.602,14.922 C15.071,15.481 14.211,15.481 13.68,14.922 Z"/>
</svg>

