<svg xmlns="http://www.w3.org/2000/svg" width="16" height="16" viewBox="0 0 16 16">
  <defs/>
  <path d="M2,11 L5.172,11 L6.584,12.416 C7.366,13.197 8.631,13.197 9.413,12.416 L10.828,11 L14,11 C15.103,11 16,11.897 16,13 L16,14 C16,15.103 15.103,16 14,16 L2,16 C0.897,16 0,15.103 0,14 L0,13 C0,11.897 0.897,11 2,11 Z M9,1 L9,8.584 L11.291,6.291 C11.681,5.9 12.316,5.9 12.706,6.291 C13.097,6.681 13.097,7.316 12.706,7.706 L8.706,11.706 C8.316,12.097 7.681,12.097 7.291,11.706 L3.291,7.706 C2.9,7.316 2.9,6.681 3.291,6.291 C3.681,5.9 4.316,5.9 4.706,6.291 L7,8.584 L7,1 C7,0.447 7.447,0 8,0 C8.553,0 9,0.447 9,1 Z M13.5,12.75 C13.301,12.75 13.11,12.829 12.97,12.97 C12.829,13.11 12.75,13.301 12.75,13.5 C12.75,13.699 12.829,13.89 12.97,14.03 C13.11,14.171 13.301,14.25 13.5,14.25 C13.699,14.25 13.89,14.171 14.03,14.03 C14.171,13.89 14.25,13.699 14.25,13.5 C14.25,13.301 14.171,13.11 14.03,12.97 C13.89,12.829 13.699,12.75 13.5,12.75 Z"/>
</svg>

