<svg xmlns="http://www.w3.org/2000/svg" width="16" height="16" viewBox="0 0 16 16">
  <defs/>
  <path d="M7.984,15.997 L4.087,15.997 C2.306,15.994 1.021,14.716 1.012,12.935 C1.009,12.313 1.009,11.691 1.012,11.069 C1.015,10.428 1.403,10.016 2,10.013 C2.596,10.01 2.987,10.422 2.993,11.063 C2.995,11.333 2.994,11.604 2.994,11.875 C2.993,12.237 2.993,12.6 2.996,12.963 C3.003,13.625 3.39,14.013 4.059,14.013 L11.956,14.013 C12.622,14.013 13.012,13.625 13.018,12.963 C13.02,12.693 13.019,12.423 13.019,12.153 L13.019,12.152 C13.018,11.79 13.018,11.426 13.021,11.063 C13.025,10.422 13.415,10.013 14.012,10.013 C14.609,10.013 15.003,10.425 14.997,11.069 C14.995,11.278 14.997,11.488 14.998,11.698 L14.998,11.698 C15.003,12.3 15.008,12.903 14.934,13.494 C14.747,14.957 13.503,15.988 12.021,15.994 C11.057,16.001 10.096,15.999 9.136,15.998 L9.136,15.998 C8.752,15.998 8.368,15.997 7.984,15.997 Z"/>
  <path d="M8.996,7.589 C9.146,7.448 9.237,7.37 9.318,7.289 C9.952,6.648 10.58,6.004 11.218,5.37 C11.671,4.917 12.299,4.886 12.705,5.279 C13.112,5.673 13.096,6.323 12.652,6.773 C11.358,8.073 10.062,9.37 8.762,10.664 C8.302,11.12 7.705,11.12 7.249,10.664 C5.94,9.364 4.637,8.061 3.337,6.751 C2.908,6.32 2.905,5.67 3.305,5.282 C3.705,4.895 4.337,4.914 4.771,5.345 C5.418,5.989 6.052,6.642 6.693,7.289 C6.774,7.373 6.865,7.451 6.996,7.573 C7.005,7.395 7.015,7.279 7.015,7.161 C7.015,6.65 7.015,6.139 7.014,5.629 C7.014,4.095 7.013,2.559 7.018,1.026 C7.02,0.448 7.401,0.046 7.889,0 L8.08,0 C8.183,0.009 8.289,0.034 8.396,0.076 C8.783,0.226 8.996,0.564 8.996,1.057 C8.999,3.079 8.999,5.101 8.996,7.126 Z"/>
</svg>

