<svg xmlns="http://www.w3.org/2000/svg" width="16" height="16" viewBox="0 0 16 16">
  <defs/>
  <path d="M9.337,9.803 L15.893,5.432 C15.93,5.408 15.965,5.383 16,5.356 L16,12.519 C16,13.325 15.348,13.992 14.527,13.992 L1.473,13.992 C0.666,13.992 0,13.34 0,12.519 L0,5.356 C0.035,5.382 0.07,5.408 0.107,5.432 L6.663,9.803 C7.061,10.068 7.523,10.209 8,10.209 C8.477,10.209 8.939,10.068 9.337,9.803 Z"/>
  <path d="M0.627,4.652 C0.234,4.391 0,3.953 0,3.482 C0,2.669 0.661,2.009 1.472,2.009 L14.528,2.009 C15.34,2.009 16,2.669 16,3.481 C16,3.953 15.766,4.391 15.373,4.652 L8.817,9.023 C8.569,9.189 8.284,9.272 8,9.272 C7.716,9.272 7.431,9.189 7.183,9.023 Z"/>
</svg>

