<svg xmlns="http://www.w3.org/2000/svg" width="16" height="16" viewBox="0 0 16 16">
  <defs/>
  <path d="M13.116,13.117 L2.883,2.884 L2.881,2.881 C2.825,2.826 2.76,2.783 2.688,2.753 C2.615,2.724 2.538,2.709 2.46,2.709 C2.382,2.709 2.305,2.725 2.233,2.755 C2.161,2.785 2.095,2.829 2.041,2.885 C1.986,2.94 1.942,3.006 1.913,3.078 C1.883,3.15 1.868,3.228 1.868,3.306 C1.869,3.463 1.932,3.614 2.044,3.725 L2.94,4.621 C1.853,5.365 0.918,6.309 0.184,7.402 C0.064,7.579 0,7.788 0,8.002 C0,8.216 0.064,8.425 0.184,8.602 C2.058,11.375 5.029,13 8,12.98 C8.962,12.983 9.918,12.823 10.827,12.506 L12.277,13.957 C12.389,14.065 12.539,14.125 12.694,14.124 C12.85,14.123 12.998,14.061 13.109,13.951 C13.219,13.841 13.282,13.693 13.284,13.537 C13.286,13.382 13.226,13.232 13.119,13.119 L13.116,13.117 Z M8,11.367 C7.437,11.367 6.883,11.226 6.389,10.956 C5.895,10.687 5.476,10.298 5.171,9.825 C4.866,9.352 4.684,8.81 4.642,8.249 C4.601,7.687 4.7,7.125 4.932,6.612 L5.868,7.548 C5.793,7.903 5.807,8.271 5.91,8.619 C6.014,8.968 6.202,9.285 6.459,9.541 C6.716,9.798 7.033,9.987 7.381,10.09 C7.729,10.193 8.097,10.208 8.453,10.132 L9.389,11.068 C8.952,11.266 8.479,11.368 8,11.367 Z"/>
  <path d="M15.817,7.401 C13.943,4.625 10.972,3 8.001,3.021 C7.038,3.017 6.082,3.177 5.174,3.494 L6.611,4.932 C7.235,4.65 7.93,4.564 8.604,4.687 C9.277,4.81 9.897,5.135 10.382,5.619 C10.866,6.103 11.191,6.723 11.314,7.397 C11.436,8.07 11.351,8.765 11.069,9.389 L13.06,11.381 C14.147,10.637 15.082,9.693 15.817,8.6 C15.937,8.423 16,8.214 16,8 C16,7.787 15.937,7.578 15.817,7.401 Z"/>
  <path d="M8,5.821 C7.848,5.821 7.696,5.837 7.547,5.869 L10.132,8.453 C10.199,8.136 10.195,7.807 10.119,7.491 C10.043,7.176 9.897,6.881 9.693,6.629 C9.489,6.377 9.231,6.173 8.938,6.034 C8.645,5.894 8.324,5.821 8,5.821 Z"/>
</svg>

