<svg xmlns="http://www.w3.org/2000/svg" width="16" height="16" viewBox="0 0 16 16">
  <defs/>
  <path d="M7.812,2.312 C5.76,2.312 4.118,3.247 2.922,4.359 C1.733,5.461 0.939,6.781 0.563,7.688 C0.479,7.888 0.479,8.112 0.563,8.312 C0.939,9.219 1.733,10.539 2.922,11.641 C4.118,12.753 5.76,13.688 7.812,13.688 C9.863,13.688 11.506,12.753 12.702,11.641 C13.89,10.537 14.685,9.219 15.063,8.312 C15.147,8.112 15.147,7.888 15.063,7.688 C14.685,6.781 13.89,5.461 12.702,4.359 C11.506,3.247 9.863,2.312 7.812,2.312 Z M4.156,8 C4.156,7.03 4.541,6.1 5.227,5.415 C5.912,4.729 6.842,4.344 7.812,4.344 C8.782,4.344 9.712,4.729 10.397,5.415 C11.083,6.1 11.468,7.03 11.468,8 C11.468,8.97 11.083,9.9 10.397,10.585 C9.712,11.271 8.782,11.656 7.812,11.656 C6.842,11.656 5.912,11.271 5.227,10.585 C4.541,9.9 4.156,8.97 4.156,8 Z M7.812,6.375 C7.812,7.271 7.083,8 6.187,8 C6.007,8 5.834,7.97 5.671,7.916 C5.532,7.871 5.369,7.957 5.374,8.104 C5.382,8.279 5.407,8.454 5.456,8.63 C5.803,9.93 7.142,10.702 8.442,10.354 C9.742,10.006 10.513,8.668 10.166,7.368 C9.884,6.314 8.952,5.606 7.916,5.562 C7.769,5.557 7.682,5.717 7.728,5.86 C7.781,6.022 7.812,6.195 7.812,6.375 Z"/>
</svg>

