<svg xmlns="http://www.w3.org/2000/svg" width="16" height="16" viewBox="0 0 16 16">
  <defs/>
  <path d="M8,10.464 C9.361,10.464 10.464,9.362 10.464,8.001 C10.464,6.641 9.361,5.538 8,5.538 C6.64,5.538 5.537,6.641 5.537,8.001 C5.537,9.362 6.64,10.464 8,10.464 Z"/>
  <path d="M15.755,7.319 C13.861,5.031 10.995,2.828 8,2.828 C5.004,2.828 2.138,5.032 0.245,7.319 C-0.082,7.714 -0.082,8.288 0.245,8.683 C0.721,9.258 1.718,10.368 3.05,11.337 C6.405,13.779 9.588,13.785 12.95,11.337 C14.282,10.368 15.279,9.258 15.755,8.683 C16.081,8.289 16.083,7.715 15.755,7.319 Z M8,4.552 C9.902,4.552 11.449,6.099 11.449,8.001 C11.449,9.903 9.902,11.449 8,11.449 C6.098,11.449 4.552,9.903 4.552,8.001 C4.552,6.099 6.098,4.552 8,4.552 Z"/>
</svg>

