<svg xmlns="http://www.w3.org/2000/svg" width="16" height="16" viewBox="0 0 16 16">
  <defs/>
  <path d="M0.97,1.63 L3.768,3.856 C4.875,2.98 6.295,2.313 8,2.313 C10.02,2.313 11.638,3.247 12.813,4.359 C13.983,5.461 14.765,6.781 15.138,7.688 C15.22,7.888 15.22,8.112 15.138,8.312 C14.8,9.133 14.13,10.288 13.14,11.319 L15.77,13.411 C15.916,13.528 15.995,13.7 16,13.875 L16,13.91 C15.997,14.035 15.955,14.161 15.873,14.267 C15.668,14.531 15.29,14.579 15.03,14.371 L0.23,2.589 C0.079,2.469 0,2.289 0,2.108 C0,1.977 0.042,1.845 0.128,1.734 C0.333,1.47 0.71,1.421 0.97,1.63 Z M9.325,11.4 L11.155,12.862 C10.248,13.36 9.195,13.688 8,13.688 C5.98,13.688 4.363,12.753 3.188,11.641 C2.018,10.539 1.235,9.219 0.863,8.312 C0.78,8.112 0.78,7.888 0.863,7.688 C1.1,7.106 1.508,6.355 2.078,5.601 L4.435,7.487 C4.413,7.655 4.4,7.825 4.4,8 C4.4,10.019 6.013,11.656 8,11.656 C8.468,11.656 8.915,11.565 9.325,11.4 Z M5.578,5.296 L5.58,5.299 L7.838,7.096 C7.943,6.88 8.003,6.637 8.003,6.378 C8.003,6.197 7.973,6.025 7.92,5.862 C7.875,5.72 7.96,5.56 8.105,5.565 C9.125,5.608 10.043,6.317 10.32,7.37 C10.465,7.927 10.41,8.488 10.2,8.978 L11.165,9.744 C11.443,9.227 11.6,8.632 11.6,8 C11.6,5.982 9.988,4.344 8,4.344 C7.068,4.344 6.215,4.704 5.578,5.296 Z"/>
</svg>

