<svg xmlns="http://www.w3.org/2000/svg" width="44" height="44" viewBox="0 0 44 44">
  <defs/>
  <path d="M8,0 L36,0 A8 8 0 0 1 44,8 L44,36 A8 8 0 0 1 36,44 L8,44 A8 8 0 0 1 0,36 L0,8 A8 8 0 0 1 8,0 Z"/>
  <path d="M29.15,12 L14.235,12 C13.555,12 13,12.555 13,13.238 L13,15.594 C13,15.899 13.113,16.192 13.316,16.422 L19.18,22.947 L19.18,28.107 C19.18,28.678 19.458,29.213 19.923,29.541 L23.224,31.885 C23.505,32.084 23.896,32.018 24.095,31.737 C24.169,31.631 24.208,31.506 24.208,31.377 L24.208,22.947 L30.072,16.422 C30.275,16.196 30.389,15.899 30.389,15.594 L30.389,13.238 C30.385,12.555 29.83,12 29.15,12 Z"/>
</svg>

