<svg xmlns="http://www.w3.org/2000/svg" width="44" height="44" viewBox="0 0 44 44">
  <defs/>
  <path d="M8,0 L36,0 A8 8 0 0 1 44,8 L44,36 A8 8 0 0 1 36,44 L8,44 A8 8 0 0 1 0,36 L0,8 A8 8 0 0 1 8,0 Z"/>
  <path d="M10.183,12.573 C10.492,11.917 11.148,11.5 11.875,11.5 L32.125,11.5 C32.851,11.5 33.508,11.917 33.817,12.573 C34.126,13.23 34.033,14.003 33.573,14.566 L25,25.042 L25,31 C25,31.567 24.681,32.087 24.17,32.341 C23.659,32.594 23.054,32.542 22.6,32.2 L19.6,29.95 C19.22,29.669 19,29.223 19,28.75 L19,25.042 L10.422,14.561 C9.967,14.003 9.869,13.225 10.183,12.573 Z"/>
</svg>

