<svg xmlns="http://www.w3.org/2000/svg" width="24" height="24" viewBox="0 0 24 24">
  <defs/>
  <path d="M19.125,2.875 C18.542,2.292 17.834,2 17,2 C16.167,2 15.459,2.292 14.875,2.875 C14.292,3.458 14.001,4.167 14.001,5 C14.001,5.542 14.136,6.044 14.406,6.508 C14.677,6.971 15.041,7.333 15.5,7.594 C15.5,8.135 15.456,8.612 15.368,9.024 C15.279,9.435 15.133,9.797 14.93,10.11 C14.727,10.422 14.516,10.688 14.297,10.906 C14.078,11.125 13.771,11.331 13.375,11.524 C12.979,11.716 12.612,11.877 12.274,12.008 C11.935,12.138 11.479,12.292 10.906,12.469 C9.865,12.792 9.063,13.088 8.5,13.359 L8.5,5.594 C8.958,5.333 9.323,4.971 9.594,4.508 C9.865,4.044 10,3.542 10,3 C10,2.167 9.708,1.458 9.125,0.875 C8.542,0.292 7.834,0 7,0 C6.167,0 5.458,0.292 4.875,0.875 C4.292,1.458 4,2.167 4,3 C4,3.542 4.135,4.044 4.406,4.508 C4.677,4.971 5.041,5.333 5.5,5.594 L5.5,18.406 C5.041,18.667 4.677,19.029 4.406,19.492 C4.135,19.956 4,20.459 4,21 C4,21.834 4.292,22.542 4.875,23.125 C5.458,23.708 6.167,24 7,24 C7.833,24 8.542,23.708 9.125,23.125 C9.708,22.542 10,21.833 10,21 C10,20.459 9.865,19.956 9.594,19.492 C9.323,19.029 8.958,18.667 8.5,18.406 L8.5,18 C8.5,17.282 8.716,16.761 9.148,16.438 C9.581,16.115 10.463,15.745 11.797,15.329 C13.204,14.88 14.261,14.458 14.969,14.062 C17.302,12.74 18.48,10.583 18.5,7.594 C18.959,7.333 19.323,6.971 19.594,6.508 C19.865,6.044 20,5.542 20,5 C20,4.167 19.709,3.459 19.125,2.875 Z M8.063,22.063 C7.771,22.355 7.417,22.501 7,22.501 C6.584,22.501 6.229,22.355 5.938,22.063 C5.646,21.772 5.5,21.417 5.5,21.001 C5.5,20.584 5.646,20.23 5.938,19.938 C6.229,19.646 6.584,19.501 7,19.501 C7.417,19.501 7.771,19.647 8.063,19.938 C8.355,20.23 8.5,20.584 8.5,21.001 C8.5,21.417 8.355,21.772 8.063,22.063 Z M8.063,4.063 C7.771,4.354 7.417,4.5 7,4.5 C6.584,4.5 6.229,4.354 5.938,4.063 C5.646,3.771 5.5,3.417 5.5,3 C5.5,2.583 5.646,2.229 5.938,1.938 C6.229,1.646 6.584,1.5 7,1.5 C7.417,1.5 7.771,1.646 8.063,1.938 C8.355,2.229 8.5,2.583 8.5,3 C8.5,3.417 8.355,3.771 8.063,4.063 Z M18.063,6.063 C17.771,6.354 17.417,6.5 17.001,6.5 C16.584,6.5 16.229,6.354 15.938,6.063 C15.646,5.771 15.501,5.417 15.501,5 C15.501,4.584 15.646,4.23 15.938,3.938 C16.23,3.646 16.584,3.5 17.001,3.5 C17.417,3.5 17.771,3.646 18.063,3.938 C18.354,4.229 18.5,4.584 18.5,5 C18.5,5.417 18.355,5.771 18.063,6.063 Z"/>
</svg>

