<svg xmlns="http://www.w3.org/2000/svg" width="22" height="22" viewBox="0 0 22 22">
  <defs/>
  <path d="M10.999,0.719 C16.799,0.719 21.5,5.438 21.5,11.261 C21.5,15.916 18.494,19.865 14.327,21.262 C13.794,21.366 13.605,21.038 13.605,20.755 C13.605,20.41 13.618,19.274 13.618,17.864 C13.618,16.881 13.282,16.238 12.906,15.912 C15.245,15.651 17.699,14.76 17.699,10.711 C17.699,9.56 17.293,8.619 16.62,7.881 C16.728,7.615 17.087,6.544 16.515,5.092 C16.515,5.092 15.634,4.808 13.63,6.172 C12.792,5.937 11.892,5.822 11.001,5.817 C10.108,5.82 9.21,5.937 8.372,6.171 C6.367,4.807 5.485,5.091 5.485,5.091 C4.914,6.541 5.274,7.613 5.383,7.88 C4.71,8.617 4.301,9.558 4.301,10.71 C4.301,14.748 6.753,15.652 9.084,15.919 C8.783,16.183 8.512,16.647 8.417,17.328 C7.819,17.599 6.297,18.063 5.36,16.453 C5.36,16.453 4.806,15.441 3.752,15.366 C3.752,15.366 2.727,15.353 3.681,16.007 C3.681,16.007 4.371,16.331 4.847,17.549 C4.847,17.549 5.464,19.599 8.384,18.962 C8.389,19.842 8.399,20.505 8.399,20.755 C8.399,21.035 8.207,21.36 7.682,21.263 C3.508,19.868 0.5,15.917 0.5,11.261 C0.5,5.438 5.201,0.719 10.999,0.719 Z"/>
</svg>

