<svg xmlns="http://www.w3.org/2000/svg" width="36" height="36" viewBox="0 0 36 36">
  <defs/>
  <path d="M8,0 L28,0 A8 8 0 0 1 36,8 L36,28 A8 8 0 0 1 28,36 L8,36 A8 8 0 0 1 0,28 L0,8 A8 8 0 0 1 8,0 Z"/>
  <path d="M17.999,7.719 C23.799,7.719 28.5,12.439 28.5,18.261 C28.5,22.916 25.494,26.865 21.327,28.262 C20.794,28.366 20.605,28.038 20.605,27.755 C20.605,27.41 20.618,26.274 20.618,24.864 C20.618,23.881 20.282,23.238 19.906,22.912 C22.245,22.651 24.699,21.76 24.699,17.711 C24.699,16.56 24.293,15.619 23.62,14.881 C23.728,14.615 24.087,13.544 23.515,12.092 C23.515,12.092 22.634,11.809 20.63,13.172 C19.792,12.937 18.892,12.822 18.001,12.816 C17.108,12.82 16.21,12.937 15.372,13.171 C13.367,11.807 12.485,12.091 12.485,12.091 C11.914,13.541 12.274,14.613 12.382,14.88 C11.71,15.617 11.301,16.558 11.301,17.709 C11.301,21.748 13.753,22.652 16.084,22.919 C15.783,23.183 15.512,23.647 15.417,24.328 C14.818,24.599 13.297,25.063 12.36,23.453 C12.36,23.453 11.806,22.441 10.752,22.366 C10.752,22.366 9.727,22.353 10.682,23.007 C10.682,23.007 11.371,23.331 11.847,24.549 C11.847,24.549 12.464,26.599 15.384,25.962 C15.389,26.842 15.399,27.505 15.399,27.755 C15.399,28.035 15.207,28.36 14.682,28.263 C10.508,26.868 7.5,22.917 7.5,18.261 C7.5,12.439 12.201,7.719 17.999,7.719 Z"/>
</svg>

