<svg xmlns="http://www.w3.org/2000/svg" width="18" height="18" viewBox="0 0 18 18">
  <defs/>
  <path d="M15.402,9.609 C16.824,9.609 17.983,10.757 18,12.175 L18,15.101 C17.987,15.949 17.292,16.635 16.441,16.635 L14.14,16.635 C14.198,16.472 14.229,16.297 14.229,16.115 L14.229,10.854 C14.229,10.417 14.152,9.998 14.01,9.609 Z"/>
  <path d="M3.771,10.854 L3.771,16.115 C3.771,16.297 3.803,16.472 3.86,16.635 L1.559,16.635 C0.699,16.635 0,15.936 0,15.076 L0,12.208 C0,10.775 1.166,9.609 2.598,9.609 L3.99,9.609 C3.849,9.998 3.771,10.417 3.771,10.854 Z"/>
  <path d="M10.591,8.255 C12.024,8.255 13.19,9.421 13.19,10.853 L13.19,16.114 C13.19,16.401 12.957,16.634 12.67,16.634 L5.33,16.634 C5.043,16.634 4.811,16.401 4.811,16.114 L4.811,10.853 C4.811,9.421 5.976,8.255 7.409,8.255 Z"/>
  <path d="M9,1.365 C10.723,1.365 12.125,2.767 12.125,4.49 C12.125,5.659 11.48,6.68 10.527,7.216 C10.075,7.47 9.554,7.615 9,7.615 C8.446,7.615 7.925,7.47 7.473,7.216 C6.52,6.68 5.875,5.659 5.875,4.49 C5.875,2.767 7.277,1.365 9,1.365 Z"/>
  <path d="M3.513,4.278 C4.801,4.278 5.85,5.327 5.85,6.615 C5.85,7.012 5.75,7.386 5.575,7.713 C5.326,8.18 4.923,8.552 4.434,8.763 C4.151,8.885 3.84,8.952 3.513,8.952 C2.224,8.952 1.176,7.904 1.176,6.615 C1.176,5.327 2.224,4.278 3.513,4.278 Z"/>
  <path d="M14.487,4.278 C15.776,4.278 16.824,5.327 16.824,6.615 C16.824,7.904 15.776,8.952 14.487,8.952 C14.16,8.952 13.849,8.885 13.566,8.763 C13.078,8.552 12.675,8.18 12.425,7.713 C12.25,7.386 12.15,7.012 12.15,6.615 C12.15,5.327 13.199,4.278 14.487,4.278 Z"/>
</svg>

