<svg xmlns="http://www.w3.org/2000/svg" width="36" height="36" viewBox="0 0 36 36">
  <defs/>
  <path d="M8,0 L28,0 A8 8 0 0 1 36,8 L36,28 A8 8 0 0 1 28,36 L8,36 A8 8 0 0 1 0,28 L0,8 A8 8 0 0 1 8,0 Z"/>
  <path d="M24.402,18.609 C25.824,18.609 26.983,19.757 27,21.175 L27,24.101 C26.987,24.949 26.292,25.635 25.441,25.635 L23.14,25.635 C23.198,25.472 23.229,25.297 23.229,25.115 L23.229,19.854 C23.229,19.417 23.152,18.998 23.01,18.609 Z"/>
  <path d="M12.771,19.854 L12.771,25.115 C12.771,25.297 12.803,25.472 12.86,25.635 L10.559,25.635 C9.699,25.635 9,24.935 9,24.076 L9,21.208 C9,19.775 10.166,18.609 11.598,18.609 L12.991,18.609 C12.849,18.998 12.771,19.417 12.771,19.854 Z"/>
  <path d="M19.591,17.255 C21.024,17.255 22.19,18.42 22.19,19.853 L22.19,25.114 C22.19,25.401 21.957,25.634 21.67,25.634 L14.33,25.634 C14.043,25.634 13.811,25.401 13.811,25.114 L13.811,19.853 C13.811,18.42 14.976,17.255 16.409,17.255 Z"/>
  <path d="M18,10.365 C19.723,10.365 21.125,11.767 21.125,13.49 C21.125,14.659 20.48,15.68 19.527,16.216 C19.075,16.47 18.554,16.615 18,16.615 C17.446,16.615 16.925,16.47 16.473,16.216 C15.52,15.68 14.875,14.659 14.875,13.49 C14.875,11.767 16.277,10.365 18,10.365 Z"/>
  <path d="M12.513,13.278 C13.802,13.278 14.85,14.327 14.85,15.615 C14.85,16.012 14.75,16.386 14.575,16.713 C14.326,17.18 13.923,17.552 13.434,17.763 C13.151,17.885 12.84,17.952 12.513,17.952 C11.224,17.952 10.176,16.904 10.176,15.615 C10.176,14.327 11.224,13.278 12.513,13.278 Z"/>
  <path d="M23.487,13.278 C24.776,13.278 25.824,14.327 25.824,15.615 C25.824,16.904 24.776,17.952 23.487,17.952 C23.16,17.952 22.849,17.885 22.566,17.763 C22.078,17.552 21.674,17.18 21.425,16.713 C21.25,16.386 21.15,16.012 21.15,15.615 C21.15,14.327 22.199,13.278 23.487,13.278 Z"/>
</svg>

