<svg xmlns="http://www.w3.org/2000/svg" width="20" height="20" viewBox="0 0 20 20">
  <defs/>
  <path d="M10,0 C15.528,0 20,4.473 20,10 C20,15.528 15.527,20 10,20 C4.472,20 0,15.527 0,10 C0,4.472 4.473,0 10,0 Z M11.205,9.56 C11.56,9.284 12.679,8.389 12.679,7.151 C12.679,5.914 11.56,4.979 9.875,4.979 C8.098,4.979 7.282,6.032 7.282,6.743 C7.282,7.256 7.716,7.493 8.072,7.493 C8.783,7.493 8.493,6.48 9.836,6.48 C10.494,6.48 11.02,6.769 11.02,7.375 C11.02,8.086 10.283,8.494 9.849,8.862 C9.467,9.191 8.967,9.731 8.967,10.863 C8.967,11.548 9.151,11.745 9.691,11.745 C10.336,11.745 10.467,11.455 10.467,11.205 C10.467,10.521 10.481,10.126 11.205,9.56 Z M9.704,14.68 C10.27,14.68 10.718,14.207 10.718,13.667 C10.718,13.114 10.257,12.653 9.704,12.653 C9.151,12.653 8.704,13.114 8.704,13.667 C8.704,14.207 9.138,14.68 9.704,14.68 Z"/>
</svg>

