<svg xmlns="http://www.w3.org/2000/svg" width="20" height="20" viewBox="0 0 20 20">
  <defs/>
  <path d="M10,20 C7.348,20 4.804,18.946 2.929,17.071 C1.054,15.196 0,12.652 0,10 C0,7.348 1.054,4.804 2.929,2.929 C4.804,1.054 7.348,0 10,0 C12.652,0 15.196,1.054 17.071,2.929 C18.946,4.804 20,7.348 20,10 C20,12.652 18.946,15.196 17.071,17.071 C15.196,18.946 12.652,20 10,20 Z M6.633,6.457 L6.621,6.508 C6.449,6.992 6.707,7.531 7.191,7.703 C7.676,7.875 8.215,7.621 8.387,7.133 L8.402,7.086 C8.445,6.961 8.562,6.879 8.695,6.879 L10.973,6.879 C11.297,6.879 11.562,7.141 11.562,7.469 C11.562,7.68 11.449,7.875 11.266,7.98 L9.535,8.973 C9.242,9.141 9.062,9.449 9.062,9.785 L9.062,10.312 C9.062,10.832 9.48,11.25 10,11.25 C10.512,11.25 10.93,10.836 10.938,10.328 L12.199,9.605 C12.965,9.164 13.438,8.348 13.438,7.465 C13.438,6.105 12.336,5 10.973,5 L8.695,5 C7.77,5 6.941,5.586 6.633,6.457 Z M8.75,13.75 C8.75,14.082 8.882,14.399 9.116,14.634 C9.351,14.868 9.668,15 10,15 C10.332,15 10.649,14.868 10.884,14.634 C11.118,14.399 11.25,14.082 11.25,13.75 C11.25,13.418 11.118,13.101 10.884,12.866 C10.649,12.632 10.332,12.5 10,12.5 C9.668,12.5 9.351,12.632 9.116,12.866 C8.882,13.101 8.75,13.418 8.75,13.75 Z"/>
</svg>

