<svg xmlns="http://www.w3.org/2000/svg" width="20" height="20" viewBox="0 0 20 20">
  <defs/>
  <path d="M20,6.655 L20,17.717 C19.999,18.306 19.765,18.871 19.348,19.288 C18.932,19.705 18.367,19.939 17.778,19.939 L14.074,19.939 C13.681,19.939 13.304,19.783 13.026,19.506 C12.749,19.228 12.593,18.851 12.593,18.458 L12.593,14.384 C12.593,14.187 12.515,13.999 12.376,13.86 C12.237,13.721 12.048,13.643 11.852,13.643 L8.148,13.643 C7.952,13.643 7.763,13.721 7.624,13.86 C7.485,13.999 7.407,14.187 7.407,14.384 L7.407,18.458 C7.407,18.851 7.251,19.228 6.973,19.506 C6.696,19.783 6.319,19.939 5.926,19.939 L2.222,19.939 C1.633,19.939 1.068,19.705 0.652,19.288 C0.235,18.871 0.001,18.306 0,17.717 L0,6.655 C0.001,6.399 0.067,6.148 0.193,5.925 C0.319,5.702 0.5,5.516 0.719,5.384 L9.238,0.273 C9.468,0.135 9.732,0.062 10,0.062 C10.269,0.062 10.532,0.135 10.763,0.273 L19.281,5.384 C19.5,5.516 19.681,5.703 19.807,5.925 C19.933,6.148 20,6.399 20,6.655 Z"/>
</svg>

