<svg xmlns="http://www.w3.org/2000/svg" width="20" height="20" viewBox="0 0 20 20">
  <defs/>
  <path d="M17.911,1.081 L18.926,3.516 L1.074,3.516 L2.089,1.081 C2.362,0.425 2.999,0 3.711,0 L16.289,0 C17.001,0 17.638,0.425 17.911,1.081 Z"/>
  <path d="M20,6.523 L20,8.867 C20,9.319 19.824,9.727 19.543,10.039 C19.824,10.351 20,10.759 20,11.211 L20,13.555 C20,14.007 19.824,14.415 19.543,14.727 C19.824,15.038 20,15.447 20,15.898 L20,18.242 C20,19.212 19.212,20 18.242,20 L1.758,20 C0.789,20 0,19.212 0,18.242 L0,15.898 C0,15.447 0.176,15.038 0.457,14.727 C0.176,14.415 0,14.007 0,13.555 L0,11.211 C0,10.759 0.176,10.351 0.457,10.039 C0.176,9.727 0,9.319 0,8.867 L0,6.523 C0,6.289 0.045,6.062 0.135,5.848 L0.586,4.766 L19.414,4.766 L19.865,5.846 L19.865,5.848 C19.955,6.062 20,6.289 20,6.523 Z M17.07,12.969 C17.846,12.969 17.843,11.797 17.07,11.797 L6.445,11.797 C5.67,11.797 5.673,12.969 6.445,12.969 Z M17.07,8.281 C17.846,8.281 17.843,7.109 17.07,7.109 L6.445,7.109 C5.67,7.109 5.673,8.281 6.445,8.281 Z M17.07,17.656 C17.846,17.656 17.843,16.484 17.07,16.484 L6.445,16.484 C5.67,16.484 5.673,17.656 6.445,17.656 Z M2.93,12.969 C3.253,12.969 3.516,12.706 3.516,12.383 C3.516,12.059 3.253,11.797 2.93,11.797 C2.606,11.797 2.344,12.059 2.344,12.383 C2.344,12.706 2.606,12.969 2.93,12.969 Z M2.93,8.281 C3.253,8.281 3.516,8.019 3.516,7.695 C3.516,7.372 3.253,7.109 2.93,7.109 C2.606,7.109 2.344,7.372 2.344,7.695 C2.344,8.019 2.606,8.281 2.93,8.281 Z M2.93,17.656 C3.253,17.656 3.516,17.394 3.516,17.07 C3.516,16.747 3.253,16.484 2.93,16.484 C2.606,16.484 2.344,16.747 2.344,17.07 C2.344,17.394 2.606,17.656 2.93,17.656 Z"/>
</svg>

