<svg xmlns="http://www.w3.org/2000/svg" width="16" height="16" viewBox="0 0 16 16">
  <defs/>
  <path d="M2.099,0 L7.451,0 L11.983,4.729 L11.983,13.916 C11.983,15.066 11.05,16 9.9,16 L2.099,16 C0.949,16 0.016,15.066 0.016,13.916 L0.016,2.084 C0.016,0.934 0.949,0 2.099,0 Z"/>
  <path opacity="0.302" d="M7.443,0 L11.983,4.688 L7.443,4.688 L7.443,0 Z"/>
  <path d="M8.033,7.997 C8.337,7.997 8.581,8.247 8.581,8.552 L8.581,11.136 C8.581,11.441 8.337,11.691 8.033,11.691 L3.967,11.691 C3.662,11.691 3.412,11.441 3.412,11.136 L3.412,8.552 C3.412,8.247 3.662,7.997 3.967,7.997 Z M8.215,11.136 L8.215,10.663 L6.923,9.37 L5.394,10.899 C5.32,10.974 5.205,10.974 5.131,10.899 L4.522,10.29 L3.784,11.028 L3.784,11.136 C3.784,11.238 3.865,11.326 3.967,11.326 L8.033,11.326 C8.134,11.326 8.215,11.238 8.215,11.136 Z M5.076,8.694 C4.745,8.694 4.474,8.965 4.474,9.289 C4.474,9.621 4.745,9.891 5.076,9.891 C5.408,9.891 5.672,9.621 5.672,9.289 C5.672,8.965 5.408,8.694 5.076,8.694 Z"/>
</svg>

