<svg xmlns="http://www.w3.org/2000/svg" width="16" height="16" viewBox="0 0 16 16">
  <defs/>
  <path d="M8,0 C12.417,0 16,3.582 16,8 C16,12.417 12.417,16 8,16 C3.582,16 0,12.417 0,8 C0,3.582 3.582,0 8,0 Z M9.665,12.398 L9.802,11.838 C9.731,11.872 9.617,11.91 9.46,11.953 C9.301,11.997 9.161,12.019 9.036,12.019 C8.77,12.019 8.583,11.975 8.476,11.888 C8.367,11.8 8.314,11.636 8.314,11.395 C8.314,11.299 8.33,11.157 8.363,10.971 C8.397,10.785 8.434,10.618 8.476,10.472 L8.989,8.657 C9.039,8.49 9.074,8.308 9.092,8.108 C9.11,7.909 9.12,7.769 9.12,7.69 C9.12,7.308 8.985,6.997 8.718,6.758 C8.449,6.52 8.067,6.399 7.572,6.399 C7.297,6.399 7.006,6.448 6.698,6.547 C6.39,6.644 6.067,6.762 5.73,6.9 L5.593,7.461 C5.692,7.423 5.813,7.384 5.952,7.341 C6.092,7.3 6.229,7.28 6.361,7.28 C6.633,7.28 6.815,7.325 6.912,7.417 C7.007,7.508 7.056,7.671 7.056,7.902 C7.056,8.032 7.041,8.175 7.01,8.331 C6.978,8.485 6.939,8.651 6.894,8.826 L6.378,10.646 C6.333,10.838 6.3,11.009 6.279,11.16 C6.258,11.312 6.248,11.461 6.248,11.607 C6.248,11.981 6.386,12.289 6.662,12.533 C6.938,12.776 7.326,12.898 7.825,12.898 C8.149,12.898 8.434,12.855 8.68,12.769 C8.925,12.684 9.253,12.561 9.665,12.398 Z M9.574,5.031 C9.813,4.809 9.933,4.54 9.933,4.223 C9.933,3.908 9.813,3.638 9.574,3.413 C9.336,3.188 9.047,3.077 8.711,3.077 C8.375,3.077 8.085,3.188 7.844,3.413 C7.605,3.638 7.483,3.908 7.483,4.223 C7.483,4.539 7.604,4.809 7.844,5.031 C8.085,5.253 8.375,5.364 8.711,5.364 Q9.216,5.364 9.574,5.031 Z"/>
</svg>

