<svg xmlns="http://www.w3.org/2000/svg" width="16" height="16" viewBox="0 0 16 16">
  <defs/>
  <path d="M8,16 C5.878,16 3.843,15.157 2.343,13.657 C0.843,12.157 0,10.122 0,8 C0,5.878 0.843,3.843 2.343,2.343 C3.843,0.843 5.878,0 8,0 C10.122,0 12.157,0.843 13.657,2.343 C15.157,3.843 16,5.878 16,8 C16,10.122 15.157,12.157 13.657,13.657 C12.157,15.157 10.122,16 8,16 Z M6.75,10.5 C6.334,10.5 6,10.834 6,11.25 C6,11.666 6.334,12 6.75,12 L9.25,12 C9.666,12 10,11.666 10,11.25 C10,10.834 9.666,10.5 9.25,10.5 L9,10.5 L9,7.75 C9,7.334 8.666,7 8.25,7 L6.75,7 C6.334,7 6,7.334 6,7.75 C6,8.166 6.334,8.5 6.75,8.5 L7.5,8.5 L7.5,10.5 Z M8,4 C7.735,4 7.48,4.105 7.293,4.293 C7.105,4.48 7,4.735 7,5 C7,5.265 7.105,5.52 7.293,5.707 C7.48,5.895 7.735,6 8,6 C8.265,6 8.52,5.895 8.707,5.707 C8.895,5.52 9,5.265 9,5 C9,4.735 8.895,4.48 8.707,4.293 C8.52,4.105 8.265,4 8,4 Z"/>
</svg>

