<svg width="16" height="16" viewBox="0 0 16 16" fill="none" xmlns="http://www.w3.org/2000/svg">
<g clip-path="url(#clip0_8_31948)">
<path fill-rule="evenodd" clip-rule="evenodd" d="M15.5984 14.1746V15.4774C15.5984 15.4966 15.5908 15.515 15.5771 15.5284C15.5637 15.5422 15.5452 15.5498 15.5261 15.5498H0.470823C0.451639 15.5498 0.433183 15.5422 0.419786 15.5284C0.406036 15.515 0.398438 15.4966 0.398438 15.4774C0.398438 15.2943 0.398438 14.3577 0.398438 14.1746C0.398438 14.1554 0.406036 14.1369 0.419786 14.1235C0.433183 14.1098 0.451639 14.1022 0.470823 14.1022H15.5261C15.5452 14.1022 15.5637 14.1098 15.5771 14.1235C15.5908 14.1369 15.5984 14.1554 15.5984 14.1746Z" fill="#DD8005"/>
<path fill-rule="evenodd" clip-rule="evenodd" d="M4.74289 13.3783H1.84766V13.0164C1.84766 12.8167 2.00979 12.6545 2.20956 12.6545H4.38099C4.58076 12.6545 4.74289 12.8167 4.74289 13.0164V13.3783Z" fill="#DD8005"/>
<path fill-rule="evenodd" clip-rule="evenodd" d="M9.44602 13.3783H6.55078V13.0164C6.55078 12.8167 6.71291 12.6545 6.91269 12.6545H9.08411C9.28389 12.6545 9.44602 12.8167 9.44602 13.0164V13.3783Z" fill="#DD8005"/>
<path fill-rule="evenodd" clip-rule="evenodd" d="M14.1491 13.3783H11.2539V13.0164C11.2539 12.8167 11.416 12.6545 11.6158 12.6545H13.7872C13.987 12.6545 14.1491 12.8167 14.1491 13.0164V13.3783Z" fill="#DD8005"/>
<path fill-rule="evenodd" clip-rule="evenodd" d="M2.57031 11.9307H4.01793V8.31165H2.57031V11.9307Z" fill="#DD8005"/>
<path fill-rule="evenodd" clip-rule="evenodd" d="M7.27344 11.9307H8.72106V8.31165H7.27344V11.9307Z" fill="#DD8005"/>
<path fill-rule="evenodd" clip-rule="evenodd" d="M11.9805 11.9307H13.4281V8.31165H11.9805V11.9307Z" fill="#DD8005"/>
<path fill-rule="evenodd" clip-rule="evenodd" d="M4.74289 7.22604C4.74289 7.42581 4.58076 7.58795 4.38099 7.58795H2.20956C2.00979 7.58795 1.84766 7.42581 1.84766 7.22604V6.86414H4.74289V7.22604Z" fill="#DD8005"/>
<path fill-rule="evenodd" clip-rule="evenodd" d="M9.44602 7.22604C9.44602 7.42581 9.28389 7.58795 9.08411 7.58795H6.91269C6.71291 7.58795 6.55078 7.42581 6.55078 7.22604V6.86414H9.44602V7.22604Z" fill="#DD8005"/>
<path fill-rule="evenodd" clip-rule="evenodd" d="M14.1491 7.22604C14.1491 7.42581 13.987 7.58795 13.7872 7.58795H11.6158C11.416 7.58795 11.2539 7.42581 11.2539 7.22604V6.86414H14.1491V7.22604Z" fill="#DD8005"/>
<path fill-rule="evenodd" clip-rule="evenodd" d="M15.5984 4.76034V5.77837C15.5984 5.97814 15.4363 6.14028 15.2365 6.14028H0.760342C0.56057 6.14028 0.398438 5.97814 0.398438 5.77837V4.76034C0.398438 4.62788 0.470823 4.50627 0.586988 4.44258L7.82508 0.494559C7.9333 0.43557 8.06358 0.43557 8.17179 0.494559L15.4099 4.44258C15.5261 4.50627 15.5984 4.62788 15.5984 4.76034Z" fill="#DD8005"/>
</g>
<defs>
<clipPath id="clip0_8_31948">
<rect width="16" height="16" fill="white"/>
</clipPath>
</defs>
</svg>
