<svg xmlns="http://www.w3.org/2000/svg" width="20" height="20" viewBox="0 0 20 20">
  <defs/>
  <path clip-rule="evenodd" d="M19.5,17.717 L19.5,19.346 C19.5,19.37 19.49,19.393 19.473,19.41 C19.457,19.427 19.434,19.437 19.41,19.437 L0.59,19.437 C0.567,19.437 0.543,19.427 0.527,19.41 C0.509,19.393 0.5,19.37 0.5,19.346 L0.5,17.717 C0.5,17.694 0.509,17.67 0.527,17.654 C0.543,17.636 0.567,17.627 0.59,17.627 L19.41,17.627 C19.434,17.627 19.457,17.636 19.473,17.654 C19.49,17.67 19.5,17.694 19.5,17.717 Z"/>
  <path clip-rule="evenodd" d="M5.928,16.722 L2.309,16.722 L2.309,16.27 C2.309,16.02 2.511,15.817 2.761,15.817 L5.475,15.817 C5.725,15.817 5.928,16.02 5.928,16.27 Z"/>
  <path clip-rule="evenodd" d="M11.811,16.722 L8.191,16.722 L8.191,16.27 C8.191,16.02 8.394,15.817 8.644,15.817 L11.358,15.817 C11.608,15.817 11.811,16.02 11.811,16.27 Z"/>
  <path clip-rule="evenodd" d="M17.691,16.722 L14.072,16.722 L14.072,16.27 C14.072,16.02 14.275,15.817 14.525,15.817 L17.239,15.817 C17.489,15.817 17.691,16.02 17.691,16.27 Z"/>
  <path clip-rule="evenodd" d="M3.215,14.913 L3.215,10.39 L5.024,10.39 L5.024,14.913 Z"/>
  <path clip-rule="evenodd" d="M9.096,14.913 L9.096,10.39 L10.905,10.39 L10.905,14.913 Z"/>
  <path clip-rule="evenodd" d="M14.977,14.913 L14.977,10.39 L16.786,10.39 L16.786,14.913 Z"/>
  <path clip-rule="evenodd" d="M5.928,9.032 C5.928,9.282 5.725,9.485 5.475,9.485 L2.761,9.485 C2.511,9.485 2.309,9.282 2.309,9.032 L2.309,8.58 L5.928,8.58 Z"/>
  <path clip-rule="evenodd" d="M11.811,9.032 C11.811,9.282 11.608,9.485 11.358,9.485 L8.644,9.485 C8.394,9.485 8.191,9.282 8.191,9.032 L8.191,8.58 L11.811,8.58 Z"/>
  <path clip-rule="evenodd" d="M17.691,9.032 C17.691,9.282 17.489,9.485 17.239,9.485 L14.525,9.485 C14.275,9.485 14.072,9.282 14.072,9.032 L14.072,8.58 L17.691,8.58 Z"/>
  <path clip-rule="evenodd" d="M19.5,5.95 L19.5,7.223 C19.5,7.472 19.297,7.675 19.048,7.675 L0.952,7.675 C0.703,7.675 0.5,7.472 0.5,7.223 L0.5,5.95 C0.5,5.784 0.59,5.632 0.736,5.553 L9.783,0.618 C9.919,0.544 10.081,0.544 10.217,0.618 L19.264,5.553 C19.41,5.632 19.5,5.784 19.5,5.95 Z"/>
</svg>

