<svg xmlns="http://www.w3.org/2000/svg" width="20" height="20" viewBox="0 0 20 20">
  <defs/>
  <path d="M2.499,8.75 L4.999,8.75 L4.999,16.25 L6.562,16.25 L6.562,8.75 L9.062,8.75 L9.062,16.25 L10.937,16.25 L10.937,8.75 L13.437,8.75 L13.437,16.25 L15,16.25 L15,8.75 L17.5,8.75 L17.5,16.418 C17.523,16.43 17.546,16.445 17.57,16.461 L19.445,17.711 C19.776,17.932 19.976,18.293 20,18.676 L20,18.829 C19.994,18.924 19.977,19.019 19.949,19.113 C19.788,19.641 19.3,20 18.75,20 L1.249,20 C0.699,20 0.214,19.641 0.054,19.113 C0.018,18.993 0,18.871 0,18.75 L0,18.749 C0,18.339 0.202,17.946 0.558,17.711 L2.433,16.461 C2.456,16.445 2.48,16.434 2.503,16.418 Z M9.378,0.164 C9.57,0.055 9.783,0 9.997,0 L9.999,0 C10.213,0 10.427,0.055 10.62,0.164 L17.331,3.996 L17.5,4.062 L17.5,4.098 L19.371,5.168 C19.747,5.383 19.977,5.772 20,6.188 L20,6.323 C19.995,6.407 19.982,6.491 19.96,6.574 C19.816,7.121 19.32,7.504 18.753,7.504 L1.249,7.5 C0.683,7.5 0.187,7.117 0.042,6.57 C-0.102,6.023 0.14,5.445 0.632,5.164 L2.499,4.098 L2.499,4.062 L2.671,4 Z"/>
</svg>

