<svg xmlns="http://www.w3.org/2000/svg" width="36" height="36" viewBox="0 0 36 36">
  <defs/>
  <path d="M8,0 L28,0 A8 8 0 0 1 36,8 L36,28 A8 8 0 0 1 28,36 L8,36 A8 8 0 0 1 0,28 L0,8 A8 8 0 0 1 8,0 Z"/>
  <path d="M23.989,14.77 C25.719,15.221 27,16.779 27,18.649 L27,27 L22.976,27 L22.976,19.125 C21.692,16.013 18.65,20.25 18.65,20.25 L18.65,27 L14.625,27 L14.625,14.625 L18.65,14.625 L18.65,16.991 C19.141,16.332 20.629,14.625 22.976,14.625 C23.25,14.625 23.484,14.656 23.698,14.698 C23.753,14.707 23.807,14.717 23.861,14.73 C23.891,14.738 23.919,14.747 23.947,14.757 C23.961,14.761 23.975,14.766 23.989,14.77 Z M9,14.625 L13.025,14.625 L13.025,27 L9,27 Z M10.969,12.938 C9.881,12.938 9,12.056 9,10.969 C9,9.881 9.881,9 10.969,9 C12.056,9 12.938,9.881 12.938,10.969 C12.938,12.056 12.056,12.938 10.969,12.938 Z"/>
</svg>

