<svg xmlns="http://www.w3.org/2000/svg" width="24" height="24" viewBox="0 0 24 24">
  <defs/>
  <path d="M21.909,12.448 C24.071,10.285 24.071,6.783 21.909,4.621 C19.995,2.707 16.979,2.459 14.778,4.032 L14.717,4.074 C14.166,4.468 14.04,5.233 14.434,5.781 C14.828,6.328 15.594,6.458 16.141,6.064 L16.202,6.022 C17.431,5.145 19.111,5.283 20.175,6.351 C21.381,7.557 21.381,9.508 20.175,10.714 L15.881,15.016 C14.675,16.221 12.723,16.221 11.518,15.016 C10.45,13.948 10.312,12.268 11.188,11.043 L11.231,10.982 C11.625,10.431 11.495,9.665 10.947,9.275 C10.4,8.885 9.631,9.011 9.24,9.558 L9.198,9.619 C7.621,11.816 7.87,14.832 9.784,16.746 C11.946,18.908 15.448,18.908 17.611,16.746 L21.909,12.448 Z M2.022,11.552 C-0.14,13.715 -0.14,17.217 2.022,19.379 C3.936,21.293 6.952,21.541 9.152,19.968 L9.214,19.926 C9.765,19.532 9.891,18.767 9.497,18.219 C9.103,17.672 8.337,17.542 7.79,17.936 L7.729,17.978 C6.5,18.855 4.82,18.717 3.756,17.649 C2.55,16.44 2.55,14.488 3.756,13.282 L8.05,8.984 C9.256,7.779 11.208,7.779 12.413,8.984 C13.481,10.052 13.619,11.732 12.742,12.961 L12.7,13.022 C12.306,13.573 12.436,14.338 12.983,14.729 C13.531,15.119 14.3,14.993 14.69,14.446 L14.732,14.384 C16.309,12.184 16.061,9.168 14.147,7.254 C11.985,5.092 8.483,5.092 6.32,7.254 L2.022,11.552 Z"/>
</svg>

