<svg xmlns="http://www.w3.org/2000/svg" width="24" height="24" viewBox="0 0 24 24">
  <defs/>
  <path d="M14.644,9.355 C14.968,9.68 15.137,10.128 15.108,10.586 C15.08,10.97 14.915,11.33 14.644,11.602 C14.012,12.196 13.028,12.196 12.396,11.602 C11.459,10.667 9.942,10.667 9.005,11.602 L3.898,16.705 C2.96,17.643 2.96,19.163 3.898,20.101 C4.835,21.038 6.355,21.038 7.293,20.101 L10.313,17.077 C10.427,16.962 10.599,16.928 10.748,16.989 C11.561,17.32 12.431,17.488 13.308,17.485 L13.468,17.485 C13.689,17.484 13.869,17.662 13.87,17.883 C13.871,17.99 13.828,18.093 13.752,18.169 L9.553,22.368 C8.504,23.418 7.081,24.005 5.597,24 C2.505,23.998 0,21.49 0.002,18.397 C0.003,16.916 0.591,15.495 1.638,14.446 L6.725,9.355 C7.774,8.302 9.199,7.712 10.684,7.715 C11.755,7.715 12.803,8.022 13.704,8.599 C14.044,8.815 14.359,9.069 14.644,9.355 Z"/>
  <path d="M22.358,1.64 C24.544,3.827 24.544,7.372 22.358,9.559 L17.267,14.65 C16.551,15.366 15.653,15.875 14.671,16.121 L14.627,16.121 L14.395,16.169 L14.267,16.193 L13.991,16.233 L13.855,16.233 C13.751,16.233 13.659,16.253 13.571,16.257 L13.331,16.285 L13.027,16.285 C12.828,16.277 12.629,16.259 12.431,16.229 C12.267,16.201 12.108,16.169 11.948,16.129 L11.712,16.065 C11.628,16.041 11.54,16.013 11.456,15.981 C11.372,15.949 11.284,15.921 11.2,15.885 C11.116,15.849 11.032,15.817 10.948,15.777 C10.352,15.502 9.811,15.123 9.348,14.658 C9.024,14.333 8.855,13.884 8.884,13.426 C8.91,13.04 9.075,12.676 9.348,12.402 C9.979,11.808 10.964,11.808 11.596,12.402 C12.533,13.338 14.05,13.338 14.987,12.402 L16.299,11.098 L16.331,11.062 L20.082,7.315 C21.02,6.377 21.02,4.857 20.082,3.92 C19.145,2.982 17.624,2.982 16.687,3.92 L13.675,6.927 C13.561,7.042 13.389,7.077 13.239,7.015 C12.428,6.683 11.56,6.514 10.684,6.515 L10.536,6.515 C10.373,6.518 10.224,6.422 10.16,6.271 C10.095,6.121 10.129,5.947 10.244,5.831 L14.439,1.64 C16.626,-0.547 20.171,-0.547 22.358,1.64 Z"/>
</svg>

