<svg xmlns="http://www.w3.org/2000/svg" width="16" height="16" viewBox="0 0 16 16">
  <defs/>
  <path d="M14.528,2.009 L5.49,2.009 C4.678,2.009 4.018,2.669 4.018,3.482 C4.018,4.294 4.678,4.955 5.49,4.955 L14.528,4.955 C15.34,4.955 16.001,4.294 16.001,3.482 C16.001,2.669 15.34,2.009 14.528,2.009 Z"/>
  <path d="M1.473,2.009 C0.661,2.009 0,2.67 0,3.482 C0,4.294 0.661,4.955 1.473,4.955 C2.285,4.955 2.946,4.294 2.946,3.482 C2.946,2.67 2.285,2.009 1.473,2.009 Z"/>
  <path d="M1.473,6.527 C0.661,6.527 0,7.188 0,8 C0,8.812 0.661,9.473 1.473,9.473 C2.285,9.473 2.946,8.812 2.946,8 C2.946,7.188 2.285,6.527 1.473,6.527 Z"/>
  <path d="M1.473,11.046 C0.661,11.046 0,11.707 0,12.519 C0,13.331 0.661,13.992 1.473,13.992 C2.285,13.992 2.946,13.331 2.946,12.519 C2.946,11.707 2.285,11.046 1.473,11.046 Z"/>
  <path d="M14.528,6.527 L5.49,6.527 C4.678,6.527 4.018,7.188 4.018,8.001 C4.018,8.813 4.678,9.473 5.49,9.473 L14.528,9.473 C15.34,9.473 16.001,8.813 16.001,8.001 C16.001,7.188 15.34,6.527 14.528,6.527 Z"/>
  <path d="M14.528,11.046 L5.49,11.046 C4.678,11.046 4.018,11.706 4.018,12.519 C4.018,13.331 4.678,13.992 5.49,13.992 L14.528,13.992 C15.34,13.992 16.001,13.331 16.001,12.519 C16.001,11.706 15.34,11.046 14.528,11.046 Z"/>
</svg>

