<svg xmlns="http://www.w3.org/2000/svg" width="28" height="32" viewBox="0 0 28 32">
  <defs/>
  <path d="M14,0.5 C14.892,0.5 15.789,0.698 16.468,1.094 L25.541,6.386 C26.828,7.137 27.894,8.923 28,10.457 L28,21.539 C27.894,23.073 26.828,24.859 25.541,25.61 L16.472,30.906 C15.794,31.302 14.901,31.5 14.004,31.5 C13.108,31.5 12.215,31.302 11.537,30.906 L2.467,25.61 C1.111,24.822 0,22.876 0,21.292 L0,10.704 C0,9.124 1.111,7.178 2.467,6.386 L11.533,1.094 C12.211,0.698 13.108,0.5 14,0.5 Z M14,1.792 C13.309,1.792 12.657,1.942 12.206,2.205 L3.137,7.497 C2.183,8.052 1.312,9.585 1.312,10.704 L1.312,21.292 C1.312,22.415 2.183,23.944 3.137,24.499 L12.211,29.799 C12.657,30.062 13.313,30.213 14.004,30.213 C14.696,30.213 15.347,30.062 15.798,29.799 L24.868,24.503 C25.821,23.948 26.692,22.42 26.692,21.296 L26.692,10.708 C26.692,9.585 25.821,8.056 24.868,7.501 L15.798,2.205 C15.347,1.942 14.691,1.792 14,1.792 Z"/>
  <path d="M17.911,9.155 L17.906,9.155 C18.059,9.094 18.226,9.094 18.375,9.155 L24.316,11.54 C24.583,11.643 24.578,12.009 24.316,12.113 L21.039,13.383 L21.039,19.755 C21.039,20.009 20.886,20.233 20.649,20.327 L14.376,22.842 C14.223,22.902 14.056,22.902 13.903,22.842 L7.63,20.327 C7.393,20.233 7.24,20.005 7.24,19.755 L7.24,13.381 L7.236,13.383 L3.959,12.113 C3.701,12.009 3.696,11.643 3.959,11.54 L9.905,9.155 L9.896,9.155 C10.049,9.099 10.215,9.099 10.364,9.155 L14.135,10.614 L7.243,13.38 L14.139,16.142 L21.034,13.38 L14.139,10.614 Z"/>
</svg>

