<svg xmlns="http://www.w3.org/2000/svg" width="28" height="32" viewBox="0 0 28 32">
  <defs/>
  <path d="M14,0 C14.892,0 15.789,0.204 16.468,0.613 L25.541,6.076 C26.828,6.851 27.894,8.695 28,10.278 L28,21.717 C27.894,23.301 26.828,25.144 25.541,25.92 L16.472,31.387 C15.794,31.796 14.901,32 14.004,32 C13.108,32 12.215,31.796 11.537,31.387 L2.467,25.92 C1.111,25.107 0,23.098 0,21.462 L0,10.533 C0,8.902 1.111,6.893 2.467,6.076 L11.533,0.613 C12.211,0.204 13.108,0 14,0 Z M14,1.333 C13.309,1.333 12.657,1.489 12.206,1.76 L3.137,7.222 C2.183,7.796 1.312,9.378 1.312,10.533 L1.312,21.462 C1.312,22.622 2.183,24.2 3.137,24.773 L12.211,30.244 C12.657,30.516 13.313,30.671 14.004,30.671 C14.696,30.671 15.347,30.516 15.798,30.244 L24.868,24.778 C25.821,24.204 26.692,22.622 26.692,21.467 L26.692,10.538 C26.692,9.378 25.821,7.8 24.868,7.227 L15.798,1.76 C15.347,1.489 14.691,1.333 14,1.333 Z"/>
  <path d="M18.192,8.933 L18.188,8.933 C18.343,8.871 18.512,8.871 18.663,8.933 L24.699,11.396 C24.97,11.502 24.965,11.88 24.699,11.987 L21.37,13.298 L21.37,19.876 C21.37,20.138 21.214,20.369 20.974,20.467 L14.601,23.062 C14.445,23.125 14.276,23.125 14.121,23.062 L7.748,20.467 C7.508,20.369 7.352,20.133 7.352,19.876 L7.352,13.296 L7.348,13.298 L4.019,11.987 C3.756,11.88 3.752,11.502 4.019,11.396 L10.059,8.933 L10.05,8.933 C10.205,8.876 10.374,8.876 10.525,8.933 L14.356,10.44 L7.355,13.295 L14.361,16.147 L21.364,13.296 L14.361,10.44 Z"/>
</svg>

