<svg xmlns="http://www.w3.org/2000/svg" width="20" height="20" viewBox="0 0 20 20">
  <defs/>
  <path d="M3.75,5.208 C3.75,6.183 4.275,7.041 5.05,7.525 L3.8,8.95 C3.683,9.091 3.517,9.166 3.333,9.166 L3.308,9.166 C3.125,9.158 2.95,9.066 2.833,8.916 L1.767,7.5 L1.458,7.5 C0.658,7.5 0,6.841 0,6.041 L0,2.291 C0,1.491 0.658,0.833 1.458,0.833 L3.833,0.833 C3.775,1.033 3.75,1.241 3.75,1.458 Z"/>
  <path d="M18.541,0.833 C19.341,0.833 19.999,1.491 19.999,2.291 L19.999,6.041 C19.999,6.841 19.341,7.5 18.541,7.5 L18.224,7.5 L17.166,8.916 C17.049,9.066 16.874,9.158 16.691,9.166 L16.666,9.166 C16.483,9.166 16.316,9.091 16.199,8.95 L14.949,7.525 C15.724,7.041 16.249,6.183 16.249,5.208 L16.249,1.458 C16.249,1.241 16.224,1.033 16.166,0.833 Z"/>
  <path d="M10,8.333 L9.977,8.333 C9.788,8.326 9.613,8.234 9.5,8.083 L8.438,6.667 L6.458,6.667 C5.654,6.667 5,6.012 5,5.208 L5,1.458 C5,0.654 5.654,0 6.458,0 L13.542,0 C14.346,0 15,0.654 15,1.458 L15,5.208 C15,6.012 14.346,6.667 13.542,6.667 L11.742,6.667 L10.47,8.12 C10.352,8.256 10.18,8.333 10,8.333 Z"/>
  <path d="M3.333,14.166 C2.412,14.166 1.666,13.42 1.666,12.5 C1.666,11.579 2.412,10.833 3.333,10.833 C4.253,10.833 4.999,11.579 4.999,12.5 C4.999,13.42 4.253,14.166 3.333,14.166 Z"/>
  <path d="M5.558,15.333 C4.717,15.967 4.167,16.983 4.167,18.125 L4.167,18.333 L0.625,18.333 C0.283,18.333 0,18.05 0,17.708 L0,17.292 C0,16.025 1.025,15 2.292,15 L4.375,15 C4.808,15 5.217,15.125 5.558,15.333 Z"/>
  <path d="M16.667,14.166 C15.746,14.166 15,13.42 15,12.5 C15,11.579 15.746,10.833 16.667,10.833 C17.587,10.833 18.333,11.579 18.333,12.5 C18.333,13.42 17.587,14.166 16.667,14.166 Z"/>
  <path d="M20,17.292 L20,17.708 C20,18.05 19.716,18.333 19.375,18.333 L15.833,18.333 L15.833,18.125 C15.833,16.983 15.283,15.967 14.441,15.333 C14.783,15.125 15.191,15 15.625,15 L17.708,15 C18.975,15 20,16.025 20,17.292 Z"/>
  <path d="M10,14.583 C8.619,14.583 7.5,13.464 7.5,12.083 C7.5,10.702 8.619,9.583 10,9.583 C11.381,9.583 12.5,10.702 12.5,12.083 C12.5,13.464 11.381,14.583 10,14.583 Z"/>
  <path d="M12.291,15.833 C13.555,15.833 14.583,16.861 14.583,18.125 L14.583,19.375 C14.583,19.72 14.303,20 13.958,20 L6.041,20 C5.696,20 5.416,19.72 5.416,19.375 L5.416,18.125 C5.416,16.861 6.444,15.833 7.708,15.833 Z"/>
</svg>

