<svg xmlns="http://www.w3.org/2000/svg" width="20" height="20" viewBox="0 0 20 20">
  <defs/>
  <path d="M4.5,2 C5.163,2 5.799,2.263 6.268,2.732 C6.737,3.201 7,3.837 7,4.5 C7,5.163 6.737,5.799 6.268,6.268 C5.799,6.737 5.163,7 4.5,7 C3.837,7 3.201,6.737 2.732,6.268 C2.263,5.799 2,5.163 2,4.5 C2,3.837 2.263,3.201 2.732,2.732 C3.201,2.263 3.837,2 4.5,2 Z M16,2 C16.663,2 17.299,2.263 17.768,2.732 C18.237,3.201 18.5,3.837 18.5,4.5 C18.5,5.163 18.237,5.799 17.768,6.268 C17.299,6.737 16.663,7 16,7 C15.337,7 14.701,6.737 14.232,6.268 C13.763,5.799 13.5,5.163 13.5,4.5 C13.5,3.837 13.763,3.201 14.232,2.732 C14.701,2.263 15.337,2 16,2 Z M0,11.334 C0,9.494 1.494,8 3.334,8 L4.669,8 C5.166,8 5.638,8.109 6.062,8.303 C6.022,8.528 6.003,8.762 6.003,9 C6.003,10.194 6.528,11.266 7.356,12 C7.35,12 7.344,12 7.334,12 L0.666,12 C0.3,12 0,11.7 0,11.334 Z M12.666,12 C12.659,12 12.653,12 12.644,12 C13.475,11.266 13.997,10.194 13.997,9 C13.997,8.762 13.975,8.531 13.938,8.303 C14.363,8.106 14.834,8 15.331,8 L16.666,8 C18.506,8 20,9.494 20,11.334 C20,11.703 19.7,12 19.334,12 L12.669,12 L12.666,12 Z M7,9 C7,8.204 7.316,7.441 7.879,6.879 C8.441,6.316 9.204,6 10,6 C10.796,6 11.559,6.316 12.121,6.879 C12.684,7.441 13,8.204 13,9 C13,9.796 12.684,10.559 12.121,11.121 C11.559,11.684 10.796,12 10,12 C9.204,12 8.441,11.684 7.879,11.121 C7.316,10.559 7,9.796 7,9 Z M4,17.166 C4,14.866 5.866,13 8.166,13 L11.831,13 C14.134,13 16,14.866 16,17.166 C16,17.625 15.628,18 15.166,18 L4.831,18 C4.372,18 3.997,17.628 3.997,17.166 L4,17.166 Z"/>
</svg>

