<svg xmlns="http://www.w3.org/2000/svg" width="34" height="34" viewBox="0 0 34 34">
  <defs/>
  <path d="M2,6.375 C2,5.2 2.958,4.25 4.143,4.25 L29.857,4.25 C31.042,4.25 32,5.2 32,6.375 C32,7.55 31.042,8.5 29.857,8.5 L4.143,8.5 C2.958,8.5 2,7.55 2,6.375 Z M2,17 C2,15.825 2.958,14.875 4.143,14.875 L29.857,14.875 C31.042,14.875 32,15.825 32,17 C32,18.175 31.042,19.125 29.857,19.125 L4.143,19.125 C2.958,19.125 2,18.175 2,17 Z M32,27.625 C32,28.8 31.042,29.75 29.857,29.75 L4.143,29.75 C2.958,29.75 2,28.8 2,27.625 C2,26.45 2.958,25.5 4.143,25.5 L29.857,25.5 C31.042,25.5 32,26.45 32,27.625 Z"/>
</svg>

