<svg xmlns="http://www.w3.org/2000/svg" width="34" height="34" viewBox="0 0 34 34">
  <defs/>
  <path d="M32.583,18.385 L1.417,18.385 C0.635,18.385 0,17.764 0,17 C0,16.236 0.635,15.615 1.417,15.615 L32.583,15.615 C33.365,15.615 34,16.236 34,17 C34,17.764 33.365,18.385 32.583,18.385 Z M32.583,7.769 L1.417,7.769 C0.635,7.769 0,7.149 0,6.385 C0,5.62 0.635,5 1.417,5 L32.583,5 C33.365,5 34,5.62 34,6.385 C34,7.149 33.365,7.769 32.583,7.769 Z M1.417,29 C0.635,29 0,28.38 0,27.615 C0,26.851 0.635,26.231 1.417,26.231 L32.583,26.231 C33.365,26.231 34,26.851 34,27.615 C34,28.38 33.365,29 32.583,29 Z"/>
</svg>

