<svg xmlns="http://www.w3.org/2000/svg" width="20" height="20" viewBox="0 0 20 20">
  <defs/>
  <path d="M12.302,9.656 L18.969,5.814 C19.113,6.236 19.187,6.678 19.19,7.123 L19.19,12.923 C19.189,13.654 18.996,14.372 18.63,15.005 C18.264,15.639 17.739,16.165 17.107,16.532 L12.084,19.431 C11.695,19.653 11.273,19.81 10.834,19.895 L10.834,10.186 C11.35,10.095 11.847,9.915 12.302,9.656 Z"/>
  <path d="M8.535,8.214 L1.895,4.333 C2.183,4.009 2.52,3.733 2.895,3.514 L7.917,0.614 C8.551,0.249 9.269,0.058 10,0.058 C10.731,0.058 11.45,0.249 12.084,0.614 L17.104,3.516 C17.493,3.744 17.841,4.033 18.136,4.372 L11.469,8.214 C11.023,8.471 10.517,8.606 10.002,8.606 C9.488,8.606 8.982,8.471 8.535,8.214 Z"/>
  <path d="M9.166,10.186 L9.166,19.895 C8.727,19.81 8.305,19.653 7.916,19.431 L2.894,16.532 C2.261,16.165 1.736,15.639 1.37,15.006 C1.005,14.372 0.812,13.654 0.811,12.923 L0.811,7.123 C0.813,6.662 0.893,6.204 1.047,5.77 L7.697,9.656 C8.153,9.916 8.65,10.095 9.166,10.186 Z"/>
</svg>

