<svg xmlns="http://www.w3.org/2000/svg" width="20" height="20" viewBox="0 0 20 20">
  <defs/>
  <path d="M9.16,0.223 C9.703,0.027 10.297,0.027 10.844,0.223 L18.344,2.902 C19.336,3.258 20,4.199 20,5.258 L20,14.746 C20,15.801 19.336,16.746 18.34,17.102 L10.84,19.781 C10.297,19.977 9.703,19.977 9.156,19.781 L1.656,17.102 C0.664,16.742 0,15.801 0,14.742 L0,5.258 C0,4.203 0.664,3.258 1.66,2.902 Z M11.25,16.977 L17.5,14.746 L17.5,7.402 L11.25,9.633 Z M10,2.578 L3.215,5 L10,7.422 L16.785,5 Z"/>
</svg>

