<svg xmlns="http://www.w3.org/2000/svg" width="16" height="16" viewBox="0 0 16 16">
  <defs/>
  <path d="M14.227,7.591 C14.015,7.379 13.758,7.273 13.454,7.273 L13.091,7.273 L13.091,5.091 C13.091,3.697 12.591,2.5 11.591,1.5 C10.591,0.5 9.395,0 8,0 C6.606,0 5.409,0.5 4.409,1.5 C3.409,2.5 2.91,3.697 2.91,5.091 L2.91,7.273 L2.546,7.273 C2.243,7.273 1.985,7.379 1.773,7.591 C1.561,7.803 1.455,8.061 1.455,8.364 L1.455,14.909 C1.455,15.212 1.561,15.47 1.773,15.682 C1.985,15.894 2.243,16 2.546,16 L13.455,16 C13.758,16 14.015,15.894 14.228,15.682 C14.44,15.47 14.546,15.212 14.546,14.909 L14.546,8.364 C14.546,8.061 14.44,7.803 14.227,7.591 Z M10.909,7.273 L5.091,7.273 L5.091,5.091 C5.091,4.288 5.375,3.602 5.944,3.034 C6.512,2.466 7.197,2.182 8.001,2.182 C8.804,2.182 9.489,2.466 10.057,3.034 C10.625,3.602 10.909,4.288 10.909,5.091 L10.909,7.273 Z"/>
</svg>

