<svg xmlns="http://www.w3.org/2000/svg" width="16" height="16" viewBox="0 0 16 16">
  <defs/>
  <path d="M2.292,8.292 C2.486,8.097 2.722,8 3,8 L10.667,8 L10.667,4.667 C10.667,3.93 10.406,3.302 9.885,2.781 C9.365,2.26 8.736,2 8,2 C7.264,2 6.635,2.26 6.115,2.781 C5.594,3.302 5.333,3.931 5.333,4.667 C5.333,4.847 5.267,5.003 5.135,5.135 C5.003,5.267 4.847,5.333 4.667,5.333 L4,5.333 C3.819,5.333 3.663,5.267 3.531,5.135 C3.399,5.003 3.333,4.847 3.333,4.667 C3.333,3.382 3.79,2.283 4.703,1.37 C5.616,0.457 6.715,0 8,0 C9.285,0 10.384,0.457 11.297,1.37 C12.21,2.283 12.667,3.382 12.667,4.667 L12.667,8 L13,8 C13.278,8 13.514,8.097 13.708,8.292 C13.903,8.486 14,8.722 14,9 L14,15 C14,15.278 13.903,15.514 13.708,15.708 C13.514,15.903 13.278,16 13,16 L3,16 C2.722,16 2.486,15.903 2.292,15.708 C2.097,15.514 2,15.278 2,15 L2,9 C2,8.722 2.097,8.486 2.292,8.292 Z"/>
</svg>

