<svg xmlns="http://www.w3.org/2000/svg" width="28" height="32" viewBox="0 0 28 32">
  <defs/>
  <path d="M14,0 C14.892,0 15.789,0.204 16.468,0.613 L25.541,6.076 C26.828,6.851 27.894,8.695 28,10.278 L28,21.717 C27.894,23.301 26.828,25.144 25.541,25.92 L16.472,31.387 C15.794,31.796 14.901,32 14.004,32 C13.108,32 12.215,31.796 11.537,31.387 L2.467,25.92 C1.111,25.107 0,23.098 0,21.462 L0,10.533 C0,8.902 1.111,6.893 2.467,6.076 L11.533,0.613 C12.211,0.204 13.108,0 14,0 Z M14,1.333 C13.309,1.333 12.657,1.489 12.206,1.76 L3.137,7.222 C2.183,7.796 1.312,9.378 1.312,10.533 L1.312,21.462 C1.312,22.622 2.183,24.2 3.137,24.773 L12.211,30.244 C12.657,30.516 13.313,30.671 14.004,30.671 C14.696,30.671 15.347,30.516 15.798,30.244 L24.868,24.778 C25.821,24.204 26.692,22.622 26.692,21.467 L26.692,10.538 C26.692,9.378 25.821,7.8 24.868,7.227 L15.798,1.76 C15.347,1.489 14.691,1.333 14,1.333 Z"/>
  <path d="M15.188,12 C15.188,12.551 15.632,13 16.214,13 L20.188,13 L20.188,23.111 C20.188,23.6 19.788,24 19.299,24 L9.076,24 C8.587,24 8.188,23.6 8.188,23.111 L8.188,8.889 C8.188,8.4 8.587,8 9.076,8 L15.188,8 Z M16.188,8 L20.188,12 L16.188,12 Z M17.188,16.498 C17.188,16.222 16.965,15.996 16.69,15.996 L11.69,15.996 C11.414,15.996 11.188,16.222 11.188,16.498 C11.188,16.773 11.414,17 11.69,17 L16.69,17 C16.961,17 17.188,16.773 17.188,16.498 Z M16.69,19 C16.961,19 17.188,18.773 17.188,18.498 C17.188,18.222 16.965,18 16.69,18 L11.69,18 C11.414,18 11.188,18.222 11.188,18.498 C11.188,18.773 11.414,19 11.69,19 Z M16.69,21 C16.961,21 17.188,20.782 17.188,20.502 C17.188,20.222 16.965,20 16.69,20 L11.69,20 C11.414,20 11.188,20.231 11.188,20.502 C11.188,20.773 11.414,21 11.69,21 Z"/>
</svg>

