<svg xmlns="http://www.w3.org/2000/svg" width="28" height="32" viewBox="0 0 28 32">
  <defs/>
  <path d="M14,0.5 C14.892,0.5 15.789,0.698 16.468,1.094 L25.541,6.386 C26.828,7.137 27.894,8.923 28,10.457 L28,21.539 C27.894,23.073 26.828,24.859 25.541,25.61 L16.472,30.906 C15.794,31.302 14.901,31.5 14.004,31.5 C13.108,31.5 12.215,31.302 11.537,30.906 L2.467,25.61 C1.111,24.822 0,22.876 0,21.292 L0,10.704 C0,9.124 1.111,7.178 2.467,6.386 L11.533,1.094 C12.211,0.698 13.108,0.5 14,0.5 Z M14,1.792 C13.309,1.792 12.657,1.942 12.206,2.205 L3.137,7.497 C2.183,8.052 1.312,9.585 1.312,10.704 L1.312,21.292 C1.312,22.415 2.183,23.944 3.137,24.499 L12.211,29.799 C12.657,30.062 13.313,30.213 14.004,30.213 C14.696,30.213 15.347,30.062 15.798,29.799 L24.868,24.503 C25.821,23.948 26.692,22.42 26.692,21.296 L26.692,10.708 C26.692,9.585 25.821,8.056 24.868,7.501 L15.798,2.205 C15.347,1.942 14.691,1.792 14,1.792 Z"/>
  <path d="M14.953,12.125 C14.953,12.659 15.391,13.094 15.964,13.094 L19.875,13.094 L19.875,22.889 C19.875,23.362 19.481,23.75 19,23.75 L8.938,23.75 C8.456,23.75 8.062,23.362 8.062,22.889 L8.062,9.111 C8.062,8.637 8.456,8.25 8.938,8.25 L14.953,8.25 Z M15.938,8.25 L19.875,12.125 L15.938,12.125 Z M16.922,16.482 C16.922,16.215 16.703,15.996 16.432,15.996 L11.51,15.996 C11.239,15.996 11.016,16.215 11.016,16.482 C11.016,16.749 11.239,16.969 11.51,16.969 L16.432,16.969 C16.699,16.969 16.922,16.749 16.922,16.482 Z M16.432,20.844 C16.699,20.844 16.922,20.633 16.922,20.361 C16.922,20.09 16.703,19.875 16.432,19.875 L11.51,19.875 C11.239,19.875 11.016,20.099 11.016,20.361 C11.016,20.624 11.239,20.844 11.51,20.844 Z M16.432,18.906 C16.699,18.906 16.922,18.687 16.922,18.42 C16.922,18.153 16.703,17.938 16.432,17.938 L11.51,17.938 C11.239,17.938 11.016,18.153 11.016,18.42 C11.016,18.687 11.239,18.906 11.51,18.906 Z"/>
</svg>

