<svg width="28" height="32" viewBox="0 0 28 32" fill="none" xmlns="http://www.w3.org/2000/svg">
<g clip-path="url(#clip0_904_28309)">
<g clip-path="url(#clip1_904_28309)">
<path d="M25.5325 6.38569L16.4675 1.09417C15.7894 0.698056 14.8969 0.5 14 0.5C13.1031 0.5 12.2106 0.698056 11.5325 1.09417L2.4675 6.38569C1.11125 7.17792 0 9.12403 0 10.7042V21.2915C0 22.876 1.11125 24.8178 2.4675 25.61L11.5369 30.9058C12.215 31.3019 13.1075 31.5 14.0044 31.5C14.9012 31.5 15.7938 31.3019 16.4719 30.9058L25.5413 25.61C26.8975 24.8178 28.0087 22.876 28.0087 21.2915V10.7042C28.0087 9.11972 26.8975 7.17792 25.5413 6.38569H25.5325Z" fill="#8C68AD"/>
<path d="M15.9375 8.25V12.125H19.875L15.9375 8.25ZM14.9531 12.125V8.25H8.9375C8.45625 8.25 8.0625 8.6375 8.0625 9.11111V22.8889C8.0625 23.3625 8.45625 23.75 8.9375 23.75H19C19.4812 23.75 19.875 23.3625 19.875 22.8889V13.0938H15.9638C15.3906 13.0938 14.9531 12.6589 14.9531 12.125ZM16.4319 20.8438H11.51C11.2387 20.8438 11.0156 20.6242 11.0156 20.3615C11.0156 20.0989 11.2387 19.875 11.51 19.875H16.4319C16.7031 19.875 16.9219 20.0903 16.9219 20.3615C16.9219 20.6328 16.6988 20.8438 16.4319 20.8438ZM16.4319 18.9062H11.51C11.2387 18.9062 11.0156 18.6867 11.0156 18.4197C11.0156 18.1528 11.2387 17.9375 11.51 17.9375H16.4319C16.7031 17.9375 16.9219 18.1528 16.9219 18.4197C16.9219 18.6867 16.6988 18.9062 16.4319 18.9062ZM16.9219 16.4822C16.9219 16.7492 16.6988 16.9688 16.4319 16.9688H11.51C11.2387 16.9688 11.0156 16.7492 11.0156 16.4822C11.0156 16.2153 11.2387 15.9957 11.51 15.9957H16.4319C16.7031 15.9957 16.9219 16.2153 16.9219 16.4822Z" fill="white"/>
</g>
</g>
<defs>
<clipPath id="clip0_904_28309">
<rect width="28" height="32" fill="white"/>
</clipPath>
<clipPath id="clip1_904_28309">
<rect width="28" height="31" fill="white" transform="translate(0 0.5)"/>
</clipPath>
</defs>
</svg>
