<svg xmlns="http://www.w3.org/2000/svg" width="16" height="16" viewBox="0 0 16 16">
  <defs/>
  <path d="M2.099,0 L7.448,0 L11.982,4.726 L11.982,13.917 C11.982,15.068 11.05,16 9.903,16 L2.099,16 C0.947,16 0.016,15.068 0.016,13.917 L0.016,2.083 C0.016,0.932 0.947,0 2.099,0 Z"/>
  <path opacity="0.302" d="M7.443,0 L11.981,4.69 L7.443,4.69 L7.443,0 Z"/>
  <path d="M2.33,11.938 L2.33,9.016 L3.573,9.016 C3.881,9.016 4.125,9.1 4.309,9.271 C4.493,9.439 4.585,9.667 4.585,9.951 C4.585,10.235 4.493,10.463 4.309,10.631 C4.125,10.803 3.881,10.887 3.573,10.887 L3.078,10.887 L3.078,11.938 L2.33,11.938 Z M3.078,10.251 L3.49,10.251 C3.601,10.251 3.689,10.227 3.749,10.171 C3.809,10.119 3.841,10.047 3.841,9.951 C3.841,9.855 3.809,9.783 3.749,9.731 C3.689,9.675 3.601,9.651 3.49,9.651 L3.078,9.651 L3.078,10.251 Z M4.893,11.938 L4.893,9.016 L5.928,9.016 C6.132,9.016 6.324,9.044 6.504,9.104 C6.684,9.164 6.848,9.248 6.992,9.363 C7.136,9.475 7.252,9.627 7.336,9.819 C7.416,10.011 7.46,10.231 7.46,10.479 C7.46,10.723 7.416,10.943 7.336,11.135 C7.252,11.326 7.136,11.478 6.992,11.59 C6.848,11.706 6.684,11.79 6.504,11.85 C6.324,11.91 6.132,11.938 5.928,11.938 L4.893,11.938 Z M5.624,11.303 L5.84,11.303 C5.956,11.303 6.064,11.29 6.164,11.262 C6.26,11.235 6.352,11.191 6.44,11.131 C6.524,11.071 6.592,10.987 6.64,10.875 C6.688,10.763 6.712,10.631 6.712,10.479 C6.712,10.323 6.688,10.191 6.64,10.079 C6.592,9.967 6.524,9.883 6.44,9.823 C6.352,9.763 6.26,9.719 6.164,9.691 C6.064,9.663 5.956,9.651 5.84,9.651 L5.624,9.651 L5.624,11.303 Z M7.835,11.938 L7.835,9.016 L9.914,9.016 L9.914,9.651 L8.583,9.651 L8.583,10.119 L9.646,10.119 L9.646,10.751 L8.583,10.751 L8.583,11.938 L7.835,11.938 Z"/>
</svg>

