<svg xmlns="http://www.w3.org/2000/svg" width="16" height="16" viewBox="0 0 16 16">
  <defs/>
  <path d="M2,1 C2,0.447 2.447,0 3,0 L4,0 L12,0 L13,0 C13.553,0 14,0.447 14,1 C14,1.553 13.553,2 13,2 L13,2.344 C13,3.669 12.472,4.941 11.534,5.878 L9.416,8 L11.537,10.122 C12.475,11.059 13.003,12.331 13.003,13.656 L13.003,14 C13.556,14 14.003,14.447 14.003,15 C14.003,15.553 13.556,16 13.003,16 L12.003,16 L4,16 L3,16 C2.447,16 2,15.553 2,15 C2,14.447 2.447,14 3,14 L3,13.656 C3,12.331 3.528,11.059 4.466,10.122 L6.584,8 L4.466,5.878 C3.528,4.941 3,3.669 3,2.344 L3,2 C2.447,2 2,1.553 2,1 Z M5,2 L5,2.344 C5,3.141 5.316,3.903 5.878,4.466 L8,6.584 L10.122,4.463 C10.684,3.9 11,3.138 11,2.341 L11,1.997 L5,2 Z M5,14 L11,14 L11,13.656 C11,12.859 10.684,12.097 10.122,11.534 L8,9.416 L5.878,11.537 C5.316,12.1 5,12.863 5,13.659 L5,14.003 L5,14 Z"/>
</svg>

