<svg xmlns="http://www.w3.org/2000/svg" width="10" height="10" viewBox="0 0 10 10">
  <defs/>
  <path d="M10,4.046 L10,5.954 C10,6.097 9.884,6.214 9.74,6.214 L6.214,6.214 L6.214,9.74 C6.214,9.884 6.097,10 5.954,10 L4.046,10 C3.903,10 3.786,9.884 3.786,9.74 L3.786,6.214 L0.26,6.214 C0.116,6.214 0,6.097 0,5.954 L0,4.046 C0,3.903 0.116,3.786 0.26,3.786 L3.786,3.786 L3.786,0.26 C3.786,0.116 3.903,0 4.046,0 L5.954,0 C6.097,0 6.214,0.116 6.214,0.26 L6.214,3.786 L9.74,3.786 C9.884,3.786 10,3.903 10,4.046 Z"/>
</svg>

