<svg xmlns="http://www.w3.org/2000/svg" width="20" height="20" viewBox="0 0 20 20">
  <defs/>
  <path d="M3.334,5.625 L3.334,17.5 L3.126,17.5 C1.861,17.5 0.834,16.472 0.834,15.208 L0.834,2.292 C0.834,1.028 1.861,0 3.126,0 L12.709,0 C13.755,0 14.629,0.707 14.903,1.667 L7.292,1.667 C5.11,1.667 3.334,3.443 3.334,5.625 Z"/>
  <path d="M16.875,3.333 C18.139,3.333 19.167,4.361 19.167,5.625 L19.167,17.708 C19.167,18.972 18.139,20 16.875,20 L7.292,20 C6.028,20 5,18.972 5,17.708 L5,5.625 C5,4.361 6.028,3.333 7.292,3.333 Z M15.208,11.25 C15.553,11.25 15.833,10.97 15.833,10.625 C15.833,10.28 15.553,10 15.208,10 L8.958,10 C8.613,10 8.333,10.28 8.333,10.625 C8.333,10.97 8.613,11.25 8.958,11.25 Z M15.208,17.5 C15.553,17.5 15.833,17.22 15.833,16.875 C15.833,16.53 15.553,16.25 15.208,16.25 L8.958,16.25 C8.613,16.25 8.333,16.53 8.333,16.875 C8.333,17.22 8.613,17.5 8.958,17.5 Z M15.208,14.166 C15.553,14.166 15.833,13.886 15.833,13.541 C15.833,13.196 15.553,12.916 15.208,12.916 L8.958,12.916 C8.613,12.916 8.333,13.196 8.333,13.541 C8.333,13.886 8.613,14.166 8.958,14.166 Z M15.208,7.916 C15.553,7.916 15.833,7.636 15.833,7.291 C15.833,6.946 15.553,6.666 15.208,6.666 L8.958,6.666 C8.613,6.666 8.333,6.946 8.333,7.291 C8.333,7.636 8.613,7.916 8.958,7.916 Z"/>
</svg>

