<svg xmlns="http://www.w3.org/2000/svg" width="28" height="28" viewBox="0 0 28 28">
  <defs/>
  <path d="M13.801,13.488 C11.948,13.488 10.344,12.823 9.033,11.512 C7.721,10.201 7.057,8.597 7.057,6.744 C7.057,4.891 7.721,3.287 9.032,1.976 C10.343,0.665 11.948,0 13.801,0 C15.653,0 17.258,0.665 18.569,1.975 C19.88,3.287 20.545,4.891 20.545,6.744 C20.545,8.597 19.88,10.201 18.569,11.512 C17.258,12.823 15.654,13.488 13.801,13.488 Z"/>
  <path d="M25.601,21.531 C25.638,22.064 25.657,22.621 25.657,23.185 C25.657,24.647 25.193,25.83 24.276,26.702 C23.387,27.549 22.216,27.985 20.794,28 L7.16,28 C5.738,27.985 4.567,27.549 3.678,26.702 C2.761,25.83 2.297,24.647 2.297,23.185 C2.297,22.623 2.316,22.067 2.353,21.531 C2.391,20.985 2.467,20.389 2.58,19.762 C2.693,19.128 2.84,18.53 3.015,17.983 C3.196,17.417 3.442,16.859 3.746,16.324 C4.061,15.769 4.432,15.285 4.848,14.887 C5.284,14.47 5.817,14.135 6.432,13.892 C7.046,13.649 7.726,13.525 8.454,13.525 C8.74,13.525 9.017,13.643 9.55,13.99 C9.883,14.208 10.268,14.455 10.693,14.727 C11.059,14.96 11.556,15.179 12.169,15.377 C12.769,15.571 13.376,15.67 13.976,15.67 C14.576,15.67 15.184,15.571 15.783,15.377 C16.397,15.179 16.894,14.96 17.261,14.727 C17.69,14.453 18.074,14.205 18.403,13.99 C18.936,13.643 19.213,13.526 19.499,13.526 C20.226,13.526 20.907,13.649 21.521,13.892 C22.137,14.136 22.67,14.47 23.105,14.887 C23.521,15.285 23.892,15.768 24.208,16.324 C24.512,16.859 24.758,17.417 24.939,17.983 C25.114,18.53 25.26,19.128 25.374,19.762 C25.486,20.39 25.563,20.985 25.601,21.531 Z"/>
</svg>

