<svg xmlns="http://www.w3.org/2000/svg" width="20" height="20" viewBox="0 0 20 20">
  <defs/>
  <path d="M9.858,9.634 C8.535,9.634 7.389,9.159 6.452,8.223 C5.516,7.286 5.041,6.141 5.041,4.817 C5.041,3.493 5.516,2.348 6.452,1.411 C7.389,0.475 8.535,0 9.858,0 C11.182,0 12.328,0.475 13.264,1.411 C14.201,2.348 14.675,3.494 14.675,4.817 C14.675,6.141 14.201,7.286 13.264,8.223 C12.328,9.159 11.182,9.634 9.858,9.634 Z"/>
  <path d="M18.286,15.379 C18.313,15.76 18.326,16.158 18.327,16.561 C18.327,17.605 17.995,18.451 17.34,19.073 C16.707,19.676 15.874,19.987 14.863,20 L5.104,20 C4.093,19.987 3.26,19.676 2.627,19.073 C1.972,18.45 1.641,17.605 1.641,16.561 C1.641,16.16 1.654,15.762 1.681,15.38 C1.708,14.989 1.762,14.564 1.843,14.116 C1.924,13.663 2.028,13.236 2.153,12.845 C2.283,12.441 2.458,12.042 2.676,11.66 C2.901,11.264 3.166,10.918 3.463,10.634 C3.774,10.336 4.155,10.097 4.595,9.923 C5.033,9.749 5.519,9.661 6.039,9.661 C6.243,9.661 6.441,9.745 6.821,9.993 C7.06,10.148 7.334,10.325 7.638,10.519 C7.899,10.686 8.254,10.843 8.692,10.984 C9.12,11.123 9.555,11.193 9.983,11.193 C10.412,11.193 10.846,11.123 11.274,10.984 C11.712,10.842 12.067,10.686 12.329,10.519 C12.635,10.323 12.91,10.146 13.145,9.993 C13.526,9.745 13.723,9.661 13.928,9.661 C14.447,9.661 14.933,9.749 15.372,9.923 C15.812,10.097 16.193,10.336 16.503,10.634 C16.801,10.918 17.066,11.263 17.291,11.66 C17.508,12.042 17.684,12.441 17.813,12.845 C17.938,13.236 18.043,13.663 18.124,14.116 C18.205,14.564 18.259,14.99 18.286,15.379 Z"/>
</svg>

