<svg xmlns="http://www.w3.org/2000/svg" width="48" height="48" viewBox="0 0 48 48">
  <defs/>
  <path d="M48,24 A24 24 0 1 1 0,24 A24 24 0 1 1 48,24 Z"/>
  <path d="M17.334,19.625 L17.334,31.5 L17.126,31.5 C15.861,31.5 14.834,30.472 14.834,29.208 L14.834,16.292 C14.834,15.028 15.861,14 17.126,14 L26.709,14 C27.755,14 28.629,14.708 28.903,15.667 L21.292,15.667 C19.11,15.667 17.334,17.442 17.334,19.625 Z"/>
  <path d="M30.875,17.333 C32.139,17.333 33.167,18.361 33.167,19.625 L33.167,31.708 C33.167,32.972 32.139,34 30.875,34 L21.292,34 C20.028,34 19,32.972 19,31.708 L19,19.625 C19,18.361 20.028,17.333 21.292,17.333 Z M29.208,25.25 C29.553,25.25 29.833,24.97 29.833,24.625 C29.833,24.28 29.553,24 29.208,24 L22.958,24 C22.613,24 22.333,24.28 22.333,24.625 C22.333,24.97 22.613,25.25 22.958,25.25 Z M29.208,31.5 C29.553,31.5 29.833,31.22 29.833,30.875 C29.833,30.53 29.553,30.25 29.208,30.25 L22.958,30.25 C22.613,30.25 22.333,30.53 22.333,30.875 C22.333,31.22 22.613,31.5 22.958,31.5 Z M29.208,21.916 C29.553,21.916 29.833,21.636 29.833,21.291 C29.833,20.946 29.553,20.666 29.208,20.666 L22.958,20.666 C22.613,20.666 22.333,20.946 22.333,21.291 C22.333,21.636 22.613,21.916 22.958,21.916 Z M29.208,28.166 C29.553,28.166 29.833,27.886 29.833,27.541 C29.833,27.196 29.553,26.916 29.208,26.916 L22.958,26.916 C22.613,26.916 22.333,27.196 22.333,27.541 C22.333,27.886 22.613,28.166 22.958,28.166 Z"/>
</svg>

