<svg xmlns="http://www.w3.org/2000/svg" width="36" height="36" viewBox="0 0 36 36">
  <defs/>
  <path d="M8,0 L28,0 A8 8 0 0 1 36,8 L36,28 A8 8 0 0 1 28,36 L8,36 A8 8 0 0 1 0,28 L0,8 A8 8 0 0 1 8,0 Z"/>
  <path d="M17.621,10.4 C17.281,10.439 16.885,10.459 16.499,10.533 C15.594,10.706 14.785,11.091 14.119,11.738 C13.481,12.358 13.451,13.354 14.031,14.014 C14.503,14.55 15.203,14.549 15.949,14.009 C16,13.972 16.052,13.936 16.103,13.898 C16.66,13.475 17.298,13.31 17.979,13.378 C18.542,13.434 19.023,13.675 19.224,14.257 C19.419,14.818 19.147,15.241 18.753,15.6 C18.555,15.78 18.326,15.927 18.111,16.087 C16.815,17.05 16.252,18.565 16.65,20.018 C16.84,20.71 17.162,21.073 17.586,21.072 C18,21.072 18.316,20.747 18.5,20.059 C18.692,19.345 19.059,18.747 19.622,18.282 C20.073,17.91 20.567,17.59 21.021,17.223 C22.442,16.073 22.787,14.294 21.885,12.71 C20.958,11.084 19.451,10.502 17.621,10.4 Z"/>
  <path d="M17.86,22.219 C16.813,22.221 16.148,22.864 16.15,23.874 C16.153,24.873 16.864,25.603 17.831,25.6 C18.845,25.596 19.574,24.874 19.569,23.878 C19.564,22.864 18.898,22.217 17.86,22.219 Z"/>
</svg>

