<svg xmlns="http://www.w3.org/2000/svg" width="36" height="36" viewBox="0 0 36 36">
  <defs/>
  <path d="M28.046,17.31 C32.323,17.667 35.085,22.3 35.085,26.309 C35.085,31.566 30.719,35.398 25.641,35.398 C19.315,35.398 15.394,29.606 15.394,23.815 C15.394,18.113 19.315,12.321 23.502,8.846 C27.511,5.46 30.541,4.124 32.501,3.857 C34.55,3.589 35.531,4.569 35.531,5.906 C35.531,7.599 32.946,8.846 31.699,9.648 C27.69,12.054 25.195,14.281 25.195,15.974 C25.195,17.222 27.155,17.222 28.046,17.31 Z"/>
  <path d="M15.522,14.805 C14.013,17.546 12.988,20.633 12.987,23.815 C12.987,26.393 13.653,29.004 14.901,31.261 C13.628,31.858 12.203,32.188 10.715,32.188 C4.389,32.188 0.469,26.397 0.469,20.605 C0.469,14.903 4.389,9.111 8.577,5.636 C12.586,2.25 15.615,0.914 17.576,0.647 C19.625,0.379 20.605,1.359 20.605,2.696 C20.605,4.389 18.022,5.636 16.774,6.438 C12.764,8.844 10.27,11.071 10.27,12.764 C10.27,14.012 12.23,14.012 13.121,14.101 C13.987,14.172 14.79,14.423 15.522,14.805 Z"/>
</svg>

