<svg xmlns="http://www.w3.org/2000/svg" width="36" height="36" viewBox="0 0 36 36">
  <defs/>
  <path d="M0,14.75 C0,9.363 4.315,5 9.643,5 L10.286,5 C11.708,5 12.857,6.162 12.857,7.6 C12.857,9.038 11.708,10.2 10.286,10.2 L9.643,10.2 C7.16,10.2 5.143,12.239 5.143,14.75 L5.143,15.4 L10.286,15.4 C13.122,15.4 15.429,17.732 15.429,20.6 L15.429,25.8 C15.429,28.668 13.122,31 10.286,31 L5.143,31 C2.306,31 0,28.668 0,25.8 L0,23.2 L0,20.6 L0,14.75 Z M20.571,14.75 C20.571,9.363 24.887,5 30.214,5 L30.857,5 C32.279,5 33.429,6.162 33.429,7.6 C33.429,9.038 32.279,10.2 30.857,10.2 L30.214,10.2 C27.731,10.2 25.714,12.239 25.714,14.75 L25.714,15.4 L30.857,15.4 C33.694,15.4 36,17.732 36,20.6 L36,25.8 C36,28.668 33.694,31 30.857,31 L25.714,31 C22.878,31 20.571,28.668 20.571,25.8 L20.571,23.2 L20.571,20.6 L20.571,14.75 Z"/>
</svg>

