<svg xmlns="http://www.w3.org/2000/svg" width="20" height="20" viewBox="0 0 20 20">
  <defs/>
  <path d="M2.222,3.714 C1.917,3.714 1.667,3.971 1.667,4.286 L1.667,15.714 C1.667,16.029 1.917,16.286 2.222,16.286 L17.778,16.286 C18.083,16.286 18.333,16.029 18.333,15.714 L18.333,4.286 C18.333,3.971 18.083,3.714 17.778,3.714 L2.222,3.714 Z M0,4.286 C0,3.025 0.997,2 2.222,2 L17.778,2 C19.003,2 20,3.025 20,4.286 L20,15.714 C20,16.975 19.003,18 17.778,18 L2.222,18 C0.997,18 0,16.975 0,15.714 L0,4.286 Z M3.333,6.571 C3.333,6.268 3.45,5.978 3.659,5.763 C3.867,5.549 4.15,5.429 4.444,5.429 C4.739,5.429 5.022,5.549 5.23,5.763 C5.438,5.978 5.556,6.268 5.556,6.571 C5.556,6.875 5.438,7.165 5.23,7.38 C5.022,7.594 4.739,7.714 4.444,7.714 C4.15,7.714 3.867,7.594 3.659,7.38 C3.45,7.165 3.333,6.875 3.333,6.571 Z M6.944,6.571 C6.944,6.096 7.316,5.714 7.778,5.714 L15.556,5.714 C16.017,5.714 16.389,6.096 16.389,6.571 C16.389,7.046 16.017,7.429 15.556,7.429 L7.778,7.429 C7.316,7.429 6.944,7.046 6.944,6.571 Z M6.944,10 C6.944,9.525 7.316,9.143 7.778,9.143 L15.556,9.143 C16.017,9.143 16.389,9.525 16.389,10 C16.389,10.475 16.017,10.857 15.556,10.857 L7.778,10.857 C7.316,10.857 6.944,10.475 6.944,10 Z M6.944,13.429 C6.944,12.954 7.316,12.571 7.778,12.571 L15.556,12.571 C16.017,12.571 16.389,12.954 16.389,13.429 C16.389,13.904 16.017,14.286 15.556,14.286 L7.778,14.286 C7.316,14.286 6.944,13.904 6.944,13.429 Z M4.444,11.143 C4.15,11.143 3.867,11.022 3.659,10.808 C3.45,10.594 3.333,10.303 3.333,10 C3.333,9.697 3.45,9.406 3.659,9.192 C3.867,8.978 4.15,8.857 4.444,8.857 C4.739,8.857 5.022,8.978 5.23,9.192 C5.438,9.406 5.556,9.697 5.556,10 C5.556,10.303 5.438,10.594 5.23,10.808 C5.022,11.022 4.739,11.143 4.444,11.143 Z M3.333,13.429 C3.333,13.126 3.45,12.835 3.659,12.62 C3.867,12.406 4.15,12.286 4.444,12.286 C4.739,12.286 5.022,12.406 5.23,12.62 C5.438,12.835 5.556,13.126 5.556,13.429 C5.556,13.732 5.438,14.022 5.23,14.237 C5.022,14.451 4.739,14.571 4.444,14.571 C4.15,14.571 3.867,14.451 3.659,14.237 C3.45,14.022 3.333,13.732 3.333,13.429 Z"/>
</svg>

