<svg xmlns="http://www.w3.org/2000/svg" width="16" height="16" viewBox="0 0 16 16">
  <defs/>
  <path d="M8,16 C5.878,16 3.843,15.157 2.343,13.657 C0.843,12.157 0,10.122 0,8 C0,5.878 0.843,3.843 2.343,2.343 C3.843,0.843 5.878,0 8,0 C10.122,0 12.157,0.843 13.657,2.343 C15.157,3.843 16,5.878 16,8 C16,10.122 15.157,12.157 13.657,13.657 C12.157,15.157 10.122,16 8,16 Z M5.469,5.469 C5.175,5.759 5.175,6.234 5.469,6.528 L6.938,7.997 L5.469,9.466 C5.175,9.756 5.178,10.231 5.469,10.525 C5.759,10.819 6.234,10.819 6.528,10.525 L7.997,9.056 L9.466,10.525 C9.756,10.819 10.231,10.816 10.525,10.525 C10.819,10.234 10.819,9.759 10.525,9.466 L9.056,7.997 L10.525,6.528 C10.819,6.238 10.816,5.762 10.525,5.469 C10.234,5.175 9.759,5.175 9.466,5.469 L7.997,6.938 L6.528,5.469 C6.238,5.175 5.762,5.175 5.469,5.469 Z"/>
</svg>

