<svg xmlns="http://www.w3.org/2000/svg" width="20" height="20" viewBox="0 0 20 20">
  <defs/>
  <path d="M16.251,8.124 C16.251,9.917 15.669,11.573 14.688,12.916 L19.634,17.865 C19.876,18.107 19.998,18.424 20,18.741 L20,18.757 C19.998,19.075 19.876,19.392 19.634,19.634 C19.392,19.876 19.075,19.998 18.757,20 L18.741,20 C18.423,19.998 18.106,19.876 17.864,19.634 L12.919,14.685 C11.575,15.67 9.918,16.248 8.125,16.248 C3.637,16.248 0,12.611 0,8.124 C0,3.636 3.637,0 8.125,0 C12.614,0 16.251,3.636 16.251,8.124 Z M8.125,13.748 C8.864,13.748 9.596,13.602 10.278,13.32 C10.961,13.037 11.581,12.623 12.103,12.101 C12.625,11.578 13.04,10.958 13.323,10.276 C13.605,9.594 13.751,8.862 13.751,8.124 C13.751,7.385 13.605,6.654 13.323,5.972 C13.04,5.289 12.625,4.669 12.103,4.147 C11.581,3.625 10.961,3.21 10.278,2.928 C9.596,2.645 8.864,2.5 8.125,2.5 C7.387,2.5 6.655,2.645 5.973,2.928 C5.29,3.21 4.67,3.625 4.148,4.147 C3.625,4.669 3.211,5.289 2.928,5.972 C2.646,6.654 2.5,7.385 2.5,8.124 C2.5,8.862 2.646,9.594 2.928,10.276 C3.211,10.958 3.625,11.578 4.148,12.101 C4.67,12.623 5.29,13.037 5.973,13.32 C6.655,13.602 7.387,13.748 8.125,13.748 Z"/>
</svg>

