<svg xmlns="http://www.w3.org/2000/svg" width="48" height="48" viewBox="0 0 48 48">
  <defs/>
  <path d="M48,24 A24 24 0 1 1 0,24 A24 24 0 1 1 48,24 Z"/>
  <path d="M33.526,31.106 C33.841,31.42 33.998,31.831 34,32.243 L34,32.255 C33.998,32.667 33.841,33.078 33.527,33.392 C33.211,33.707 32.797,33.864 32.383,33.864 C31.97,33.864 31.556,33.707 31.24,33.392 L26.697,28.848 C25.389,29.76 23.798,30.297 22.081,30.297 C17.618,30.297 14,26.68 14,22.216 C14,17.753 17.618,14.135 22.081,14.135 C26.545,14.135 30.163,17.753 30.163,22.216 C30.163,23.794 29.709,25.264 28.928,26.508 Z M22.081,27.679 C25.098,27.679 27.544,25.233 27.544,22.216 C27.544,19.199 25.098,16.754 22.081,16.754 C19.065,16.754 16.619,19.199 16.619,22.216 C16.619,25.233 19.065,27.679 22.081,27.679 Z"/>
</svg>

