<svg xmlns="http://www.w3.org/2000/svg" width="16" height="16" viewBox="0 0 16 16">
  <defs/>
  <path d="M13.001,6.499 C13.001,7.933 12.535,9.258 11.751,10.333 L15.707,14.292 C15.901,14.485 15.998,14.738 16,14.992 L16,15.006 C15.998,15.26 15.901,15.514 15.707,15.707 C15.316,16.098 14.682,16.098 14.291,15.707 L10.335,11.748 C9.26,12.536 7.935,12.998 6.5,12.998 C2.91,12.998 0,10.089 0,6.499 C0,2.909 2.91,0 6.5,0 C10.091,0 13.001,2.909 13.001,6.499 Z M6.5,10.998 C7.091,10.998 7.676,10.882 8.222,10.656 C8.768,10.43 9.265,10.098 9.682,9.681 C10.1,9.263 10.432,8.767 10.658,8.221 C10.884,7.675 11,7.09 11,6.499 C11,5.908 10.884,5.323 10.658,4.777 C10.432,4.231 10.1,3.735 9.682,3.318 C9.265,2.9 8.768,2.568 8.222,2.342 C7.676,2.116 7.091,2 6.5,2 C5.909,2 5.324,2.116 4.778,2.342 C4.232,2.568 3.736,2.9 3.318,3.318 C2.9,3.735 2.569,4.231 2.343,4.777 C2.116,5.323 2,5.908 2,6.499 C2,7.09 2.116,7.675 2.343,8.221 C2.569,8.767 2.9,9.263 3.318,9.681 C3.736,10.098 4.232,10.43 4.778,10.656 C5.324,10.882 5.909,10.998 6.5,10.998 Z"/>
</svg>

