<svg xmlns="http://www.w3.org/2000/svg" width="20" height="20" viewBox="0 0 20 20">
  <defs/>
  <path d="M18.295,19.587 L15.395,16.669 Q12.866,18.833 9.446,18.833 Q5.601,18.833 2.883,16.098 Q0.167,13.364 0.167,9.5 Q0.167,5.636 2.883,2.902 Q5.601,0.167 9.446,0.167 Q13.291,0.167 16.01,2.902 Q18.726,5.636 18.726,9.5 Q18.726,12.942 16.57,15.487 L19.477,18.413 Q19.721,18.657 19.719,19.003 Q19.718,19.348 19.473,19.591 Q19.229,19.834 18.883,19.833 Q18.538,19.832 18.295,19.587 Z M17.059,9.5 Q17.059,6.323 14.827,4.077 Q12.598,1.833 9.446,1.833 Q6.294,1.833 4.065,4.077 Q1.833,6.323 1.833,9.5 Q1.833,12.677 4.065,14.923 Q6.294,17.167 9.446,17.167 Q12.52,17.167 14.717,15.032 Q14.762,14.968 14.821,14.909 Q14.876,14.854 14.936,14.812 Q17.059,12.599 17.059,9.5 Z"/>
</svg>

