<svg xmlns="http://www.w3.org/2000/svg" width="20" height="20" viewBox="0 0 20 20">
  <defs/>
  <path d="M1.339,15 C2.028,16.196 3.557,16.607 4.753,15.918 C4.754,15.918 4.755,15.917 4.755,15.917 L5.126,15.703 C5.826,16.301 6.631,16.766 7.5,17.073 L7.5,17.5 C7.5,18.881 8.619,20 10,20 C11.38,20 12.5,18.881 12.5,17.5 L12.5,17.073 C13.368,16.765 14.173,16.3 14.873,15.701 L15.245,15.916 C16.442,16.606 17.972,16.196 18.662,14.999 C19.352,13.803 18.942,12.273 17.745,11.582 L17.375,11.369 C17.542,10.463 17.542,9.534 17.375,8.627 L17.745,8.414 C18.942,7.724 19.352,6.194 18.662,4.997 C17.972,3.801 16.442,3.39 15.245,4.081 L14.875,4.295 C14.174,3.697 13.369,3.233 12.5,2.928 L12.5,2.5 C12.5,1.119 11.38,0 10,0 C8.619,0 7.5,1.119 7.5,2.5 L7.5,2.928 C6.631,3.235 5.826,3.7 5.126,4.299 L4.754,4.083 C3.557,3.393 2.027,3.803 1.337,5 C0.647,6.197 1.057,7.726 2.254,8.417 L2.624,8.63 C2.457,9.536 2.457,10.465 2.624,11.372 L2.254,11.585 C1.06,12.277 0.651,13.804 1.339,15 Z M10,6.667 C11.841,6.667 13.333,8.159 13.333,10 C13.333,11.841 11.841,13.333 10,13.333 C8.159,13.333 6.666,11.841 6.666,10 C6.666,8.159 8.159,6.667 10,6.667 Z"/>
</svg>

