<svg xmlns="http://www.w3.org/2000/svg" width="20" height="20" viewBox="0 0 20 20">
  <defs/>
  <path d="M19.371,6.508 C19.496,6.848 19.39,7.227 19.121,7.469 L17.429,9.008 C17.472,9.332 17.496,9.664 17.496,10 C17.496,10.336 17.472,10.668 17.429,10.992 L19.121,12.531 C19.39,12.773 19.496,13.152 19.371,13.492 C19.199,13.957 18.992,14.402 18.753,14.832 L18.57,15.148 C18.312,15.578 18.023,15.984 17.707,16.367 C17.476,16.648 17.093,16.742 16.75,16.633 L14.574,15.941 C14.05,16.344 13.472,16.68 12.855,16.934 L12.367,19.164 C12.289,19.52 12.015,19.801 11.656,19.859 C11.117,19.949 10.562,19.996 9.996,19.996 C9.429,19.996 8.875,19.949 8.335,19.859 C7.976,19.801 7.703,19.52 7.625,19.164 L7.136,16.934 C6.519,16.68 5.941,16.344 5.417,15.941 L3.246,16.637 C2.902,16.746 2.519,16.648 2.289,16.371 C1.972,15.988 1.683,15.582 1.425,15.152 L1.242,14.836 C1.003,14.406 0.796,13.961 0.625,13.496 C0.5,13.156 0.605,12.777 0.875,12.535 L2.566,10.996 C2.523,10.668 2.5,10.336 2.5,10 C2.5,9.664 2.523,9.332 2.566,9.008 L0.875,7.469 C0.605,7.227 0.5,6.848 0.625,6.508 C0.796,6.043 1.003,5.598 1.242,5.168 L1.425,4.852 C1.683,4.422 1.972,4.016 2.289,3.633 C2.519,3.352 2.902,3.258 3.246,3.367 L5.421,4.059 C5.945,3.656 6.523,3.32 7.14,3.066 L7.628,0.836 C7.707,0.48 7.98,0.199 8.339,0.141 C8.878,0.047 9.433,0 10,0 C10.566,0 11.121,0.047 11.66,0.137 C12.019,0.195 12.292,0.477 12.371,0.832 L12.859,3.062 C13.476,3.316 14.054,3.652 14.578,4.055 L16.753,3.363 C17.097,3.254 17.48,3.352 17.711,3.629 C18.027,4.012 18.316,4.418 18.574,4.848 L18.757,5.164 C18.996,5.594 19.203,6.039 19.375,6.504 Z M10,13.125 C10.828,13.125 11.623,12.796 12.209,12.21 C12.795,11.624 13.125,10.829 13.125,10 C13.125,9.171 12.795,8.376 12.209,7.79 C11.623,7.204 10.828,6.875 10,6.875 C9.171,6.875 8.376,7.204 7.79,7.79 C7.204,8.376 6.875,9.171 6.875,10 C6.875,10.829 7.204,11.624 7.79,12.21 C8.376,12.796 9.171,13.125 10,13.125 Z"/>
</svg>

