<svg xmlns="http://www.w3.org/2000/svg" width="24" height="24" viewBox="0 0 24 24">
  <defs/>
  <path d="M18.857,10.286 C17.47,10.286 16.211,9.739 15.289,8.845 L10.248,11.363 C10.275,11.571 10.286,11.78 10.286,12 C10.286,12.22 10.275,12.429 10.248,12.637 L15.289,15.155 C16.211,14.261 17.47,13.714 18.857,13.714 C21.696,13.714 24,16.018 24,18.857 C24,21.696 21.696,24 18.857,24 C16.018,24 13.714,21.696 13.714,18.857 C13.714,18.638 13.725,18.429 13.752,18.22 L8.711,15.702 C7.789,16.596 6.53,17.143 5.143,17.143 C2.304,17.143 0,14.839 0,12 C0,9.161 2.304,6.857 5.143,6.857 C6.53,6.857 7.789,7.404 8.711,8.298 L13.752,5.78 C13.725,5.571 13.714,5.357 13.714,5.143 C13.714,2.304 16.018,0 18.857,0 C21.696,0 24,2.304 24,5.143 C24,7.982 21.696,10.286 18.857,10.286 Z"/>
</svg>

