<svg xmlns="http://www.w3.org/2000/svg" width="24" height="24" viewBox="0 0 24 24">
  <defs/>
  <path d="M17.578,15.528 C16.744,15.528 15.909,15.781 15.201,16.236 L10.371,13.024 C10.548,12.341 10.548,11.633 10.371,10.95 L15.201,7.764 C16.314,8.523 17.73,8.7 18.995,8.244 C20.259,7.789 21.245,6.778 21.65,5.488 C22.055,4.198 21.777,2.807 20.993,1.72 C20.183,0.632 18.919,0 17.578,0 C16.238,0 14.974,0.632 14.164,1.72 C13.355,2.807 13.127,4.198 13.507,5.488 L8.803,8.599 C7.968,7.966 6.906,7.663 5.844,7.764 C4.782,7.865 3.821,8.346 3.113,9.13 C2.405,9.914 2,10.925 2,11.987 C2,13.05 2.405,14.061 3.113,14.845 C3.821,15.629 4.807,16.11 5.844,16.211 C6.881,16.312 7.943,16.008 8.803,15.376 L13.532,18.512 C13.406,18.917 13.355,19.321 13.355,19.751 C13.355,20.889 13.81,21.951 14.594,22.761 C15.378,23.545 16.466,24 17.604,24 C18.742,24 19.804,23.545 20.613,22.761 C21.397,21.977 21.852,20.889 21.852,19.751 C21.852,18.613 21.397,17.551 20.613,16.742 C19.779,15.983 18.691,15.528 17.578,15.528 Z"/>
</svg>

