<svg xmlns="http://www.w3.org/2000/svg" width="24" height="24" viewBox="0 0 24 24">
  <defs/>
  <path d="M13.469,7.53 C13.61,7.671 13.8,7.75 13.999,7.75 C14.198,7.75 14.389,7.671 14.529,7.53 L15.249,6.81 L15.249,17 C15.249,17.199 15.328,17.39 15.469,17.531 C15.61,17.671 15.8,17.75 15.999,17.75 C16.198,17.75 16.389,17.671 16.529,17.531 C16.67,17.39 16.749,17.199 16.749,17 L16.749,6.81 L17.469,7.53 C17.538,7.604 17.621,7.663 17.713,7.704 C17.805,7.745 17.904,7.767 18.005,7.769 C18.105,7.771 18.205,7.752 18.299,7.714 C18.392,7.677 18.477,7.621 18.548,7.549 C18.619,7.478 18.676,7.393 18.713,7.3 C18.751,7.207 18.77,7.106 18.768,7.006 C18.766,6.905 18.744,6.806 18.703,6.714 C18.662,6.622 18.603,6.539 18.529,6.47 L16.529,4.47 C16.389,4.33 16.198,4.251 15.999,4.251 C15.8,4.251 15.61,4.33 15.469,4.47 L13.469,6.47 C13.329,6.611 13.25,6.802 13.25,7 C13.25,7.199 13.329,7.39 13.469,7.53 Z M8.749,17.19 L9.469,16.47 C9.538,16.397 9.621,16.337 9.713,16.297 C9.805,16.256 9.904,16.233 10.005,16.232 C10.105,16.23 10.205,16.248 10.299,16.286 C10.392,16.324 10.477,16.38 10.548,16.451 C10.619,16.523 10.676,16.607 10.713,16.701 C10.751,16.794 10.77,16.894 10.768,16.995 C10.766,17.096 10.744,17.195 10.703,17.287 C10.662,17.379 10.603,17.462 10.529,17.53 L8.529,19.53 C8.389,19.671 8.198,19.75 7.999,19.75 C7.8,19.75 7.61,19.671 7.469,19.53 L5.469,17.53 C5.395,17.462 5.336,17.379 5.295,17.287 C5.254,17.195 5.232,17.096 5.231,16.995 C5.229,16.894 5.247,16.794 5.285,16.701 C5.323,16.607 5.379,16.523 5.45,16.451 C5.521,16.38 5.606,16.324 5.7,16.286 C5.793,16.248 5.893,16.23 5.994,16.232 C6.094,16.233 6.194,16.256 6.286,16.297 C6.378,16.337 6.461,16.397 6.529,16.47 L7.249,17.19 L7.249,7 C7.249,6.801 7.328,6.611 7.469,6.47 C7.609,6.329 7.8,6.25 7.999,6.25 C8.198,6.25 8.389,6.329 8.53,6.47 C8.67,6.611 8.749,6.801 8.749,7 L8.749,17.19 Z"/>
</svg>

