<svg width="44" height="44" viewBox="0 0 44 44" fill="none" xmlns="http://www.w3.org/2000/svg">
<rect width="44" height="44" rx="8" fill="#F1F8FD"/>
<g clip-path="url(#clip0_52_11472)">
<path d="M10 29.5C10 30.3297 10.6703 31 11.5 31H14.0641C14.6406 32.3266 15.9625 33.25 17.5 33.25C19.0375 33.25 20.3594 32.3266 20.9359 31H32.5C33.3297 31 34 30.3297 34 29.5C34 28.6703 33.3297 28 32.5 28H20.9359C20.3594 26.6734 19.0375 25.75 17.5 25.75C15.9625 25.75 14.6406 26.6734 14.0641 28H11.5C10.6703 28 10 28.6703 10 29.5ZM16 29.5C16 29.1022 16.158 28.7206 16.4393 28.4393C16.7206 28.158 17.1022 28 17.5 28C17.8978 28 18.2794 28.158 18.5607 28.4393C18.842 28.7206 19 29.1022 19 29.5C19 29.8978 18.842 30.2794 18.5607 30.5607C18.2794 30.842 17.8978 31 17.5 31C17.1022 31 16.7206 30.842 16.4393 30.5607C16.158 30.2794 16 29.8978 16 29.5ZM25 22C25 21.6022 25.158 21.2206 25.4393 20.9393C25.7206 20.658 26.1022 20.5 26.5 20.5C26.8978 20.5 27.2794 20.658 27.5607 20.9393C27.842 21.2206 28 21.6022 28 22C28 22.3978 27.842 22.7794 27.5607 23.0607C27.2794 23.342 26.8978 23.5 26.5 23.5C26.1022 23.5 25.7206 23.342 25.4393 23.0607C25.158 22.7794 25 22.3978 25 22ZM26.5 18.25C24.9625 18.25 23.6406 19.1734 23.0641 20.5H11.5C10.6703 20.5 10 21.1703 10 22C10 22.8297 10.6703 23.5 11.5 23.5H23.0641C23.6406 24.8266 24.9625 25.75 26.5 25.75C28.0375 25.75 29.3594 24.8266 29.9359 23.5H32.5C33.3297 23.5 34 22.8297 34 22C34 21.1703 33.3297 20.5 32.5 20.5H29.9359C29.3594 19.1734 28.0375 18.25 26.5 18.25ZM19 16C18.6022 16 18.2206 15.842 17.9393 15.5607C17.658 15.2794 17.5 14.8978 17.5 14.5C17.5 14.1022 17.658 13.7206 17.9393 13.4393C18.2206 13.158 18.6022 13 19 13C19.3978 13 19.7794 13.158 20.0607 13.4393C20.342 13.7206 20.5 14.1022 20.5 14.5C20.5 14.8978 20.342 15.2794 20.0607 15.5607C19.7794 15.842 19.3978 16 19 16ZM22.4359 13C21.8594 11.6734 20.5375 10.75 19 10.75C17.4625 10.75 16.1406 11.6734 15.5641 13H11.5C10.6703 13 10 13.6703 10 14.5C10 15.3297 10.6703 16 11.5 16H15.5641C16.1406 17.3266 17.4625 18.25 19 18.25C20.5375 18.25 21.8594 17.3266 22.4359 16H32.5C33.3297 16 34 15.3297 34 14.5C34 13.6703 33.3297 13 32.5 13H22.4359Z" fill="#337AB7"/>
</g>
<defs>
<clipPath id="clip0_52_11472">
<rect width="24" height="24" fill="white" transform="translate(10 10)"/>
</clipPath>
</defs>
</svg>
