<svg xmlns="http://www.w3.org/2000/svg" width="24" height="24" viewBox="0 0 24 24">
  <defs/>
  <path d="M11.412,17.749 C11.737,18.084 12.265,18.084 12.591,17.749 L16.756,13.463 C17.081,13.128 17.081,12.584 16.756,12.249 C16.431,11.915 15.902,11.915 15.577,12.249 L12.833,15.075 L12.833,6.857 C12.833,6.383 12.461,6 12,6 C11.539,6 11.167,6.383 11.167,6.857 L11.167,15.073 L8.423,12.252 C8.098,11.917 7.569,11.917 7.244,12.252 C6.919,12.587 6.919,13.131 7.244,13.466 L11.409,17.752 L11.412,17.749 Z"/>
</svg>

