<svg xmlns="http://www.w3.org/2000/svg" width="44" height="44" viewBox="0 0 44 44">
  <defs/>
  <path d="M8,0 L36,0 A8 8 0 0 1 44,8 L44,36 A8 8 0 0 1 36,44 L8,44 A8 8 0 0 1 0,36 L0,8 A8 8 0 0 1 8,0 Z"/>
  <path d="M10,29.5 C10,28.67 10.67,28 11.5,28 L14.064,28 C14.641,26.673 15.962,25.75 17.5,25.75 C19.038,25.75 20.359,26.673 20.936,28 L32.5,28 C33.33,28 34,28.67 34,29.5 C34,30.33 33.33,31 32.5,31 L20.936,31 C20.359,32.327 19.038,33.25 17.5,33.25 C15.962,33.25 14.641,32.327 14.064,31 L11.5,31 C10.67,31 10,30.33 10,29.5 Z M22.436,13 L32.5,13 C33.33,13 34,13.67 34,14.5 C34,15.33 33.33,16 32.5,16 L22.436,16 C21.859,17.327 20.538,18.25 19,18.25 C17.462,18.25 16.141,17.327 15.564,16 L11.5,16 C10.67,16 10,15.33 10,14.5 C10,13.67 10.67,13 11.5,13 L15.564,13 C16.141,11.673 17.462,10.75 19,10.75 C20.538,10.75 21.859,11.673 22.436,13 Z M26.5,18.25 C28.038,18.25 29.359,19.173 29.936,20.5 L32.5,20.5 C33.33,20.5 34,21.17 34,22 C34,22.83 33.33,23.5 32.5,23.5 L29.936,23.5 C29.359,24.827 28.038,25.75 26.5,25.75 C24.962,25.75 23.641,24.827 23.064,23.5 L11.5,23.5 C10.67,23.5 10,22.83 10,22 C10,21.17 10.67,20.5 11.5,20.5 L23.064,20.5 C23.641,19.173 24.962,18.25 26.5,18.25 Z M19,16 C19.398,16 19.779,15.842 20.061,15.561 C20.342,15.279 20.5,14.898 20.5,14.5 C20.5,14.102 20.342,13.721 20.061,13.439 C19.779,13.158 19.398,13 19,13 C18.602,13 18.221,13.158 17.939,13.439 C17.658,13.721 17.5,14.102 17.5,14.5 C17.5,14.898 17.658,15.279 17.939,15.561 C18.221,15.842 18.602,16 19,16 Z M16,29.5 C16,29.898 16.158,30.279 16.439,30.561 C16.721,30.842 17.102,31 17.5,31 C17.898,31 18.279,30.842 18.561,30.561 C18.842,30.279 19,29.898 19,29.5 C19,29.102 18.842,28.721 18.561,28.439 C18.279,28.158 17.898,28 17.5,28 C17.102,28 16.721,28.158 16.439,28.439 C16.158,28.721 16,29.102 16,29.5 Z M25,22 C25,22.398 25.158,22.779 25.439,23.061 C25.721,23.342 26.102,23.5 26.5,23.5 C26.898,23.5 27.279,23.342 27.561,23.061 C27.842,22.779 28,22.398 28,22 C28,21.602 27.842,21.221 27.561,20.939 C27.279,20.658 26.898,20.5 26.5,20.5 C26.102,20.5 25.721,20.658 25.439,20.939 C25.158,21.221 25,21.602 25,22 Z"/>
</svg>

