<svg xmlns="http://www.w3.org/2000/svg" width="24" height="24" viewBox="0 0 24 24">
  <defs/>
  <path d="M12.588,6.251 C12.263,5.916 11.735,5.916 11.409,6.251 L7.244,10.537 C6.919,10.872 6.919,11.416 7.244,11.751 C7.569,12.085 8.098,12.085 8.423,11.751 L11.167,8.924 L11.167,17.143 C11.167,17.617 11.539,18 12,18 C12.461,18 12.833,17.617 12.833,17.143 L12.833,8.927 L15.577,11.748 C15.902,12.083 16.431,12.083 16.756,11.748 C17.081,11.413 17.081,10.869 16.756,10.534 L12.591,6.248 L12.588,6.251 Z"/>
</svg>

