<svg xmlns="http://www.w3.org/2000/svg" width="28" height="32" viewBox="0 0 28 32">
  <defs/>
  <path d="M14,0 C14.892,0 15.789,0.204 16.468,0.613 L25.541,6.076 C26.828,6.851 27.894,8.695 28,10.278 L28,21.717 C27.894,23.301 26.828,25.144 25.541,25.92 L16.472,31.387 C15.794,31.796 14.901,32 14.004,32 C13.108,32 12.215,31.796 11.537,31.387 L2.467,25.92 C1.111,25.107 0,23.098 0,21.462 L0,10.533 C0,8.902 1.111,6.893 2.467,6.076 L11.533,0.613 C12.211,0.204 13.108,0 14,0 Z M14,1.333 C13.309,1.333 12.657,1.489 12.206,1.76 L3.137,7.222 C2.183,7.796 1.312,9.378 1.312,10.533 L1.312,21.462 C1.312,22.622 2.183,24.2 3.137,24.773 L12.211,30.244 C12.657,30.516 13.313,30.671 14.004,30.671 C14.696,30.671 15.347,30.516 15.798,30.244 L24.868,24.778 C25.821,24.204 26.692,22.622 26.692,21.467 L26.692,10.538 C26.692,9.378 25.821,7.8 24.868,7.227 L15.798,1.76 C15.347,1.489 14.691,1.333 14,1.333 Z"/>
  <path d="M13.382,10.026 L13.382,14.071 C13.382,14.698 12.876,15.209 12.245,15.209 L8.2,15.209 C7.574,15.209 7.062,14.702 7.062,14.071 L7.062,10.026 C7.062,9.4 7.574,8.889 8.2,8.889 L12.245,8.889 C12.871,8.889 13.382,9.4 13.382,10.026 Z"/>
  <path d="M21.285,10.026 L21.285,14.071 C21.285,14.698 20.774,15.209 20.147,15.209 L16.103,15.209 C15.476,15.209 14.965,14.702 14.965,14.071 L14.965,10.026 C14.965,9.4 15.472,8.889 16.103,8.889 L20.147,8.889 C20.774,8.889 21.285,9.4 21.285,10.026 Z"/>
  <path d="M13.382,17.929 L13.382,21.973 C13.382,22.6 12.876,23.111 12.245,23.111 L8.2,23.111 C7.574,23.111 7.062,22.6 7.062,21.973 L7.062,17.929 C7.062,17.302 7.574,16.791 8.2,16.791 L12.245,16.791 C12.871,16.791 13.382,17.298 13.382,17.929 Z"/>
  <path d="M21.285,17.929 L21.285,21.973 C21.285,22.6 20.774,23.111 20.147,23.111 L16.103,23.111 C15.476,23.111 14.965,22.6 14.965,21.973 L14.965,17.929 C14.965,17.302 15.472,16.791 16.103,16.791 L20.147,16.791 C20.774,16.791 21.285,17.298 21.285,17.929 Z"/>
</svg>

