<svg xmlns="http://www.w3.org/2000/svg" width="20" height="20" viewBox="0 0 20 20">
  <defs/>
  <path d="M10.001,14.167 C13.08,14.167 15.744,16.077 16.63,18.918 C16.709,19.172 16.663,19.447 16.506,19.661 C16.348,19.874 16.099,20 15.834,20 L4.167,20 C3.902,20 3.653,19.874 3.496,19.661 C3.338,19.447 3.292,19.172 3.372,18.918 C4.257,16.077 6.922,14.167 10.001,14.167 Z M3.032,7.5 C2.517,7.5 2.117,7.035 2.208,6.528 C2.507,4.861 3.338,3.311 4.587,2.14 C6.2,0.627 8.306,-0.127 10.526,0.017 C14.71,0.287 17.978,3.93 17.917,8.282 C17.883,10.63 15.926,12.501 13.577,12.501 L11.133,12.501 C10.833,12.789 10.428,12.968 9.98,12.968 C9.059,12.968 8.313,12.222 8.313,11.302 C8.313,10.381 9.059,9.635 9.98,9.635 C10.737,9.635 11.368,10.142 11.572,10.834 L13.577,10.834 C15.023,10.834 16.234,9.682 16.25,8.236 C16.288,4.781 13.712,1.895 10.418,1.682 C8.669,1.573 7.001,2.163 5.727,3.357 C4.719,4.302 4.07,5.511 3.842,6.839 C3.776,7.227 3.426,7.502 3.032,7.502 Z M14.407,9.167 L12.447,9.167 C11.847,8.47 10.972,8.019 9.98,8.019 C8.232,8.019 6.817,9.388 6.717,11.11 C5.914,10.284 5.417,9.159 5.417,7.917 C5.417,5.385 7.469,3.333 10.001,3.333 C12.532,3.333 14.584,5.385 14.584,7.917 C14.584,8.351 14.52,8.769 14.407,9.167 Z"/>
</svg>

