<svg xmlns="http://www.w3.org/2000/svg" width="20" height="20" viewBox="0 0 20 20">
  <defs/>
  <path d="M10,1.875 C5.512,1.875 1.875,5.512 1.875,10 L1.875,11.562 C1.875,12.082 1.457,12.5 0.938,12.5 C0.418,12.5 0,12.082 0,11.562 L0,10 C0,4.477 4.477,0 10,0 C15.523,0 20,4.477 20,10 L20,15.629 C20,17.527 18.461,19.066 16.559,19.066 L12.25,19.062 C11.926,19.621 11.32,20 10.625,20 L9.375,20 C8.34,20 7.5,19.16 7.5,18.125 C7.5,17.09 8.34,16.25 9.375,16.25 L10.625,16.25 C11.32,16.25 11.926,16.629 12.25,17.188 L16.562,17.191 C17.426,17.191 18.125,16.492 18.125,15.629 L18.125,10 C18.125,5.512 14.488,1.875 10,1.875 Z M5.625,8.125 L6.25,8.125 C6.941,8.125 7.5,8.684 7.5,9.375 L7.5,13.75 C7.5,14.441 6.941,15 6.25,15 L5.625,15 C4.246,15 3.125,13.879 3.125,12.5 L3.125,10.625 C3.125,9.246 4.246,8.125 5.625,8.125 Z M14.375,8.125 C15.754,8.125 16.875,9.246 16.875,10.625 L16.875,12.5 C16.875,13.879 15.754,15 14.375,15 L13.75,15 C13.059,15 12.5,14.441 12.5,13.75 L12.5,9.375 C12.5,8.684 13.059,8.125 13.75,8.125 Z"/>
</svg>

