<svg xmlns="http://www.w3.org/2000/svg" width="16" height="16" viewBox="0 0 16 16">
  <defs/>
  <path d="M13.75,2 L11,2 L11,1.5 C11,0.672 10.328,0 9.5,0 L7.5,0 C6.672,0 6,0.672 6,1.5 L6,2 L3.25,2 C2.56,2 2,2.56 2,3.25 L2,4.25 C2,4.526 2.224,4.75 2.5,4.75 L14.5,4.75 C14.776,4.75 15,4.526 15,4.25 L15,3.25 C15,2.56 14.44,2 13.75,2 Z M7,1.5 C7,1.224 7.224,1 7.5,1 L9.5,1 C9.776,1 10,1.224 10,1.5 L10,2 L7,2 L7,1.5 Z"/>
  <path d="M2.941,5.75 C2.852,5.75 2.781,5.825 2.785,5.914 L3.198,14.571 C3.236,15.373 3.894,16 4.696,16 L12.289,16 C13.091,16 13.749,15.373 13.787,14.571 L14.2,5.914 C14.204,5.825 14.133,5.75 14.044,5.75 L2.941,5.75 Z M10.492,7 C10.492,6.724 10.716,6.5 10.992,6.5 C11.269,6.5 11.492,6.724 11.492,7 L11.492,13.5 C11.492,13.776 11.269,14 10.992,14 C10.716,14 10.492,13.776 10.492,13.5 L10.492,7 Z M7.993,7 C7.993,6.724 8.216,6.5 8.493,6.5 C8.769,6.5 8.993,6.724 8.993,7 L8.993,13.5 C8.993,13.776 8.769,14 8.493,14 C8.216,14 7.993,13.776 7.993,13.5 L7.993,7 Z M5.493,7 C5.493,6.724 5.716,6.5 5.993,6.5 C6.269,6.5 6.493,6.724 6.493,7 L6.493,13.5 C6.493,13.776 6.269,14 5.993,14 C5.716,14 5.493,13.776 5.493,13.5 L5.493,7 Z"/>
</svg>

