<svg xmlns="http://www.w3.org/2000/svg" width="16" height="16" viewBox="0 0 16 16">
  <defs/>
  <path d="M7.984,15.997 L4.087,15.997 C2.306,15.994 1.021,14.716 1.012,12.935 C1.009,12.313 1.009,11.691 1.012,11.069 C1.015,10.428 1.403,10.016 2,10.013 C2.596,10.01 2.987,10.422 2.993,11.063 C2.995,11.333 2.994,11.604 2.994,11.875 C2.993,12.237 2.993,12.6 2.996,12.963 C3.003,13.625 3.39,14.013 4.059,14.013 L11.956,14.013 C12.622,14.013 13.012,13.625 13.018,12.963 C13.02,12.693 13.019,12.423 13.019,12.153 L13.019,12.152 C13.018,11.79 13.018,11.426 13.021,11.063 C13.025,10.422 13.415,10.013 14.012,10.013 C14.609,10.013 15.003,10.425 14.997,11.069 C14.995,11.278 14.997,11.488 14.998,11.698 L14.998,11.698 C15.003,12.3 15.008,12.903 14.934,13.494 C14.747,14.957 13.503,15.988 12.021,15.994 C11.057,16.001 10.096,15.999 9.136,15.998 L9.136,15.998 C8.752,15.998 8.368,15.997 7.984,15.997 Z"/>
  <path d="M7.01,3.412 C6.86,3.553 6.769,3.631 6.688,3.712 C6.054,4.353 5.426,4.997 4.788,5.631 C4.335,6.084 3.707,6.115 3.301,5.722 C2.894,5.328 2.91,4.678 3.354,4.228 C4.647,2.928 5.944,1.631 7.244,0.337 C7.447,0.136 7.675,0.024 7.907,0 L8.096,0 C8.328,0.024 8.556,0.136 8.757,0.337 C10.066,1.637 11.369,2.94 12.669,4.25 C13.097,4.681 13.101,5.331 12.7,5.719 C12.3,6.106 11.669,6.087 11.235,5.656 C10.588,5.012 9.954,4.359 9.313,3.712 C9.232,3.628 9.141,3.55 9.01,3.428 C9.001,3.606 8.991,3.722 8.991,3.84 C8.991,4.351 8.991,4.862 8.992,5.372 L8.992,5.373 C8.992,6.907 8.993,8.442 8.988,9.975 C8.985,10.744 8.313,11.2 7.61,10.925 C7.222,10.775 7.01,10.437 7.01,9.944 C7.007,7.922 7.007,5.9 7.01,3.875 Z"/>
</svg>

