<svg xmlns="http://www.w3.org/2000/svg" width="16" height="16" viewBox="0 0 16 16">
  <defs/>
  <path d="M2,11 L6,11 C6,12.103 6.897,13 8,13 C9.103,13 10,12.103 10,11 L14,11 C15.103,11 16,11.897 16,13 L16,14 C16,15.094 15.119,15.985 14.029,16 L1.971,16 C0.881,15.985 0,15.094 0,14 L0,13 C0,11.897 0.897,11 2,11 Z M9,3.416 L9,11 C9,11.553 8.553,12 8,12 C7.447,12 7,11.553 7,11 L7,3.416 L4.706,5.71 C4.316,6.1 3.681,6.1 3.291,5.71 C2.9,5.319 2.9,4.685 3.291,4.294 L7.291,0.294 C7.681,-0.097 8.316,-0.097 8.706,0.294 L12.706,4.294 C13.097,4.685 13.097,5.319 12.706,5.71 C12.316,6.1 11.681,6.1 11.291,5.71 Z M13.5,14.25 C13.699,14.25 13.89,14.171 14.03,14.031 C14.171,13.89 14.25,13.699 14.25,13.5 C14.25,13.301 14.171,13.111 14.03,12.97 C13.89,12.829 13.699,12.75 13.5,12.75 C13.301,12.75 13.11,12.829 12.97,12.97 C12.829,13.111 12.75,13.301 12.75,13.5 C12.75,13.699 12.829,13.89 12.97,14.031 C13.11,14.171 13.301,14.25 13.5,14.25 Z"/>
</svg>

