<svg xmlns="http://www.w3.org/2000/svg" width="16" height="16" viewBox="0 0 16 16">
  <defs/>
  <path d="M15.68,11.658 C16.596,13.242 15.436,15.255 13.589,15.255 L2.394,15.255 C0.994,15.255 0,14.11 0,12.858 L0,12.856 C0,12.456 0.101,12.046 0.323,11.658 L5.931,1.949 C6.844,0.345 9.159,0.345 10.075,1.949 Z M8.813,7.331 C8.833,6.886 8.876,6.438 8.896,5.987 C8.896,5.822 8.876,5.681 8.813,5.539 C8.629,5.134 8.204,4.93 7.776,5.032 C7.348,5.154 7.084,5.539 7.084,6.007 C7.107,6.29 7.127,6.576 7.147,6.86 C7.206,7.937 7.269,8.994 7.328,10.071 C7.351,10.436 7.634,10.7 8,10.7 C8.365,10.7 8.652,10.417 8.672,10.051 C8.672,9.83 8.672,9.626 8.691,9.402 C8.731,8.711 8.774,8.022 8.813,7.331 Z M8,13.101 C8.467,13.101 8.896,12.696 8.873,12.231 C8.892,11.721 8.487,11.316 8,11.316 C7.512,11.316 7.107,11.721 7.107,12.208 C7.107,12.696 7.512,13.101 8,13.101 Z"/>
</svg>

