<svg xmlns="http://www.w3.org/2000/svg" width="16" height="16" viewBox="0 0 16 16">
  <defs/>
  <path d="M8.001,1 C8.445,1 8.854,1.234 9.079,1.619 L15.829,13.119 C15.936,13.3 15.993,13.501 16,13.704 L16,13.796 C15.993,13.995 15.938,14.193 15.835,14.372 C15.613,14.759 15.198,15 14.751,15 L1.251,15 C0.804,15 0.388,14.759 0.166,14.372 C-0.055,13.984 -0.052,13.503 0.173,13.119 L6.923,1.619 C7.148,1.234 7.557,1 8.001,1 Z M8.001,5 C7.585,5 7.251,5.334 7.251,5.75 L7.251,9.25 C7.251,9.666 7.585,10 8.001,10 C8.416,10 8.751,9.666 8.751,9.25 L8.751,5.75 C8.751,5.334 8.416,5 8.001,5 Z M9.001,12 C9.001,11.735 8.895,11.48 8.708,11.293 C8.52,11.105 8.266,11 8.001,11 C7.736,11 7.481,11.105 7.294,11.293 C7.106,11.48 7.001,11.735 7.001,12 C7.001,12.265 7.106,12.52 7.294,12.707 C7.481,12.895 7.736,13 8.001,13 C8.266,13 8.52,12.895 8.708,12.707 C8.895,12.52 9.001,12.265 9.001,12 Z"/>
</svg>

