<svg width="24" height="24" viewBox="0 0 16 16" fill="none" xmlns="http://www.w3.org/2000/svg">
  <path d="M8 15.5C9.98912 15.5 11.8968 14.7098 13.3033 13.3033C14.7098 11.8968 15.5 9.98912 15.5 8C15.5 6.01088 14.7098 4.10322 13.3033 2.6967C11.8968 1.29018 9.98912 0.5 8 0.5C6.01088 0.5 4.10322 1.29018 2.6967 2.6967C1.29018 4.10322 0.5 6.01088 0.5 8C0.5 9.98912 1.29018 11.8968 2.6967 13.3033C4.10322 14.7098 6.01088 15.5 8 15.5ZM8 4.25C8.38965 4.25 8.70312 4.56348 8.70312 4.95312V8.23438C8.70312 8.62402 8.38965 8.9375 8 8.9375C7.61035 8.9375 7.29688 8.62402 7.29688 8.23438V4.95312C7.29688 4.56348 7.61035 4.25 8 4.25ZM7.0625 10.8125C7.0625 10.5639 7.16127 10.3254 7.33709 10.1496C7.5129 9.97377 7.75136 9.875 8 9.875C8.24864 9.875 8.4871 9.97377 8.66291 10.1496C8.83873 10.3254 8.9375 10.5639 8.9375 10.8125C8.9375 11.0611 8.83873 11.2996 8.66291 11.4754C8.4871 11.6512 8.24864 11.75 8 11.75C7.75136 11.75 7.5129 11.6512 7.33709 11.4754C7.16127 11.2996 7.0625 11.0611 7.0625 10.8125Z" fill="#B73333"/>
</svg>
