<svg xmlns="http://www.w3.org/2000/svg" width="16" height="16" viewBox="0 0 16 16">
  <defs/>
  <path d="M8,15.5 C6.011,15.5 4.103,14.71 2.697,13.303 C1.29,11.897 0.5,9.989 0.5,8 C0.5,6.011 1.29,4.103 2.697,2.697 C4.103,1.29 6.011,0.5 8,0.5 C9.989,0.5 11.897,1.29 13.303,2.697 C14.71,4.103 15.5,6.011 15.5,8 C15.5,9.989 14.71,11.897 13.303,13.303 C11.897,14.71 9.989,15.5 8,15.5 Z M8,4.25 C7.61,4.25 7.297,4.563 7.297,4.953 L7.297,8.234 C7.297,8.624 7.61,8.938 8,8.938 C8.39,8.938 8.703,8.624 8.703,8.234 L8.703,4.953 C8.703,4.563 8.39,4.25 8,4.25 Z M7.062,10.812 C7.062,11.061 7.161,11.3 7.337,11.475 C7.513,11.651 7.751,11.75 8,11.75 C8.249,11.75 8.487,11.651 8.663,11.475 C8.839,11.3 8.938,11.061 8.938,10.812 C8.938,10.564 8.839,10.325 8.663,10.15 C8.487,9.974 8.249,9.875 8,9.875 C7.751,9.875 7.513,9.974 7.337,10.15 C7.161,10.325 7.062,10.564 7.062,10.812 Z"/>
</svg>

