<svg xmlns="http://www.w3.org/2000/svg" width="36" height="36" viewBox="0 0 36 36">
  <defs/>
  <path d="M8,0 L28,0 A8 8 0 0 1 36,8 L36,28 A8 8 0 0 1 28,36 L8,36 A8 8 0 0 1 0,28 L0,8 A8 8 0 0 1 8,0 Z"/>
  <path d="M26.984,9.159 C27.821,9.159 28.5,9.838 28.5,10.675 L28.5,13.443 L7.5,13.443 L7.5,10.675 C7.5,9.838 8.179,9.159 9.016,9.159 Z M15.601,11.955 C15.965,11.955 16.26,11.66 16.26,11.296 C16.26,10.933 15.965,10.638 15.601,10.638 C15.238,10.638 14.943,10.933 14.943,11.296 C14.943,11.66 15.238,11.955 15.601,11.955 Z M10.128,11.955 C10.492,11.955 10.787,11.66 10.787,11.296 C10.787,10.933 10.492,10.638 10.128,10.638 C9.765,10.638 9.47,10.933 9.47,11.296 C9.47,11.66 9.765,11.955 10.128,11.955 Z M12.804,11.955 C13.168,11.955 13.462,11.66 13.462,11.296 C13.462,10.933 13.168,10.638 12.804,10.638 C12.441,10.638 12.146,10.933 12.146,11.296 C12.146,11.66 12.441,11.955 12.804,11.955 Z"/>
  <path d="M7.5,14.751 L28.5,14.751 L28.5,25.323 C28.5,26.16 27.821,26.839 26.984,26.839 L9.016,26.839 C8.179,26.839 7.5,26.16 7.5,25.323 L7.5,14.751 Z"/>
</svg>

