<svg xmlns="http://www.w3.org/2000/svg" width="16" height="16" viewBox="0 0 16 16">
  <defs/>
  <path d="M8,16 C5.878,16 3.843,15.157 2.343,13.657 C0.843,12.157 0,10.122 0,8 C0,5.878 0.843,3.843 2.343,2.343 C3.843,0.843 5.878,0 8,0 C10.122,0 12.157,0.843 13.657,2.343 C15.157,3.843 16,5.878 16,8 C16,10.122 15.157,12.157 13.657,13.657 C12.157,15.157 10.122,16 8,16 Z M5.75,7.25 C5.334,7.25 5,7.584 5,8 C5,8.416 5.334,8.75 5.75,8.75 L10.25,8.75 C10.666,8.75 11,8.416 11,8 C11,7.584 10.666,7.25 10.25,7.25 Z"/>
</svg>

