<svg width="20" height="20" viewBox="0 0 20 20" fill="none" xmlns="http://www.w3.org/2000/svg">
<g clip-path="url(#clip0_8_44871)">
<path d="M20 6.65498V17.7172C19.9994 18.3064 19.7651 18.8713 19.3485 19.2879C18.9319 19.7045 18.367 19.9388 17.7778 19.9394H14.0741C13.6812 19.9394 13.3043 19.7833 13.0265 19.5055C12.7487 19.2277 12.5926 18.8509 12.5926 18.4579V14.3839C12.5926 14.1874 12.5146 13.999 12.3756 13.8601C12.2367 13.7212 12.0483 13.6431 11.8519 13.6431H8.14815C7.95169 13.6431 7.76328 13.7212 7.62437 13.8601C7.48545 13.999 7.40741 14.1874 7.40741 14.3839V18.4579C7.40741 18.8509 7.25132 19.2277 6.97349 19.5055C6.69566 19.7833 6.31884 19.9394 5.92593 19.9394H2.22222C1.63303 19.9388 1.06814 19.7045 0.651524 19.2879C0.234904 18.8713 0.000588307 18.3064 0 17.7172V6.65498C0.00055429 6.39916 0.0670316 6.1478 0.193018 5.92515C0.319004 5.7025 0.500247 5.51608 0.719259 5.38387L9.23778 0.27276C9.46807 0.134539 9.7316 0.0615234 10.0002 0.0615234C10.2688 0.0615234 10.5323 0.134539 10.7626 0.27276L19.2811 5.38387C19.5001 5.51612 19.6812 5.70257 19.8071 5.92521C19.9331 6.14786 19.9995 6.39919 20 6.65498Z" fill="white"/>
</g>
<defs>
<clipPath id="clip0_8_44871">
<rect width="20" height="20" fill="white"/>
</clipPath>
</defs>
</svg>
