<svg width="20" height="20" viewBox="0 0 20 20" fill="none" xmlns="http://www.w3.org/2000/svg">
<g clip-path="url(#clip0_8_44894)">
<path d="M17.9114 1.08148C17.6379 0.42457 17.0011 0 16.2892 0H3.7107C2.99887 0 2.36203 0.42457 2.08852 1.08148L1.07422 3.51562H18.9257L17.9114 1.08148Z" fill="white"/>
<path d="M20 6.52344C20 6.28941 19.9548 6.06223 19.8655 5.84824C19.8653 5.84762 19.8648 5.84711 19.8645 5.84645L19.4141 4.76562H0.585938L0.135039 5.84766C0.0451953 6.06223 0 6.28941 0 6.52344V8.86719C0 9.31902 0.176094 9.72734 0.457188 10.0391C0.176094 10.3508 0 10.7591 0 11.2109V13.5547C0 14.0065 0.176094 14.4148 0.457188 14.7266C0.176094 15.0383 0 15.4466 0 15.8984V18.2422C0 19.2115 0.788516 20 1.75781 20H18.2422C19.2115 20 20 19.2115 20 18.2422V15.8984C20 15.4466 19.8239 15.0383 19.5428 14.7266C19.8239 14.4148 20 14.0065 20 13.5547V11.2109C20 10.7591 19.8239 10.3508 19.5428 10.0391C19.8239 9.72734 20 9.31902 20 8.86719V6.52344ZM2.92969 17.6562C2.60609 17.6562 2.34375 17.3939 2.34375 17.0703C2.34375 16.7466 2.60609 16.4844 2.92969 16.4844C3.25328 16.4844 3.51562 16.7466 3.51562 17.0703C3.51562 17.3939 3.25328 17.6562 2.92969 17.6562ZM2.92969 12.9688C2.60609 12.9688 2.34375 12.7064 2.34375 12.3828C2.34375 12.0591 2.60609 11.7969 2.92969 11.7969C3.25328 11.7969 3.51562 12.0591 3.51562 12.3828C3.51562 12.7064 3.25328 12.9688 2.92969 12.9688ZM2.92969 8.28125C2.60609 8.28125 2.34375 8.01891 2.34375 7.69531C2.34375 7.37164 2.60609 7.10938 2.92969 7.10938C3.25328 7.10938 3.51562 7.37164 3.51562 7.69531C3.51562 8.01891 3.25328 8.28125 2.92969 8.28125ZM17.0703 17.6562H6.44531C5.67293 17.6562 5.66977 16.4844 6.44531 16.4844H17.0703C17.8427 16.4844 17.8459 17.6562 17.0703 17.6562ZM17.0703 12.9688H6.44531C5.67293 12.9688 5.66977 11.7969 6.44531 11.7969H17.0703C17.8427 11.7969 17.8459 12.9688 17.0703 12.9688ZM17.0703 8.28125H6.44531C5.67293 8.28125 5.66977 7.10938 6.44531 7.10938H17.0703C17.8427 7.10938 17.8459 8.28125 17.0703 8.28125Z" fill="white"/>
</g>
<defs>
<clipPath id="clip0_8_44894">
<rect width="20" height="20" fill="white"/>
</clipPath>
</defs>
</svg>
