<svg width="20" height="20" viewBox="0 0 20 20" fill="none" xmlns="http://www.w3.org/2000/svg">
<g clip-path="url(#clip0_8_44930)">
<path d="M3.75 5.20801V1.45801C3.75 1.24134 3.775 1.03301 3.83333 0.833008H1.45833C0.658333 0.833008 0 1.49134 0 2.29134V6.04134C0 6.84134 0.658333 7.49967 1.45833 7.49967H1.76667L2.83333 8.91634C2.95 9.06634 3.125 9.15801 3.30833 9.16634H3.33333C3.51667 9.16634 3.68333 9.09134 3.8 8.94967L5.05 7.52467C4.275 7.04134 3.75 6.18301 3.75 5.20801Z" fill="white"/>
<path d="M18.5409 0.833008H16.1659C16.2242 1.03301 16.2492 1.24134 16.2492 1.45801V5.20801C16.2492 6.18301 15.7242 7.04134 14.9492 7.52467L16.1992 8.94967C16.3159 9.09134 16.4826 9.16634 16.6659 9.16634H16.6909C16.8742 9.15801 17.0492 9.06634 17.1659 8.91634L18.2242 7.49967H18.5409C19.3409 7.49967 19.9992 6.84134 19.9992 6.04134V2.29134C19.9992 1.49134 19.3409 0.833008 18.5409 0.833008Z" fill="white"/>
<path d="M10 8.33333C9.9925 8.33333 9.98417 8.33333 9.97667 8.33333C9.78833 8.32583 9.61333 8.23417 9.5 8.08333L8.4375 6.66667H6.45833C5.65417 6.66667 5 6.0125 5 5.20833V1.45833C5 0.654167 5.65417 0 6.45833 0H13.5417C14.3458 0 15 0.654167 15 1.45833V5.20833C15 6.0125 14.3458 6.66667 13.5417 6.66667H11.7417L10.47 8.12C10.3517 8.25583 10.18 8.33333 10 8.33333Z" fill="white"/>
<path d="M3.33268 14.1663C4.25316 14.1663 4.99935 13.4201 4.99935 12.4997C4.99935 11.5792 4.25316 10.833 3.33268 10.833C2.41221 10.833 1.66602 11.5792 1.66602 12.4997C1.66602 13.4201 2.41221 14.1663 3.33268 14.1663Z" fill="white"/>
<path d="M5.55833 15.3333C4.71667 15.9667 4.16667 16.9833 4.16667 18.125V18.3333H0.625C0.283333 18.3333 0 18.05 0 17.7083V17.2917C0 16.025 1.025 15 2.29167 15H4.375C4.80833 15 5.21667 15.125 5.55833 15.3333Z" fill="white"/>
<path d="M16.6667 14.1663C17.5871 14.1663 18.3333 13.4201 18.3333 12.4997C18.3333 11.5792 17.5871 10.833 16.6667 10.833C15.7462 10.833 15 11.5792 15 12.4997C15 13.4201 15.7462 14.1663 16.6667 14.1663Z" fill="white"/>
<path d="M19.9997 17.2917V17.7083C19.9997 18.05 19.7164 18.3333 19.3747 18.3333H15.8331V18.125C15.8331 16.9833 15.2831 15.9667 14.4414 15.3333C14.7831 15.125 15.1914 15 15.6247 15H17.7081C18.9747 15 19.9997 16.025 19.9997 17.2917Z" fill="white"/>
<path d="M10 14.583C11.3807 14.583 12.5 13.4637 12.5 12.083C12.5 10.7023 11.3807 9.58301 10 9.58301C8.61929 9.58301 7.5 10.7023 7.5 12.083C7.5 13.4637 8.61929 14.583 10 14.583Z" fill="white"/>
<path d="M12.291 15.833H7.70768C6.44352 15.833 5.41602 16.8605 5.41602 18.1247V19.3747C5.41602 19.7197 5.69602 19.9997 6.04102 19.9997H13.9577C14.3027 19.9997 14.5827 19.7197 14.5827 19.3747V18.1247C14.5827 16.8605 13.5552 15.833 12.291 15.833Z" fill="white"/>
</g>
<defs>
<clipPath id="clip0_8_44930">
<rect width="20" height="20" fill="white"/>
</clipPath>
</defs>
</svg>
