<svg width="20" height="20" viewBox="0 0 20 20" fill="none" xmlns="http://www.w3.org/2000/svg">
<g clip-path="url(#clip0_8_44885)">
<path d="M12.3023 9.65612C11.8468 9.91545 11.3501 10.0947 10.834 10.1861V19.8953C11.2732 19.8098 11.6954 19.653 12.084 19.4311L17.1065 16.532C17.7391 16.1652 18.2644 15.6388 18.63 15.0055C18.9956 14.3722 19.1886 13.654 19.1898 12.9228V7.12279C19.1872 6.67763 19.1126 6.23582 18.969 5.81445L12.3023 9.65612Z" fill="white"/>
<path d="M8.53536 8.21392C8.98169 8.47063 9.48756 8.60574 10.0024 8.60574C10.5173 8.60574 11.0232 8.47063 11.4695 8.21392L18.1362 4.37225C17.8409 4.03299 17.4925 3.74394 17.1045 3.51642L12.0837 0.613918C11.4499 0.249436 10.7315 0.0576172 10.0004 0.0576172C9.26921 0.0576172 8.55086 0.249436 7.91703 0.613918L2.89453 3.51392C2.52041 3.733 2.18297 4.00941 1.89453 4.33308L8.53536 8.21392Z" fill="white"/>
<path d="M9.16638 10.1862C8.64991 10.095 8.15296 9.91572 7.69721 9.6562L1.04721 5.76953C0.893319 6.20426 0.813324 6.6617 0.810547 7.12286V12.9229C0.811765 13.6541 1.0048 14.3723 1.37037 15.0056C1.73595 15.6389 2.26127 16.1652 2.89388 16.532L7.91638 19.4312C8.30494 19.6531 8.72719 19.8099 9.16638 19.8954V10.1862Z" fill="white"/>
</g>
<defs>
<clipPath id="clip0_8_44885">
<rect width="20" height="20" fill="white"/>
</clipPath>
</defs>
</svg>
