<svg width="28" height="28" viewBox="0 0 28 28" fill="none" xmlns="http://www.w3.org/2000/svg">
<g clip-path="url(#clip0_54_21023)">
<g clip-path="url(#clip1_54_21023)">
<path d="M13.8007 13.4877C15.6537 13.4877 17.2582 12.8231 18.5692 11.5119C19.8802 10.2009 20.5447 8.5968 20.5447 6.74363C20.5447 4.89109 19.8802 3.28679 18.569 1.97536C17.2577 0.664579 15.6534 0 13.8007 0C11.9475 0 10.3434 0.664579 9.03243 1.97558C7.72143 3.28658 7.05664 4.89088 7.05664 6.74363C7.05664 8.5968 7.72143 10.2011 9.03265 11.5121C10.3439 12.8229 11.9482 13.4877 13.8007 13.4877Z" fill="white"/>
<path d="M25.6007 21.5309C25.5629 20.9853 25.4864 20.3901 25.3738 19.7617C25.2602 19.1285 25.1139 18.5299 24.9387 17.9828C24.7578 17.4174 24.5117 16.859 24.2075 16.3238C23.8917 15.7684 23.5209 15.2848 23.1047 14.8868C22.6696 14.4705 22.1368 14.1357 21.5207 13.8915C20.9068 13.6487 20.2264 13.5256 19.4986 13.5256C19.2128 13.5256 18.9363 13.6429 18.4025 13.9904C18.0739 14.2047 17.6896 14.4525 17.2607 14.7266C16.8939 14.9603 16.397 15.1793 15.7833 15.3775C15.1845 15.5713 14.5765 15.6695 13.9765 15.6695C13.3764 15.6695 12.7686 15.5713 12.1692 15.3775C11.5561 15.1795 11.0592 14.9605 10.6929 14.7268C10.268 14.4553 9.88345 14.2075 9.54999 13.9902C9.01679 13.6427 8.74015 13.5254 8.45432 13.5254C7.7263 13.5254 7.04612 13.6487 6.43239 13.8918C5.81673 14.1355 5.28374 14.4702 4.84817 14.887C4.43224 15.2852 4.06118 15.7686 3.74587 16.3238C3.44189 16.859 3.1958 17.4172 3.01465 17.983C2.83969 18.5301 2.69336 19.1285 2.57971 19.7617C2.46713 20.3893 2.39066 20.9847 2.35284 21.5315C2.31567 22.0673 2.29688 22.6233 2.29688 23.185C2.29688 24.6466 2.7615 25.8298 3.67773 26.7025C4.58263 27.5636 5.77999 28.0004 7.23603 28.0004H20.7182C22.1742 28.0004 23.3711 27.5638 24.2763 26.7025C25.1927 25.8305 25.6573 24.647 25.6573 23.1847C25.6571 22.6206 25.6381 22.0641 25.6007 21.5309Z" fill="white"/>
</g>
</g>
<defs>
<clipPath id="clip0_54_21023">
<rect width="28" height="28" fill="white"/>
</clipPath>
<clipPath id="clip1_54_21023">
<rect width="27.9999" height="28" fill="white"/>
</clipPath>
</defs>
</svg>
