<svg width="20" height="20" viewBox="0 0 20 20" fill="none" xmlns="http://www.w3.org/2000/svg">
<path d="M1.33877 15C2.02807 16.1963 3.5567 16.6073 4.75303 15.918C4.75385 15.9176 4.75463 15.9171 4.75545 15.9166L5.12627 15.7025C5.82627 16.3014 6.63088 16.7658 7.49959 17.0725V17.5C7.49959 18.8807 8.61889 20 9.99959 20C11.3803 20 12.4996 18.8807 12.4996 17.5V17.0725C13.3684 16.7654 14.1731 16.3004 14.8729 15.7008L15.2454 15.9158C16.442 16.6062 17.9717 16.1958 18.6621 14.9991C19.3524 13.8025 18.9421 12.2728 17.7454 11.5825L17.3754 11.3691C17.542 10.4629 17.542 9.53379 17.3754 8.62746L17.7454 8.41414C18.942 7.72379 19.3524 6.1941 18.6621 4.99746C17.9717 3.80086 16.4421 3.39043 15.2454 4.08078L14.8746 4.29496C14.1739 3.6968 13.3687 3.2332 12.4996 2.9275V2.5C12.4996 1.1193 11.3803 0 9.99959 0C8.61889 0 7.49959 1.1193 7.49959 2.5V2.9275C6.63076 3.23465 5.82612 3.69965 5.12627 4.29918L4.75377 4.08336C3.55713 3.39297 2.02744 3.8034 1.33709 5C0.646742 6.1966 1.05713 7.72633 2.25377 8.41668L2.62377 8.63C2.45721 9.53629 2.45721 10.4654 2.62377 11.3717L2.25377 11.585C1.06045 12.2772 0.65139 13.8039 1.33877 15ZM9.99959 6.66668C11.8405 6.66668 13.3329 8.15906 13.3329 10C13.3329 11.8409 11.8405 13.3333 9.99959 13.3333C8.15866 13.3333 6.66627 11.8409 6.66627 10C6.66627 8.15906 8.15866 6.66668 9.99959 6.66668Z" fill="white"/>
</svg>
