<svg width="20" height="20" viewBox="0 0 20 20" fill="none" xmlns="http://www.w3.org/2000/svg">
<g clip-path="url(#clip0_8_44879)">
<path d="M3.0324 7.49993C2.5174 7.49993 2.1174 7.03493 2.20823 6.52826C2.5074 4.86076 3.33823 3.31076 4.5874 2.13993C6.1999 0.627425 8.30574 -0.126741 10.5257 0.0174252C14.7099 0.287425 17.9782 3.92993 17.9166 8.28159C17.8832 10.6299 15.9257 12.5008 13.5766 12.5008H11.1332C10.8332 12.7891 10.4282 12.9683 9.9799 12.9683C9.05907 12.9683 8.31324 12.2224 8.31324 11.3016C8.31324 10.3808 9.05907 9.63493 9.9799 9.63493C10.7366 9.63493 11.3682 10.1424 11.5716 10.8341H13.5766C15.0232 10.8341 16.2341 9.68159 16.2499 8.23576C16.2882 4.78076 13.7124 1.89493 10.4182 1.68159C8.66907 1.57326 7.00073 2.16326 5.72657 3.35743C4.71907 4.30159 4.0699 5.51076 3.8424 6.83909C3.77573 7.22743 3.42573 7.50159 3.0324 7.50159V7.49993ZM10.0007 14.1666C6.92157 14.1666 4.2574 16.0766 3.37157 18.9183C3.2924 19.1716 3.33823 19.4474 3.49573 19.6608C3.65323 19.8741 3.9024 19.9999 4.1674 19.9999H15.8341C16.0991 19.9999 16.3482 19.8741 16.5057 19.6608C16.6632 19.4474 16.7091 19.1716 16.6299 18.9183C15.7441 16.0766 13.0799 14.1666 10.0007 14.1666ZM12.4457 9.16659H14.4074C14.5199 8.76909 14.5841 8.35076 14.5841 7.91659C14.5841 5.38493 12.5324 3.33326 10.0007 3.33326C7.46907 3.33326 5.4174 5.38493 5.4174 7.91659C5.4174 9.15909 5.91407 10.2841 6.71657 11.1099C6.8174 9.38826 8.2324 8.01909 9.9799 8.01909C10.9724 8.01909 11.8474 8.46993 12.4466 9.16659H12.4457Z" fill="white"/>
</g>
<defs>
<clipPath id="clip0_8_44879">
<rect width="20" height="20" fill="white"/>
</clipPath>
</defs>
</svg>
