<svg width="16" height="16" viewBox="0 0 16 16" fill="none" xmlns="http://www.w3.org/2000/svg">
<path d="M7.99947 10.6671C7.91174 10.6676 7.82476 10.6508 7.74354 10.6176C7.66231 10.5845 7.58843 10.5356 7.52614 10.4738L3.52614 6.47378C3.4006 6.34825 3.33008 6.17798 3.33008 6.00045C3.33008 5.82291 3.4006 5.65265 3.52614 5.52712C3.65168 5.40158 3.82194 5.33105 3.99947 5.33105C4.17701 5.33105 4.34727 5.40158 4.47281 5.52712L7.99947 9.06045L11.5261 5.53378C11.6537 5.42457 11.8177 5.36749 11.9855 5.37397C12.1533 5.38046 12.3125 5.45001 12.4312 5.56874C12.5499 5.68747 12.6195 5.84663 12.6259 6.01441C12.6324 6.1822 12.5754 6.34625 12.4661 6.47378L8.46614 10.4738C8.34197 10.5969 8.17437 10.6664 7.99947 10.6671Z" fill="#8B97A4"/>
</svg>
