<svg width="16" height="16" viewBox="0 0 16 16" fill="none" xmlns="http://www.w3.org/2000/svg">
<path d="M12.6673 3.33301H12.0007V1.99967C12.0007 1.82286 11.9304 1.65329 11.8054 1.52827C11.6804 1.40325 11.5108 1.33301 11.334 1.33301C11.1572 1.33301 10.9876 1.40325 10.8626 1.52827C10.7376 1.65329 10.6673 1.82286 10.6673 1.99967V3.33301H5.33398V1.99967C5.33398 1.82286 5.26375 1.65329 5.13872 1.52827C5.0137 1.40325 4.84413 1.33301 4.66732 1.33301C4.49051 1.33301 4.32094 1.40325 4.19591 1.52827C4.07089 1.65329 4.00065 1.82286 4.00065 1.99967V3.33301H3.33398C2.80355 3.33301 2.29484 3.54372 1.91977 3.91879C1.5447 4.29387 1.33398 4.80257 1.33398 5.33301V5.99967H14.6673V5.33301C14.6673 4.80257 14.4566 4.29387 14.0815 3.91879C13.7065 3.54372 13.1978 3.33301 12.6673 3.33301Z" fill="#8B97A4"/>
<path d="M1.33398 12.6663C1.33398 13.1968 1.5447 13.7055 1.91977 14.0806C2.29484 14.4556 2.80355 14.6663 3.33398 14.6663H12.6673C13.1978 14.6663 13.7065 14.4556 14.0815 14.0806C14.4566 13.7055 14.6673 13.1968 14.6673 12.6663V7.33301H1.33398V12.6663Z" fill="#8B97A4"/>
</svg>
