<svg width="28" height="32" viewBox="0 0 28 32" fill="none" xmlns="http://www.w3.org/2000/svg">
<g clip-path="url(#clip0_9_2529)">
<path d="M14 1.33333C14.6912 1.33333 15.3475 1.48889 15.7981 1.76L24.8675 7.22667C25.8213 7.8 26.6919 9.37778 26.6919 10.5378V21.4667C26.6919 22.6222 25.8213 24.2044 24.8675 24.7778L15.7981 30.2444C15.3475 30.5156 14.6956 30.6711 14.0044 30.6711C13.3131 30.6711 12.6569 30.5156 12.2106 30.2444L3.13688 24.7733C2.18313 24.2 1.3125 22.6222 1.3125 21.4622V10.5333C1.3125 9.37778 2.18313 7.79556 3.13688 7.22222L12.2063 1.76C12.6569 1.48889 13.3088 1.33333 14 1.33333ZM14 0C13.1075 0 12.2106 0.204444 11.5325 0.613333L2.4675 6.07556C1.11125 6.89333 0 8.90222 0 10.5333V21.4622C0 23.0978 1.11125 25.1067 2.4675 25.92L11.5369 31.3867C12.215 31.7956 13.1075 32 14.0044 32C14.9012 32 15.7938 31.7956 16.4719 31.3867L25.5413 25.92C26.8975 25.1022 28.0087 23.0978 28.0087 21.4622V10.5333C28.0087 8.89778 26.8975 6.89333 25.5413 6.07556L16.4675 0.613333C15.7894 0.204444 14.8925 0 14 0Z" fill="#24384A"/>
<path d="M12.7322 23.9822L10.8553 23.4311C10.6584 23.3733 10.5491 23.1644 10.6016 22.9644L14.8016 8.27109C14.8584 8.07109 15.0641 7.95998 15.2609 8.01331L17.1378 8.56443C17.3347 8.6222 17.4441 8.83109 17.3916 9.03109L13.1916 23.7244C13.1347 23.9244 12.9291 24.04 12.7322 23.9822ZM9.22344 20.4755L10.5622 19.0266C10.7022 18.8755 10.6934 18.6311 10.5359 18.4889L7.74906 16L10.5359 13.5111C10.6934 13.3689 10.7066 13.1289 10.5622 12.9733L9.22344 11.5244C9.08344 11.3733 8.85156 11.3644 8.69844 11.5066L4.26656 15.7244C4.10906 15.8711 4.10906 16.1244 4.26656 16.2711L8.69844 20.4933C8.84719 20.6355 9.08344 20.6311 9.22344 20.4755ZM19.2903 20.4933L23.7222 16.2711C23.8797 16.1244 23.8797 15.8711 23.7222 15.7244L19.2903 11.4978C19.1416 11.3555 18.9097 11.3644 18.7653 11.5155L17.4266 12.9644C17.2866 13.1155 17.2953 13.36 17.4528 13.5022L20.2397 15.9955L17.4528 18.4844C17.2953 18.6266 17.2822 18.8666 17.4266 19.0222L18.7653 20.4711C18.9053 20.6222 19.1372 20.6311 19.2903 20.4889V20.4933Z" fill="#24384A"/>
</g>
<defs>
<clipPath id="clip0_9_2529">
<rect width="28" height="32" fill="white"/>
</clipPath>
</defs>
</svg>
