<svg width="16" height="16" viewBox="0 0 16 16" fill="none" xmlns="http://www.w3.org/2000/svg">
<g clip-path="url(#clip0_9_7498)">
<path d="M6.48962 12.9996C4.92761 12.9996 3.65625 11.7283 3.65625 10.1663V3.33301H2.48962C1.47827 3.33301 0.65625 4.15491 0.65625 5.16626V14.1663C0.65625 15.1776 1.47827 15.9996 2.48962 15.9996H10.8229C11.8342 15.9996 12.6562 15.1776 12.6562 14.1663V12.9996H6.48962Z" fill="#24384A"/>
<path d="M15.3229 1.83337C15.3229 0.820679 14.5022 0 13.4896 0H6.48962C5.47693 0 4.65625 0.820679 4.65625 1.83337V10.1666C4.65625 11.1793 5.47693 12 6.48962 12H13.4896C14.5022 12 15.3229 11.1793 15.3229 10.1666V1.83337Z" fill="#24384A"/>
</g>
<defs>
<clipPath id="clip0_9_7498">
<rect width="16" height="16" fill="white"/>
</clipPath>
</defs>
</svg>
