<svg width="20" height="20" viewBox="0 0 20 20" fill="none" xmlns="http://www.w3.org/2000/svg">
<path d="M3.33332 0H5.83332C7.67426 0 9.16664 1.49238 9.16664 3.33332V5.83332C9.16664 7.67426 7.67426 9.16664 5.83332 9.16664H3.33332C1.49238 9.16668 0 7.6743 0 5.83332V3.33332C0 1.49238 1.49238 0 3.33332 0Z" fill="#24384A"/>
<path d="M14.1693 0H16.6693C18.5102 0 20.0026 1.49238 20.0026 3.33332V5.83332C20.0026 7.67426 18.5102 9.16664 16.6693 9.16664H14.1693C12.3283 9.16664 10.8359 7.67426 10.8359 5.83332V3.33332C10.8359 1.49238 12.3283 0 14.1693 0Z" fill="#24384A"/>
<path d="M3.33332 10.8359H5.83332C7.67426 10.8359 9.16664 12.3283 9.16664 14.1693V16.6693C9.16664 18.5102 7.67426 20.0026 5.83332 20.0026H3.33332C1.49238 20.0026 0 18.5102 0 16.6693V14.1693C0 12.3283 1.49238 10.8359 3.33332 10.8359Z" fill="#24384A"/>
<path d="M14.1693 10.8359H16.6693C18.5102 10.8359 20.0026 12.3283 20.0026 14.1693V16.6693C20.0026 18.5102 18.5102 20.0026 16.6693 20.0026H14.1693C12.3283 20.0026 10.8359 18.5102 10.8359 16.6693V14.1693C10.8359 12.3283 12.3283 10.8359 14.1693 10.8359Z" fill="#24384A"/>
</svg>
