<svg width="28" height="32" viewBox="0 0 28 32" fill="none" xmlns="http://www.w3.org/2000/svg">
<g clip-path="url(#clip0_9_2524)">
<path d="M14 1.33333C14.6912 1.33333 15.3475 1.48889 15.7981 1.76L24.8675 7.22667C25.8213 7.8 26.6919 9.37778 26.6919 10.5378V21.4667C26.6919 22.6222 25.8213 24.2044 24.8675 24.7778L15.7981 30.2444C15.3475 30.5156 14.6956 30.6711 14.0044 30.6711C13.3131 30.6711 12.6569 30.5156 12.2106 30.2444L3.13688 24.7733C2.18313 24.2 1.3125 22.6222 1.3125 21.4622V10.5333C1.3125 9.37778 2.18313 7.79556 3.13688 7.22222L12.2063 1.76C12.6569 1.48889 13.3088 1.33333 14 1.33333ZM14 0C13.1075 0 12.2106 0.204444 11.5325 0.613333L2.4675 6.07556C1.11125 6.89333 0 8.90222 0 10.5333V21.4622C0 23.0978 1.11125 25.1067 2.4675 25.92L11.5369 31.3867C12.215 31.7956 13.1075 32 14.0044 32C14.9012 32 15.7938 31.7956 16.4719 31.3867L25.5413 25.92C26.8975 25.1022 28.0087 23.0978 28.0087 21.4622V10.5333C28.0087 8.89778 26.8975 6.89333 25.5413 6.07556L16.4675 0.613333C15.7894 0.204444 14.8925 0 14 0Z" fill="#24384A"/>
<path d="M17.0188 12.1467V23.3333C17.0188 23.7022 17.3119 24 17.675 24H20.3438C20.7069 24 21 23.7022 21 23.3333V12.1467C21 11.7778 20.7069 11.48 20.3438 11.48H17.675C17.3119 11.48 17.0188 11.7778 17.0188 12.1467ZM12.6656 24H15.3344C15.6975 24 15.9906 23.7022 15.9906 23.3333V8.66667C15.9906 8.29778 15.6975 8 15.3344 8H12.6656C12.3025 8 12.0094 8.29778 12.0094 8.66667V23.3333C12.0094 23.7022 12.3025 24 12.6656 24ZM7.65625 24H10.325C10.6881 24 10.9813 23.7022 10.9813 23.3333V16.6667C10.9813 16.2978 10.6881 16 10.325 16H7.65625C7.29313 16 7 16.2978 7 16.6667V23.3333C7 23.7022 7.29313 24 7.65625 24Z" fill="#24384A"/>
</g>
<defs>
<clipPath id="clip0_9_2524">
<rect width="28" height="32" fill="white"/>
</clipPath>
</defs>
</svg>
