<svg width="16" height="16" viewBox="0 0 16 16" fill="none" xmlns="http://www.w3.org/2000/svg">
<path d="M2.09704 0H7.45051L11.9822 4.72797V13.9186C11.9822 15.0682 11.0504 16 9.90078 16H2.09704C0.947399 16 0.015625 15.0682 0.015625 13.9186V2.08141C0.015625 0.931794 0.947399 0 2.09704 0Z" fill="#337AB7"/>
<path opacity="0.302" fill-rule="evenodd" clip-rule="evenodd" d="M7.44336 0V4.68913H11.9815L7.44336 0Z" fill="white"/>
<path d="M1.94727 11.4162V8.76751H2.88553C3.07317 8.76751 3.2479 8.79555 3.40967 8.84732C3.57144 8.90124 3.7181 8.97889 3.84969 9.08243C3.98125 9.18596 4.0848 9.32401 4.16029 9.49656C4.23577 9.6691 4.27461 9.86754 4.27461 10.0919C4.27461 10.3162 4.23577 10.5146 4.16029 10.6872C4.0848 10.8597 3.98125 10.9978 3.84969 11.1013C3.71812 11.2048 3.57144 11.2825 3.40967 11.3364C3.2479 11.3882 3.07319 11.4162 2.88553 11.4162H1.94727ZM2.60944 10.8403H2.80572C2.91141 10.8403 3.01062 10.8274 3.09905 10.8036C3.18964 10.7778 3.27159 10.7368 3.34924 10.6828C3.42689 10.6289 3.48728 10.5513 3.53042 10.4499C3.57572 10.3507 3.59727 10.2299 3.59727 10.0919C3.59727 9.95382 3.5757 9.83303 3.53042 9.73165C3.48728 9.63243 3.42689 9.55478 3.34924 9.50086C3.27159 9.44478 3.18964 9.40597 3.09905 9.38007C3.01062 9.35634 2.91141 9.3434 2.80572 9.3434H2.60944V10.8403ZM5.88149 11.4464C5.48247 11.4464 5.15246 11.317 4.89148 11.0603C4.63049 10.8036 4.50107 10.4801 4.50107 10.0919C4.50107 9.70363 4.63049 9.38009 4.89148 9.12343C5.15246 8.86675 5.48247 8.73734 5.88149 8.73734C6.27405 8.73734 6.59975 8.86677 6.86073 9.12343C7.11956 9.38011 7.24898 9.70365 7.24898 10.0919C7.24898 10.4801 7.11956 10.8037 6.86073 11.0603C6.59975 11.317 6.27405 11.4464 5.88149 11.4464ZM5.37245 10.6505C5.50402 10.7972 5.67226 10.8705 5.87717 10.8705C6.08208 10.8705 6.24815 10.7972 6.37973 10.6505C6.5113 10.5017 6.57601 10.3162 6.57601 10.0919C6.57601 9.86754 6.5113 9.68204 6.37973 9.53321C6.24817 9.38654 6.08208 9.3132 5.87717 9.3132C5.67226 9.3132 5.50402 9.38654 5.37245 9.53321C5.24089 9.68204 5.17402 9.86754 5.17402 10.0919C5.17402 10.3162 5.24089 10.5017 5.37245 10.6505ZM8.82352 11.4464C8.43744 11.4464 8.11604 11.3256 7.86154 11.0884C7.60486 10.8489 7.47762 10.5168 7.47762 10.0919C7.47762 9.6691 7.60705 9.33693 7.86587 9.09751C8.12686 8.85809 8.44393 8.7373 8.82354 8.7373C9.16648 8.7373 9.44688 8.82142 9.66905 8.99182C9.88906 9.16006 10.0163 9.38438 10.0487 9.66477L9.38002 9.80066C9.35198 9.654 9.28511 9.53537 9.18159 9.44692C9.07806 9.35848 8.95727 9.3132 8.81921 9.3132C8.62941 9.3132 8.47194 9.38007 8.34469 9.51594C8.21743 9.65398 8.15271 9.84378 8.15271 10.0918C8.15271 10.3399 8.21743 10.5297 8.34252 10.6656C8.46978 10.8036 8.62724 10.8705 8.81919 10.8705C8.95723 10.8705 9.07588 10.8317 9.17293 10.754C9.26999 10.6764 9.33039 10.5729 9.35627 10.4434L10.04 10.5987C9.97747 10.8662 9.83941 11.0733 9.62373 11.2221C9.41021 11.3709 9.14275 11.4464 8.82352 11.4464Z" fill="white"/>
</svg>
