<svg width="16" height="16" viewBox="0 0 16 16" fill="none" xmlns="http://www.w3.org/2000/svg">
<path d="M6.5 8C6.5 8.827 7.173 9.5 8 9.5C8.827 9.5 9.5 8.827 9.5 8C9.5 7.173 8.827 6.5 8 6.5C7.173 6.5 6.5 7.173 6.5 8Z" fill="#24384A"/>
<path d="M6.5 13C6.5 13.827 7.173 14.5 8 14.5C8.827 14.5 9.5 13.827 9.5 13C9.5 12.173 8.827 11.5 8 11.5C7.173 11.5 6.5 12.173 6.5 13Z" fill="#24384A"/>
<path d="M6.5 3C6.5 3.827 7.173 4.5 8 4.5C8.827 4.5 9.5 3.827 9.5 3C9.5 2.173 8.827 1.5 8 1.5C7.173 1.5 6.5 2.173 6.5 3Z" fill="#24384A"/>
</svg>
