<svg width="16" height="16" viewBox="0 0 16 16" fill="none" xmlns="http://www.w3.org/2000/svg">
<g clip-path="url(#clip0_11_16636)">
<path d="M0.393693 8.94986L7.04914 15.6053C7.57406 16.1303 8.4254 16.1303 8.95033 15.6053C9.47525 15.0804 9.47525 14.2291 8.95033 13.7041L3.2461 7.99993L8.95033 2.29575C9.47525 1.77083 9.47525 0.919483 8.95033 0.39456C8.4254 -0.130365 7.57406 -0.130365 7.04914 0.39456L0.393693 7.05C-0.131231 7.57362 -0.131231 8.42494 0.393693 8.94986ZM8.3961 9.35288L13.68 14.9218C14.2109 15.4807 15.0709 15.4807 15.6018 14.9218C16.1327 14.363 16.1327 13.4563 15.6018 12.8968L11.2785 8.34034L15.6018 3.78391C16.1327 3.225 16.1327 2.31774 15.6018 1.75883C15.0709 1.19992 14.2109 1.19992 13.68 1.75883L8.3961 7.3278C7.86516 7.88668 7.86516 8.79332 8.3961 9.35288Z" fill="#24384A"/>
</g>
<defs>
<clipPath id="clip0_11_16636">
<rect width="16" height="16" fill="white" transform="matrix(-1 0 0 -1 16 16)"/>
</clipPath>
</defs>
</svg>
