<svg width="16" height="16" viewBox="0 0 16 16" fill="none" xmlns="http://www.w3.org/2000/svg">
<g clip-path="url(#clip0_11_15098)">
<path d="M7.98398 15.9971C6.68398 15.9971 5.38398 15.9971 4.08711 15.9971C2.30586 15.994 1.02148 14.7158 1.01211 12.9346C1.00898 12.3127 1.00898 11.6908 1.01211 11.069C1.01523 10.4283 1.40273 10.0158 1.99961 10.0127C2.59648 10.0096 2.98711 10.4221 2.99336 11.0627C2.99648 11.694 2.99023 12.3283 2.99648 12.9627C3.00273 13.6252 3.39023 14.0127 4.05898 14.0127H11.9559C12.6215 14.0127 13.0121 13.6252 13.0184 12.9627C13.0215 12.3315 13.0152 11.6971 13.0215 11.0627C13.0246 10.4221 13.4152 10.0127 14.0121 10.0127C14.609 10.0127 15.0027 10.4252 14.9965 11.069C14.9902 11.8783 15.034 12.6971 14.934 13.494C14.7465 14.9565 13.5027 15.9877 12.0215 15.994C10.6715 16.0033 9.32773 15.9971 7.98398 15.9971Z" fill="#337AB7"/>
<path d="M8.99596 7.58867C9.14596 7.44805 9.23659 7.36992 9.31784 7.28867C9.95221 6.64805 10.5803 6.0043 11.2178 5.36992C11.671 4.9168 12.2991 4.88555 12.7053 5.2793C13.1116 5.67305 13.096 6.32305 12.6522 6.77305C11.3585 8.07305 10.0616 9.36992 8.76159 10.6637C8.30221 11.1199 7.70534 11.1199 7.24909 10.6637C5.93971 9.36367 4.63659 8.06055 3.33659 6.75117C2.90846 6.31992 2.90534 5.66992 3.30534 5.28242C3.70534 4.89492 4.33659 4.91367 4.77096 5.34492C5.41784 5.98867 6.05221 6.6418 6.69284 7.28867C6.77409 7.37305 6.86471 7.45117 6.99596 7.57305C7.00534 7.39492 7.01471 7.2793 7.01471 7.16055C7.01471 5.1168 7.01159 3.06992 7.01784 1.02617C7.02096 0.257421 7.69284 -0.198828 8.39596 0.0761719C8.78346 0.226171 8.99596 0.563672 8.99596 1.05742C8.99909 3.0793 8.99909 5.10117 8.99596 7.12617V7.58867Z" fill="#337AB7"/>
</g>
<defs>
<clipPath id="clip0_11_15098">
<rect width="16" height="16" fill="white"/>
</clipPath>
</defs>
</svg>
