<svg width="16" height="16" viewBox="0 0 16 16" fill="none" xmlns="http://www.w3.org/2000/svg">
<g clip-path="url(#clip0_8_49632)">
<path d="M9.33716 9.80304C8.93909 10.0684 8.47672 10.2087 8 10.2087C7.52331 10.2087 7.06094 10.0684 6.66288 9.80304L0.106531 5.43201C0.0701562 5.40776 0.0347187 5.38248 0 5.35648V12.5189C0 13.3401 0.666406 13.9918 1.47291 13.9918H14.5271C15.3482 13.9918 16 13.3254 16 12.5189V5.35645C15.9652 5.38251 15.9297 5.40785 15.8932 5.43213L9.33716 9.80304Z" fill="#24384A"/>
<path d="M0.626562 4.65229L7.18291 9.02335C7.43109 9.18882 7.71553 9.27154 7.99997 9.27154C8.28444 9.27154 8.56891 9.18879 8.81709 9.02335L15.3734 4.65229C15.7658 4.39088 16 3.95338 16 3.4812C16 2.66929 15.3395 2.00879 14.5276 2.00879H1.47241C0.660531 2.00882 0 2.66932 0 3.48198C0 3.95338 0.23425 4.39088 0.626562 4.65229Z" fill="#24384A"/>
</g>
<defs>
<clipPath id="clip0_8_49632">
<rect width="16" height="16" fill="white"/>
</clipPath>
</defs>
</svg>
