<svg width="16" height="16" viewBox="0 0 16 16" fill="none" xmlns="http://www.w3.org/2000/svg">
<path d="M13.1162 13.1166L2.88303 2.88381L2.88085 2.88131C2.82545 2.82636 2.75976 2.78286 2.68755 2.75329C2.61534 2.72372 2.53801 2.70867 2.45998 2.70899C2.38195 2.70931 2.30475 2.72499 2.23278 2.75515C2.16081 2.78531 2.09548 2.82934 2.04053 2.88474C1.98558 2.94014 1.94209 3.00583 1.91252 3.07804C1.88295 3.15025 1.8679 3.22758 1.86822 3.30561C1.86886 3.4632 1.93208 3.61408 2.04397 3.72506L2.93991 4.62099C1.85338 5.36513 0.918149 6.30896 0.183972 7.40224C0.0640816 7.57925 0 7.78814 0 8.00193C0 8.21572 0.0640816 8.42461 0.183972 8.60162C2.05803 11.3754 5.02897 13.0004 7.99991 12.9801C8.96224 12.9835 9.91817 12.8233 10.8268 12.5063L12.2771 13.9566C12.3888 14.0648 12.5385 14.1247 12.694 14.1237C12.8495 14.1226 12.9984 14.0606 13.1087 13.951C13.2189 13.8413 13.2818 13.6928 13.2837 13.5373C13.2856 13.3818 13.2265 13.2318 13.119 13.1194L13.1162 13.1166ZM7.99991 11.3672C7.43703 11.367 6.88318 11.2258 6.38898 10.9563C5.89477 10.6869 5.47597 10.2979 5.17084 9.82493C4.86571 9.35193 4.68399 8.81 4.64229 8.24867C4.60058 7.68735 4.70022 7.12451 4.9321 6.61162L5.86803 7.54755C5.79265 7.9028 5.80721 8.27126 5.91041 8.61945C6.01361 8.96763 6.20218 9.28452 6.45897 9.54131C6.71576 9.7981 7.03264 9.98666 7.38083 10.0899C7.72902 10.1931 8.09747 10.2076 8.45272 10.1322L9.38866 11.0682C8.95244 11.266 8.47888 11.368 7.99991 11.3672Z" fill="#8B97A4"/>
<path d="M15.8166 7.4007C13.9426 4.62538 10.9716 3.00038 8.0007 3.0207C7.03837 3.01721 6.08245 3.17741 5.17383 3.49445L6.61133 4.93195C7.2351 4.64966 7.9301 4.56418 8.60369 4.6869C9.27727 4.80963 9.89746 5.13472 10.3816 5.61886C10.8657 6.103 11.1908 6.72319 11.3136 7.39678C11.4363 8.07036 11.3508 8.76536 11.0685 9.38913L13.0604 11.381C14.1471 10.637 15.0825 9.69315 15.8166 8.59976C15.9365 8.42278 16.0005 8.21395 16.0005 8.00023C16.0005 7.7865 15.9365 7.57768 15.8166 7.4007Z" fill="#8B97A4"/>
<path d="M7.99969 5.82129C7.84751 5.82131 7.69575 5.83723 7.54688 5.86879L10.1316 8.45316C10.199 8.13563 10.1946 7.80706 10.1187 7.49144C10.0429 7.17582 9.89749 6.88113 9.69318 6.6289C9.48886 6.37666 9.23078 6.17325 8.93779 6.03353C8.6448 5.8938 8.32429 5.82129 7.99969 5.82129Z" fill="#8B97A4"/>
</svg>
