<svg width="44" height="44" viewBox="0 0 44 44" fill="none" xmlns="http://www.w3.org/2000/svg">
<rect width="44" height="44" rx="8" fill="#ECF8FD"/>
<path d="M29.1503 12H14.2345C13.5548 12 13 12.5548 13 13.2384V15.5942C13 15.8989 13.1133 16.1919 13.3164 16.4224L19.1804 22.9466V28.1073C19.1804 28.6777 19.4578 29.2129 19.9227 29.5411L23.2238 31.8851C23.5051 32.0843 23.8958 32.0179 24.095 31.7366C24.1693 31.6312 24.2083 31.5061 24.2083 31.3772V22.9466L30.0723 16.4224C30.2754 16.1958 30.3887 15.8989 30.3887 15.5942V13.2384C30.3848 12.5548 29.8301 12 29.1503 12Z" fill="#337AB7"/>
</svg>
