<svg width="10" height="10" viewBox="0 0 10 10" fill="none" xmlns="http://www.w3.org/2000/svg">
<path d="M7.6875 0.193231C7.925 -0.0124607 8.2575 -0.0593271 8.54 0.0786686C8.8225 0.216664 9 0.510881 9 0.833739L9 9.16555C9 9.48841 8.82 9.78262 8.54 9.92062C8.26 10.0586 7.9275 10.0144 7.6875 9.80606L2.8875 5.64015L2.6 5.3902L2.6 9.16555C2.6 9.6264 2.2425 9.99873 1.8 9.99873C1.3575 9.99873 1 9.6264 1 9.16555L1 0.833739C1 0.372886 1.3575 0.000557899 1.8 0.000557899C2.2425 0.000557899 2.6 0.372886 2.6 0.833739L2.6 4.60909L2.8875 4.35914L7.6875 0.193231Z" fill="#8B97A4"/>
</svg>
