<svg width="36" height="36" viewBox="0 0 36 36" fill="none" xmlns="http://www.w3.org/2000/svg">
<g clip-path="url(#clip0_27_41006)">
<path d="M36 11.9786V31.8906C35.9989 32.9511 35.5772 33.9679 34.8273 34.7178C34.0773 35.4677 33.0605 35.8895 32 35.8906H25.3333C24.6261 35.8906 23.9478 35.6096 23.4477 35.1095C22.9476 34.6094 22.6667 33.9312 22.6667 33.2239V25.8906C22.6667 25.537 22.5262 25.1978 22.2761 24.9478C22.0261 24.6977 21.687 24.5572 21.3333 24.5572H14.6667C14.313 24.5572 13.9739 24.6977 13.7239 24.9478C13.4738 25.1978 13.3333 25.537 13.3333 25.8906V33.2239C13.3333 33.9312 13.0524 34.6094 12.5523 35.1095C12.0522 35.6096 11.3739 35.8906 10.6667 35.8906H4C2.93946 35.8895 1.92266 35.4677 1.17274 34.7178C0.422826 33.9679 0.00105895 32.9511 0 31.8906V11.9786C0.000997722 11.5181 0.120657 11.0656 0.347432 10.6649C0.574207 10.2641 0.900444 9.92855 1.29467 9.69058L16.628 0.490577C17.0425 0.24178 17.5169 0.110352 18.0003 0.110352C18.4838 0.110352 18.9581 0.24178 19.3727 0.490577L34.706 9.69058C35.1001 9.92863 35.4262 10.2642 35.6529 10.665C35.8795 11.0658 35.9991 11.5182 36 11.9786Z" fill="#24384A"/>
</g>
<defs>
<clipPath id="clip0_27_41006">
<rect width="36" height="36" fill="white"/>
</clipPath>
</defs>
</svg>
