<svg width="16" height="16" viewBox="0 0 16 16" fill="none" xmlns="http://www.w3.org/2000/svg">
<path fill-rule="evenodd" clip-rule="evenodd" d="M2.09934 0H7.45071L11.9835 4.72896V13.9163C11.9835 15.0664 11.0499 16 9.89975 16H2.09934C0.949238 16 0.015625 15.0664 0.015625 13.9163V2.08372C0.015625 0.933613 0.949238 0 2.09934 0Z" fill="#357935"/>
<path opacity="0.302" fill-rule="evenodd" clip-rule="evenodd" d="M7.44336 0V4.68836H11.9829L7.44336 0Z" fill="white"/>
<path fill-rule="evenodd" clip-rule="evenodd" d="M8.03283 7.99707H3.96688C3.66244 7.99707 3.41211 8.24738 3.41211 8.55184V11.1362C3.41211 11.4406 3.66242 11.691 3.96688 11.691H8.03283C8.33726 11.691 8.58082 11.4406 8.58082 11.1362V8.55182C8.58082 8.24738 8.33728 7.99707 8.03283 7.99707ZM5.07639 8.69389C5.40789 8.69389 5.67173 8.9645 5.67173 9.28923C5.67173 9.62074 5.40789 9.89135 5.07639 9.89135C4.74489 9.89135 4.47428 9.62074 4.47428 9.28923C4.47428 8.9645 4.74489 8.69389 5.07639 8.69389ZM8.2155 11.1362C8.2155 11.2377 8.13431 11.3256 8.03283 11.3256H3.96688C3.86539 11.3256 3.7842 11.2377 3.7842 11.1362V11.0279L4.52162 10.2905L5.13051 10.8994C5.20492 10.9738 5.31993 10.9738 5.39434 10.8994L6.92332 9.37044L8.2155 10.6626V11.1362Z" fill="white"/>
</svg>
