<svg width="16" height="16" viewBox="0 0 16 16" fill="none" xmlns="http://www.w3.org/2000/svg">
<path d="M14.5285 2.00879H5.48998C4.67811 2.00879 4.01758 2.66932 4.01758 3.4822C4.01758 4.29407 4.67811 4.9546 5.48998 4.9546H14.5285C15.3404 4.9546 16.0009 4.29407 16.0009 3.4822C16.0009 2.66929 15.3404 2.00879 14.5285 2.00879Z" fill="#24384A"/>
<path d="M1.47294 2.00879C0.660781 2.00879 0 2.66954 0 3.4817C0 4.29385 0.660781 4.9546 1.47294 4.9546C2.28509 4.9546 2.94584 4.29385 2.94584 3.4817C2.94584 2.66954 2.28509 2.00879 1.47294 2.00879Z" fill="#24384A"/>
<path d="M1.47294 6.52734C0.660781 6.52734 0 7.18809 0 8.00025C0 8.81241 0.660781 9.47316 1.47294 9.47316C2.28509 9.47316 2.94584 8.81241 2.94584 8.00025C2.94584 7.18809 2.28509 6.52734 1.47294 6.52734Z" fill="#24384A"/>
<path d="M1.47294 11.0459C0.660781 11.0459 0 11.7066 0 12.5188C0 13.331 0.660781 13.9917 1.47294 13.9917C2.28509 13.9917 2.94584 13.331 2.94584 12.5188C2.94584 11.7066 2.28509 11.0459 1.47294 11.0459Z" fill="#24384A"/>
<path d="M14.5285 6.52734H5.48998C4.67811 6.52734 4.01758 7.18787 4.01758 8.00075C4.01758 8.81262 4.67811 9.47316 5.48998 9.47316H14.5285C15.3404 9.47316 16.0009 8.81262 16.0009 8.00075C16.0009 7.18784 15.3404 6.52734 14.5285 6.52734Z" fill="#24384A"/>
<path d="M14.5285 11.0459H5.48998C4.67811 11.0459 4.01758 11.7064 4.01758 12.5193C4.01758 13.3312 4.67811 13.9917 5.48998 13.9917H14.5285C15.3404 13.9917 16.0009 13.3312 16.0009 12.5193C16.0009 11.7064 15.3404 11.0459 14.5285 11.0459Z" fill="#24384A"/>
</svg>
