<svg width="28" height="32" viewBox="0 0 28 32" fill="none" xmlns="http://www.w3.org/2000/svg">
<g clip-path="url(#clip0_9_2534)">
<path d="M14 1.33333C14.6912 1.33333 15.3475 1.48889 15.7981 1.76L24.8675 7.22667C25.8213 7.8 26.6919 9.37778 26.6919 10.5378V21.4667C26.6919 22.6222 25.8213 24.2044 24.8675 24.7778L15.7981 30.2444C15.3475 30.5156 14.6956 30.6711 14.0044 30.6711C13.3131 30.6711 12.6569 30.5156 12.2106 30.2444L3.13688 24.7733C2.18313 24.2 1.3125 22.6222 1.3125 21.4622V10.5333C1.3125 9.37778 2.18313 7.79556 3.13688 7.22222L12.2063 1.76C12.6569 1.48889 13.3088 1.33333 14 1.33333ZM14 0C13.1075 0 12.2106 0.204444 11.5325 0.613333L2.4675 6.07556C1.11125 6.89333 0 8.90222 0 10.5333V21.4622C0 23.0978 1.11125 25.1067 2.4675 25.92L11.5369 31.3867C12.215 31.7956 13.1075 32 14.0044 32C14.9012 32 15.7938 31.7956 16.4719 31.3867L25.5413 25.92C26.8975 25.1022 28.0087 23.0978 28.0087 21.4622V10.5333C28.0087 8.89778 26.8975 6.89333 25.5413 6.07556L16.4675 0.613333C15.7894 0.204444 14.8925 0 14 0Z" fill="#24384A"/>
<path d="M18.192 8.93339L14.3609 10.4401L21.3698 13.2978L24.6987 11.9867C24.9653 11.8801 24.9698 11.5023 24.6987 11.3956L18.6631 8.93339C18.512 8.87116 18.3431 8.87116 18.1875 8.93339H18.192ZM10.0586 8.93339L4.01865 11.3956C3.75198 11.5023 3.75643 11.8801 4.01865 11.9867L7.34754 13.2978L14.3564 10.4401L10.5253 8.93339C10.3742 8.87561 10.2053 8.87561 10.0498 8.93339H10.0586ZM7.35198 13.2934V19.8756C7.35198 20.1334 7.50754 20.3689 7.74754 20.4667L14.1209 23.0623C14.2764 23.1245 14.4453 23.1245 14.6009 23.0623L20.9742 20.4667C21.2142 20.3689 21.3698 20.1378 21.3698 19.8756V13.2934L14.3609 16.1467L7.35198 13.2934Z" fill="#24384A"/>
</g>
<defs>
<clipPath id="clip0_9_2534">
<rect width="28" height="32" fill="white"/>
</clipPath>
</defs>
</svg>
