<svg width="16" height="16" viewBox="0 0 16 16" fill="none" xmlns="http://www.w3.org/2000/svg">
<path d="M2.29167 8.29163C2.48617 8.09712 2.7222 8.00004 3.00011 8.00004H10.6667V4.66673C10.6667 3.9305 10.4063 3.30211 9.88541 2.78124C9.36451 2.26049 8.73608 2.00005 7.99991 2.00005C7.26381 2.00005 6.63528 2.26045 6.11459 2.78124C5.59368 3.30211 5.33321 3.93053 5.33321 4.66673C5.33321 4.84723 5.26728 5.00346 5.13546 5.13539C5.00335 5.26736 4.84704 5.33336 4.66673 5.33336H3.99974C3.81932 5.33336 3.66309 5.26736 3.53097 5.13539C3.3994 5.00346 3.33322 4.84723 3.33322 4.66673C3.33322 3.38186 3.78984 2.28311 4.70293 1.36984C5.61616 0.456541 6.71522 0 7.99991 0C9.28471 0 10.3837 0.456541 11.297 1.36981C12.2101 2.28296 12.6667 3.38183 12.6667 4.6667V8H13C13.2777 8 13.5139 8.09731 13.7083 8.29159C13.9028 8.48588 14 8.72212 14 8.99992V15C14 15.2779 13.9028 15.5141 13.7083 15.7084C13.5139 15.9027 13.2777 16 13 16H3.00011C2.7222 16 2.48595 15.9027 2.29167 15.7084C2.09738 15.5141 2 15.2779 2 15V8.99995C1.99985 8.72215 2.09712 8.48617 2.29167 8.29163Z" fill="#24384A"/>
</svg>
