<svg width="16" height="16" viewBox="0 0 16 16" fill="none" xmlns="http://www.w3.org/2000/svg">
<path d="M14.2274 7.59092C14.0152 7.37878 13.7577 7.27279 13.4545 7.27279H13.0911V5.09085C13.0911 3.69693 12.5913 2.50007 11.5912 1.50007C10.5912 0.500022 9.3945 0 8.00038 0C6.60631 0 5.40933 0.500022 4.40944 1.50003C3.4094 2.50007 2.90953 3.69689 2.90953 5.09085V7.27279H2.54595C2.24302 7.27279 1.98539 7.37878 1.77325 7.59092C1.56111 7.8029 1.45508 8.06054 1.45508 8.36374V14.9091C1.45508 15.2121 1.56115 15.4698 1.77325 15.6819C1.98539 15.8939 2.24302 16 2.54595 16H13.4548C13.758 16 14.0154 15.894 14.2276 15.6819C14.4396 15.4698 14.5458 15.2121 14.5458 14.9091V8.36362C14.546 8.06066 14.4396 7.80306 14.2274 7.59092ZM10.9094 7.27279H5.09135V5.09085C5.09135 4.28786 5.3755 3.60221 5.94366 3.03412C6.5119 2.46596 7.19744 2.18194 8.0005 2.18194C8.80365 2.18194 9.48903 2.46592 10.0573 3.03412C10.6253 3.60217 10.9094 4.28786 10.9094 5.09085V7.27279Z" fill="#24384A"/>
</svg>
