<svg width="28" height="32" viewBox="0 0 28 32" fill="none" xmlns="http://www.w3.org/2000/svg">
<g clip-path="url(#clip0_9_2539)">
<path d="M14 1.33333C14.6912 1.33333 15.3475 1.48889 15.7981 1.76L24.8675 7.22667C25.8213 7.8 26.6919 9.37778 26.6919 10.5378V21.4667C26.6919 22.6222 25.8213 24.2044 24.8675 24.7778L15.7981 30.2444C15.3475 30.5156 14.6956 30.6711 14.0044 30.6711C13.3131 30.6711 12.6569 30.5156 12.2106 30.2444L3.13688 24.7733C2.18313 24.2 1.3125 22.6222 1.3125 21.4622V10.5333C1.3125 9.37778 2.18313 7.79556 3.13688 7.22222L12.2063 1.76C12.6569 1.48889 13.3088 1.33333 14 1.33333ZM14 0C13.1075 0 12.2106 0.204444 11.5325 0.613333L2.4675 6.07556C1.11125 6.89333 0 8.90222 0 10.5333V21.4622C0 23.0978 1.11125 25.1067 2.4675 25.92L11.5369 31.3867C12.215 31.7956 13.1075 32 14.0044 32C14.9012 32 15.7938 31.7956 16.4719 31.3867L25.5413 25.92C26.8975 25.1022 28.0087 23.0978 28.0087 21.4622V10.5333C28.0087 8.89778 26.8975 6.89333 25.5413 6.07556L16.4675 0.613333C15.7894 0.204444 14.8925 0 14 0Z" fill="#24384A"/>
<path d="M16.1875 8V12H20.1875L16.1875 8ZM15.1875 12V8H9.07639C8.5875 8 8.1875 8.4 8.1875 8.88889V23.1111C8.1875 23.6 8.5875 24 9.07639 24H19.2986C19.7875 24 20.1875 23.6 20.1875 23.1111V13H16.2142C15.6319 13 15.1875 12.5511 15.1875 12ZM16.6897 21H11.6897C11.4142 21 11.1875 20.7733 11.1875 20.5022C11.1875 20.2311 11.4142 20 11.6897 20H16.6897C16.9653 20 17.1875 20.2222 17.1875 20.5022C17.1875 20.7822 16.9608 21 16.6897 21ZM16.6897 19H11.6897C11.4142 19 11.1875 18.7733 11.1875 18.4978C11.1875 18.2222 11.4142 18 11.6897 18H16.6897C16.9653 18 17.1875 18.2222 17.1875 18.4978C17.1875 18.7733 16.9608 19 16.6897 19ZM17.1875 16.4978C17.1875 16.7733 16.9608 17 16.6897 17H11.6897C11.4142 17 11.1875 16.7733 11.1875 16.4978C11.1875 16.2222 11.4142 15.9956 11.6897 15.9956H16.6897C16.9653 15.9956 17.1875 16.2222 17.1875 16.4978Z" fill="#24384A"/>
</g>
<defs>
<clipPath id="clip0_9_2539">
<rect width="28" height="32" fill="white"/>
</clipPath>
</defs>
</svg>
