<svg width="16" height="16" viewBox="0 0 16 16" fill="none" xmlns="http://www.w3.org/2000/svg">
<path fill-rule="evenodd" clip-rule="evenodd" d="M2.09858 0H7.4479L11.9816 4.72564V13.917C11.9816 15.0685 11.0501 16 9.90266 16H2.09858C0.947156 16 0.015625 15.0685 0.015625 13.917V2.08295C0.0156048 0.931531 0.947136 0 2.09858 0Z" fill="#B73333"/>
<path opacity="0.302" fill-rule="evenodd" clip-rule="evenodd" d="M7.44336 0V4.68966H11.9811L7.44336 0Z" fill="white"/>
<path d="M2.33008 11.9382V9.01562H3.57346C3.88131 9.01562 4.12519 9.09958 4.3091 9.2715C4.493 9.43941 4.58497 9.66731 4.58497 9.95116C4.58497 10.235 4.493 10.4629 4.3091 10.6308C4.12519 10.8027 3.88131 10.8867 3.57346 10.8867H3.0777V11.9382H2.33008ZM3.0777 10.251H3.4895C3.60144 10.251 3.6894 10.227 3.74938 10.1711C3.80934 10.1191 3.84134 10.0471 3.84134 9.95118C3.84134 9.85523 3.80936 9.78326 3.74938 9.73129C3.68942 9.67531 3.60146 9.65134 3.4895 9.65134H3.0777V10.251ZM4.89279 11.9382V9.01562H5.92828C6.13217 9.01562 6.32408 9.0436 6.50399 9.10358C6.68389 9.16354 6.84782 9.24752 6.99174 9.36346C7.13567 9.4754 7.25161 9.62732 7.33557 9.81923C7.41552 10.0111 7.45951 10.231 7.45951 10.4789C7.45951 10.7228 7.41554 10.9427 7.33557 11.1346C7.25161 11.3265 7.13567 11.4784 6.99174 11.5903C6.8478 11.7063 6.68389 11.7902 6.50399 11.8502C6.32408 11.9102 6.13217 11.9382 5.92828 11.9382H4.89279ZM5.62443 11.3025H5.84032C5.95625 11.3025 6.06421 11.2905 6.16416 11.2625C6.2601 11.2345 6.35206 11.1905 6.44002 11.1306C6.52398 11.0706 6.59195 10.9866 6.63992 10.8747C6.68789 10.7628 6.71189 10.6308 6.71189 10.4789C6.71189 10.323 6.68789 10.191 6.63992 10.0791C6.59195 9.96717 6.52398 9.88321 6.44002 9.82323C6.35206 9.76327 6.26012 9.71928 6.16416 9.6913C6.06421 9.66332 5.95625 9.65132 5.84032 9.65132H5.62443V11.3025ZM7.83533 11.9382V9.01562H9.9143V9.65132H8.58295V10.1191H9.64641V10.7508H8.58295V11.9382H7.83533Z" fill="white"/>
</svg>
