<svg width="10" height="10" viewBox="0 0 10 10" fill="none" xmlns="http://www.w3.org/2000/svg">
<path d="M9.99997 4.04623V5.95377C9.99997 6.09737 9.88362 6.21389 9.73985 6.21389H6.21389V9.73985C6.21389 9.88365 6.09737 9.99997 5.95377 9.99997H4.04623C3.90272 9.99997 3.78611 9.88362 3.78611 9.73985V6.21389H0.26012C0.116408 6.21389 0 6.09737 0 5.95377V4.04623C0 3.9026 0.116408 3.78611 0.26012 3.78611H3.78611V0.26012C3.78611 0.116351 3.90269 0 4.04623 0H5.95377C6.09737 0 6.21389 0.116351 6.21389 0.26012V3.78611H9.73985C9.88365 3.78611 9.99997 3.9026 9.99997 4.04623Z" fill="#384B5C"/>
</svg>
