<svg width="44" height="44" viewBox="0 0 44 44" fill="none" xmlns="http://www.w3.org/2000/svg">
<rect width="44" height="44" rx="8" fill="#ECF8FD"/>
<path d="M32 29C32 29.1313 31.9742 29.2614 31.9239 29.3827C31.8737 29.5041 31.8 29.6143 31.7072 29.7072C31.6143 29.8001 31.5041 29.8737 31.3827 29.924C31.2614 29.9742 31.1313 30 31 30H21.8157C21.612 30.5843 21.2314 31.0908 20.7269 31.4492C20.2224 31.8076 19.6189 32.0001 19 32.0001C18.3812 32.0001 17.7777 31.8076 17.2731 31.4492C16.7686 31.0908 16.3881 30.5843 16.1843 30H13C12.7348 30 12.4804 29.8947 12.2929 29.7071C12.1054 29.5196 12 29.2652 12 29C12 28.7348 12.1054 28.4804 12.2929 28.2929C12.4804 28.1054 12.7348 28 13 28H16.1843C16.3881 27.4157 16.7686 26.9092 17.2731 26.5509C17.7776 26.1925 18.3812 26 19 26C19.6188 26 20.2224 26.1925 20.7269 26.5509C21.2314 26.9092 21.6119 27.4157 21.8157 28H31C31.1313 28 31.2614 28.0258 31.3827 28.0761C31.5041 28.1263 31.6143 28.2 31.7072 28.2928C31.8 28.3857 31.8737 28.4959 31.9239 28.6173C31.9742 28.7386 32 28.8687 32 29ZM31 21H28.8157C28.6119 20.4157 28.2314 19.9092 27.7269 19.5509C27.2224 19.1925 26.6188 19 26 19C25.3812 19 24.7776 19.1925 24.2731 19.5509C23.7686 19.9092 23.3881 20.4157 23.1843 21H13C12.7348 21 12.4804 21.1054 12.2929 21.2929C12.1054 21.4804 12 21.7348 12 22C12 22.2652 12.1054 22.5196 12.2929 22.7071C12.4804 22.8947 12.7348 23 13 23H23.1843C23.3881 23.5843 23.7686 24.0908 24.2731 24.4492C24.7777 24.8076 25.3812 25.0001 26 25.0001C26.6189 25.0001 27.2224 24.8076 27.7269 24.4492C28.2314 24.0908 28.612 23.5843 28.8157 23H31C31.2652 23 31.5196 22.8947 31.7071 22.7071C31.8946 22.5196 32 22.2652 32 22C32 21.7348 31.8946 21.4804 31.7071 21.2929C31.5196 21.1054 31.2652 21 31 21ZM13 16H18.1843C18.3881 16.5843 18.7686 17.0908 19.2731 17.4492C19.7777 17.8076 20.3812 18.0001 21 18.0001C21.6189 18.0001 22.2224 17.8076 22.7269 17.4492C23.2314 17.0908 23.612 16.5843 23.8157 16H31C31.2652 16 31.5196 15.8947 31.7071 15.7071C31.8946 15.5196 32 15.2652 32 15C32 14.7348 31.8946 14.4804 31.7071 14.2929C31.5196 14.1054 31.2652 14 31 14H23.8157C23.6119 13.4157 23.2314 12.9092 22.7269 12.5509C22.2224 12.1925 21.6188 12 21 12C20.3812 12 19.7776 12.1925 19.2731 12.5509C18.7686 12.9092 18.3881 13.4157 18.1843 14H13C12.7348 14 12.4804 14.1054 12.2929 14.2929C12.1054 14.4804 12 14.7348 12 15C12 15.2652 12.1054 15.5196 12.2929 15.7071C12.4804 15.8947 12.7348 16 13 16Z" fill="#337AB7"/>
</svg>
