<svg width="24" height="24" viewBox="0 0 24 24" fill="none" xmlns="http://www.w3.org/2000/svg">
<path d="M13.4692 7.53032C13.6098 7.67077 13.8004 7.74966 13.9992 7.74966C14.1979 7.74966 14.3886 7.67077 14.5292 7.53032L15.2492 6.81032V17.0003C15.2492 17.1992 15.3282 17.39 15.4688 17.5306C15.6095 17.6713 15.8003 17.7503 15.9992 17.7503C16.1981 17.7503 16.3889 17.6713 16.5295 17.5306C16.6702 17.39 16.7492 17.1992 16.7492 17.0003V6.81032L17.4692 7.53032C17.5378 7.604 17.6206 7.66311 17.7126 7.7041C17.8046 7.74509 17.904 7.76713 18.0047 7.76891C18.1054 7.77068 18.2054 7.75216 18.2988 7.71444C18.3922 7.67672 18.477 7.62057 18.5482 7.54936C18.6194 7.47814 18.6756 7.3933 18.7133 7.29991C18.751 7.20653 18.7695 7.1065 18.7678 7.00579C18.766 6.90509 18.7439 6.80578 18.703 6.71378C18.662 6.62178 18.6029 6.53898 18.5292 6.47032L16.5292 4.47032C16.3886 4.32987 16.1979 4.25098 15.9992 4.25098C15.8004 4.25098 15.6098 4.32987 15.4692 4.47032L13.4692 6.47032C13.3287 6.61094 13.2498 6.80157 13.2498 7.00032C13.2498 7.19907 13.3287 7.38969 13.4692 7.53032ZM8.74918 17.1903L9.46918 16.4703C9.53784 16.3966 9.62064 16.3375 9.71264 16.2965C9.80464 16.2555 9.90395 16.2335 10.0047 16.2317C10.1054 16.2299 10.2054 16.2485 10.2988 16.2862C10.3922 16.3239 10.477 16.3801 10.5482 16.4513C10.6194 16.5225 10.6756 16.6073 10.7133 16.7007C10.751 16.7941 10.7695 16.8941 10.7678 16.9948C10.766 17.0955 10.7439 17.1949 10.703 17.2869C10.662 17.3789 10.6029 17.4617 10.5292 17.5303L8.52918 19.5303C8.38855 19.6708 8.19793 19.7497 7.99918 19.7497C7.80043 19.7497 7.6098 19.6708 7.46918 19.5303L5.46918 17.5303C5.39549 17.4617 5.33639 17.3789 5.2954 17.2869C5.2544 17.1949 5.23236 17.0955 5.23059 16.9948C5.22881 16.8941 5.24733 16.7941 5.28505 16.7007C5.32278 16.6073 5.37892 16.5225 5.45014 16.4513C5.52136 16.3801 5.60619 16.3239 5.69958 16.2862C5.79297 16.2485 5.893 16.2299 5.9937 16.2317C6.0944 16.2335 6.19372 16.2555 6.28571 16.2965C6.37771 16.3375 6.46052 16.3966 6.52918 16.4703L7.24918 17.1903V7.00032C7.24918 6.8014 7.32819 6.61064 7.46885 6.46999C7.6095 6.32933 7.80026 6.25032 7.99918 6.25032C8.19809 6.25032 8.38885 6.32933 8.52951 6.46999C8.67016 6.61064 8.74918 6.8014 8.74918 7.00032V17.1903Z" fill="#8B97A4"/>
</svg>
