<svg width="28" height="32" viewBox="0 0 28 32" fill="none" xmlns="http://www.w3.org/2000/svg">
<g clip-path="url(#clip0_9_2548)">
<path d="M14 1.33333C14.6912 1.33333 15.3475 1.48889 15.7981 1.76L24.8675 7.22667C25.8213 7.8 26.6919 9.37778 26.6919 10.5378V21.4667C26.6919 22.6222 25.8213 24.2044 24.8675 24.7778L15.7981 30.2444C15.3475 30.5156 14.6956 30.6711 14.0044 30.6711C13.3131 30.6711 12.6569 30.5156 12.2106 30.2444L3.13688 24.7733C2.18313 24.2 1.3125 22.6222 1.3125 21.4622V10.5333C1.3125 9.37778 2.18313 7.79556 3.13688 7.22222L12.2063 1.76C12.6569 1.48889 13.3088 1.33333 14 1.33333ZM14 0C13.1075 0 12.2106 0.204444 11.5325 0.613333L2.4675 6.07556C1.11125 6.89333 0 8.90222 0 10.5333V21.4622C0 23.0978 1.11125 25.1067 2.4675 25.92L11.5369 31.3867C12.215 31.7956 13.1075 32 14.0044 32C14.9012 32 15.7938 31.7956 16.4719 31.3867L25.5413 25.92C26.8975 25.1022 28.0087 23.0978 28.0087 21.4622V10.5333C28.0087 8.89778 26.8975 6.89333 25.5413 6.07556L16.4675 0.613333C15.7894 0.204444 14.8925 0 14 0Z" fill="#24384A"/>
<path d="M13.3825 10.0264C13.3825 9.39978 12.8714 8.88867 12.2447 8.88867H8.20028C7.57361 8.88867 7.0625 9.39978 7.0625 10.0264V14.0709C7.0625 14.702 7.57361 15.2087 8.20028 15.2087H12.2447C12.8758 15.2087 13.3825 14.6976 13.3825 14.0709V10.0264Z" fill="#24384A"/>
<path d="M21.2848 10.0264C21.2848 9.39978 20.7737 8.88867 20.1471 8.88867H16.1026C15.4715 8.88867 14.9648 9.39978 14.9648 10.0264V14.0709C14.9648 14.702 15.476 15.2087 16.1026 15.2087H20.1471C20.7737 15.2087 21.2848 14.6976 21.2848 14.0709V10.0264Z" fill="#24384A"/>
<path d="M13.3825 17.9288C13.3825 17.2977 12.8714 16.791 12.2447 16.791H8.20028C7.57361 16.791 7.0625 17.3021 7.0625 17.9288V21.9732C7.0625 22.5999 7.57361 23.111 8.20028 23.111H12.2447C12.8758 23.111 13.3825 22.5999 13.3825 21.9732V17.9288Z" fill="#24384A"/>
<path d="M21.2848 17.9288C21.2848 17.2977 20.7737 16.791 20.1471 16.791H16.1026C15.4715 16.791 14.9648 17.3021 14.9648 17.9288V21.9732C14.9648 22.5999 15.476 23.111 16.1026 23.111H20.1471C20.7737 23.111 21.2848 22.5999 21.2848 21.9732V17.9288Z" fill="#24384A"/>
</g>
<defs>
<clipPath id="clip0_9_2548">
<rect width="28" height="32" fill="white"/>
</clipPath>
</defs>
</svg>
