<svg width="16" height="16" viewBox="0 0 16 16" fill="none" xmlns="http://www.w3.org/2000/svg">
<path d="M13.75 2H11V1.5C11 0.671562 10.3284 0 9.5 0H7.5C6.67156 0 6 0.671562 6 1.5V2H3.25C2.55966 2 2 2.55966 2 3.25V4.25C2 4.52616 2.22384 4.75 2.5 4.75H14.5C14.7762 4.75 15 4.52616 15 4.25V3.25C15 2.55966 14.4403 2 13.75 2ZM7 1.5C7 1.22438 7.22437 1 7.5 1H9.5C9.77563 1 10 1.22438 10 1.5V2H7V1.5Z" fill="#B73333"/>
<path d="M2.9414 5.75C2.85218 5.75 2.78109 5.82456 2.78534 5.91369L3.19784 14.5712C3.23596 15.3725 3.89409 16 4.69596 16H12.2891C13.091 16 13.7491 15.3725 13.7872 14.5712L14.1997 5.91369C14.204 5.82456 14.1329 5.75 14.0436 5.75H2.9414ZM10.4925 7C10.4925 6.72375 10.7163 6.5 10.9925 6.5C11.2688 6.5 11.4925 6.72375 11.4925 7V13.5C11.4925 13.7762 11.2688 14 10.9925 14C10.7163 14 10.4925 13.7762 10.4925 13.5V7ZM7.99252 7C7.99252 6.72375 8.21627 6.5 8.49252 6.5C8.76877 6.5 8.99252 6.72375 8.99252 7V13.5C8.99252 13.7762 8.76877 14 8.49252 14C8.21627 14 7.99252 13.7762 7.99252 13.5V7ZM5.49252 7C5.49252 6.72375 5.71627 6.5 5.99252 6.5C6.26877 6.5 6.49252 6.72375 6.49252 7V13.5C6.49252 13.7762 6.26877 14 5.99252 14C5.71627 14 5.49252 13.7762 5.49252 13.5V7Z" fill="#B73333"/>
</svg>
